<svg width="24" height="24" viewBox="0 0 24 24" fill="none" xmlns="http://www.w3.org/2000/svg">
<path d="M4 17.9998V10.9998M8 17.9998V10.9998M12 17.9998V10.9998M16 17.9998V10.9998M20 17.9998V10.9998M1 21.9998H23M12.37 2.14984L21.37 5.74982C21.72 5.88982 22 6.30981 22 6.67981V9.99982C22 10.5498 21.55 10.9998 21 10.9998H3C2.45 10.9998 2 10.5498 2 9.99982V6.67981C2 6.30981 2.28 5.88982 2.63 5.74982L11.63 2.14984C11.83 2.06984 12.17 2.06984 12.37 2.14984ZM22 21.9998H2V18.9998C2 18.4498 2.45 17.9998 3 17.9998H21C21.55 17.9998 22 18.4498 22 18.9998V21.9998ZM13.5 6.99982C13.5 7.82824 12.8284 8.49982 12 8.49982C11.1716 8.49982 10.5 7.82824 10.5 6.99982C10.5 6.17139 11.1716 5.49982 12 5.49982C12.8284 5.49982 13.5 6.17139 13.5 6.99982Z" stroke="url(#paint0_linear_431_973)" stroke-width="1.5" stroke-miterlimit="10" stroke-linecap="round" stroke-linejoin="round"/>
<defs>
<linearGradient id="paint0_linear_431_973" x1="23" y1="12.0448" x2="1" y2="12.0448" gradientUnits="userSpaceOnUse">
<stop stop-color="#6E9D01"/>
<stop offset="1" stop-color="#296C02"/>
</linearGradient>
</defs>
</svg>
