<svg width="65" height="64" viewBox="0 0 65 64" fill="none" xmlns="http://www.w3.org/2000/svg">
<g clip-path="url(#clip0_431_864)">
<path fill-rule="evenodd" clip-rule="evenodd" d="M10.5256 55.5252C10.9262 55.9199 11.5239 56 12.0911 56H52.3672C53.2693 56 54.3443 55.9231 54.7594 55.1355C55.0243 54.6329 54.9773 53.9902 54.8321 53.0717C54.7236 52.3945 54.0699 51.9731 53.3565 51.9551C53.0439 51.9487 52.7307 51.9508 52.416 51.9529C52.1702 51.9546 51.9872 51.7334 52.0229 51.4943C52.1961 50.3359 52.0403 49.5178 51.5065 48.9656C50.6174 48.0456 49.4795 47.1754 49.4795 45.9061V35.1614C49.4795 33.6691 50.9417 32.5486 51.7625 31.2935C52.226 30.5847 52.2892 29.8438 52.0519 29.1001C51.9919 28.9119 52.0997 28.7057 52.2971 28.6708C52.5699 28.6225 52.8341 28.5758 53.0845 28.4936C54.2199 28.1118 54.9053 27.1537 54.9224 25.9722C54.9258 25.7389 54.9238 25.5051 54.9217 25.2713C54.9186 24.9206 54.9155 24.5699 54.9309 24.2206C54.9517 23.7619 54.7675 23.4761 54.3712 23.2361C52.0609 21.8374 49.9093 20.4381 47.7564 19.0379C45.64 17.6614 43.5225 16.2841 41.2517 14.9061C40.623 14.5247 39.9937 14.1441 39.3645 13.7636C37.6506 12.727 35.9367 11.6905 34.232 10.6366C32.8503 9.78899 32.141 9.78899 30.7507 10.6294C27.2701 12.7428 23.9489 14.8568 20.6266 16.9716C17.3678 19.0458 14.108 21.1208 10.6957 23.1964C10.2541 23.5087 10.0457 24.0356 10.0457 24.5705V25.9069C10.0457 26.2583 10.1372 26.6042 10.2966 26.9187C10.4788 27.2783 10.6613 27.6383 10.9201 27.9329C11.6927 28.8086 12.6259 29.8807 13.0236 30.9722C13.301 31.7333 13.9624 32.2005 15.0631 32.4511C15.3271 32.5112 15.5251 32.7355 15.5251 33.0019V40.6379C15.5163 40.7721 15.5204 40.9068 15.5373 41.0402C15.6105 41.4124 15.8495 41.6297 16.2348 41.6177C16.5971 41.6068 16.8214 41.3955 16.8824 41.0354C16.899 40.8867 16.9027 40.7369 16.8934 40.5875V33.0428C16.8934 32.7563 17.1296 32.5241 17.4208 32.5241H18.628C19.586 32.5241 20.3625 33.2878 20.3625 34.2299V46.4253C20.3625 47.368 19.5854 48.1323 18.6268 48.1323C17.6681 48.1323 16.891 47.368 16.891 46.4253V46.3313V44.2651C16.8873 43.7344 16.6398 43.4282 16.2154 43.4246C15.791 43.421 15.5239 43.7271 15.5239 44.2471V47.6088C15.5239 47.8992 15.2905 48.1331 15.0002 48.1863C14.2478 48.3242 13.6232 48.6919 13.1957 49.3521C12.7621 50.0219 12.687 50.723 12.9081 51.4747C12.9756 51.7041 12.8144 51.9469 12.5716 51.942C11.7874 51.9263 11.0114 51.9107 10.473 52.4448C10.0921 52.8227 10.0444 53.3974 10.0444 53.9295V53.9877C10.0444 54.5444 10.1257 55.1312 10.5256 55.5252ZM11.414 25.6757C11.414 25.0995 11.889 24.6324 12.4749 24.6324H41.4444C42.1481 24.6324 42.4762 24.4403 42.4884 23.9732C42.5006 23.5062 42.1627 23.2853 41.431 23.2853H13.4372C13.3689 23.2853 13.3399 23.1982 13.3947 23.158C13.4785 23.0964 13.5413 23.0503 13.608 23.0103C16.7811 21.0885 19.7889 19.1651 22.7993 17.2399C25.6619 15.4093 28.5268 13.5772 31.5385 11.7436C32.3788 11.2321 32.5551 11.2081 33.3942 11.7184C36.5074 13.6087 39.4653 15.4988 42.4231 17.3889C45.3906 19.2852 48.3581 21.1814 51.482 23.0776C51.5076 23.0936 51.533 23.1116 51.5674 23.1358C51.6325 23.1816 51.6 23.2853 51.5199 23.2853H45.4287H45.1092C44.6226 23.2985 44.3128 23.5686 44.3201 23.9684C44.3275 24.3682 44.6335 24.624 45.1311 24.6311H46.4543H53.0014C53.2905 24.6311 53.5266 24.8616 53.5358 25.1457C53.5479 25.523 53.5598 25.8918 53.5102 26.252C53.4211 26.9003 52.8553 27.3122 52.1845 27.3326H51.865H13.1067C11.9091 27.3326 11.414 26.8488 11.414 25.6757ZM41.2158 31.717C42.0682 32.563 43.1713 33.4709 43.1713 34.6619V45.9859C43.1713 47.1756 42.0784 48.0772 41.2212 48.9167C40.7656 49.363 40.4856 49.97 40.4726 50.6751C40.4611 51.2943 40.0363 51.931 39.4065 51.931C38.7678 51.931 38.3488 51.278 38.3393 50.65C38.3325 50.2038 38.2076 49.7683 37.9382 49.3521C37.1249 48.096 35.6503 46.9568 35.6503 45.4676V35.1834C35.6503 33.6795 37.1217 32.5483 37.9382 31.2766C38.207 30.8581 38.3341 30.4291 38.3421 29.9885C38.3535 29.3629 38.7676 28.7109 39.4038 28.7109C40.0314 28.7109 40.4552 29.3476 40.4694 29.9646C40.4855 30.6627 40.7649 31.2694 41.2158 31.717ZM27.0298 31.2815C27.8469 32.5397 29.3177 33.6857 29.3177 35.1787V46.0428C29.3177 47.2084 28.2667 48.0837 27.4135 48.8927C26.9351 49.3463 26.6565 49.9642 26.6419 50.6621C26.629 51.2827 26.2033 51.9263 25.5721 51.9263C24.9457 51.9263 24.5226 51.2932 24.5102 50.6773C24.4961 49.9778 24.2189 49.3753 23.7733 48.9311C22.9198 48.0804 21.8089 47.1705 21.8089 45.9754V35.186C21.8089 33.6862 23.2846 32.5592 24.1029 31.2935C24.3762 30.8708 24.507 30.4358 24.5151 29.9904C24.5265 29.3627 24.9408 28.7001 25.5792 28.7001C26.2109 28.7001 26.6251 29.3475 26.6294 29.9687C26.6327 30.4209 26.7573 30.8618 27.0298 31.2815ZM30.7246 42.0801C30.7242 41.4921 30.7238 40.9041 30.7238 40.3162C30.7238 39.7436 30.7243 39.1709 30.7248 38.5983C30.7263 36.7167 30.7278 34.8353 30.7129 32.9576C30.7129 32.5829 30.819 32.4688 31.2007 32.4773C32.2611 32.4983 32.7383 32.492 33.7758 32.4784L33.8612 32.4773C34.1601 32.4737 34.2515 32.5697 34.2515 32.8627C34.2425 37.8325 34.2425 42.8023 34.2515 47.7721C34.2515 48.0651 34.1601 48.1575 33.8612 48.1575C32.7514 48.1419 32.2641 48.1383 31.1544 48.1575C30.8129 48.1635 30.7166 48.0614 30.7166 47.7265C30.7267 45.8447 30.7257 43.9622 30.7246 42.0801ZM46.334 32.5217C47.2832 32.5217 48.0527 33.2784 48.0527 34.2119V46.4397C48.0527 47.3731 47.2832 48.1299 46.334 48.1299C45.3847 48.1299 44.6153 47.3731 44.6153 46.4397V34.2119C44.6153 33.2784 45.3847 32.5217 46.334 32.5217ZM12.1445 53.301H32.7934C39.2764 53.2969 45.7595 53.2969 52.8662 53.301C53.0869 53.301 53.4797 53.3646 53.4992 53.4595C53.5579 53.7466 53.5348 54.0483 53.5115 54.3523C53.5072 54.408 53.503 54.4638 53.4992 54.5196C53.4967 54.5677 53.3601 54.6277 53.2797 54.6397C53.1431 54.6527 53.0057 54.6555 52.8687 54.6481C38.6569 54.6553 26.3157 54.6553 12.103 54.6481C11.8823 54.6469 11.4908 54.582 11.4701 54.4872C11.4071 54.1845 11.4341 53.8609 11.4605 53.5435C11.4638 53.5045 11.467 53.4657 11.4701 53.427C11.4737 53.3766 11.6384 53.3214 11.7347 53.307C11.871 53.2948 12.008 53.2928 12.1445 53.301ZM19.464 31.1351C19.0837 31.1344 18.7035 31.1338 18.3234 31.1338C18.0029 31.1338 17.733 31.1343 17.4849 31.1347C16.8607 31.1358 16.3748 31.1367 15.5702 31.129C14.7007 31.123 14.1433 30.6235 14.158 29.8851C14.1726 29.1768 14.7397 28.6845 15.5727 28.6845C17.8394 28.6797 19.482 28.6797 21.7479 28.6845C22.5822 28.6869 23.1309 29.1768 23.1297 29.9151C23.1285 30.6535 22.5992 31.1277 21.7455 31.1338C20.9853 31.1378 20.2245 31.1364 19.464 31.1351ZM47.6871 31.137C47.3679 31.1354 47.0261 31.1338 46.6062 31.1338C46.6045 31.1338 46.6031 31.1324 46.6031 31.1308C46.6031 31.1291 46.6017 31.1277 46.6001 31.1277C46.0912 31.1278 45.5827 31.1291 45.0746 31.1304C44.3966 31.1322 43.7191 31.1339 43.042 31.1326C42.7956 31.1392 42.5536 31.0671 42.3522 30.9271C42.1509 30.7871 42.001 30.5866 41.9249 30.3558C41.7456 29.8995 41.803 29.4349 42.1688 29.1131C42.4128 28.903 42.7761 28.7085 43.0884 28.7085C45.447 28.6761 47.1807 28.6833 49.5381 28.6953C49.7022 28.691 49.8655 28.7187 50.0186 28.7768C50.1718 28.8349 50.3117 28.9223 50.4304 29.0339C50.5491 29.1455 50.6442 29.2791 50.7102 29.4271C50.7762 29.575 50.8118 29.7344 50.8149 29.8959C50.8284 30.5887 50.3015 31.1217 49.5381 31.1338C48.7732 31.1423 48.2674 31.1398 47.6871 31.137ZM19.5185 51.9539C19.128 51.9526 18.7374 51.9515 18.3467 51.9515C17.4999 51.9515 16.98 51.9528 16.317 51.9543C16.0632 51.955 15.7885 51.9556 15.4666 51.9563C15.2212 51.9678 14.978 51.9066 14.7684 51.7805C14.5588 51.6544 14.3924 51.4693 14.2909 51.2491C14.0738 50.8241 14.0824 50.3606 14.4129 50.0316C14.658 49.7867 15.0434 49.5358 15.3702 49.5358C17.7569 49.4926 19.5223 49.501 21.9089 49.5178C22.0731 49.5136 22.2363 49.5429 22.3884 49.6038C22.5405 49.6647 22.6781 49.7559 22.7927 49.8718C22.9072 49.9876 22.9962 50.1254 23.0539 50.2767C23.1117 50.428 23.1371 50.5894 23.1285 50.7508C23.1187 51.428 22.5919 51.9419 21.8601 51.9515C21.0797 51.9587 20.2993 51.9563 19.5185 51.9539ZM47.7002 51.9532C47.3905 51.9524 47.0582 51.9515 46.647 51.9515C46.1724 51.951 45.6978 51.9521 45.2231 51.9531C44.511 51.9547 43.7987 51.9563 43.0859 51.9527C42.8399 51.962 42.5969 51.8952 42.3913 51.7617C42.1858 51.6282 42.0278 51.4346 41.9396 51.2083C41.7456 50.7593 41.7713 50.2874 42.1371 49.9596C42.3847 49.7363 42.7615 49.5286 43.0847 49.5286C45.4433 49.4926 47.177 49.4998 49.5344 49.5142C50.2991 49.5178 50.8259 50.0701 50.8125 50.7508C50.7991 51.4316 50.2479 51.9515 49.4905 51.9515C48.746 51.9561 48.2602 51.9548 47.7002 51.9532ZM31.7641 49.5029C32.1146 49.5043 32.465 49.5058 32.8154 49.5058C32.9564 49.5058 33.1367 49.5044 33.3465 49.5028C33.9727 49.4981 34.8612 49.4914 35.7491 49.513C35.9401 49.5122 36.1286 49.5555 36.2994 49.6395C36.4702 49.7236 36.6186 49.8459 36.7326 49.9967C36.8466 50.1475 36.9231 50.3226 36.9558 50.5078C36.9886 50.6929 36.9767 50.8832 36.9211 51.063C36.8547 51.3121 36.7073 51.5329 36.5014 51.6916C36.2954 51.8503 36.0424 51.9382 35.7808 51.9419C33.3783 51.9603 31.5995 51.9603 29.197 51.9419C28.8765 51.9303 28.5731 51.7962 28.3512 51.5683C28.1294 51.3403 28.0063 51.0362 28.0082 50.7204C28.0101 50.4047 28.1368 50.1021 28.3614 49.8767C28.586 49.6513 28.891 49.5209 29.2116 49.513C30.0616 49.496 30.9129 49.4994 31.7641 49.5029ZM33.2442 31.1382C33.079 31.1371 32.9381 31.1362 32.8288 31.1362L32.8276 31.135L32.8263 31.1338C32.4706 31.1338 32.1146 31.1344 31.7587 31.135C30.9742 31.1362 30.1896 31.1375 29.4055 31.1326C28.5433 31.1277 27.9762 30.6067 27.9945 29.8863C28.0128 29.1659 28.5725 28.6857 29.4128 28.6857C31.6942 28.6793 33.3515 28.6793 35.632 28.6857C36.2662 28.6869 36.7394 29.0159 36.9077 29.5177C37.076 30.0196 36.9272 30.6031 36.4735 30.8721C36.1859 31.0307 35.863 31.1173 35.5333 31.1242C34.6745 31.1474 33.8143 31.1418 33.2442 31.1382ZM31.8041 18.9727C31.8041 18.8109 31.9375 18.6797 32.102 18.6797H33.414C34.0039 18.6797 34.5085 18.5812 34.9278 18.3841C35.3507 18.1869 35.6741 17.904 35.898 17.5353C36.1254 17.1628 36.2392 16.7157 36.2392 16.1936C36.2392 15.7044 36.1272 15.2717 35.9033 14.8957C35.6795 14.516 35.3578 14.2185 34.9385 14.0031C34.5192 13.7877 34.011 13.68 33.414 13.68H32.4541C31.3562 13.68 30.4661 14.5553 30.4661 15.635V17.0553C30.4661 17.3506 30.2227 17.59 29.9224 17.59C29.6221 17.59 29.3786 17.8294 29.3786 18.1247V18.1451C29.3786 18.4404 29.6221 18.6797 29.9224 18.6797H30.1682C30.3327 18.6797 30.4661 18.8109 30.4661 18.9727C30.4661 19.1346 30.3327 19.2657 30.1682 19.2657H29.9224C29.6221 19.2657 29.3786 19.5051 29.3786 19.8004V19.8208C29.3786 20.1161 29.6221 20.3555 29.9224 20.3555C30.2227 20.3555 30.4661 20.5948 30.4661 20.8902V21.0044C30.4661 21.3628 30.7616 21.6533 31.126 21.6533H31.1442C31.5086 21.6533 31.8041 21.3628 31.8041 21.0044C31.8041 20.646 32.0995 20.3555 32.464 20.3555H32.9878C33.2938 20.3555 33.5418 20.1115 33.5418 19.8106C33.5418 19.5097 33.2938 19.2657 32.9878 19.2657H32.102C31.9375 19.2657 31.8041 19.1346 31.8041 18.9727ZM31.8041 16.1826C31.8041 16.9599 32.4448 17.59 33.2352 17.59H33.3873C33.7462 17.59 34.0358 17.5334 34.2562 17.4203C34.4765 17.3034 34.6382 17.1409 34.7413 16.9328C34.8443 16.7247 34.8959 16.482 34.8959 16.2045C34.8959 15.9562 34.8443 15.7244 34.7413 15.509C34.6382 15.2937 34.4783 15.1184 34.2615 14.9833C34.0447 14.8446 33.7622 14.7752 33.414 14.7752H33.2352C32.4448 14.7752 31.8041 15.4053 31.8041 16.1826Z" fill="url(#paint0_linear_431_864)"/>
</g>
<defs>
<linearGradient id="paint0_linear_431_864" x1="54.9497" y1="33" x2="10.0444" y2="33" gradientUnits="userSpaceOnUse">
<stop stop-color="#6E9D01"/>
<stop offset="1" stop-color="#296C02"/>
</linearGradient>
<clipPath id="clip0_431_864">
<rect width="45" height="46" fill="white" transform="translate(9.99756 10)"/>
</clipPath>
</defs>
</svg>
