<svg width="64" height="64" viewBox="0 0 64 64" fill="none" xmlns="http://www.w3.org/2000/svg">
<path d="M56.7812 40.05V24.0156C56.7812 22.5013 55.5494 21.2687 54.0344 21.2687H52.7812V19.2656C52.7812 17.0344 50.9656 15.2188 48.7344 15.2188H38.7812V10.4731C38.7812 8.67875 37.3212 7.21875 35.5269 7.21875H24.4731C22.6788 7.21875 21.2188 8.67875 21.2188 10.4731V15.2188H11.2656C9.03437 15.2188 7.21875 17.0344 7.21875 19.2656V21V26.7344V45.7344C7.21875 47.9656 9.03437 49.7812 11.2656 49.7812H27.2188V55.0844C27.2188 56.5987 28.4506 57.8312 29.9656 57.8312H49C49.2075 57.8312 49.4056 57.7488 49.5525 57.6025L56.5525 50.6025C56.6988 50.4562 56.7812 50.2575 56.7812 50.05V43.05H55.2188V49.2188H50.9656C49.4513 49.2188 48.2188 50.4506 48.2188 51.9656V56.2687H29.9656C29.3125 56.2687 28.7812 55.7375 28.7812 55.0844V33V27V24.0156C28.7812 23.3625 29.3125 22.8312 29.9656 22.8312H54.035C54.6881 22.8312 55.2194 23.3625 55.2194 24.0156V40.05H56.7812ZM49.7812 51.9656C49.7812 51.3125 50.3125 50.7812 50.9656 50.7812H54.1144L49.7819 55.1138V51.9656H49.7812ZM22.7812 10.4731C22.7812 9.54 23.5406 8.78125 24.4731 8.78125H35.5262C36.4594 8.78125 37.2181 9.54 37.2181 10.4731V15.2188H22.7806V10.4731H22.7812ZM11.2656 48.2188C9.89563 48.2188 8.78125 47.1044 8.78125 45.7344V29.9256C9.4675 30.4613 10.3294 30.7812 11.2656 30.7812H24.2188V32.0094C24.2188 32.9863 25.0138 33.7812 25.9906 33.7812H27.2188V48.2188H11.2656ZM27.2188 32.2188H25.9906C25.875 32.2188 25.7812 32.125 25.7812 32.0094V27.9906C25.7812 27.875 25.875 27.7812 25.9906 27.7812H27.2188V32.2188ZM27.2188 24.0156V26.2188H25.9906C25.0138 26.2188 24.2188 27.0138 24.2188 27.9906V29.2188H11.2656C9.89563 29.2188 8.78125 28.1044 8.78125 26.7344V21V19.2656C8.78125 17.8956 9.89563 16.7812 11.2656 16.7812H22H38H48.7344C50.1044 16.7812 51.2188 17.8956 51.2188 19.2656V21.2687H29.9656C28.4506 21.2687 27.2188 22.5006 27.2188 24.0156Z" fill="url(#paint0_linear_455_1877)"/>
<path d="M44.0625 38.7686H34V40.3311H44.0625V38.7686Z" fill="url(#paint1_linear_455_1877)"/>
<path d="M38 48.7686H34V50.3311H38V48.7686Z" fill="url(#paint2_linear_455_1877)"/>
<path d="M46 48.7686H40V50.3311H46V48.7686Z" fill="url(#paint3_linear_455_1877)"/>
<path d="M50 38.7686H46.0625V40.3311H50V38.7686Z" fill="url(#paint4_linear_455_1877)"/>
<path d="M50 28.7686H34V30.3311H50V28.7686Z" fill="url(#paint5_linear_455_1877)"/>
<defs>
<linearGradient id="paint0_linear_455_1877" x1="56.7812" y1="32.525" x2="7.21875" y2="32.525" gradientUnits="userSpaceOnUse">
<stop stop-color="#6E9D01"/>
<stop offset="1" stop-color="#296C02"/>
</linearGradient>
<linearGradient id="paint1_linear_455_1877" x1="44.0625" y1="39.5498" x2="34" y2="39.5498" gradientUnits="userSpaceOnUse">
<stop stop-color="#6E9D01"/>
<stop offset="1" stop-color="#296C02"/>
</linearGradient>
<linearGradient id="paint2_linear_455_1877" x1="38" y1="49.5498" x2="34" y2="49.5498" gradientUnits="userSpaceOnUse">
<stop stop-color="#6E9D01"/>
<stop offset="1" stop-color="#296C02"/>
</linearGradient>
<linearGradient id="paint3_linear_455_1877" x1="46" y1="49.5498" x2="40" y2="49.5498" gradientUnits="userSpaceOnUse">
<stop stop-color="#6E9D01"/>
<stop offset="1" stop-color="#296C02"/>
</linearGradient>
<linearGradient id="paint4_linear_455_1877" x1="50" y1="39.5498" x2="46.0625" y2="39.5498" gradientUnits="userSpaceOnUse">
<stop stop-color="#6E9D01"/>
<stop offset="1" stop-color="#296C02"/>
</linearGradient>
<linearGradient id="paint5_linear_455_1877" x1="50" y1="29.5498" x2="34" y2="29.5498" gradientUnits="userSpaceOnUse">
<stop stop-color="#6E9D01"/>
<stop offset="1" stop-color="#296C02"/>
</linearGradient>
</defs>
</svg>
