<svg width="65" height="64" viewBox="0 0 65 64" fill="none" xmlns="http://www.w3.org/2000/svg">
<g clip-path="url(#clip0_431_857)">
<path fill-rule="evenodd" clip-rule="evenodd" d="M37.2121 15.9563C36.0985 17.094 36.1401 18.9291 36.137 20.5339C36.1351 21.5091 35.7971 22.4485 35.1899 23.1872C33.8259 24.8468 32.1604 26.6002 30.5177 27.9744C30.0393 28.3747 29.4117 28.623 28.5418 28.8158C28.1339 28.9063 27.796 29.2023 27.6887 29.6123C27.5623 30.0956 27.4373 30.5733 27.2253 31.0063C26.5899 32.2989 25.5066 33.0156 24.08 33.1538C23.7329 33.1866 23.5041 33.2263 23.4731 33.7009C23.4291 34.3466 23.2337 34.9723 22.903 35.5257C22.5725 36.079 22.1165 36.5439 21.5732 36.8816C21.0298 37.2192 20.4148 37.4198 19.7795 37.4666C19.1443 37.5134 18.5072 37.405 17.9217 37.1506C17.5556 36.9919 17.3699 37.0466 17.1142 37.3119C13.8036 40.6932 10.4866 44.0671 7.16339 47.4339C6.99212 47.6191 6.80172 47.7851 6.59547 47.9289C6.39503 48.0541 6.15892 48.1069 5.9253 48.0788C5.69169 48.0507 5.47421 47.9435 5.30803 47.7742C5.14184 47.6049 5.03665 47.3837 5.00945 47.1463C4.98226 46.9088 5.03465 46.6689 5.15816 46.4654C5.29969 46.2558 5.46303 46.0622 5.64534 45.8882C8.89679 42.5772 12.1509 39.2688 15.4078 35.9633C15.6784 35.7263 15.7164 35.2975 15.461 35.0436C15.4053 34.9882 15.3502 34.9333 15.2954 34.8787C14.8716 34.4567 14.474 34.061 14.0593 33.6858C12.4978 32.2766 12.1987 30.2952 12.9135 28.7176C13.7405 26.8923 14.8327 24.5459 15.759 22.7707C15.8012 22.6898 15.845 22.6113 15.8904 22.5351C16.861 20.9057 18.0658 18.8803 19.0239 17.2433C19.9993 15.5767 21.1742 13.5207 22.1748 11.8696C22.3608 11.5628 22.5964 11.2715 22.8864 10.9978C23.8958 10.0441 25.0655 9.72111 26.3286 9.93519C26.6898 9.99642 27.0417 9.71909 27.0179 9.34764C26.9781 8.72653 26.939 8.11615 26.9304 7.50579C26.9089 6.3787 27.2965 5.99435 28.4108 6.00119C28.8471 6.00119 29.2833 6.00089 29.7196 6.00059C32.0947 5.99898 34.4696 5.99737 36.8436 6.04359C38.6362 6.07915 40.1691 6.82598 41.4516 8.09531C41.6535 8.29366 41.7988 8.42359 42.134 8.28407C43.6358 7.65487 45.0597 7.85594 46.3059 8.916C47.5521 9.97608 47.9814 11.3603 47.6517 12.9825C47.65 12.9917 47.6482 13.0008 47.6464 13.0098C47.6445 13.0193 47.6425 13.0287 47.6406 13.0382C47.6303 13.0893 47.6199 13.14 47.614 13.1973C47.613 13.2642 47.6634 13.3181 47.7241 13.3438C48.985 13.8777 49.7783 14.3705 50.2467 15.0634C51.4393 16.8276 52.6234 18.9185 53.6021 20.8139C54.0901 21.759 54.218 22.9299 53.8345 24.206C53.7931 24.3439 53.8476 24.4969 53.9783 24.553C56.9391 25.6362 57.838 29.0914 55.643 31.3783C52.004 35.1699 48.3093 38.905 44.5591 42.5836C41.9039 45.1715 38.6255 46.527 34.9676 46.8758C34.4176 46.9287 34.1365 47.2357 33.799 47.604C33.782 47.6226 33.7865 47.6524 33.8082 47.6649C34.929 48.3088 36.1165 48.7224 37.3603 48.6225C38.647 48.5185 39.5405 48.9589 40.3965 49.9054C41.4233 51.0392 42.5031 52.1196 43.583 53.2C44.0601 53.6774 44.5373 54.1547 45.01 54.6368C45.1792 54.8006 45.3287 54.9841 45.4553 55.1838C45.5699 55.386 45.6156 55.6209 45.5855 55.8521C45.5553 56.0833 45.4511 56.298 45.2887 56.4629C45.1263 56.6277 44.915 56.7335 44.6875 56.764C44.46 56.7944 44.229 56.7476 44.0302 56.631C43.8318 56.5062 43.6507 56.3549 43.4918 56.181C42.9524 55.6354 42.4141 55.0885 41.8757 54.5415C40.7675 53.4157 39.6593 52.2896 38.5407 51.1747C38.3422 50.9846 38.0825 50.8737 37.8099 50.8629C35.9561 50.9089 34.1271 50.4224 32.533 49.4595C32.1979 49.2558 32.0404 49.3733 31.8157 49.6032C29.6624 51.8136 27.4983 54.0162 25.3235 56.2111C25.0736 56.4611 24.7673 56.645 24.4314 56.7473C24.0276 56.865 23.6656 56.6542 23.43 56.2809C23.3146 56.1162 23.2526 55.919 23.2526 55.7167C23.2526 55.5144 23.3146 55.3172 23.43 55.1525C23.5518 54.973 23.6907 54.8063 23.8445 54.6546C26.8511 51.5842 29.8567 48.5126 32.8613 45.4395C33.2389 45.0237 33.7616 44.7743 34.3176 44.7447C38.1383 44.5054 41.3305 42.894 44.0073 40.1584C45.195 38.9467 46.3857 37.7376 47.5763 36.5284C49.6797 34.392 51.7831 32.2558 53.8706 30.1063C54.2299 29.7354 54.4905 29.2779 54.6283 28.7768C54.8315 27.9643 54.4063 27.1996 53.7024 26.8085C53.3645 26.6125 52.9741 26.5303 52.5873 26.5735C52.2005 26.6167 51.8371 26.7832 51.5491 27.0492C51.2816 27.2915 51.0282 27.5491 50.7749 27.8066C50.5591 28.0259 50.3432 28.2452 50.1186 28.4553C49.7956 28.759 49.3662 28.9354 48.9894 28.6755C48.6961 28.4731 48.373 28.0997 48.3447 27.7783C48.3165 27.4568 48.5548 27.015 48.7997 26.7442C49.3839 26.1007 49.9991 25.4858 50.6142 24.8711C50.8293 24.656 51.0447 24.4408 51.2585 24.2247C51.743 23.7336 52.0121 23.1591 51.8951 22.4548C51.8496 22.1087 51.7096 21.7827 51.4906 21.5137C51.2718 21.2447 50.9828 21.0437 50.6569 20.9336C49.9099 20.6601 49.2343 20.8447 48.6759 21.3933C48.1154 21.9424 47.5663 22.5029 47.0172 23.0632C46.7582 23.3273 46.4985 23.5924 46.2386 23.8554C45.5025 24.6022 44.8996 24.7006 44.3895 24.1604C43.9064 23.6474 44.0153 23.0278 44.7151 22.3166C45.8654 21.1447 47.0169 19.9731 48.1699 18.8012C48.4375 18.551 48.6267 18.2263 48.714 17.8676C48.8014 17.5088 48.783 17.1319 48.6611 16.7837C48.4363 16.0642 47.9195 15.6334 47.1955 15.4938C46.4714 15.3543 45.9035 15.6402 45.4056 16.1477C44.2311 17.3477 43.0531 18.5445 41.8715 19.7381C41.5566 20.0583 41.2093 20.2853 40.7289 20.1718C40.5662 20.1387 40.4136 20.0663 40.2842 19.9606C40.1546 19.855 40.052 19.7194 39.9849 19.5651C39.9177 19.4108 39.888 19.2423 39.8983 19.074C39.9086 18.9056 39.9585 18.7421 40.044 18.5974C40.1714 18.4001 40.3219 18.2191 40.492 18.0585C41.9832 16.5375 43.4761 15.0179 44.9708 13.4996C45.5321 12.9278 45.7675 12.2549 45.5092 11.4602C45.4121 11.116 45.2183 10.8082 44.9515 10.5744C44.6847 10.3407 44.3565 10.1912 44.0073 10.1443C43.7241 10.086 43.4311 10.1007 43.1549 10.1869C42.8786 10.2732 42.6281 10.4283 42.426 10.6381C40.6931 12.4003 38.9632 14.1676 37.2235 15.9447L37.2121 15.9563ZM33.9166 20.0374C33.9738 20.1846 34.0093 20.3426 33.9967 20.5003C33.9278 21.3576 33.6146 21.8753 33.0175 22.2126C32.7223 22.3887 32.3844 22.477 32.0421 22.4674C31.7 22.4576 31.3674 22.3504 31.0823 22.1578C30.9169 22.0495 30.7647 21.922 30.6287 21.7776C30.2147 21.3576 29.8004 20.9378 29.3862 20.518L29.3824 20.5141C27.7209 18.8301 26.0589 17.1459 24.4098 15.4501C23.2752 14.2833 23.6952 12.5243 25.1755 12.1235C25.4775 12.0281 25.7993 12.0187 26.1062 12.0964C26.413 12.1741 26.693 12.3358 26.9157 12.564C29.1133 14.7758 31.3083 16.9943 33.4711 19.2417C33.6968 19.4711 33.823 19.7961 33.9166 20.0374ZM37.0172 12.9149C38.7214 11.1824 38.5852 8.17233 36.1748 8.17875H29.6207C29.5038 8.17875 29.3869 8.18631 29.2722 8.19374C29.1798 8.1997 29.1045 8.27356 29.1017 8.36752C29.0525 9.97913 30.1936 11.2415 31.7767 11.2878C32.302 11.3036 32.8282 11.2994 33.3544 11.2953C33.8311 11.2915 34.308 11.2877 34.7846 11.2987C35.0482 11.295 35.3032 11.3942 35.497 11.5759C35.6908 11.7576 35.8086 12.008 35.8262 12.2754C35.876 12.8567 35.526 13.3149 34.9232 13.4367C34.7453 13.4666 34.5649 13.4785 34.3848 13.4722H33.7778C32.7846 13.4722 32.2872 14.6927 32.9895 15.4065C33.4249 15.8491 34.1308 15.849 34.5662 15.4065L37.0172 12.9149ZM27.3912 26.6486C27.677 26.7819 28.0002 26.8449 28.3001 26.7477C28.9292 26.544 29.3696 26.1755 29.6314 25.5679C29.9719 24.7636 29.7957 24.0222 29.1995 23.4108C27.4355 21.6016 25.6622 19.8029 23.8796 18.0147C23.0653 17.1941 21.8878 17.2077 21.1408 17.9846C20.3939 18.7616 20.4007 19.912 21.1933 20.7299C22.9537 22.5435 24.7193 24.3518 26.52 26.1232C26.7566 26.3524 27.0738 26.5005 27.3912 26.6486ZM19.8821 22.8585C19.7212 22.7844 19.5451 22.7392 19.3691 22.7552C18.4416 22.839 17.9132 23.2132 17.6202 23.8963C17.273 24.6924 17.4332 25.4379 18.024 26.0534C19.4425 27.5124 20.8717 28.9646 22.3117 30.41C23.1287 31.2225 24.3035 31.2087 25.049 30.4304C25.7946 29.6522 25.7771 28.5031 24.9884 27.6866C23.5862 26.2326 22.1772 24.7841 20.7304 23.378C20.4756 23.1319 20.1352 22.9751 19.8821 22.8585ZM21.3152 32.9305C21.2123 32.6469 21.1094 32.3627 20.9242 32.1594C19.8986 31.0474 18.8408 29.9585 17.74 28.9232C17.0402 28.2625 15.934 28.3651 15.2516 29.038C14.5693 29.711 14.4199 30.8079 15.0471 31.5138C16.1008 32.6969 17.2232 33.8226 18.3765 34.9073C18.931 35.4285 19.6619 35.434 20.3387 35.0755C20.9003 34.7784 21.2303 34.3219 21.3872 33.7074C21.4528 33.4503 21.4055 33.1798 21.3152 32.9305ZM60.0028 43.1086C60.0028 43.3013 59.9441 43.4917 59.8195 43.6368C59.1904 44.3694 58.6534 44.3312 57.8697 43.5422C57.6739 43.3454 57.4778 43.1491 57.2819 42.9529C56.7386 42.4092 56.1961 41.8662 55.66 41.3114C55.0961 40.7246 55.1216 39.9817 55.6856 39.5618C56.096 39.2569 56.6169 39.2405 57.0139 39.6371C57.7471 40.3695 58.4614 41.1234 59.1755 41.8769L59.1769 41.8783C59.3697 42.0818 59.5624 42.2852 59.7556 42.4883C59.9141 42.6547 60.0028 42.8771 60.0028 43.1086ZM52.9114 36.9395C52.7084 37.1354 52.5884 37.4038 52.5769 37.688C52.5702 37.9729 52.673 38.249 52.8636 38.4579C53.054 38.6668 53.3171 38.7921 53.597 38.8069C53.877 38.8054 54.1458 38.696 54.3495 38.5008C54.553 38.3055 54.6761 38.039 54.6938 37.7551C54.6957 37.4704 54.5899 37.1958 54.3983 36.9881C54.2067 36.7804 53.944 36.6554 53.6643 36.6389C53.3844 36.6358 53.1144 36.7437 52.9114 36.9395Z" fill="url(#paint0_linear_431_857)"/>
</g>
<defs>
<linearGradient id="paint0_linear_431_857" x1="60.0028" y1="31.39" x2="5.00244" y2="31.39" gradientUnits="userSpaceOnUse">
<stop stop-color="#6E9D01"/>
<stop offset="1" stop-color="#296C02"/>
</linearGradient>
<clipPath id="clip0_431_857">
<rect width="55" height="52" fill="white" transform="translate(5.00244 6)"/>
</clipPath>
</defs>
</svg>
