<svg width="64" height="64" viewBox="0 0 64 64" fill="none" xmlns="http://www.w3.org/2000/svg">
<path d="M23.272 41.4551H17.4538C17.0563 41.4551 16.7266 41.7848 16.7266 42.1824V49.9399C16.7266 50.3375 17.0563 50.6672 17.4538 50.6672H23.272C23.6696 50.6672 23.9993 50.3375 23.9993 49.9399V42.1824C23.9993 41.7848 23.6696 41.4551 23.272 41.4551ZM22.5447 49.2127H18.1811V42.9096H22.5447V49.2127ZM40.7266 50.6672H46.5447C46.9423 50.6672 47.272 50.3375 47.272 49.9399V42.1824C47.272 41.7848 46.9423 41.4551 46.5447 41.4551H40.7266C40.329 41.4551 39.9993 41.7848 39.9993 42.1824V49.9399C39.9993 50.3375 40.329 50.6672 40.7266 50.6672ZM41.4538 42.9096H45.8175V49.2127H41.4538V42.9096Z" fill="url(#paint0_linear_455_1900)"/>
<path d="M62.6625 46.6226L60.7231 43.7135C60.4516 43.3063 59.7825 43.3063 59.511 43.7135L58.1825 45.7208L56.8443 43.7232C56.5728 43.316 55.9037 43.316 55.6322 43.7232L54.3037 45.7208L52.9655 43.7232C52.694 43.316 52.0249 43.316 51.7534 43.7232L51.1425 44.6347V30.3026H54.3037C54.5462 30.3026 54.7692 30.1766 54.9049 29.9826C55.0407 29.7887 55.0601 29.5269 54.9728 29.3038L50.1243 17.6675C50.008 17.396 49.7462 17.2214 49.4552 17.2214H38.5074C38.1486 13.9535 35.3655 11.4032 32.0007 11.4032C28.6359 11.4032 25.8625 13.9535 25.494 17.2214H22.0613V12.8578H23.2734C23.671 12.8578 24.0007 12.5281 24.0007 12.1305V9.22141C24.0007 8.82384 23.671 8.49414 23.2734 8.49414H15.5159C15.1183 8.49414 14.7886 8.82384 14.7886 9.22141V12.1305C14.7886 12.5281 15.1183 12.8578 15.5159 12.8578H16.728V17.2214H14.5462C14.2552 17.2214 13.9837 17.396 13.8771 17.6675L9.02858 29.3038C8.93161 29.5269 8.9607 29.7887 9.09646 29.9826C9.23222 30.1766 9.45525 30.3026 9.69767 30.3026H12.8492V44.6251L12.2383 43.7135C11.9668 43.3063 11.2977 43.3063 11.0262 43.7135L9.69767 45.7208L8.35949 43.7232C8.08797 43.316 7.41888 43.316 7.14737 43.7232L5.81888 45.7208L4.4807 43.7232C4.20919 43.316 3.54009 43.316 3.26858 43.7232L1.32919 46.6323C1.25161 46.7487 1.20312 46.8941 1.20312 47.0396V54.7972C1.20312 55.1947 1.53282 55.5244 1.9304 55.5244H62.0516C62.4492 55.5244 62.7789 55.1947 62.7789 54.7972V47.0396C62.7886 46.8844 62.7498 46.7487 62.6625 46.6226ZM26.9098 17.939C26.9098 15.1269 29.1886 12.8481 32.0007 12.8481C34.8128 12.8481 37.0916 15.1269 37.0916 17.939V23.0299H26.9098V17.939ZM16.2431 9.93899H22.5462V11.3935H16.2431V9.93899ZM18.1825 12.8481H20.6068V17.2117H18.1825V12.8481ZM15.031 18.6663H25.4552V23.7572C25.4552 24.1547 25.7849 24.4844 26.1825 24.4844H37.8189C38.2165 24.4844 38.5462 24.1547 38.5462 23.7572V18.6663H48.9704L53.2177 28.8481H10.7934L15.031 18.6663ZM2.66737 47.2529L3.87949 45.4299L5.09161 47.2529V54.0602H2.66737V47.2529ZM6.54616 47.2529L7.75828 45.4299L8.9704 47.2529V54.0602H6.54616V47.2529ZM10.4249 47.2529L11.6371 45.4299L12.8492 47.2529V54.0602H10.4249V47.2529ZM14.3037 47.0299V30.3026H49.6977V47.0299V54.0602H37.5765V37.3329C37.5765 36.9354 37.2468 36.6057 36.8492 36.6057H27.1522C26.7546 36.6057 26.4249 36.9354 26.4249 37.3329V54.0602H14.3037V47.0299ZM27.8795 54.0602V38.0602H36.1219V54.0602H27.8795ZM51.1522 47.2529L52.3643 45.4299L53.5765 47.2529V54.0602H51.1522V47.2529ZM55.031 47.2529L56.2431 45.4299L57.4552 47.2529V54.0602H55.031V47.2529ZM61.334 54.0602H58.9098V47.2529L60.1219 45.4299L61.334 47.2529V54.0602Z" fill="url(#paint1_linear_455_1900)"/>
<defs>
<linearGradient id="paint0_linear_455_1900" x1="47.272" y1="46.0611" x2="16.7266" y2="46.0611" gradientUnits="userSpaceOnUse">
<stop stop-color="#6E9D01"/>
<stop offset="1" stop-color="#296C02"/>
</linearGradient>
<linearGradient id="paint1_linear_455_1900" x1="62.7803" y1="32.0093" x2="1.20312" y2="32.0093" gradientUnits="userSpaceOnUse">
<stop stop-color="#6E9D01"/>
<stop offset="1" stop-color="#296C02"/>
</linearGradient>
</defs>
</svg>
