<svg width="80" height="80" viewBox="0 0 80 80" fill="none" xmlns="http://www.w3.org/2000/svg">
<g clip-path="url(#clip0_2406_16132)">
<path d="M40 79.2727C61.6897 79.2727 79.2727 61.6897 79.2727 40C79.2727 18.3103 61.6897 0.727264 40 0.727264C18.3103 0.727264 0.727295 18.3103 0.727295 40C0.727295 61.6897 18.3103 79.2727 40 79.2727Z" fill="black" fill-opacity="0.33"/>
<path fill-rule="evenodd" clip-rule="evenodd" d="M55.9707 38.5001C56.2306 38.6548 56.4459 38.8744 56.5954 39.1374C56.7449 39.4003 56.8234 39.6976 56.8234 40C56.8234 40.3025 56.7449 40.5997 56.5954 40.8627C56.4459 41.1256 56.2306 41.3452 55.9707 41.4999L32.0982 55.7096C31.8332 55.8673 31.5312 55.952 31.2229 55.9551C30.9146 55.9581 30.611 55.8795 30.3429 55.7271C30.0749 55.5747 29.852 55.3541 29.6969 55.0876C29.5418 54.8211 29.4601 54.5183 29.4601 54.2099V25.7901C29.4602 25.4818 29.5419 25.179 29.697 24.9125C29.8521 24.646 30.075 24.4253 30.3431 24.273C30.6111 24.1206 30.9147 24.0419 31.223 24.045C31.5314 24.0481 31.8334 24.1327 32.0983 24.2904L55.9707 38.5001Z" fill="white"/>
</g>
<defs>
<clipPath id="clip0_2406_16132">
<rect width="80" height="80" fill="white"/>
</clipPath>
</defs>
</svg>
