<svg width="64" height="64" viewBox="0 0 64 64" fill="none" xmlns="http://www.w3.org/2000/svg">
<g clip-path="url(#clip0_431_850)">
<path fill-rule="evenodd" clip-rule="evenodd" d="M31.0021 59.5846C30.6505 59.5364 30.2989 59.4896 29.9473 59.4428C29.2387 59.3484 28.5301 59.2541 27.8236 59.1494C25.5027 58.7955 24.0154 57.5396 23.5636 55.4687C23.4488 54.9407 23.182 54.7188 22.7647 54.4622C21.6544 53.7791 20.5787 53.0351 19.5144 52.2781C19.2577 52.0952 19.0942 52.0634 18.8102 52.1939C17.7705 52.6864 16.5861 52.767 15.4905 52.4198C14.395 52.0727 13.4679 51.323 12.8921 50.3188C11.7002 48.2637 12.2295 45.688 14.1572 44.2204C14.3781 44.0521 14.4986 43.9302 14.4197 43.6097C13.9883 41.7959 13.8254 39.9275 13.9363 38.0654C13.9567 37.9088 13.9302 37.7496 13.8601 37.6084C13.79 37.4672 13.6797 37.3506 13.5433 37.2736C12.2057 36.3549 11.1711 35.052 10.5732 33.533C9.97527 32.0139 9.84147 30.3485 10.189 28.7518C10.5366 27.1551 11.3496 25.7003 12.5231 24.5756C13.6965 23.4508 15.1765 22.7074 16.772 22.4416C16.8402 22.4291 16.9066 22.4091 16.9649 22.3914C17.0105 22.3777 17.0385 22.3301 17.0273 22.2833C16.9448 21.9397 16.8551 21.5999 16.7658 21.2615C16.5615 20.4872 16.3594 19.7216 16.2513 18.9407C15.5571 13.8966 16.8494 9.5661 20.9846 6.3987C23.5348 4.44664 26.4939 3.80562 29.648 4.04927C37.5755 4.65983 44.3887 11.3209 45.7512 18.8724C46.3494 22.1863 45.9751 25.3494 44.317 28.3123C44.2855 28.3685 44.2586 28.4271 44.2336 28.4817C44.2185 28.5147 44.23 28.5544 44.2609 28.5733C44.5075 28.724 44.7547 28.8718 45.0009 29.0193C45.6818 29.4269 46.357 29.8312 47.0006 30.2803C49.5982 32.0815 51.6593 34.3658 52.9789 37.2982C53.1668 37.7144 53.2872 38.1684 52.9689 38.5236C52.7173 38.7887 52.3858 38.9617 52.0265 39.0153C51.5962 39.0646 51.2634 38.7586 51.0827 38.3394C50.4623 36.9132 49.604 35.6053 48.5454 34.4731C46.5963 32.3692 44.2543 30.8949 41.5903 29.8202C41.2147 29.6686 40.7996 29.9055 40.7268 30.3079C39.8862 34.2613 37.5799 36.9965 33.951 38.6222C33.5327 38.8091 33.1055 38.9769 32.6778 39.145C32.3884 39.2586 32.0986 39.3725 31.811 39.4924C31.0981 39.7897 30.7267 40.3539 30.7998 41.037C30.835 41.3651 30.9811 41.6707 31.2135 41.9024C31.4457 42.1341 31.75 42.2777 32.0749 42.3089C33.6913 42.5252 35.1961 43.2614 36.3671 44.4085C37.538 45.5557 38.3132 47.0531 38.5782 48.6799C38.5863 48.7355 38.6012 48.7894 38.6205 48.8588C38.641 48.9331 38.7225 48.9724 38.7916 48.9398C40.4342 48.163 41.8152 47.1192 42.818 45.5981C43.47 44.6169 43.838 43.4712 43.881 42.29C43.9138 41.5243 44.3255 41.0877 44.9824 41.1022C45.6394 41.1168 46.0496 41.6011 46.0224 42.3524C45.9263 45.0296 44.7315 47.1658 42.775 48.8931C40.46 50.9336 37.7104 51.9648 34.6912 52.307C34.0815 52.3768 33.4665 52.4025 32.8357 52.429C32.3014 52.4515 31.8612 52.8539 31.779 53.3881C31.6824 54.0142 31.5851 54.6448 31.4862 55.2854L31.2744 56.6588C31.2133 57.0538 31.5154 57.4113 31.9108 57.4145C32.379 57.4184 32.8232 57.422 33.2668 57.4106C37.7548 57.2771 41.9618 56.1778 45.7168 53.6035C48.0735 51.9879 49.928 49.9242 51.087 47.2615C51.3394 46.6814 51.7511 46.4001 52.2345 46.4726C52.7479 46.548 53.1108 46.8482 53.1654 47.3732C53.1803 47.6766 53.1191 47.979 52.9875 48.2521C51.6234 51.3557 49.416 53.7239 46.6362 55.5686C43.0921 57.921 39.1705 59.1494 34.9608 59.4917C34.6128 59.538 34.2642 59.5886 33.9132 59.5882L31.0021 59.5846ZM38.0982 24.1309C38.0224 24.4828 38.2459 24.8208 38.5801 24.9455C39.3523 25.2339 39.9817 25.721 40.3582 26.4777C40.6651 27.0956 41.1098 27.3479 41.6935 27.5625C42.1052 27.7162 42.2673 27.5741 42.4451 27.255C43.354 25.6862 43.848 23.9071 43.8795 22.0892C43.954 17.9879 42.4293 14.4927 39.7314 11.5211C36.5973 8.07086 32.7548 6.03323 28.0315 6.20582C23.8045 6.36245 20.6533 8.38123 18.9952 12.4014C17.7043 15.5586 18.0457 18.7348 19.2505 21.86C19.4083 22.2719 19.6048 22.5097 20.0595 22.5852C20.4644 22.6578 20.857 22.7882 21.2256 22.9724C21.5512 23.129 21.752 23.0972 22.0088 22.8274C23.6095 21.1407 24.1444 19.1611 23.6726 16.8813C23.4991 16.0415 23.9149 15.4934 24.7555 15.4557C25.2188 15.4353 25.6864 15.4324 26.1497 15.4557C27.2941 15.5073 28.434 15.2779 29.4716 14.7871C31.428 13.8937 33.3945 14.1011 35.1013 15.4208C37.5182 17.2917 38.6485 19.8065 38.3171 22.9143C38.2738 23.3149 38.1881 23.7134 38.0982 24.1309ZM36.2275 49.8361C36.3942 49.7963 36.5053 49.6372 36.4924 49.4645C36.477 49.2553 36.4625 49.0603 36.4253 48.8699C35.9605 46.5364 34.2264 44.8657 31.887 44.4843C30.0683 44.1942 28.8262 42.9368 28.6555 41.2298C28.4876 39.5519 29.4328 38.106 31.144 37.42C31.3152 37.3516 31.4869 37.2838 31.6585 37.216C32.1853 37.0079 32.7128 36.7994 33.231 36.5731C36.5644 35.1155 38.7919 31.8132 38.7518 28.4109C38.7417 27.5755 38.1866 26.9375 37.4437 26.907C36.6504 26.8737 36.0667 27.4508 36.0323 28.3413C35.9752 29.8924 35.3724 31.372 34.3325 32.5137C32.9656 34.0742 31.2415 35.0749 29.2995 35.684C26.5352 36.5512 23.7586 37.3809 20.9834 38.2103L20.3277 38.4062C19.298 38.7259 18.2109 38.8106 17.1449 38.6542C16.9165 38.6186 16.6874 38.5875 16.4133 38.5501C16.1801 38.5185 15.9782 38.7151 16.0013 38.9518L16.0154 39.0958C16.2492 41.4825 18.6042 43.0089 20.2107 44.7735C20.4369 45.0219 20.6429 45.304 20.8283 45.6213C21.4908 46.7549 21.63 47.9035 21.3367 49.0721C21.1111 49.9711 21.3126 50.9836 22.0744 51.5004C22.9519 52.0955 24.1245 51.7435 24.8962 51.0137C26.116 49.8604 27.7912 49.4498 29.8029 49.9518C31.9087 50.474 34.0472 50.3564 36.2275 49.8361ZM23.4507 33.197C23.5224 33.0606 23.4341 32.8962 23.2824 32.8778C22.4218 32.7791 21.937 32.3194 21.9916 31.658C22.046 30.9968 22.5151 30.6762 23.4015 30.7067C23.9236 30.7241 24.0627 30.5776 24.0355 30.0323C23.8462 26.208 19.8415 23.5438 16.1968 24.8114C14.7677 25.3009 13.5757 26.3207 12.8616 27.6647C12.1475 29.0087 11.9645 30.5767 12.3498 32.0517C12.735 33.5268 13.6596 34.7991 14.9368 35.6114C16.214 36.4238 17.7486 36.7157 19.2304 36.428C21.1458 36.0627 22.5222 34.9625 23.4507 33.197ZM24.7593 22.7863C24.3976 23.3775 24.419 24.1564 24.8891 24.6638C25.4385 25.2568 25.9767 25.838 26.5657 26.3645C28.1865 27.8148 30.0926 28.2282 32.1595 27.5755C36.5199 26.1963 37.6358 20.7593 34.2465 17.499C33.0818 16.3809 31.5127 16.1155 30.087 16.8624C29.0866 17.3936 27.9676 17.6548 26.8382 17.6209C26.3638 17.6209 25.9931 18.0285 25.9849 18.5078C25.9582 20.0816 25.546 21.5004 24.7593 22.7863ZM28.5285 29.7876C27.4586 29.4654 26.2925 30.3503 26.1619 31.4713C26.0865 32.1191 25.9368 32.7574 25.715 33.3732C25.5508 33.8292 25.9598 34.3431 26.4244 34.2218C27.2675 34.0015 28.0841 33.7883 28.885 33.5347C30.3192 33.0793 31.6173 32.3499 32.6142 31.1896C32.9162 30.8395 33.1622 30.4403 33.4083 30.041C33.5315 29.8408 33.3536 29.5811 33.1252 29.6282C30.8778 30.091 29.8813 30.1953 28.5285 29.7876ZM19.3179 47.9664C19.3145 47.4761 19.1674 46.9977 18.8952 46.5919C18.623 46.1861 18.2379 45.8708 17.7886 45.6863C17.3393 45.5017 16.846 45.4559 16.371 45.5548C15.8959 45.6536 15.4606 45.8925 15.1198 46.2415C14.7791 46.5904 14.5484 47.0338 14.4568 47.5153C14.3651 47.9969 14.4167 48.495 14.6051 48.9469C14.7934 49.3987 15.11 49.7841 15.5148 50.054C15.9197 50.324 16.3946 50.4666 16.8796 50.4638C17.5301 50.4584 18.152 50.1925 18.609 49.7245C19.0661 49.2563 19.321 48.6242 19.3179 47.9664ZM27.5303 56.8778C28.3682 57.1077 29.1247 56.4159 29.2588 55.5486L29.2592 55.5461C29.403 54.6173 29.5478 53.6816 29.6948 52.7306C29.7422 52.424 29.5395 52.1332 29.2393 52.0676C28.8687 51.9866 28.5131 51.909 28.1563 51.8893C27.7853 51.873 27.4153 51.9414 27.074 52.0894C26.7327 52.2375 26.4288 52.4613 26.1849 52.7445C25.941 53.0276 25.7633 53.3628 25.6651 53.725C25.5668 54.0871 25.5506 54.467 25.6175 54.8363C25.8159 55.9108 26.4488 56.581 27.5303 56.8778ZM53.057 43.8607C52.9181 43.862 52.7805 43.835 52.652 43.7815C52.5236 43.728 52.4072 43.649 52.3095 43.5493C52.2117 43.4495 52.1348 43.3309 52.0831 43.2006C52.0314 43.0703 52.006 42.9309 52.0085 42.7904C52.0069 42.5069 52.1157 42.234 52.3113 42.0308C52.5069 41.8275 52.7738 41.7103 53.0542 41.7042C53.1976 41.7043 53.3396 41.7334 53.472 41.7894C53.6043 41.8455 53.7243 41.9276 53.825 42.0309C53.9258 42.1342 54.0053 42.2567 54.0588 42.3914C54.1123 42.526 54.139 42.67 54.137 42.8151C54.1345 42.9556 54.1044 43.0942 54.0487 43.2229C53.9929 43.3515 53.9125 43.4679 53.8121 43.565C53.7117 43.6622 53.5933 43.7384 53.4638 43.7892C53.3342 43.8398 53.196 43.8642 53.057 43.8607ZM31.5223 22.1971C31.3939 22.1446 31.2565 22.1183 31.118 22.1196C30.874 22.1065 30.6335 22.1838 30.4419 22.3371C30.2502 22.4903 30.1203 22.709 30.0767 22.9521C30.015 23.2639 29.9146 23.3987 29.5847 23.4568C29.3265 23.5047 29.0962 23.651 28.9414 23.8655C28.7866 24.0801 28.7191 24.3464 28.7528 24.6098C28.7859 24.8811 28.9163 25.1307 29.1193 25.3112C29.3224 25.4916 29.584 25.5903 29.8543 25.5887C31.0837 25.6119 32.2411 24.4126 32.1808 23.1768C32.1799 23.0368 32.1517 22.8984 32.0978 22.7694C32.0438 22.6404 31.9652 22.5235 31.8664 22.4253C31.7677 22.327 31.6508 22.2495 31.5223 22.1971Z" fill="url(#paint0_linear_431_850)"/>
</g>
<defs>
<linearGradient id="paint0_linear_431_850" x1="54.1371" y1="31.7941" x2="10" y2="31.7941" gradientUnits="userSpaceOnUse">
<stop stop-color="#6E9D01"/>
<stop offset="1" stop-color="#296C02"/>
</linearGradient>
<clipPath id="clip0_431_850">
<rect width="45" height="56" fill="white" transform="translate(10 4)"/>
</clipPath>
</defs>
</svg>
