<svg width="164" height="164" viewBox="0 0 164 164" fill="none" xmlns="http://www.w3.org/2000/svg">
<path d="M157.462 52.6677L138.987 39.8602L132.257 34.0671L132.248 34.0441C132.225 33.9923 132.197 33.9435 132.171 33.8918C132.778 33.1992 133.36 32.5354 133.907 31.909L134.195 31.5814C134.765 30.9291 134.748 29.9607 134.152 29.3314C133.11 28.2308 130.362 25.386 127.332 22.7768C124.55 20.3831 121.84 18.4463 120.473 17.5038C119.643 16.9348 118.514 17.067 117.84 17.817L116.095 19.771L111.34 15.7796C110.661 15.1934 109.633 15.271 109.045 15.9492L98.882 27.7021C98.3492 28.3199 98.401 29.2366 99.0029 29.7883L102.75 33.2337C102.856 33.3343 102.92 33.4694 102.925 33.613C102.934 33.8602 102.945 34.1418 102.966 34.455L98.6487 39.2826L98.5652 39.3975C98.4788 39.5412 90.9306 52.228 82.8064 63.8603C73.8816 53.0585 71.6122 44.1303 71.3358 42.9263C71.2638 42.6159 71.0852 42.3372 70.8289 42.1447C69.9937 41.5154 67.1253 39.3314 64.0467 36.8113C64.0727 35.8688 63.9488 35.0211 63.8567 34.3975C63.6464 32.9866 65.0777 32.3142 65.1353 32.2883L65.2534 32.2366L66.7279 30.8228C67.0015 30.5613 67.1541 30.2078 67.1541 29.8314C67.1541 29.4521 67.0102 29.0986 66.7394 28.8343L54.7447 17.0785C54.2407 16.5842 53.443 16.5469 52.8929 16.9923L48.4319 20.6044C47.8617 19.9176 47.3577 19.3141 46.943 18.8371C46.0071 17.7653 45.4426 17.1158 44.7745 17.6072L44.6996 17.6618C42.9515 18.9377 41.1487 20.2796 39.6252 21.4406C37.1946 23.2969 32.9439 26.8802 32.2988 27.7912C31.9733 28.2509 31.8956 28.3659 34.3982 31.9722L6.31348 54.7281C6.03413 54.9522 5.86134 55.274 5.8239 55.6275C5.78646 55.9809 5.89013 56.3286 6.11765 56.6045C7.42224 58.2022 12.1165 63.8028 17.8129 68.8574C23.9212 74.2741 29.6032 76.8546 31.2015 77.5184C31.3772 77.5902 31.5615 77.6276 31.7458 77.6276C31.9561 77.6276 32.1663 77.5816 32.3593 77.4868C32.7221 77.3115 32.9957 76.9896 33.108 76.6017C33.7589 74.3402 37.0391 62.9522 37.8167 60.7511C38.8016 57.9694 42.8939 48.5958 44.8292 46.5269C44.8609 46.4924 44.8954 46.4637 44.9271 46.4292C48.7516 51.5039 54.3645 58.7712 57.9558 62.6419C62.457 67.4896 67.1887 72.3459 72.3812 77.4437C59.3237 93.2167 36.9498 118.125 32.2469 123.01C28.3159 127.093 23.1609 131.401 20.4394 133.605C19.3018 134.527 19.1089 136.214 20.0131 137.363C21.0557 138.688 22.8268 140.726 25.3525 142.901C28.2698 145.412 30.9423 147.441 32.2729 148.427C32.6156 148.68 33.0274 148.812 33.445 148.812C33.5861 148.812 33.7301 148.797 33.8712 148.766C34.427 148.642 34.9051 148.283 35.1758 147.783C36.4141 145.496 39.032 140.901 42.6578 135.823C47.5104 129.027 63.9488 110.708 76.8824 96.5357C78.619 94.6334 81.0813 91.8891 84.0361 88.573C84.3126 88.8316 84.5862 89.0874 84.8655 89.346C97.8625 101.418 107.746 111.513 113.451 118.533C119.885 126.452 121.201 139.524 121.449 143.343C121.676 146.835 124.677 147.585 128.487 147.585C129.446 147.585 130.46 147.536 131.491 147.473C138.337 147.05 142.91 141.3 143.27 139.042C143.762 135.95 139.198 127.527 130.411 115.326C120.311 101.3 110.157 89.9954 95.0776 76.1046C103.352 66.7338 112.789 55.9953 120.876 46.7769C121.146 46.8889 121.409 47.0671 121.737 47.3516C122.972 48.4148 123.211 54.3143 122.831 57.9062C122.785 58.3516 122.722 58.8373 122.658 59.3459C122.264 62.4695 121.771 66.3574 123.465 68.6735C125.242 71.0988 129.792 76.7511 129.855 76.8287L133.032 80.4925C133.268 80.7655 133.611 80.9293 133.973 80.9408C133.988 80.9408 134.002 80.9408 134.02 80.9408C134.365 80.9408 134.699 80.8029 134.944 80.5586C136.796 78.6994 143.212 72.2195 148.102 66.889C152.989 61.5557 156.756 55.9666 157.793 54.3803C158.167 53.8085 158.021 53.0585 157.459 52.6677H157.462ZM131.958 29.1963C132.424 29.6734 132.804 30.0728 133.069 30.3515C133.135 30.4234 133.138 30.5326 133.075 30.6044L132.787 30.932C132.318 31.4665 131.828 32.0268 131.315 32.613C131.177 32.4607 131.03 32.3171 130.872 32.182L129.818 31.2969C130.402 30.3946 131.35 29.6303 131.955 29.1963H131.958ZM131.534 28.7653C130.904 29.2222 129.982 29.9866 129.363 30.9119L127.499 29.3458C128.338 28.2366 129.265 27.4923 129.844 27.0929C130.469 27.6963 131.039 28.2624 131.534 28.7653ZM128.533 25.8515C128.833 26.1302 129.121 26.4032 129.403 26.6705C128.787 27.1073 127.877 27.8601 127.042 28.9636L126.385 28.4119C127.128 27.3343 127.88 26.5412 128.447 25.9377C128.476 25.9061 128.502 25.8802 128.53 25.8486L128.533 25.8515ZM128.096 25.4492C128.07 25.4779 128.044 25.5038 128.018 25.5325C127.442 26.1389 126.687 26.9406 125.93 28.0297L124.496 26.8257C125.443 25.5412 126.031 24.5412 126.365 23.9061C126.958 24.4147 127.537 24.9348 128.096 25.4492ZM125.898 23.5095C125.593 24.1044 125.011 25.1159 124.038 26.4406L122.1 24.8113C122.192 24.3774 122.451 23.7509 123.134 23.0325C123.381 22.7739 123.393 22.409 123.162 22.1676C122.869 21.8572 122.244 21.8256 121.506 22.4492C121.054 22.8314 120.694 23.159 120.426 23.4061L118.632 21.9003C119.992 20.9406 121.322 20.6187 122.123 20.5153C123.246 21.3544 124.556 22.3716 125.898 23.5067V23.5095ZM121.599 24.3946L120.887 23.7969C121.144 23.5584 121.48 23.2567 121.892 22.9061C122.33 22.5354 122.592 22.5412 122.661 22.5526C122.71 22.5613 122.73 22.5785 122.73 22.5785C122.73 22.5843 122.725 22.6015 122.702 22.6274C122.071 23.2912 121.757 23.9004 121.601 24.3946H121.599ZM118.952 18.8113C119.125 18.6187 119.416 18.5842 119.629 18.7308C120.095 19.0526 120.723 19.4923 121.452 20.0268C120.562 20.2107 119.37 20.6187 118.16 21.5095L117.233 20.7308L118.949 18.8113H118.952ZM102.185 38.1878C102.606 37.682 102.891 37.3401 103.219 37.0441C103.317 37.7424 103.444 38.4665 103.614 39.1791C103.13 39.547 102.439 40.1389 101.938 40.8487C100.803 42.4435 100.071 43.8717 99.2909 45.3832C98.7639 46.4062 98.2196 47.4665 97.5169 48.6476C94.9682 52.9234 95.2907 53.9033 95.3973 54.2252C95.4808 54.4809 95.6507 54.6706 95.8869 54.7683C96.0078 54.82 96.1317 54.843 96.2555 54.843C96.9351 54.843 97.6378 54.1131 98.4298 53.2884C98.9136 52.7855 99.4637 52.2137 100.051 51.7597C100.331 51.5441 100.61 51.3344 100.889 51.1275C102.277 50.093 103.714 49.0211 105.054 47.1073C105.92 45.8688 106.482 44.9953 106.813 44.455C107.234 44.7539 107.669 45.0211 108.115 45.2625C107.954 45.4981 107.732 45.82 107.421 46.2683C106.9 47.0211 106.528 47.8458 106.171 48.6447C105.627 49.8631 105.111 51.0154 104.092 51.978L103.657 52.3918C102.087 53.8832 100.734 55.1735 98.7466 55.7137C97.9892 55.9206 97.1108 56.3056 96.1777 56.7108C94.4901 57.4493 92.5779 58.2855 91.9155 57.7137C91.3568 57.2338 92.8227 55.1476 94.0005 53.4752C94.8213 52.3114 95.668 51.1045 96.1547 50.0844C96.6126 49.1275 97.0676 47.8746 97.5514 46.547C98.4529 44.07 99.4723 41.2625 100.705 39.9033C101.364 39.1763 101.819 38.6274 102.185 38.1849V38.1878ZM102.721 42.1418C101.834 42.9608 101.724 43.4378 101.601 43.9924C101.491 44.478 101.367 45.0297 100.581 46.0614C99.743 47.1648 99.5328 47.9407 99.959 48.3717C100.126 48.5412 100.362 48.6073 100.593 48.6073C100.823 48.6073 101.068 48.5355 101.215 48.4292C101.629 48.1246 103.478 46.4694 104.544 45.0182C105.019 44.3688 105.414 43.8918 105.696 43.5642C105.742 43.6102 105.791 43.6562 105.84 43.6964C106.004 43.8372 106.168 43.9723 106.332 44.1016C106.007 44.6303 105.442 45.5125 104.564 46.7711C103.28 48.6073 101.943 49.6016 100.532 50.6562C100.25 50.866 99.9677 51.0757 99.6854 51.2941C99.0634 51.774 98.496 52.3631 97.9978 52.8803C97.2462 53.662 96.5348 54.4005 96.1172 54.2223C96.0654 54.1993 96.0021 54.1591 95.9617 54.0413C95.8581 53.728 95.8523 52.6016 98.0295 48.9522C98.7437 47.7568 99.2909 46.6878 99.8237 45.6562C100.59 44.1619 101.315 42.7539 102.424 41.1935C102.816 40.6418 103.349 40.1562 103.778 39.8113C103.887 40.2079 104.008 40.5987 104.146 40.9694C103.7 41.274 103.173 41.7251 102.727 42.1389L102.721 42.1418ZM104.368 41.5383C104.627 42.1332 104.933 42.6734 105.29 43.1217C104.993 43.4608 104.576 43.9665 104.06 44.6677C103.029 46.07 101.209 47.6935 100.86 47.9493C100.771 48.0125 100.48 48.0556 100.382 47.955C100.287 47.8573 100.302 47.4119 101.056 46.4206C101.92 45.2855 102.064 44.6389 102.182 44.1217C102.295 43.6274 102.375 43.2711 103.127 42.5757C103.691 42.0556 104.089 41.7366 104.371 41.5355L104.368 41.5383ZM93.8249 50.82C94.66 49.3372 95.3224 48.1591 95.8149 46.7424C96.9985 44.843 97.9719 43.251 98.666 42.1102C98.0525 43.4234 97.5025 44.9378 96.9899 46.3487C96.5118 47.6619 96.0625 48.9033 95.6161 49.8344C95.1496 50.8114 94.3173 51.9953 93.5109 53.1418C91.927 55.3947 90.5562 57.3401 91.5238 58.1735C91.7945 58.4062 92.1459 58.5039 92.5548 58.5039C93.5772 58.5039 94.9653 57.8976 96.4139 57.2654C97.3239 56.8689 98.185 56.4924 98.8992 56.297C101.03 55.7166 102.436 54.3803 104.063 52.8315L104.498 52.4206C105.604 51.3775 106.168 50.116 106.712 48.8976C107.075 48.0872 107.418 47.3229 107.908 46.616C108.227 46.1533 108.469 45.8056 108.648 45.5412C108.913 45.6677 109.183 45.7826 109.463 45.8889C108.688 47.3257 106.874 50.6936 105.592 53.0326C103.974 55.9896 98.6717 62.2597 94.6859 66.3746C92.3331 68.8028 90.6426 69.162 89.1508 69.481C88.8138 69.5528 88.4855 69.6247 88.1601 69.7195C87.1781 68.7511 86.2536 67.7856 85.381 66.8344C85.62 65.9551 85.9915 64.9896 86.5272 63.9925C87.8088 61.6016 88.9549 59.5672 90.0608 57.5988C90.9738 55.9752 91.9212 54.2941 92.9321 52.4292C93.2489 51.8459 93.5455 51.32 93.8249 50.8257V50.82ZM110.03 46.0843C110.35 46.1878 110.678 46.2826 111.018 46.366C108.674 52.3574 103.245 60.8488 101.068 62.8631C100.126 63.7338 99.2218 65.093 98.2657 66.5327C96.7192 68.8603 94.9653 71.4982 92.6009 72.7511C92.3331 72.8919 92.0825 73.0298 91.8493 73.162C91.5814 72.9206 91.3165 72.6793 91.0429 72.435C90.2135 71.6879 89.4186 70.9436 88.6554 70.1994C88.857 70.1505 89.0615 70.1045 89.2746 70.0586C90.7722 69.7396 92.6355 69.343 95.1122 66.7827C99.2131 62.547 104.452 56.3516 106.113 53.3114C107.418 50.9263 109.281 47.4752 110.03 46.0843ZM92.4367 52.0901C92.4281 52.1074 92.4195 52.1246 92.408 52.1418C91.3971 54.001 90.4525 55.6792 89.5396 57.3028C88.4308 59.274 87.2846 61.3114 86.0002 63.708C85.5394 64.57 85.1737 65.458 84.9116 66.3114C84.5286 65.8861 84.1571 65.4637 83.7942 65.0413C86.8728 60.6476 89.8765 56.0873 92.4367 52.0901ZM69.89 43.3085C69.9937 43.751 70.3019 44.9579 70.9556 46.7481C70.6187 46.4464 70.276 46.0269 70.011 45.4349C69.2622 43.7596 68.4674 42.4407 66.8258 40.9493C68.2629 42.0757 69.3889 42.932 69.89 43.3085ZM65.7257 40.7826C67.7791 42.4665 68.6517 43.8516 69.4667 45.6763C69.9793 46.8229 70.7598 47.4263 71.3271 47.7338C72.1709 49.8832 73.4525 52.6792 75.3503 55.8832C74.2732 55.4263 72.8304 54.6074 72.0327 53.2769C70.8289 51.2769 69.2248 47.4091 68.165 44.8516C67.9519 44.3401 67.7647 43.8832 67.6063 43.5096C66.8719 41.7711 64.5421 40.3544 63.3671 39.728C63.5485 39.3544 63.6868 38.9809 63.7875 38.6073C64.1245 39.1906 64.7091 39.9493 65.7257 40.7826ZM45.2093 19.1331C45.6442 19.5871 46.4189 20.5038 47.28 21.5411L46.6205 22.0756C45.6615 20.9377 44.9617 20.1245 44.5326 19.6302C44.7572 19.4636 44.9847 19.2998 45.2093 19.1331ZM44.0516 19.9837C44.475 20.4722 45.1834 21.2911 46.1568 22.4492L45.6327 22.8745C45.2669 22.2107 44.5815 21.2624 43.3806 20.4808C43.6024 20.317 43.827 20.1503 44.0516 19.9837ZM40.5324 22.6245C41.2581 22.0699 42.0501 21.4722 42.868 20.863C44.138 21.636 44.8263 22.6331 45.1604 23.2595L44.0228 24.182C42.9486 22.5498 42.4878 22.2567 42.1019 22.3429C41.6844 22.4377 41.6239 22.9837 41.6037 23.1618C41.4972 24.1015 41.7276 24.6963 42.2114 25.6504L40.8895 26.7193C40.4374 25.5728 40.086 23.9894 39.9103 23.1072C40.1234 22.9406 40.3337 22.7768 40.5353 22.6216L40.5324 22.6245ZM43.5592 24.5584L42.6837 25.2682C42.2863 24.4693 42.1106 23.9722 42.1941 23.2308C42.2114 23.0728 42.2373 22.9866 42.2546 22.9435C42.387 23.0095 42.7355 23.3055 43.5592 24.5584ZM39.3833 23.5239C39.5878 24.5038 39.9449 26.0153 40.4057 27.113L38.8275 28.3917C38.0701 27.0009 37.6583 25.794 37.4567 25.0958C38.0989 24.5613 38.7555 24.0239 39.3833 23.5239ZM36.9556 25.5153C37.1888 26.2825 37.6179 27.4435 38.3552 28.7739L36.1002 30.5987C35.6251 29.5124 35.4206 27.84 35.3399 26.9032C35.8266 26.4751 36.3767 26.0009 36.9527 25.5124L36.9556 25.5153ZM33.7848 28.3515C34.0152 28.1159 34.3665 27.7854 34.7899 27.4004C34.8993 28.4435 35.1355 29.955 35.6251 30.9866L35.5675 31.0326C34.6948 29.7739 34.0699 28.8372 33.7819 28.3544L33.7848 28.3515ZM31.6998 76.1189C30.064 75.4322 24.6469 72.935 18.8036 67.7511C13.3231 62.889 8.77867 57.5068 7.3704 55.7884L11.3187 52.5901C11.9754 53.8861 13.5161 56.6878 15.9755 59.7884C19.3594 64.0528 25.9832 68.8804 28.2842 69.8747C29.9085 70.5758 31.933 71.3431 32.9669 71.731C32.437 73.5528 31.9762 75.1505 31.6998 76.1218V76.1189ZM43.7406 45.5182C41.4741 47.9407 37.1629 58.139 36.4113 60.2597C35.8958 61.7195 34.3637 66.9149 33.1311 71.1563C32.0885 70.7683 30.1101 70.0155 28.5175 69.3287C26.2654 68.3574 19.7683 63.616 16.4392 59.4206C13.9308 56.2597 12.3958 53.4177 11.7882 52.2079L53.7655 18.1992L65.622 29.8228L64.401 30.9923C63.5111 31.4406 62.0942 32.682 62.3822 34.6159C62.7306 36.9579 62.8372 39.6131 59.6923 41.4406C55.9974 43.5901 55.4071 43.8602 52.268 43.7912C51.6689 43.7769 51.0958 43.7453 50.54 43.7136C47.9337 43.5642 45.6845 43.4378 43.7435 45.5125L43.7406 45.5182ZM57.3366 45.9608C57.7254 46.4435 58.166 46.9895 58.621 47.5269C59.6088 48.6935 60.179 49.9091 60.732 51.0844C61.0833 51.8344 61.4174 52.5441 61.8465 53.2338C62.4686 54.2281 64.0439 56.5298 65.3024 56.5298C65.311 56.5298 65.3168 56.5298 65.3254 56.5298C65.5731 56.524 65.9158 56.4263 66.1606 55.9953C66.3507 55.6562 66.0655 55.2252 65.3801 54.1849C64.5795 52.9723 63.3671 51.139 62.5319 48.7683C62.1892 47.7941 61.21 46.8545 59.9717 45.6648C59.436 45.1504 58.8485 44.5843 58.2581 43.9608C58.4799 43.843 58.7103 43.7165 58.9551 43.5786C59.9746 44.251 62.0999 45.7568 63.1741 47.2568C63.609 47.866 64.3866 49.2309 65.3715 50.9608C67.6869 55.0269 71.1831 61.1677 74.1667 64.32C76.8479 67.1534 78.7572 69.4091 80.2893 71.2224C81.136 72.2224 81.8646 73.0873 82.5011 73.7741C83.5811 74.9465 84.2089 76.1304 84.7589 77.1793C85.0729 77.7712 85.3666 78.3316 85.7036 78.7971C85.9944 79.1994 86.6107 79.8 87.3221 80.4954C88.3963 81.5414 90.6282 83.7224 90.2106 84.1965C90.1731 84.2397 90.0954 84.2569 89.9917 84.2598C88.7217 84.2339 84.9634 81.2023 82.6768 78.3632C82.2218 77.7971 81.7149 77.1505 81.1562 76.4379C78.5787 73.1477 75.0508 68.639 70.7627 64.6649C65.288 59.593 61.2676 55.0441 59.7327 52.1907C59.1711 51.1476 58.6037 50.1792 58.0566 49.2424C57.1926 47.7654 56.3689 46.3573 55.7843 44.9953C55.9888 44.9407 56.1904 44.8803 56.3949 44.8085C56.6713 45.1332 56.9881 45.5269 57.3337 45.955L57.3366 45.9608ZM56.9824 44.5872C57.2156 44.4866 57.4547 44.3746 57.7081 44.251C58.3445 44.932 58.981 45.547 59.557 46.0987C60.6917 47.1907 61.6708 48.1303 61.9675 48.9723C62.8285 51.4119 64.064 53.2798 64.879 54.5183C65.2189 55.0326 65.5702 55.5643 65.6134 55.751C65.5068 55.9148 65.3974 55.9378 65.311 55.9407H65.2995C64.807 55.9407 63.7444 55.1533 62.3505 52.9263C61.9387 52.2683 61.6132 51.5729 61.2705 50.8401C60.7032 49.6275 60.1157 48.3746 59.076 47.1504C58.6239 46.6188 58.1862 46.0728 57.8002 45.5958C57.5036 45.228 57.2329 44.8918 56.9824 44.593V44.5872ZM57.5411 49.5499C58.0854 50.4809 58.6498 51.4436 59.2056 52.478C60.7694 55.389 64.8358 59.9924 70.3566 65.1074C74.6102 69.0499 78.1237 73.5356 80.6868 76.8115C81.2455 77.5241 81.7552 78.1764 82.2102 78.7425C84.4652 81.5442 88.3473 84.8259 89.9744 84.8603C89.9831 84.8603 89.9917 84.8603 90.0004 84.8603C90.3459 84.8603 90.5475 84.7167 90.6541 84.596C91.3827 83.7626 89.9024 82.1994 87.7339 80.0787C87.0686 79.4293 86.4437 78.8172 86.1816 78.458C85.8706 78.027 85.597 77.5097 85.2802 76.9092C84.71 75.8316 84.0649 74.6074 82.9331 73.3804C82.3082 72.7023 81.5795 71.8431 80.7386 70.8488C79.2007 69.0298 77.2856 66.7655 74.5929 63.9206C71.6583 60.82 68.1823 54.7166 65.8841 50.6763C64.8906 48.9321 64.1072 47.5527 63.6522 46.9206C62.5953 45.4435 60.6456 44.0096 59.5311 43.2567C59.8133 43.093 60.1128 42.9205 60.4353 42.7338C60.9739 42.4205 61.4376 42.0843 61.8321 41.7309C62.6846 42.2567 64.2915 43.3746 65.4291 44.8947C66.0943 45.7855 67.2895 48.001 68.6747 50.5642C70.6503 54.2223 73.1098 58.774 74.8895 60.9953C76.822 63.4034 78.1784 65.2453 79.172 66.593C79.7249 67.3402 80.1598 67.9321 80.5457 68.4206C81.6746 69.8545 84.1081 73.5643 84.6956 74.4867C85.0844 75.0988 86.3976 76.05 87.7886 77.0586C88.8686 77.8402 90.0896 78.7281 90.2797 79.073C90.6051 79.6707 91.3049 81.1276 91.9184 82.4121C92.166 82.9293 92.4079 83.4322 92.6182 83.8632C92.8601 84.3603 93.3353 85.0471 93.8882 85.8402C94.8184 87.1764 96.3736 89.4092 95.9243 89.9897C95.6104 90.392 94.3461 89.4523 93.3295 88.6937C92.3849 87.9897 91.4086 87.2627 90.6109 87.0615C88.8743 86.6247 83.5004 83.0098 81.496 80.7167C80.6954 79.8 79.9697 78.8804 79.267 77.9896C78.1553 76.5787 77.1042 75.2454 75.7737 73.9178C73.3229 71.4724 60.277 58.139 57.4028 53.7625C54.8109 49.8171 53.7857 47.5412 53.6474 45.2826C54.2177 45.2625 54.7159 45.2165 55.1853 45.1332C55.7872 46.5614 56.6396 48.0183 57.5353 49.5499H57.5411ZM46.1482 45.5671C46.7443 45.2941 47.3923 45.1792 48.1094 45.1418C48.1152 45.4723 48.1728 45.8602 48.3571 46.228C48.5155 46.5441 48.9561 47.093 49.5119 47.7855C50.373 48.8602 51.5538 50.3315 51.7611 51.1217C51.8907 51.6217 52.1614 52.1763 52.4724 52.82C52.7719 53.4378 53.1089 54.1418 53.3911 54.9349C51.0987 52.07 48.5875 48.8056 46.1482 45.5642V45.5671ZM59.0444 61.6361C57.7484 60.2396 56.1357 58.3344 54.3559 56.139C54.0391 54.7108 53.4775 53.5384 53.0081 52.5642C52.7086 51.9493 52.4523 51.4177 52.3371 50.9752C52.1009 50.0642 50.9231 48.5958 49.9785 47.4177C49.486 46.8056 49.0223 46.2251 48.8927 45.9665C48.7545 45.6907 48.7113 45.3889 48.7084 45.1332C49.2412 45.1332 49.8085 45.1677 50.422 45.2022C50.5861 46.0585 50.9403 47.5384 51.5941 48.6763C51.715 48.8861 51.8734 49.1706 52.0664 49.5125C53.4055 51.9091 56.1904 56.8947 58.9868 59.7281L59.7154 60.4637C62.8602 63.6476 68.1218 68.9752 69.0261 70.3287C69.1672 70.5385 69.3198 70.7597 69.4811 70.9925C70.1608 71.9666 70.9585 73.1132 71.2954 74.2856C66.9468 69.9637 62.9121 65.7971 59.0501 61.639L59.0444 61.6361ZM72.0356 75.0212C71.8973 73.4235 70.8404 71.9034 69.9649 70.6505C69.8065 70.4235 69.6539 70.2051 69.5157 69.9982C68.5797 68.5959 63.4967 63.4493 60.133 60.047L59.4044 59.3114C56.6656 56.5355 53.9066 51.5959 52.5819 49.2223C52.3889 48.8775 52.2276 48.5901 52.1067 48.3775C51.5336 47.3832 51.1995 46.0671 51.0325 45.2338C51.4213 45.2539 51.8158 45.274 52.2276 45.2826C52.5214 45.2884 52.795 45.2912 53.0542 45.2912C53.1924 47.6706 54.2436 50.0269 56.9075 54.0844C59.8104 58.5011 72.8995 71.8804 75.3561 74.3316C76.6636 75.6362 77.7003 76.9551 78.8004 78.3488C79.506 79.2454 80.2375 80.1707 81.0468 81.0988C83.1635 83.5213 88.6324 87.1678 90.464 87.6276C91.1466 87.8 92.0739 88.4897 92.9695 89.1592C94.0063 89.9322 94.9999 90.6736 95.7227 90.6736C95.9848 90.6736 96.2123 90.5759 96.3908 90.3431C97.1051 89.4207 95.7169 87.4236 94.372 85.4925C93.8565 84.7512 93.3698 84.05 93.1481 83.596C92.9378 83.1649 92.6988 82.6621 92.4511 82.1477C91.8032 80.7942 91.1321 79.3948 90.7981 78.7827C90.5562 78.3402 89.6288 77.6534 88.1342 76.5701C86.9102 75.6822 85.5221 74.6764 85.1938 74.1592C84.6034 73.231 82.1498 69.4953 81.0093 68.0442C80.6292 67.5614 80.1972 66.9752 79.6471 66.231C78.6507 64.8804 77.2885 63.0327 75.3503 60.616C73.6051 58.4378 71.1601 53.912 69.196 50.274C67.7992 47.6907 66.5954 45.4579 65.9014 44.5326C64.7523 42.9924 63.1828 41.8717 62.267 41.2941C62.5866 40.955 62.8516 40.6044 63.0733 40.2481C64.1821 40.8401 66.3939 42.1792 67.0534 43.7366C67.2117 44.1102 67.3989 44.5642 67.6121 45.0757C68.6805 47.6504 70.2932 51.5413 71.5201 53.5786C72.6173 55.4033 74.7283 56.3315 75.8514 56.7108C76.6031 57.9378 77.444 59.2194 78.3829 60.5442C78.3195 62.9925 79.1633 64.1103 80.3873 65.7195C80.4996 65.866 80.6148 66.0212 80.7357 66.1792L80.7761 66.2338C82.4464 68.4551 86.8843 74.3603 90.1127 77.2856C92.0652 79.0557 93.4361 81.3948 94.8847 83.869C95.7947 85.4207 96.7336 87.0241 97.851 88.5299C99.887 91.2742 102.194 94.3834 101.877 95.6104C101.828 95.8029 101.707 95.938 101.503 96.0299C100.261 96.596 95.0776 92.9351 93.125 91.5587C92.5692 91.1678 92.1315 90.8575 91.8838 90.7023C90.6023 89.8977 87.1205 87.619 84.5343 85.7023C83.2096 84.7195 81.4586 82.846 79.9178 81.1908C78.2187 79.3718 77.1503 78.2425 76.5772 78.0155C75.9465 77.7626 75.3388 77.7655 74.8924 77.8287C73.9219 76.8833 72.9687 75.9465 72.0269 75.0155L72.0356 75.0212ZM72.7527 79.3402C72.9888 79.0557 73.2192 78.777 73.4496 78.4983C75.5663 80.5644 77.7637 82.6736 80.0503 84.8374C77.7694 85.9063 75.4943 86.3172 73.1846 85.5701C72.3725 85.3086 71.9895 84.5299 72.0183 83.1965C72.0384 82.2253 72.2832 80.9552 72.7527 79.3431V79.3402ZM62.074 91.8891C62.002 92.0328 61.9041 92.1966 61.7831 92.3891C61.5182 92.8115 61.2187 93.2885 61.1323 93.8575C60.9566 95.0069 59.7672 95.7483 58.4137 96.096C59.6405 94.6937 60.8645 93.2857 62.074 91.8862V91.8891ZM53.4458 101.754C55.6979 100.398 59.0588 98.7483 60.3806 99.6535C60.3893 99.6593 60.4181 99.6794 60.4238 99.7685C60.5131 101.102 56.1241 106.363 54.3847 107.941C52.7777 109.398 51.0008 111.599 47.8588 115.688C46.6723 117.231 45.6615 118.369 44.7687 119.375C43.3489 120.975 42.1192 122.358 40.6706 124.771C39.6252 126.51 38.7008 128.217 37.8829 129.723C37.6583 130.136 37.4423 130.53 37.232 130.918C36.9152 130.493 36.5063 130.142 36.034 129.895C37.4682 127.059 39.4179 123.769 41.932 121.076C43.4209 119.481 44.5758 117.576 45.9149 115.369C47.1763 113.291 48.6047 110.935 50.6955 108.148C52.0261 106.372 52.1038 105.832 51.7985 105.533C51.5768 105.317 51.1736 105.205 49.4198 106.309C50.7359 104.829 52.0865 103.303 53.4516 101.754H53.4458ZM36.4401 133.01C36.4401 134.131 35.5271 135.042 34.404 135.042C33.2808 135.042 32.3679 134.131 32.3679 133.01C32.3679 131.889 33.2808 130.978 34.404 130.978C35.5271 130.978 36.4401 131.889 36.4401 133.01ZM33.3183 124.044C35.4839 121.797 41.0825 115.659 47.784 108.142C49.365 106.998 50.8338 106.067 51.3291 105.99C51.2802 106.171 51.0728 106.648 50.2146 107.789C48.1065 110.596 46.6695 112.967 45.4023 115.056C44.0257 117.323 42.94 119.116 41.4943 120.665C38.9225 123.421 36.9383 126.777 35.4839 129.659C35.1441 129.55 34.7841 129.49 34.4069 129.49C33.8078 129.49 33.2434 129.639 32.748 129.904C35.0491 126.234 38.6086 121.406 39.1529 120.898C39.9305 120.168 41.549 118.654 41.6556 117.188C41.6786 116.858 41.4914 116.746 41.4108 116.711C40.9442 116.521 40.2588 117.177 37.0852 120.858C35.6337 122.539 34.1333 124.277 33.4795 124.746C33.1253 124.998 32.7336 125.303 32.3189 125.625C31.5961 126.188 30.7868 126.815 29.9229 127.369C31.0979 126.274 32.2556 125.148 33.324 124.039L33.3183 124.044ZM21.3897 136.714C22.9679 135.496 27.2935 133.648 28.2064 133.602C28.1892 133.705 28.097 133.838 27.8925 134.111C27.6132 134.484 27.1927 135.05 26.7867 136.013C26.2424 137.3 24.3215 138.418 23.325 138.927C22.533 138.09 21.888 137.335 21.3897 136.714ZM25.1998 140.78C24.6786 140.297 24.1976 139.826 23.757 139.375C24.8542 138.8 26.7463 137.645 27.3367 136.243C27.714 135.346 28.0941 134.838 28.3706 134.464C28.673 134.059 28.912 133.737 28.7565 133.289C28.7277 133.202 28.6413 133.053 28.3908 133.016C27.4087 132.875 22.8527 134.863 21.047 136.237C20.8051 135.743 20.9261 135.122 21.3725 134.763C23.0198 133.43 25.5541 131.329 28.1748 128.97C29.8653 128.286 31.4002 127.093 32.6789 126.099C33.0879 125.78 33.4738 125.481 33.8194 125.234C34.5336 124.725 35.9908 123.036 37.5315 121.251C38.7325 119.86 40.3106 118.03 41.0076 117.455C40.7282 118.61 39.4035 119.852 38.7209 120.49C38.0269 121.139 31.2994 130.286 30.3145 133.174C30.1821 133.559 30.0582 133.941 29.9344 134.312C29.1856 136.573 28.5405 138.527 27.3914 139.274C26.5419 139.826 25.724 140.401 25.197 140.777L25.1998 140.78ZM26.323 141.786C26.0897 141.585 25.868 141.389 25.6491 141.191C26.1704 140.82 26.9335 140.286 27.7197 139.774C29.0416 138.912 29.7184 136.869 30.5017 134.501C30.6256 134.131 30.7494 133.751 30.8819 133.369C30.8876 133.355 30.8934 133.338 30.8991 133.326C30.9999 134.484 31.6681 135.481 32.6213 136.044C32.5407 136.248 32.46 136.45 32.3852 136.648C31.6162 138.611 31.0115 140.162 29.7011 141.323C28.7853 142.136 28.1604 142.674 27.7658 143.007C27.2964 142.616 26.8126 142.208 26.323 141.789V141.786ZM28.2295 143.389C28.6269 143.05 29.2317 142.53 30.0928 141.763C31.5068 140.507 32.1692 138.817 32.9352 136.858C33.0072 136.674 33.0821 136.487 33.157 136.297C33.4363 136.404 33.733 136.478 34.0411 136.51C33.8856 136.944 33.7733 137.358 33.6725 137.766C33.4421 138.677 33.2232 139.539 32.4313 140.567C31.311 142.03 30.1043 143.576 29.4621 144.392C29.0647 144.073 28.6528 143.737 28.2266 143.389H28.2295ZM31.9532 146.338C31.3686 145.892 30.6832 145.363 29.9315 144.766C30.5708 143.95 31.7833 142.398 32.9064 140.93C33.7704 139.803 34.0152 138.84 34.2513 137.912C34.3665 137.464 34.4846 137.004 34.6747 136.516C36.4919 136.378 37.929 134.861 37.929 133.013C37.929 132.475 37.8023 131.967 37.5863 131.51C37.8512 131.03 38.1219 130.53 38.407 130.01C39.222 128.51 40.1436 126.809 41.1804 125.082C42.603 122.717 43.8126 121.352 45.2122 119.774C46.1108 118.763 47.1302 117.613 48.3283 116.056C51.4472 111.996 53.2097 109.812 54.7821 108.386C56.1587 107.139 61.138 101.533 61.0171 99.734C60.9969 99.4236 60.8414 99.257 60.7176 99.1707C59.3756 98.2512 56.7692 99.2627 54.6669 100.375C55.695 99.2052 56.7289 98.0271 57.7657 96.8432C59.6578 96.5615 61.4635 95.619 61.7198 93.9552C61.7889 93.5069 62.0423 93.1018 62.2871 92.711C62.5838 92.2397 62.9322 91.6822 62.7479 91.1161C63.9287 89.7512 65.0921 88.3977 66.2326 87.0644C66.3766 88.2167 66.1231 90.2742 64.4845 93.892C64.0611 94.8288 63.8192 95.8719 63.5658 96.9782C63.1079 98.9667 62.6356 101.021 61.0401 102.817L60.6917 103.208C57.8204 106.435 49.0886 116.257 46.3987 119.748C43.6369 123.338 37.7504 134.421 35.8756 138.228C35.1009 139.803 34.5019 141.059 33.9202 142.277C33.2952 143.59 32.6991 144.84 31.9503 146.338H31.9532ZM37.2637 141.248C35.7287 143.717 34.5739 145.774 33.8654 147.085C33.7762 147.251 33.6293 147.306 33.5486 147.323C33.468 147.34 33.3125 147.355 33.1599 147.24C32.9525 147.088 32.7077 146.904 32.4399 146.703C33.2146 145.154 33.8251 143.875 34.4645 142.53C35.0433 141.315 35.6423 140.059 36.417 138.49C38.2861 134.7 44.1438 123.665 46.8797 120.11C49.5551 116.633 58.2783 106.826 61.1438 103.602L61.4923 103.211C63.1885 101.303 63.7012 99.0759 64.1533 97.1104C64.401 96.0357 64.6342 95.0184 65.0345 94.1363C66.895 90.027 67.0649 87.7483 66.7366 86.4839C68.5192 84.3948 70.2385 82.3661 71.8455 80.4408C71.5834 81.5241 71.4452 82.4264 71.4308 83.1879C71.3962 84.7971 71.929 85.7914 73.009 86.1391C73.8873 86.4236 74.7571 86.5529 75.621 86.5529C77.2741 86.5529 78.9012 86.073 80.5255 85.2828C80.8682 85.6075 81.2138 85.9322 81.5623 86.2598C77.1503 89.0673 73.3747 91.5615 71.019 94.1276C67.7359 97.6995 66.3708 99.2886 64.3031 101.694C62.3966 103.909 59.7845 106.947 54.4221 112.99C52.3428 115.332 51.4069 116.432 50.2175 117.829C49.4198 118.769 48.5126 119.832 47.0784 121.484C45.0106 123.866 44.5902 124.838 44.0056 126.185C43.5736 127.177 43.0379 128.412 41.67 130.628C39.5359 134.082 38.7613 136.559 37.9405 139.182C37.7303 139.858 37.5143 140.542 37.2724 141.251L37.2637 141.248ZM75.7823 95.5414C65.7257 106.559 53.5524 120.085 46.3152 128.797C46.6032 127.734 47.3318 126.125 49.1116 123.941C51.6258 120.852 54.2061 117.837 57.1955 114.346C58.6153 112.688 60.1157 110.935 61.7284 109.036C63.2317 107.266 64.4758 105.763 65.576 104.435C68.1448 101.335 70.0024 99.0932 72.8592 96.1621C74.6131 94.3633 76.0386 93.915 77.6859 93.3949C77.7061 93.3891 77.7262 93.3805 77.7493 93.3748C77.0207 94.1822 76.3612 94.9092 75.7852 95.5414H75.7823ZM78.5441 92.4897C78.1899 92.6133 77.8443 92.7225 77.5074 92.8288C75.8514 93.3489 74.2905 93.8403 72.4301 95.7483C69.556 98.6966 67.6927 100.947 65.1152 104.056C64.0179 105.381 62.7709 106.883 61.2705 108.651C59.6607 110.547 58.1602 112.3 56.7404 113.958C53.7482 117.452 51.165 120.47 48.6479 123.565C46.1424 126.645 45.6125 128.674 45.5521 129.72C43.8126 131.832 42.4043 133.622 41.4453 134.967C40.3855 136.452 39.415 137.892 38.5337 139.251C39.3315 136.705 40.1033 134.283 42.1711 130.935C43.562 128.682 44.1063 127.427 44.547 126.418C45.1316 125.07 45.5175 124.182 47.5248 121.869C48.9618 120.214 49.869 119.148 50.6696 118.208C51.8561 116.814 52.7921 115.717 54.8656 113.381C60.2309 107.335 62.8458 104.297 64.7523 102.079C66.8172 99.6794 68.1794 98.0932 71.4567 94.5271C73.7837 91.9926 77.5765 89.4983 82.0086 86.6793C82.3226 86.9753 82.6336 87.2655 82.9504 87.5644C81.3204 89.392 79.8372 91.0529 78.547 92.4897H78.5441ZM85.8792 88.2655C82.1872 84.8374 78.7428 81.5672 75.4799 78.3977C75.7535 78.4034 76.0588 78.4523 76.3669 78.5758C76.845 78.7655 78.1899 80.208 79.4916 81.6046C81.0525 83.277 82.8208 85.1736 84.1887 86.1879C86.7893 88.1161 90.2883 90.4063 91.5757 91.2138C91.8089 91.3604 92.2409 91.665 92.791 92.0529C96.0049 94.3202 99.5069 96.6822 101.232 96.6822C101.434 96.6822 101.609 96.6506 101.759 96.5817C102.13 96.4121 102.367 96.1391 102.462 95.7684C102.822 94.3719 101.065 91.8604 98.3377 88.1851C97.2404 86.7052 96.3073 85.1161 95.4059 83.5759C93.9314 81.0586 92.5404 78.6822 90.5187 76.8517C87.3307 73.9638 82.9187 68.093 81.257 65.8833L81.2167 65.8287C81.0957 65.6677 80.9805 65.5154 80.8653 65.366C79.8026 63.9695 79.1172 63.0614 78.9963 61.3947C81.617 64.9781 84.9548 68.8459 89.194 72.7626C89.4849 74.4753 90.6138 76.4264 91.7974 77.1074C93.1135 77.8661 96.6328 81.3316 97.3297 82.9121C98.1073 84.6707 100.907 88.8834 103.352 91.2253C104.849 92.6621 105.578 94.3374 106.28 95.961C106.712 96.9552 107.118 97.8949 107.68 98.7081C108.61 100.05 108.59 101.455 108.175 102.191C107.997 102.51 107.651 102.886 106.997 102.849C106.062 102.797 104.656 101.556 103.029 100.116C101.678 98.9208 100.146 97.5644 98.3636 96.3805C95.4635 94.4523 91.4749 92.5328 89.4273 91.5903C88.2033 90.438 87.0168 89.3259 85.8792 88.2684V88.2655ZM116.366 120.067C116.562 119.97 116.781 119.921 116.968 120.042C117.308 120.26 117.587 120.909 117.835 121.481C118.027 121.927 118.209 122.346 118.431 122.633C118.609 122.863 118.891 123.128 119.194 123.406C119.695 123.872 120.38 124.507 120.38 124.878C120.38 125.105 120.081 125.559 119.816 125.958C119.704 126.125 119.591 126.3 119.482 126.475C118.652 124.26 117.63 122.07 116.369 120.067H116.366ZM119.747 127.214C119.905 126.904 120.113 126.585 120.311 126.286C120.668 125.748 120.974 125.283 120.974 124.878C120.974 124.248 120.274 123.599 119.6 122.973C119.318 122.711 119.053 122.464 118.903 122.271C118.724 122.044 118.56 121.656 118.382 121.248C118.088 120.565 117.783 119.858 117.29 119.542C116.867 119.271 116.415 119.36 116.037 119.565C115.588 118.886 115.116 118.228 114.606 117.602C114.016 116.875 113.388 116.125 112.734 115.363C113.621 115.309 114.874 115.343 115.773 115.832C117.279 116.651 119.747 120.214 120.406 121.682C120.668 122.263 121.423 123.033 122.298 123.924C123.6 125.248 125.221 126.895 124.957 127.817C124.752 128.536 124.254 128.521 123.246 128.323C122.647 128.205 122.08 128.093 121.682 128.409C121.288 128.723 120.907 129.274 120.608 129.895C120.349 129.007 120.064 128.108 119.747 127.214ZM120.87 130.823C121.152 130.004 121.633 129.211 122.054 128.875C122.235 128.728 122.69 128.82 123.131 128.906C123.934 129.065 125.149 129.303 125.53 127.981C125.89 126.725 124.28 125.09 122.725 123.507C121.924 122.694 121.167 121.924 120.951 121.441C120.32 120.039 117.82 116.269 116.058 115.312C114.86 114.659 113.186 114.711 112.253 114.806C111.697 114.165 111.122 113.513 110.531 112.852C111.862 113.737 113.112 114.363 113.909 114.283C114.958 114.177 115.366 113.708 115.729 113.294C116.072 112.904 116.343 112.593 117.169 112.55C118.413 112.478 118.84 113.996 119.13 115.418C119.174 115.622 119.208 115.803 119.246 115.944C119.502 116.912 123.701 123.323 124.597 124.113C125.437 124.855 127.652 127.424 127.655 128.823C127.655 129.079 127.58 129.271 127.422 129.412C126.817 129.95 126.307 130.004 125.763 130.065C125.144 130.131 124.504 130.2 123.865 130.981C123.22 131.771 122.365 133.231 121.815 134.892C121.558 133.596 121.244 132.225 120.864 130.826L120.87 130.823ZM131.399 145.999C129.222 146.134 127.554 146.139 126.296 145.984C126.97 145.223 127.949 144.292 128.749 144.134C129.619 143.958 131.865 144.927 133.426 145.694C132.784 145.846 132.11 145.955 131.399 145.999ZM134.282 145.458C132.951 144.771 129.901 143.3 128.631 143.553C127.491 143.78 126.247 145.108 125.604 145.878C124.516 145.662 123.81 145.286 123.398 144.714C124.32 144.384 125.803 143.728 126.682 142.7C127.157 142.142 127.387 141.533 127.589 140.993C127.954 140.024 128.217 139.326 129.674 139.24C131.232 139.151 131.998 140.019 132.968 141.119C133.455 141.671 133.956 142.24 134.613 142.743C135.604 143.504 136.349 143.996 136.848 144.297C136.076 144.757 135.22 145.157 134.282 145.458ZM137.415 143.944C136.957 143.68 136.139 143.165 134.976 142.271C134.365 141.803 133.884 141.257 133.418 140.726C132.427 139.599 131.488 138.536 129.642 138.645C127.799 138.754 127.41 139.786 127.036 140.783C126.84 141.3 126.638 141.838 126.232 142.315C125.423 143.263 123.974 143.881 123.122 144.182C123.018 143.907 122.958 143.599 122.935 143.254C122.935 143.24 122.935 143.226 122.932 143.211C123.828 142.634 125.417 141.384 125.579 139.714C125.633 139.142 125.659 138.478 125.685 137.774C125.746 136.139 125.832 133.901 126.428 133.645C126.814 133.481 127.186 133.343 127.551 133.292C127.523 133.475 127.502 133.662 127.502 133.855C127.502 135.8 129.089 137.384 131.039 137.384C131.359 137.384 131.664 137.338 131.958 137.257C132.925 138.228 134.025 139.093 135.203 139.588C136.85 140.277 138.711 141.521 139.595 142.145C138.987 142.763 138.259 143.384 137.418 143.944H137.415ZM128.988 133.855C128.988 132.728 129.907 131.812 131.036 131.812C132.165 131.812 133.084 132.728 133.084 133.855C133.084 134.981 132.165 135.898 131.036 135.898C129.907 135.898 128.988 134.981 128.988 133.855ZM140.001 141.705C139.128 141.088 137.193 139.777 135.431 139.042C134.405 138.613 133.438 137.875 132.568 137.03C133.752 136.458 134.572 135.251 134.572 133.855C134.572 133.231 134.408 132.645 134.123 132.136C134.382 132.478 134.653 132.838 134.938 133.22C136.635 135.487 138.72 138.271 141.101 140.294C140.819 140.728 140.45 141.211 140.007 141.705H140.001ZM129.201 116.205C131.076 118.812 132.675 121.125 134.037 123.179C132.11 122.225 130.181 120.906 129.582 119.553C129.121 118.516 128.332 117.335 127.497 116.085C126.84 115.102 126.16 114.087 125.538 112.998C124.885 111.858 124.539 110.656 124.355 109.697C125.985 111.812 127.595 113.973 129.201 116.205ZM118.675 102.625C120.354 104.631 121.993 106.659 123.606 108.731C123.712 109.78 124.038 111.585 125.02 113.297C125.653 114.404 126.339 115.427 127.001 116.418C127.822 117.645 128.597 118.806 129.037 119.797C129.795 121.51 132.309 123.096 134.662 124.133C136.64 127.165 138.077 129.596 139.12 131.542C137.061 130.395 134.973 128.159 132.79 125.815C131.983 124.95 131.151 124.056 130.316 123.217C126.817 119.702 124.142 115.705 123.496 113.033C123.211 111.855 122.241 110.51 121.213 109.085C120.47 108.056 119.701 106.99 119.26 106.047C118.713 104.875 118.635 103.567 118.678 102.631L118.675 102.625ZM118.125 101.97C118.022 102.938 117.976 104.702 118.719 106.291C119.185 107.286 119.969 108.375 120.729 109.427C121.679 110.743 122.661 112.105 122.918 113.168C123.586 115.938 126.324 120.044 129.893 123.631C130.722 124.464 131.551 125.355 132.355 126.214C134.832 128.869 137.182 131.386 139.589 132.424C141.864 136.858 141.864 138.424 141.801 138.817C141.766 139.039 141.634 139.375 141.412 139.774C139.111 137.8 137.075 135.079 135.413 132.861C134.538 131.691 133.783 130.682 133.107 129.929C132.891 129.688 132.649 129.421 132.384 129.128C130.071 126.567 126.201 122.28 124.26 118.889C122.163 115.228 119.966 111.174 117.907 107.165C116.732 104.881 116.078 103.225 115.502 101.766C115.107 100.763 114.733 99.8173 114.246 98.8058C113.829 97.9351 113.371 96.9581 112.959 96.0615C114.739 98.0242 116.455 99.9868 118.125 101.967V101.97ZM111.646 94.6334C112.184 95.8202 112.999 97.5903 113.708 99.0673C114.186 100.062 114.554 100.998 114.946 101.99C115.528 103.464 116.187 105.133 117.374 107.444C119.439 111.461 121.639 115.521 123.738 119.191C125.711 122.636 129.61 126.955 131.937 129.533C132.199 129.823 132.441 130.093 132.657 130.332C132.919 130.625 133.196 130.958 133.487 131.326C132.85 130.711 131.986 130.332 131.03 130.332C129.495 130.332 128.191 131.315 127.704 132.679C127.122 132.711 126.595 132.932 126.186 133.105C125.245 133.507 125.167 135.573 125.083 137.757C125.057 138.453 125.031 139.108 124.98 139.662C124.856 140.924 123.698 141.95 122.874 142.53C122.759 141.07 122.526 138.849 122.065 136.24C122.494 134.271 123.519 132.352 124.326 131.363C124.81 130.771 125.259 130.723 125.826 130.662C126.411 130.599 127.07 130.527 127.816 129.863C128.104 129.608 128.248 129.26 128.248 128.829C128.242 127.088 125.705 124.306 124.988 123.674C124.159 122.944 120.055 116.691 119.819 115.8C119.784 115.668 119.75 115.498 119.709 115.306C119.462 114.105 119.007 111.863 117.132 111.964C116.052 112.021 115.64 112.493 115.274 112.909C114.943 113.289 114.658 113.613 113.843 113.697C112.783 113.803 110.494 112.22 108.437 110.562C104.578 106.386 100.189 101.967 95.8782 97.7713C96.8574 98.165 98.2282 98.9667 99.9216 100.587C100.93 101.553 102.012 102.619 103.064 103.654C106.033 106.573 108.835 109.332 110.108 110.041C112.155 111.185 113.783 111.955 114.776 111.955C115.194 111.955 115.496 111.82 115.672 111.516C116.323 110.395 115.626 105.289 114.281 103.001C113.958 102.45 113.515 101.674 113.016 100.797C111.361 97.892 109.301 94.2799 108.489 93.392C107.427 92.2311 104.031 88.3977 103.403 87.4839C103.291 87.3173 103.133 87.1132 102.951 86.8718C102.372 86.1075 101.526 84.9925 100.97 83.7253C104.826 87.4609 108.348 91.0586 111.646 94.6363V94.6334ZM100.011 82.8C100.495 84.6161 101.707 86.2167 102.476 87.2282C102.652 87.4609 102.804 87.6592 102.911 87.8173C103.585 88.8 107.078 92.7311 108.049 93.7885C108.815 94.6276 110.943 98.3604 112.498 101.087C112.999 101.967 113.443 102.745 113.768 103.297C115.104 105.573 115.603 110.447 115.156 111.214C114.963 111.544 113.984 111.519 110.399 109.518C109.198 108.849 106.292 105.99 103.484 103.225C102.433 102.191 101.347 101.125 100.336 100.156C97.8279 97.7541 95.9646 97.0558 94.9509 96.8661C93.5484 95.5098 92.1603 94.1794 90.8038 92.8949C92.9321 93.9179 95.8062 95.3949 98.0295 96.8719C99.7776 98.0328 101.292 99.3748 102.629 100.559C104.411 102.136 105.817 103.381 106.96 103.441C107 103.441 107.038 103.444 107.078 103.444C107.772 103.444 108.34 103.105 108.691 102.481C109.301 101.392 109.085 99.7024 108.164 98.3719C107.637 97.6104 107.239 96.6966 106.822 95.7282C106.131 94.1305 105.344 92.3201 103.76 90.8C101.367 88.5069 98.6314 84.392 97.8711 82.6764C97.0763 80.8776 93.3612 77.3287 92.0912 76.5988C91.2358 76.1046 90.392 74.7971 89.9773 73.4867C90.0004 73.5069 90.0205 73.527 90.0407 73.5442C93.6146 76.7626 96.9179 79.8258 100.011 82.8ZM96.1518 72.6534C95.3512 73.3172 94.5016 74.0126 93.5887 74.754C93.1654 74.3689 92.7391 73.981 92.31 73.5902C92.4886 73.4896 92.6758 73.389 92.8774 73.2827C95.3771 71.958 97.1742 69.254 98.761 66.8689C99.697 65.4608 100.581 64.1304 101.471 63.3085C103.91 61.0528 109.371 52.2395 111.605 46.5068C112.328 46.6504 113.097 46.7481 113.918 46.8027C112.515 49.343 111.559 51.4378 110.635 53.4665C109.716 55.4809 108.838 57.4091 107.571 59.6936C103.726 64.0672 99.8496 68.4695 96.1576 72.6563L96.1518 72.6534ZM109.255 57.7683C109.961 56.366 110.557 55.0556 111.173 53.7079C112.124 51.6246 113.109 49.4665 114.577 46.8343C115.006 46.8516 115.447 46.8573 115.905 46.8516C116.092 46.8516 116.271 46.8458 116.444 46.8401C116.052 47.7022 115.49 49.1619 115.041 51.1792C113.146 53.3372 111.208 55.5441 109.255 57.7654V57.7683ZM115.893 50.2108C116.328 48.6016 116.812 47.455 117.117 46.8171C117.74 46.7884 118.261 46.7453 118.713 46.7108C118.808 46.7022 118.897 46.6964 118.986 46.6878C117.973 47.843 116.942 49.0183 115.893 50.2108ZM124.669 67.8086C123.324 65.9695 123.793 62.2539 124.136 59.5442C124.202 59.024 124.265 58.5298 124.311 58.0729C124.323 57.9781 125.207 48.3918 122.707 46.2395C121.694 45.3659 120.916 45.1562 119.928 45.1562C119.528 45.1562 119.093 45.1907 118.595 45.2309C117.898 45.2855 117.031 45.3545 115.885 45.3717C111.801 45.4263 109.166 44.6188 106.805 42.5843C105.221 41.2223 104.529 37.0383 104.408 33.5786C104.391 33.0412 104.152 32.5239 103.755 32.159L100.008 28.6877L110.174 16.9204C110.223 16.863 110.312 16.8572 110.376 16.9118L129.91 33.3113C130.328 33.6705 130.664 34.1274 130.883 34.6332L131.027 34.9694L138.043 41.0096L138.072 41.0355L150.832 49.8803C150.291 50.8602 149.162 52.8775 148.5 53.8401C147.647 55.0786 141.205 63.2942 139.396 65.2769C137.749 67.0815 134.708 70.3373 133.409 71.5873C132.323 72.6333 131.442 73.7051 130.339 75.0528C129.009 73.3919 126.019 69.6419 124.669 67.7971V67.8086ZM147.002 65.8948C142.25 71.0787 136.038 77.3574 134.028 79.3776L130.999 75.8862C130.999 75.8862 130.889 75.7511 130.719 75.5385L130.736 75.5155C131.854 74.1477 132.738 73.0672 133.821 72.0241C135.131 70.7626 138.187 67.4982 139.837 65.685C141.718 63.6218 148.111 55.4608 148.989 54.1849C149.663 53.2051 150.769 51.2367 151.325 50.228L156.422 53.7625C155.247 55.5441 151.636 60.8373 147.002 65.889V65.8948Z" fill="#445547"/>
<path d="M49.5351 40.4358C49.3335 40.8093 49.1838 41.0679 49.0916 41.2059C49.0542 41.2691 49.0916 41.3697 49.201 41.5076C49.3134 41.6484 49.3997 41.6915 49.4602 41.6398L53.7311 38.0277C54.6613 37.2403 55.2027 36.3323 55.3467 35.3036C55.4936 34.2748 55.2114 33.3467 54.5058 32.5133C53.9759 31.8898 53.3193 31.5277 52.536 31.4214C51.7526 31.315 50.8944 31.5363 49.9671 32.0794C50.402 31.4702 50.641 30.792 50.6813 30.0392C50.7216 29.2892 50.4912 28.6139 49.9844 28.0191C49.4113 27.3438 48.651 27.0995 47.7093 27.2863C46.7675 27.4731 45.7452 28.0305 44.6479 28.9616C43.2857 30.1139 42.1741 31.1426 41.3159 32.0507C41.2554 32.1024 41.2842 32.1944 41.4023 32.3265C41.5232 32.4587 41.6154 32.5104 41.6845 32.4846C42.6378 32.1311 43.136 31.9788 43.1821 32.0334L49.7857 39.8065C49.8231 39.8496 49.7396 40.0593 49.538 40.4358H49.5351ZM48.075 33.1829L47.7064 33.4961L44.8898 30.1829C45.0569 29.9357 45.2873 29.6886 45.5752 29.4443C45.9525 29.1254 46.3759 28.9961 46.8453 29.0593C47.3147 29.1225 47.7582 29.3984 48.1729 29.8897C48.6798 30.4875 48.9044 31.0852 48.8526 31.6886C48.7979 32.2921 48.5387 32.7892 48.0721 33.1829H48.075ZM48.6884 33.907C50.1284 32.6886 51.4474 32.7806 52.6368 34.1829C53.1955 34.8409 53.4662 35.4903 53.4518 36.1283C53.4345 36.7662 53.1724 37.3007 52.6627 37.7317C52.4064 37.9472 52.1097 38.1312 51.7699 38.2835L48.3169 34.2202L48.6855 33.907H48.6884Z" fill="#445547"/>
<path d="M124.089 31.6888L115.464 36.367L118.807 27.163L115.726 24.5221C115.665 24.4704 115.579 24.5135 115.467 24.6514C115.354 24.7894 115.317 24.89 115.354 24.9532C115.855 25.8354 116.083 26.3038 116.037 26.3555L109.284 34.2032C109.237 34.2549 108.742 34.1026 107.789 33.7406C107.723 33.7118 107.628 33.7664 107.507 33.8957C107.386 34.025 107.357 34.1199 107.417 34.1716L110.381 36.709C110.441 36.7607 110.528 36.7176 110.64 36.5797C110.752 36.4417 110.79 36.3411 110.752 36.2779C110.66 36.1371 110.513 35.8814 110.315 35.5049C110.113 35.1285 110.032 34.9187 110.07 34.8756L115.576 28.479L111.985 38.2894L112.734 38.9302L121.857 34.0452L116.443 40.3354C116.397 40.3871 115.902 40.2348 114.948 39.8728C114.882 39.8469 114.787 39.8958 114.666 40.0279C114.545 40.1601 114.516 40.2521 114.577 40.3038L118.655 43.7981C118.715 43.8498 118.802 43.8067 118.914 43.6688C119.026 43.5308 119.064 43.4303 119.026 43.367C118.934 43.2262 118.787 42.9705 118.588 42.594C118.39 42.2176 118.306 42.0078 118.344 41.9647L125.097 34.117C125.134 34.0739 125.356 34.1227 125.757 34.2636C126.16 34.4044 126.436 34.5107 126.589 34.5796C126.655 34.6084 126.75 34.5567 126.871 34.4245C126.992 34.2923 127.021 34.2003 126.96 34.1486L124.089 31.6888Z" fill="#445547"/>
</svg>
