<svg width="34" height="34" viewBox="0 0 34 34" fill="none" xmlns="http://www.w3.org/2000/svg">
<rect width="34" height="34" rx="17" fill="#283B2B"/>
<path d="M16.9941 7C15.0163 7 13.0829 7.58649 11.4384 8.6853C9.79395 9.78412 8.51223 11.3459 7.75535 13.1732C6.99847 15.0004 6.80044 17.0111 7.18629 18.9509C7.57214 20.8907 8.52455 22.6725 9.92308 24.0711C11.3216 25.4696 13.1034 26.422 15.0432 26.8079C16.9831 27.1937 18.9937 26.9957 20.821 26.2388C22.6482 25.4819 24.21 24.2002 25.3088 22.5557C26.4077 20.9112 26.9941 18.9778 26.9941 17C26.9943 15.6868 26.7357 14.3863 26.2332 13.173C25.7307 11.9597 24.9941 10.8573 24.0655 9.92869C23.1368 9.00008 22.0344 8.26349 20.8211 7.76098C19.6078 7.25847 18.3074 6.99989 16.9941 7ZM20.1737 22.1525C20.1362 22.2458 20.0793 22.33 20.0066 22.3996C19.934 22.4691 19.8473 22.5223 19.7524 22.5556C19.6575 22.5889 19.5566 22.6015 19.4565 22.5926C19.3563 22.5837 19.2592 22.5535 19.1717 22.504L16.457 20.3946L14.7147 22.002C14.6742 22.0319 14.6269 22.0511 14.5771 22.0579C14.5273 22.0647 14.4766 22.0589 14.4297 22.0409L14.7637 19.0525L14.7744 19.061L14.7812 19.002C14.7812 19.002 19.6662 14.5544 19.8652 14.365C20.0667 14.176 20.0002 14.135 20.0002 14.135C20.0117 13.9044 19.6387 14.135 19.6387 14.135L13.1661 18.299L10.4707 17.381C10.4707 17.381 10.0567 17.2325 10.0177 16.906C9.97666 16.582 10.4841 16.406 10.4841 16.406L21.2011 12.1485C21.2011 12.1485 22.0821 11.756 22.0821 12.406L20.1737 22.1525Z" fill="#F1F6F2"/>
</svg>
