<svg width="64" height="64" viewBox="0 0 64 64" fill="none" xmlns="http://www.w3.org/2000/svg">
<path d="M56.4086 34.8519L48.4276 25.18C48.1853 24.8856 47.8807 24.6486 47.5357 24.4861C47.1908 24.3237 46.8141 24.2397 46.4328 24.2404H40.6207V9.58606C40.62 8.90041 40.3473 8.24303 39.8624 7.7582C39.3776 7.27336 38.7202 7.00068 38.0345 7H9.58621C8.90051 7.00068 8.2431 7.27336 7.75824 7.7582C7.27338 8.24303 7.00068 8.90041 7 9.58606V49.239C7.00068 49.9247 7.27338 50.5821 7.75824 51.0669C8.2431 51.5517 8.90051 51.8244 9.58621 51.8251H12.2414C12.4462 53.2613 13.1623 54.5753 14.2582 55.526C15.354 56.4766 16.7561 57 18.2069 57C19.6577 57 21.0598 56.4766 22.1556 55.526C23.2515 54.5753 23.9676 53.2613 24.1724 51.8251H39.8276C40.0324 53.2613 40.7485 54.5753 41.8444 55.526C42.9402 56.4766 44.3423 57 45.7931 57C47.2439 57 48.646 56.4766 49.7418 55.526C50.8377 54.5753 51.5538 53.2613 51.7586 51.8251H54.4138C55.0995 51.8244 55.7569 51.5517 56.2418 51.0669C56.7266 50.5821 56.9993 49.9247 57 49.239V36.4975C56.9996 35.8967 56.7905 35.3148 56.4086 34.851V34.8519ZM19.9819 8.72404H27.6388V18.8399L24.4345 15.4754C24.2683 15.3111 24.044 15.219 23.8103 15.219C23.5767 15.219 23.3524 15.3111 23.1862 15.4754L19.9819 18.8399V8.72404ZM8.72414 9.58606C8.72437 9.35751 8.81526 9.13838 8.97688 8.97677C9.1385 8.81516 9.35764 8.72427 9.58621 8.72404H18.2578V20.9949C18.2577 21.1672 18.3093 21.3355 18.4059 21.4782C18.5024 21.6209 18.6395 21.7314 18.7995 21.7954C18.9595 21.8594 19.1349 21.874 19.3033 21.8374C19.4716 21.8007 19.6251 21.7144 19.744 21.5897L23.8103 17.3201L27.8767 21.5897C27.9956 21.7144 28.1491 21.8007 28.3174 21.8374C28.4858 21.874 28.6612 21.8594 28.8212 21.7954C28.9811 21.7314 29.1182 21.6209 29.2148 21.4782C29.3114 21.3355 29.363 21.1672 29.3629 20.9949V8.72404H38.0345C38.263 8.72427 38.4822 8.81516 38.6438 8.97677C38.8054 9.13838 38.8963 9.35751 38.8966 9.58606V40.6188C38.8963 40.8474 38.8054 41.0665 38.6438 41.2281C38.4822 41.3897 38.263 41.4806 38.0345 41.4808H9.58621C9.35764 41.4806 9.1385 41.3897 8.97688 41.2281C8.81526 41.0665 8.72437 40.8474 8.72414 40.6188V9.58606ZM18.2069 55.2732C17.3544 55.2732 16.521 55.0204 15.8122 54.5468C15.1034 54.0732 14.5509 53.4 14.2247 52.6125C13.8984 51.8249 13.8131 50.9583 13.9794 50.1222C14.1457 49.2861 14.5562 48.5181 15.159 47.9154C15.7618 47.3126 16.5299 46.9021 17.366 46.7358C18.2021 46.5695 19.0688 46.6548 19.8564 46.981C20.644 47.3073 21.3172 47.8597 21.7908 48.5685C22.2644 49.2773 22.5172 50.1106 22.5172 50.9631C22.5159 52.1058 22.0613 53.2012 21.2533 54.0093C20.4452 54.8173 19.3497 55.2718 18.2069 55.2732ZM45.7931 55.2732C44.9406 55.2732 44.1072 55.0204 43.3984 54.5468C42.6896 54.0732 42.1371 53.4 41.8109 52.6125C41.4846 51.8249 41.3993 50.9583 41.5656 50.1222C41.7319 49.2861 42.1424 48.5181 42.7452 47.9154C43.348 47.3126 44.1161 46.9021 44.9522 46.7358C45.7883 46.5695 46.655 46.6548 47.4426 46.981C48.2302 47.3073 48.9034 47.8597 49.377 48.5685C49.8507 49.2773 50.1034 50.1106 50.1034 50.9631C50.1021 52.1058 49.6475 53.2012 48.8395 54.0093C48.0314 54.8173 46.9359 55.2718 45.7931 55.2732ZM55.2759 49.239C55.2759 49.4676 55.185 49.6869 55.0234 49.8486C54.8617 50.0102 54.6424 50.101 54.4138 50.101H51.7586C51.5538 48.6649 50.8377 47.3508 49.7418 46.4002C48.646 45.4495 47.2439 44.9261 45.7931 44.9261C44.3423 44.9261 42.9402 45.4495 41.8444 46.4002C40.7485 47.3508 40.0324 48.6649 39.8276 50.101H24.1724C23.9676 48.6649 23.2515 47.3508 22.1556 46.4002C21.0598 45.4495 19.6577 44.9261 18.2069 44.9261C16.7561 44.9261 15.354 45.4495 14.2582 46.4002C13.1623 47.3508 12.4462 48.6649 12.2414 50.101H9.58621C9.35757 50.101 9.1383 50.0102 8.97663 49.8486C8.81496 49.6869 8.72414 49.4676 8.72414 49.239V44.0669C8.72414 43.8383 8.81496 43.619 8.97663 43.4574C9.1383 43.2957 9.35757 43.2049 9.58621 43.2049H38.0345C38.7204 43.2049 39.3782 42.9324 39.8632 42.4474C40.3482 41.9625 40.6207 41.3047 40.6207 40.6188V25.9645H46.431C46.5584 25.9643 46.6842 25.9923 46.7994 26.0466C46.9146 26.1009 47.0164 26.18 47.0974 26.2782L55.0784 35.9484C55.2061 36.1029 55.2759 36.2971 55.2759 36.4975V49.239ZM30.656 34.8381C30.656 34.6095 30.7469 34.3902 30.9085 34.2286C31.0702 34.0669 31.2895 33.9761 31.5181 33.9761H35.2707C35.4993 33.9761 35.7186 34.0669 35.8803 34.2286C36.0419 34.3902 36.1328 34.6095 36.1328 34.8381C36.1328 35.0667 36.0419 35.286 35.8803 35.4476C35.7186 35.6093 35.4993 35.7001 35.2707 35.7001H31.5172C31.2886 35.7001 31.0693 35.6093 30.9077 35.4476C30.746 35.286 30.656 35.0667 30.656 34.8381ZM30.656 37.6526C30.656 37.424 30.7469 37.2047 30.9085 37.0431C31.0702 36.8814 31.2895 36.7906 31.5181 36.7906H35.2707C35.4993 36.7906 35.7186 36.8814 35.8803 37.0431C36.0419 37.2047 36.1328 37.424 36.1328 37.6526C36.1328 37.8812 36.0419 38.1005 35.8803 38.2621C35.7186 38.4238 35.4993 38.5146 35.2707 38.5146H31.5172C31.2886 38.5146 31.0693 38.4238 30.9077 38.2621C30.746 38.1005 30.656 37.8812 30.656 37.6526ZM45.6121 28.0212C45.5314 27.9176 45.4281 27.8337 45.3101 27.776C45.1921 27.7183 45.0624 27.6884 44.931 27.6885H42.3448C42.1162 27.6885 41.8969 27.7793 41.7353 27.941C41.5736 28.1026 41.4828 28.3219 41.4828 28.5505V36.3087C41.4828 36.5373 41.5736 36.7566 41.7353 36.9183C41.8969 37.0799 42.1162 37.1707 42.3448 37.1707H50.9655C51.127 37.1708 51.2852 37.1256 51.4222 37.0402C51.5592 36.9548 51.6694 36.8327 51.7404 36.6877C51.8114 36.5427 51.8402 36.3807 51.8236 36.2201C51.807 36.0595 51.7457 35.9068 51.6466 35.7794L45.6121 28.0212ZM43.2069 35.4467V29.4125H44.5086L49.2034 35.4467H43.2069Z" fill="url(#paint0_linear_455_1892)"/>
<defs>
<linearGradient id="paint0_linear_455_1892" x1="57" y1="32" x2="7" y2="32" gradientUnits="userSpaceOnUse">
<stop stop-color="#6E9D01"/>
<stop offset="1" stop-color="#296C02"/>
</linearGradient>
</defs>
</svg>
