<svg width="40" height="40" viewBox="0 0 40 40" fill="none" xmlns="http://www.w3.org/2000/svg">
<g clip-path="url(#clip0_185_79)">
<rect x="-4" y="-4" width="48" height="48" rx="18.4157" fill="#4C75A3"/>
<path d="M19.7748 26.4217H21.0351C21.0351 26.4217 21.4161 26.3806 21.6099 26.1765C21.7891 25.9891 21.7825 25.6374 21.7825 25.6374C21.7825 25.6374 21.7575 23.9906 22.5432 23.748C23.317 23.5092 24.311 25.3396 25.3643 26.0443C26.1605 26.577 26.7656 26.4602 26.7656 26.4602L29.5828 26.4217C29.5828 26.4217 31.0566 26.3331 30.3579 25.2048C30.3012 25.1124 29.9506 24.3705 28.2632 22.8456C26.4967 21.2489 26.734 21.5082 28.8617 18.7472C30.1575 17.0657 30.6756 16.0389 30.5135 15.5999C30.3592 15.1814 29.4061 15.2918 29.4061 15.2918L26.237 15.3098C26.237 15.3098 26.0023 15.279 25.827 15.3804C25.6569 15.4805 25.5475 15.7116 25.5475 15.7116C25.5475 15.7116 25.0453 17.0131 24.3756 18.1195C22.9637 20.4543 22.3982 20.5776 22.1675 20.4325C21.6309 20.0949 21.7654 19.0745 21.7654 18.3506C21.7654 16.0876 22.1174 15.1442 21.0786 14.9003C20.7332 14.8195 20.4801 14.7656 19.5982 14.7566C18.4671 14.745 17.5087 14.7604 16.9669 15.0184C16.6057 15.1904 16.3275 15.5742 16.4976 15.596C16.7072 15.623 17.1818 15.7205 17.4336 16.0543C17.7592 16.4843 17.7473 17.4521 17.7473 17.4521C17.7473 17.4521 17.9345 20.1155 17.311 20.4466C16.8825 20.6738 16.2959 20.2105 15.0369 18.0913C14.3923 17.0067 13.9045 15.8065 13.9045 15.8065C13.9045 15.8065 13.8109 15.5832 13.6435 15.4638C13.4405 15.3188 13.1558 15.2726 13.1558 15.2726L10.1422 15.2905C10.1422 15.2905 9.69003 15.3034 9.52392 15.4946C9.37628 15.6653 9.51206 16.017 9.51206 16.017C9.51206 16.017 11.8718 21.3914 14.5426 24.101C16.9933 26.5847 19.7748 26.4217 19.7748 26.4217Z" fill="white"/>
</g>
<defs>
<clipPath id="clip0_185_79">
<rect width="40" height="40" rx="20" fill="white"/>
</clipPath>
</defs>
</svg>
