<svg width="34" height="34" viewBox="0 0 34 34" fill="none" xmlns="http://www.w3.org/2000/svg">
<rect width="34" height="34" rx="17" fill="#283B2B"/>
<path d="M16.8074 21.9579H17.883C17.883 21.9579 18.2081 21.9228 18.3735 21.7486C18.5265 21.5887 18.5209 21.2885 18.5209 21.2885C18.5209 21.2885 18.4995 19.8831 19.1701 19.676C19.8305 19.4723 20.6788 21.0344 21.5777 21.6358C22.2573 22.0904 22.7737 21.9907 22.7737 21.9907L25.178 21.9579C25.178 21.9579 26.4359 21.8823 25.8396 20.9194C25.7912 20.8405 25.4919 20.2073 24.0518 18.9059C22.5442 17.5431 22.7467 17.7644 24.5626 15.4081C25.6685 13.973 26.1107 13.0967 25.9723 12.722C25.8407 12.3649 25.0273 12.4591 25.0273 12.4591L22.3226 12.4744C22.3226 12.4744 22.1223 12.4481 21.9727 12.5347C21.8275 12.6201 21.7341 12.8173 21.7341 12.8173C21.7341 12.8173 21.3055 13.9281 20.7339 14.8724C19.529 16.8651 19.0463 16.9702 18.8494 16.8464C18.3915 16.5583 18.5063 15.6874 18.5063 15.0696C18.5063 13.1383 18.8067 12.3331 17.9201 12.125C17.6253 12.056 17.4093 12.01 16.6566 12.0023C15.6913 11.9924 14.8734 12.0056 14.411 12.2258C14.1027 12.3726 13.8653 12.7001 14.0104 12.7187C14.1893 12.7417 14.5944 12.825 14.8093 13.1098C15.0871 13.4768 15.077 14.3028 15.077 14.3028C15.077 14.3028 15.2368 16.5759 14.7046 16.8585C14.339 17.0524 13.8383 16.6569 12.7639 14.8483C12.2137 13.9226 11.7974 12.8984 11.7974 12.8984C11.7974 12.8984 11.7175 12.7078 11.5746 12.6059C11.4014 12.4821 11.1584 12.4427 11.1584 12.4427L8.58642 12.458C8.58642 12.458 8.20052 12.469 8.05876 12.6322C7.93275 12.7779 8.04863 13.078 8.04863 13.078C8.04863 13.078 10.0625 17.6647 12.3419 19.9773C14.4335 22.097 16.8074 21.9579 16.8074 21.9579Z" fill="#F1F6F2"/>
</svg>
