<svg width="34" height="34" viewBox="0 0 34 34" fill="none" xmlns="http://www.w3.org/2000/svg">
<rect width="34" height="34" rx="17" fill="#283B2B"/>
<path d="M26.8 12.4523C26.8 12.4523 26.605 10.8835 26.0056 10.193C25.245 9.28792 24.3925 9.28258 24.0019 9.23127C21.2031 9 17.0044 9 17.0044 9H16.995C16.995 9 12.7969 9 9.99875 9.23127C9.6075 9.28192 8.75625 9.28725 7.995 10.193C7.39563 10.8835 7.2 12.4523 7.2 12.4523C7.2 12.4523 7 14.2931 7 16.1339V17.8594C7 19.7015 7.2 21.5417 7.2 21.5417C7.2 21.5417 7.395 23.1099 7.99437 23.799C8.75563 24.7041 9.75437 24.6768 10.1994 24.7714C11.7994 24.946 17 25 17 25C17 25 21.2025 24.992 24.0019 24.7634C24.3925 24.7101 25.245 24.7048 26.0056 23.799C26.6044 23.1099 26.8 21.5417 26.8 21.5417C26.8 21.5417 27 19.7009 27 17.8594V16.1339C27 14.2931 26.8 12.4523 26.8 12.4523ZM14.5025 20.9998V12.9995L20.7544 16.9997L14.5025 20.9998Z" fill="#F1F6F2"/>
</svg>
