<svg width="234" height="40" viewBox="0 0 234 40" fill="none" xmlns="http://www.w3.org/2000/svg">
<path d="M19.9915 38H11.3281C11.3281 38 10.4796 35.5789 8.55352 35.6896C6.62738 35.8003 6.51424 36.7681 4.61638 36.6149C1.53344 36.3594 -0.0306591 33.8049 0.000455229 33.6829C0.192784 32.8995 1.67486 33.9667 3.31816 33.3309C3.50766 33.2571 2.38479 32.5447 2.48944 32.346C2.59409 32.1473 5.06043 32.2949 4.85114 31.52C4.64186 30.7451 3.71979 31.784 2.07084 30.7111C0.421884 29.6382 -0.474716 28.6448 0.47845 28.7441C1.43162 28.8434 2.05104 28.9598 2.45832 28.2332C2.86561 27.5066 1.82759 26.8623 1.60981 26.3145C1.39202 25.7667 2.29146 26.2009 2.64217 26.3145C2.9929 26.428 5.14247 26.3826 6.22576 25.7213C7.309 25.0599 7.62581 23.5414 6.12109 23.7344C4.61638 23.9274 4.59943 23.4222 5.49319 23.3058C6.38695 23.1894 6.55947 22.9425 6.52271 22.6132C6.48595 22.284 5.89481 22.4799 4.61638 21.8696C3.33796 21.2594 2.90238 20.598 3.98847 20.879C5.07457 21.16 4.70405 20.3482 4.27133 19.9849C3.83857 19.6216 3.32664 18.6651 4.23457 18.895C5.14247 19.1249 8.166 19.2867 8.05852 18.8609C7.95105 18.4352 6.38128 17.6575 6.39828 17.0614C6.41524 16.4653 7.48152 17.2913 7.74457 16.9621C8.00762 16.6328 7.62014 16.1758 7.46176 15.4804C7.30333 14.785 7.38819 13.6923 8.28481 14.5835C9.18143 15.4748 9.35109 15.6394 10.1911 15.6081C11.0312 15.5769 12.3436 15.1115 12.3436 14.5324C12.3436 13.9534 12.1031 13.0934 10.8558 12.8777C9.74424 12.6875 10.1204 12.5143 10.5928 12.432C11.0651 12.3497 10.7681 11.8218 10.0271 11.2967C9.28605 10.7716 8.66381 9.86047 9.88852 10.2067C11.1132 10.553 12.1512 10.2067 12.0579 9.69585C11.9645 9.18496 12.1625 9.33255 12.5811 9.69585C12.9997 10.0592 14.5044 10.5474 15.2568 10.2919C16.0091 10.0364 17.0585 8.93801 15.5029 8.34479C13.9472 7.75157 13.5428 7.12147 13.6842 6.85749C13.8256 6.5935 14.2781 6.84046 14.4366 6.70703C14.595 6.57366 13.7889 5.5348 13.8058 5.13745C13.8228 4.74009 14.3489 5.2879 15.1352 5.73348C15.9215 6.17912 16.7276 5.78176 16.7445 5.23676C16.7615 4.69181 16.1789 3.22154 16.6738 3.75232C17.1688 4.28309 17.8815 4.64359 18.4585 4.42785C19.0355 4.21213 19.307 3.38617 18.8262 3.09098C18.3454 2.79579 17.5846 2.00105 18.1955 2.09756C18.8064 2.19406 19.3495 2.11458 19.5418 1.93292C19.7341 1.75127 19.5955 0.445621 19.7171 0.263965C19.79 0.155326 19.8868 0.0649988 20 0L19.9915 38Z" fill="url(#paint0_linear_421_124)"/>
<path d="M34.728 13.1051L34.917 12.8111C35.897 12.8251 36.744 12.9511 37.458 13.1891C38.172 13.4131 38.725 13.7841 39.117 14.3021C39.509 14.8061 39.705 15.4851 39.705 16.3391C39.705 17.2071 39.488 17.9491 39.054 18.5651C38.634 19.1811 38.004 19.6501 37.164 19.9721C36.324 20.2941 35.281 20.4551 34.035 20.4551H27.756V18.9431L29.709 18.3761L29.31 18.9851V7.22508L29.793 7.85508L27.756 7.28808V5.77608L32.187 5.67108H34.35C35.372 5.67108 36.24 5.80408 36.954 6.07008C37.668 6.32208 38.214 6.72108 38.592 7.26708C38.97 7.79908 39.159 8.48508 39.159 9.32508C39.159 10.4731 38.788 11.3621 38.046 11.9921C37.318 12.6081 36.212 12.9791 34.728 13.1051ZM33.762 7.79208H31.851L32.313 7.33008V12.3071L31.851 11.8871H33.3C33.832 11.8871 34.308 11.8241 34.728 11.6981C35.162 11.5721 35.505 11.3551 35.757 11.0471C36.009 10.7251 36.135 10.2911 36.135 9.74508C36.135 9.22708 36.03 8.82808 35.82 8.54808C35.61 8.26808 35.323 8.07208 34.959 7.96008C34.609 7.84808 34.21 7.79208 33.762 7.79208ZM33.762 18.3131C34.308 18.3131 34.798 18.2501 35.232 18.1241C35.666 17.9981 36.009 17.7741 36.261 17.4521C36.513 17.1301 36.639 16.6891 36.639 16.1291C36.639 15.5831 36.527 15.1561 36.303 14.8481C36.079 14.5261 35.792 14.3021 35.442 14.1761C35.092 14.0501 34.707 13.9871 34.287 13.9871H31.851L32.313 13.4621V18.7961L31.851 18.3131H33.762ZM50.2626 18.9641L49.8636 18.3761L51.6696 18.9431V20.4341L47.9946 20.6231L47.5956 18.6071L47.8056 18.6701C47.2456 19.3561 46.6366 19.8671 45.9786 20.2031C45.3206 20.5391 44.6416 20.7071 43.9416 20.7071C43.0456 20.7071 42.3036 20.4201 41.7156 19.8461C41.1276 19.2721 40.8336 18.4461 40.8336 17.3681C40.8336 16.5701 41.0016 15.9401 41.3376 15.4781C41.6876 15.0021 42.1916 14.6591 42.8496 14.4491C43.5076 14.2391 44.3056 14.1341 45.2436 14.1341H47.5326L47.3226 14.3651V12.9791C47.3226 12.3211 47.1616 11.8521 46.8396 11.5721C46.5316 11.2921 46.0766 11.1521 45.4746 11.1521C45.1806 11.1521 44.8656 11.1801 44.5296 11.2361C44.1936 11.2921 43.8296 11.3761 43.4376 11.4881L43.7316 11.1731L43.4586 12.8741H41.6316L41.4636 9.80808C42.4156 9.52808 43.2836 9.32508 44.0676 9.19908C44.8656 9.05908 45.5936 8.98908 46.2516 8.98908C47.5536 8.98908 48.5476 9.26908 49.2336 9.82908C49.9196 10.3891 50.2626 11.2571 50.2626 12.4331V18.9641ZM43.7946 17.0741C43.7946 17.5921 43.9136 17.9771 44.1516 18.2291C44.4036 18.4671 44.7186 18.5861 45.0966 18.5861C45.4466 18.5861 45.8316 18.4811 46.2516 18.2711C46.6716 18.0471 47.0706 17.7461 47.4486 17.3681L47.3226 17.8721V15.4781L47.5326 15.6881H45.7266C44.9986 15.6881 44.4946 15.8001 44.2146 16.0241C43.9346 16.2481 43.7946 16.5981 43.7946 17.0741ZM54.0032 20.6651C53.7372 20.6651 53.4502 20.6371 53.1422 20.5811C52.8482 20.5251 52.5262 20.4481 52.1762 20.3501L52.5962 18.0611C52.7362 18.0891 52.8622 18.1101 52.9742 18.1241C53.0862 18.1381 53.1982 18.1451 53.3102 18.1451C54.0382 18.1451 54.5772 17.8511 54.9272 17.2631C55.2772 16.6751 55.5082 15.8141 55.6202 14.6801C55.7322 13.5461 55.7952 12.1671 55.8092 10.5431L56.5652 11.4251L54.2762 10.7321V9.24108H64.7342V10.7321L62.7602 11.4041L63.3272 10.4801V18.7331L63.1172 18.4811L64.7342 18.9431V20.4551H59.0012V18.9431L60.6182 18.4811L60.3872 18.7331V10.5641L60.8492 11.4041H57.1952L58.0562 10.6061C58.0422 12.1461 57.9722 13.5391 57.8462 14.7851C57.7342 16.0171 57.5312 17.0741 57.2372 17.9561C56.9432 18.8241 56.5302 19.4961 55.9982 19.9721C55.4802 20.4341 54.8152 20.6651 54.0032 20.6651ZM65.4243 24.0671L65.3613 18.8591L67.5873 18.3761L66.1383 18.9011C66.5863 18.5791 66.9713 18.2151 67.2933 17.8091C67.6293 17.3891 67.9023 16.8781 68.1123 16.2761C68.3363 15.6741 68.5043 14.9321 68.6163 14.0501C68.7283 13.1541 68.7843 12.0691 68.7843 10.7951L69.5403 11.4251L67.2513 10.7321V9.24108H77.6463V10.7321L75.6723 11.4041L76.2603 10.8161V18.8801L75.6933 18.4181L78.3603 18.9011L78.2763 24.0671H76.4913L75.8613 20.0771L76.5123 20.4551H67.1673L67.8393 20.0771L67.2303 24.0671H65.4243ZM68.7003 18.7751L68.7213 18.2921H73.8033L73.3203 18.7541V10.7531L73.7823 11.4041H70.3173L70.8633 10.7531C70.8633 12.1811 70.8073 13.4131 70.6953 14.4491C70.5833 15.4851 70.3663 16.3531 70.0443 17.0531C69.7363 17.7531 69.2883 18.3271 68.7003 18.7751ZM88.5359 18.9641L88.1369 18.3761L89.9429 18.9431V20.4341L86.2679 20.6231L85.8689 18.6071L86.0789 18.6701C85.5189 19.3561 84.9099 19.8671 84.2519 20.2031C83.5939 20.5391 82.9149 20.7071 82.2149 20.7071C81.3189 20.7071 80.5769 20.4201 79.9889 19.8461C79.4009 19.2721 79.1069 18.4461 79.1069 17.3681C79.1069 16.5701 79.2749 15.9401 79.6109 15.4781C79.9609 15.0021 80.4649 14.6591 81.1229 14.4491C81.7809 14.2391 82.5789 14.1341 83.5169 14.1341H85.8059L85.5959 14.3651V12.9791C85.5959 12.3211 85.4349 11.8521 85.1129 11.5721C84.8049 11.2921 84.3499 11.1521 83.7479 11.1521C83.4539 11.1521 83.1389 11.1801 82.8029 11.2361C82.4669 11.2921 82.1029 11.3761 81.7109 11.4881L82.0049 11.1731L81.7319 12.8741H79.9049L79.7369 9.80808C80.6889 9.52808 81.5569 9.32508 82.3409 9.19908C83.1389 9.05908 83.8669 8.98908 84.5249 8.98908C85.8269 8.98908 86.8209 9.26908 87.5069 9.82908C88.1929 10.3891 88.5359 11.2571 88.5359 12.4331V18.9641ZM82.0679 17.0741C82.0679 17.5921 82.1869 17.9771 82.4249 18.2291C82.6769 18.4671 82.9919 18.5861 83.3699 18.5861C83.7199 18.5861 84.1049 18.4811 84.5249 18.2711C84.9449 18.0471 85.3439 17.7461 85.7219 17.3681L85.5959 17.8721V15.4781L85.8059 15.6881H83.9999C83.2719 15.6881 82.7679 15.8001 82.4879 16.0241C82.2079 16.2481 82.0679 16.5981 82.0679 17.0741ZM90.5844 20.4551V18.9431L92.5584 18.3341L91.9914 18.9431V10.8371L92.7474 11.4881L90.5844 10.8161V9.30408L96.0864 9.15708V10.6691L94.1544 11.3411L94.7844 10.7741V16.0871L94.3854 15.9821L99.5514 11.4041L99.3624 11.8241L99.3414 10.8371L99.8034 11.2991L98.0394 10.8161V9.30408L103.541 9.15708V10.6691L101.567 11.3411L102.134 10.7741V18.9431L101.567 18.3341L103.541 18.9431V20.4551H98.0394V18.9431L99.8244 18.4181L99.3414 18.9431V13.1681L99.6774 13.5671L94.5534 18.3551L94.7844 17.8931V18.9431L94.6164 18.5441L96.0864 18.9431V20.4551H90.5844ZM97.0734 7.14108C96.3734 7.14108 95.7294 7.02908 95.1414 6.80508C94.5674 6.58108 94.0914 6.22408 93.7134 5.73408C93.3354 5.23008 93.1254 4.58608 93.0834 3.80208L95.8344 3.67608C95.8624 4.34808 96.0304 4.84508 96.3384 5.16708C96.6604 5.47508 97.0384 5.62908 97.4724 5.62908C97.9064 5.62908 98.2704 5.47508 98.5644 5.16708C98.8584 4.84508 98.9844 4.38308 98.9424 3.78108L101 3.67608C101.028 4.47408 100.86 5.13208 100.496 5.65008C100.132 6.15408 99.6424 6.53208 99.0264 6.78408C98.4244 7.02208 97.7734 7.14108 97.0734 7.14108ZM109.649 20.7071C108.683 20.7071 107.808 20.4831 107.024 20.0351C106.254 19.5731 105.645 18.9151 105.197 18.0611C104.749 17.2071 104.525 16.1711 104.525 14.9531C104.525 13.8471 104.686 12.9161 105.008 12.1601C105.33 11.4041 105.764 10.7951 106.31 10.3331C106.856 9.85708 107.465 9.51408 108.137 9.30408C108.809 9.09408 109.502 8.98908 110.216 8.98908C110.888 8.98908 111.567 9.07308 112.253 9.24108C112.939 9.40908 113.499 9.59808 113.933 9.80808L113.849 12.8951H111.959L111.644 11.1731L111.875 11.3411C111.665 11.2571 111.406 11.1941 111.098 11.1521C110.804 11.1101 110.531 11.0891 110.279 11.0891C109.677 11.0891 109.173 11.2431 108.767 11.5511C108.375 11.8451 108.081 12.2721 107.885 12.8321C107.689 13.3781 107.591 14.0291 107.591 14.7851C107.591 15.5971 107.703 16.2831 107.927 16.8431C108.151 17.4031 108.466 17.8301 108.872 18.1241C109.292 18.4041 109.775 18.5441 110.321 18.5441C110.755 18.5441 111.231 18.4531 111.749 18.2711C112.267 18.0891 112.806 17.8161 113.366 17.4521L114.353 18.9431C113.569 19.5451 112.785 19.9931 112.001 20.2871C111.217 20.5671 110.433 20.7071 109.649 20.7071ZM114.897 20.4551V18.9431L116.661 18.4391L116.304 18.9851V10.7321L116.724 11.2991L114.897 10.8161V9.30408L120.462 9.15708V10.6691L118.95 11.1731L119.244 10.7321V14.1551L118.761 13.5461H121.554L120.651 14.0711L122.751 10.7951L122.961 11.1101L121.491 10.8161V9.32508L126.594 9.15708V10.6481L124.851 11.0471L125.628 10.6061L122.835 14.8271L123.087 14.0711L125.775 18.9011L125.376 18.5441L126.972 18.9641V20.4551H123.528L120.903 15.4151L121.344 15.4991H118.761L119.244 15.4151V18.9851L118.929 18.4181L120.672 18.9431V20.4551H114.897ZM127.279 20.4551V18.9431L129.253 18.3341L128.686 18.9431V10.8371L129.442 11.4881L127.279 10.8161V9.30408L132.781 9.15708V10.6691L130.849 11.3411L131.479 10.7741V16.0871L131.08 15.9821L136.246 11.4041L136.057 11.8241L136.036 10.8371L136.498 11.2991L134.734 10.8161V9.30408L140.236 9.15708V10.6691L138.262 11.3411L138.829 10.7741V18.9431L138.262 18.3341L140.236 18.9431V20.4551H134.734V18.9431L136.519 18.4181L136.036 18.9431V13.1681L136.372 13.5671L131.248 18.3551L131.479 17.8931V18.9431L131.311 18.5441L132.781 18.9431V20.4551H127.279ZM141.219 20.4551V18.9431L143.193 18.3341L142.626 18.9431V10.8371L143.382 11.4881L141.219 10.8161V9.30408L146.721 9.15708V10.6691L144.789 11.3411L145.419 10.7741V16.0871L145.02 15.9821L150.186 11.4041L149.997 11.8241L149.976 10.8371L150.438 11.2991L148.674 10.8161V9.30408L154.176 9.15708V10.6691L152.202 11.3411L152.769 10.7741V18.9431L152.202 18.3341L154.176 18.9431V20.4551H148.674V18.9431L150.459 18.4181L149.976 18.9431V13.1681L150.312 13.5671L145.188 18.3551L145.419 17.8931V18.9431L145.251 18.5441L146.721 18.9431V20.4551H141.219ZM147.708 7.14108C147.008 7.14108 146.364 7.02908 145.776 6.80508C145.202 6.58108 144.726 6.22408 144.348 5.73408C143.97 5.23008 143.76 4.58608 143.718 3.80208L146.469 3.67608C146.497 4.34808 146.665 4.84508 146.973 5.16708C147.295 5.47508 147.673 5.62908 148.107 5.62908C148.541 5.62908 148.905 5.47508 149.199 5.16708C149.493 4.84508 149.619 4.38308 149.577 3.78108L151.635 3.67608C151.663 4.47408 151.495 5.13208 151.131 5.65008C150.767 6.15408 150.277 6.53208 149.661 6.78408C149.059 7.02208 148.408 7.14108 147.708 7.14108ZM175.691 7.18308L173.738 7.85508L174.158 7.07808V18.9851L173.738 18.3761L175.691 18.9431V20.4551H169.832V18.9431L171.869 18.3551L171.386 18.9851V8.88408L171.827 8.90508L167.984 16.6121L166.094 16.7171L162.398 8.86308H162.839V18.9851L162.503 18.4181L164.393 18.9431V20.4551H158.87V18.9431L160.823 18.3761L160.424 18.9851V7.07808L160.823 7.81308L158.87 7.28808V5.77608L164.099 5.67108L167.564 13.7141H167.207L170.84 5.77608L175.691 5.67108V7.18308ZM186.093 18.9641L185.694 18.3761L187.5 18.9431V20.4341L183.825 20.6231L183.426 18.6071L183.636 18.6701C183.076 19.3561 182.467 19.8671 181.809 20.2031C181.151 20.5391 180.472 20.7071 179.772 20.7071C178.876 20.7071 178.134 20.4201 177.546 19.8461C176.958 19.2721 176.664 18.4461 176.664 17.3681C176.664 16.5701 176.832 15.9401 177.168 15.4781C177.518 15.0021 178.022 14.6591 178.68 14.4491C179.338 14.2391 180.136 14.1341 181.074 14.1341H183.363L183.153 14.3651V12.9791C183.153 12.3211 182.992 11.8521 182.67 11.5721C182.362 11.2921 181.907 11.1521 181.305 11.1521C181.011 11.1521 180.696 11.1801 180.36 11.2361C180.024 11.2921 179.66 11.3761 179.268 11.4881L179.562 11.1731L179.289 12.8741H177.462L177.294 9.80808C178.246 9.52808 179.114 9.32508 179.898 9.19908C180.696 9.05908 181.424 8.98908 182.082 8.98908C183.384 8.98908 184.378 9.26908 185.064 9.82908C185.75 10.3891 186.093 11.2571 186.093 12.4331V18.9641ZM179.625 17.0741C179.625 17.5921 179.744 17.9771 179.982 18.2291C180.234 18.4671 180.549 18.5861 180.927 18.5861C181.277 18.5861 181.662 18.4811 182.082 18.2711C182.502 18.0471 182.901 17.7461 183.279 17.3681L183.153 17.8721V15.4781L183.363 15.6881H181.557C180.829 15.6881 180.325 15.8001 180.045 16.0241C179.765 16.2481 179.625 16.5981 179.625 17.0741ZM193.266 20.7071C192.3 20.7071 191.425 20.4831 190.641 20.0351C189.871 19.5731 189.262 18.9151 188.814 18.0611C188.366 17.2071 188.142 16.1711 188.142 14.9531C188.142 13.8471 188.303 12.9161 188.625 12.1601C188.947 11.4041 189.381 10.7951 189.927 10.3331C190.473 9.85708 191.082 9.51408 191.754 9.30408C192.426 9.09408 193.119 8.98908 193.833 8.98908C194.505 8.98908 195.184 9.07308 195.87 9.24108C196.556 9.40908 197.116 9.59808 197.55 9.80808L197.466 12.8951H195.576L195.261 11.1731L195.492 11.3411C195.282 11.2571 195.023 11.1941 194.715 11.1521C194.421 11.1101 194.148 11.0891 193.896 11.0891C193.294 11.0891 192.79 11.2431 192.384 11.5511C191.992 11.8451 191.698 12.2721 191.502 12.8321C191.306 13.3781 191.208 14.0291 191.208 14.7851C191.208 15.5971 191.32 16.2831 191.544 16.8431C191.768 17.4031 192.083 17.8301 192.489 18.1241C192.909 18.4041 193.392 18.5441 193.938 18.5441C194.372 18.5441 194.848 18.4531 195.366 18.2711C195.884 18.0891 196.423 17.8161 196.983 17.4521L197.97 18.9431C197.186 19.5451 196.402 19.9931 195.618 20.2871C194.834 20.5671 194.05 20.7071 193.266 20.7071ZM200.61 20.4551V18.9641L202.899 18.4181L202.332 19.1741V10.9421L202.983 11.4041H200.001L200.589 10.8371L200.085 13.1261H198.3V9.24108H209.304V13.1261H207.519L207.057 10.9421L207.582 11.4041H204.663L205.272 10.9421V19.1741L204.768 18.4181L207.015 18.9641V20.4551H200.61ZM214.77 20.7071C213.748 20.7071 212.852 20.4971 212.082 20.0771C211.312 19.6431 210.71 19.0061 210.276 18.1661C209.856 17.3121 209.646 16.2761 209.646 15.0581C209.646 13.7981 209.87 12.7201 210.318 11.8241C210.78 10.9141 211.424 10.2141 212.25 9.72408C213.076 9.23408 214.049 8.98908 215.169 8.98908C216.261 8.98908 217.15 9.20608 217.836 9.64008C218.522 10.0741 219.026 10.6691 219.348 11.4251C219.67 12.1671 219.831 13.0071 219.831 13.9451C219.831 14.1831 219.817 14.4211 219.789 14.6591C219.775 14.8971 219.747 15.1491 219.705 15.4151H212.019V13.6721H217.185L216.807 13.9451C216.821 13.3851 216.765 12.8951 216.639 12.4751C216.527 12.0411 216.331 11.7051 216.051 11.4671C215.785 11.2291 215.414 11.1101 214.938 11.1101C214.392 11.1101 213.951 11.2711 213.615 11.5931C213.279 11.9011 213.034 12.3211 212.88 12.8531C212.74 13.3851 212.67 13.9801 212.67 14.6381C212.67 15.3801 212.761 16.0451 212.943 16.6331C213.125 17.2211 213.419 17.6831 213.825 18.0191C214.245 18.3551 214.791 18.5231 215.463 18.5231C215.939 18.5231 216.45 18.4391 216.996 18.2711C217.556 18.0891 218.137 17.8231 218.739 17.4731L219.726 19.0481C218.914 19.6081 218.081 20.0281 217.227 20.3081C216.387 20.5741 215.568 20.7071 214.77 20.7071ZM220.75 25.2851V23.7731L222.535 23.1851L222.157 23.6891V10.9421L222.493 11.3411L220.75 10.8161V9.30408L224.446 9.13608L224.782 10.9631L224.446 10.7951C225.104 10.2071 225.741 9.75908 226.357 9.45108C226.987 9.14308 227.638 8.98908 228.31 8.98908C229.122 8.98908 229.836 9.20608 230.452 9.64008C231.068 10.0601 231.551 10.6901 231.901 11.5301C232.265 12.3561 232.447 13.3711 232.447 14.5751C232.447 15.9331 232.216 17.0671 231.754 17.9771C231.292 18.8871 230.641 19.5731 229.801 20.0351C228.975 20.4831 228.009 20.7071 226.903 20.7071C226.567 20.7071 226.217 20.6791 225.853 20.6231C225.489 20.5811 225.111 20.5181 224.719 20.4341L225.097 20.0981V23.6891L224.782 23.2481L226.735 23.7731V25.2851H220.75ZM226.525 18.6281C227.519 18.6281 228.24 18.2921 228.688 17.6201C229.15 16.9481 229.381 16.0311 229.381 14.8691C229.381 14.0991 229.29 13.4411 229.108 12.8951C228.926 12.3351 228.674 11.9081 228.352 11.6141C228.03 11.3061 227.631 11.1521 227.155 11.1521C226.791 11.1521 226.406 11.2501 226 11.4461C225.594 11.6421 225.174 11.9431 224.74 12.3491L225.097 11.5721V18.9011L224.74 18.3341C225.398 18.5301 225.993 18.6281 226.525 18.6281Z" fill="#283B2B"/>
<path d="M31.2813 37.1348C30.7188 37.1348 30.2344 37.002 29.8281 36.7363C29.4219 36.4707 29.1094 36.1048 28.8906 35.6387C28.6719 35.1725 28.5625 34.64 28.5625 34.041C28.5625 33.4316 28.6745 32.8939 28.8984 32.4277C29.125 31.959 29.4401 31.5931 29.8438 31.3301C30.25 31.0645 30.724 30.9316 31.2656 30.9316C31.6875 30.9316 32.0677 31.0098 32.4063 31.166C32.7448 31.3223 33.0221 31.541 33.2383 31.8223C33.4544 32.1035 33.5885 32.4316 33.6406 32.8066H32.7188C32.6484 32.5332 32.4922 32.291 32.25 32.0801C32.0104 31.8665 31.6875 31.7598 31.2813 31.7598C30.9219 31.7598 30.6068 31.8535 30.3359 32.041C30.0677 32.2259 29.8581 32.4876 29.707 32.8262C29.5586 33.1621 29.4844 33.5566 29.4844 34.0098C29.4844 34.4733 29.5573 34.877 29.7031 35.2207C29.8516 35.5645 30.0599 35.8314 30.3281 36.0215C30.599 36.2116 30.9167 36.3066 31.2813 36.3066C31.5208 36.3066 31.7383 36.265 31.9336 36.1816C32.1289 36.0983 32.2943 35.9785 32.4297 35.8223C32.5651 35.666 32.6615 35.4785 32.7188 35.2598H33.6406C33.5885 35.6139 33.4596 35.9329 33.2539 36.2168C33.0508 36.498 32.7813 36.722 32.4453 36.8887C32.112 37.0527 31.724 37.1348 31.2813 37.1348ZM34.7356 31.8691V31.0098H39.6106V31.8691H37.6419V37.0098H36.72V31.8691H34.7356ZM41.1754 39.2598V31.0098H42.066V31.9629H42.1754C42.2431 31.8587 42.3368 31.7259 42.4566 31.5645C42.579 31.4004 42.7535 31.2546 42.98 31.127C43.2092 30.9967 43.5191 30.9316 43.9097 30.9316C44.4149 30.9316 44.8602 31.0579 45.2457 31.3105C45.6311 31.5632 45.9319 31.9212 46.148 32.3848C46.3642 32.8483 46.4722 33.3952 46.4722 34.0254C46.4722 34.6608 46.3642 35.2116 46.148 35.6777C45.9319 36.1413 45.6324 36.5007 45.2496 36.7559C44.8668 37.0085 44.4254 37.1348 43.9254 37.1348C43.5399 37.1348 43.2313 37.071 42.9996 36.9434C42.7678 36.8132 42.5894 36.666 42.4644 36.502C42.3394 36.3353 42.2431 36.1973 42.1754 36.0879H42.0972V39.2598H41.1754ZM42.0816 34.0098C42.0816 34.4629 42.148 34.8626 42.2808 35.209C42.4136 35.5527 42.6076 35.8223 42.8629 36.0176C43.1181 36.2103 43.4306 36.3066 43.8004 36.3066C44.1858 36.3066 44.5074 36.2051 44.7652 36.002C45.0256 35.7962 45.2209 35.5202 45.3511 35.1738C45.4839 34.8249 45.5504 34.4368 45.5504 34.0098C45.5504 33.5879 45.4852 33.2077 45.355 32.8691C45.2274 32.528 45.0334 32.2585 44.773 32.0605C44.5152 31.86 44.191 31.7598 43.8004 31.7598C43.4254 31.7598 43.1102 31.8548 42.855 32.0449C42.5998 32.2324 42.4071 32.4954 42.2769 32.834C42.1467 33.1699 42.0816 33.5618 42.0816 34.0098ZM50.536 37.1348C49.9943 37.1348 49.519 37.0059 49.1102 36.748C48.7039 36.4902 48.3862 36.1296 48.1571 35.666C47.9305 35.2025 47.8172 34.6608 47.8172 34.041C47.8172 33.416 47.9305 32.8704 48.1571 32.4043C48.3862 31.9382 48.7039 31.5762 49.1102 31.3184C49.519 31.0605 49.9943 30.9316 50.536 30.9316C51.0776 30.9316 51.5516 31.0605 51.9579 31.3184C52.3667 31.5762 52.6844 31.9382 52.911 32.4043C53.1401 32.8704 53.2547 33.416 53.2547 34.041C53.2547 34.6608 53.1401 35.2025 52.911 35.666C52.6844 36.1296 52.3667 36.4902 51.9579 36.748C51.5516 37.0059 51.0776 37.1348 50.536 37.1348ZM50.536 36.3066C50.9474 36.3066 51.286 36.2012 51.5516 35.9902C51.8172 35.7793 52.0138 35.502 52.1414 35.1582C52.269 34.8145 52.3329 34.4421 52.3329 34.041C52.3329 33.64 52.269 33.2663 52.1414 32.9199C52.0138 32.5736 51.8172 32.2936 51.5516 32.0801C51.286 31.8665 50.9474 31.7598 50.536 31.7598C50.1245 31.7598 49.786 31.8665 49.5204 32.0801C49.2547 32.2936 49.0581 32.5736 48.9305 32.9199C48.8029 33.2663 48.7391 33.64 48.7391 34.041C48.7391 34.4421 48.8029 34.8145 48.9305 35.1582C49.0581 35.502 49.2547 35.7793 49.5204 35.9902C49.786 36.2012 50.1245 36.3066 50.536 36.3066ZM55.8038 35.6504L58.6945 31.0098H59.757V37.0098H58.8351V32.3691L55.9601 37.0098H54.882V31.0098H55.8038V35.6504ZM64.9467 35.7598L67.0404 31.0098H67.9154L65.3217 37.0098H64.5717L62.0248 31.0098H62.8842L64.9467 35.7598ZM62.5873 31.0098V37.0098H61.6654V31.0098H62.5873ZM67.3061 37.0098V31.0098H68.2279V37.0098H67.3061ZM73.4492 37.0098V31.0098H74.3711V33.6191H74.9804L77.1367 31.0098H78.3242L75.9023 33.9004L78.3554 37.0098H77.1679L75.1992 34.4785H74.3711V37.0098H73.4492ZM81.343 37.1504C80.9628 37.1504 80.6177 37.0788 80.3078 36.9355C79.998 36.7897 79.7519 36.5801 79.5696 36.3066C79.3873 36.0306 79.2961 35.6973 79.2961 35.3066C79.2961 34.9629 79.3638 34.6842 79.4993 34.4707C79.6347 34.2546 79.8157 34.0853 80.0422 33.9629C80.2688 33.8405 80.5188 33.7493 80.7922 33.6895C81.0683 33.627 81.3456 33.5775 81.6243 33.541C81.9888 33.4941 82.2844 33.459 82.511 33.4355C82.7401 33.4095 82.9068 33.3665 83.011 33.3066C83.1177 33.2467 83.1711 33.1426 83.1711 32.9941V32.9629C83.1711 32.5775 83.0657 32.278 82.8547 32.0645C82.6464 31.8509 82.33 31.7441 81.9055 31.7441C81.4654 31.7441 81.1203 31.8405 80.8704 32.0332C80.6203 32.2259 80.4446 32.4316 80.343 32.6504L79.468 32.3379C79.6243 31.9733 79.8326 31.6895 80.093 31.4863C80.356 31.2806 80.6425 31.1374 80.9524 31.0566C81.2649 30.9733 81.5722 30.9316 81.8743 30.9316C82.067 30.9316 82.2883 30.9551 82.5383 31.002C82.7909 31.0462 83.0344 31.1387 83.2688 31.2793C83.5058 31.4199 83.7024 31.6322 83.8586 31.916C84.0149 32.1999 84.093 32.5801 84.093 33.0566V37.0098H83.1711V36.1973H83.1243C83.0618 36.3275 82.9576 36.4668 82.8118 36.6152C82.6659 36.7637 82.4719 36.89 82.2297 36.9941C81.9875 37.0983 81.692 37.1504 81.343 37.1504ZM81.4836 36.3223C81.8482 36.3223 82.1555 36.2507 82.4055 36.1074C82.6581 35.9642 82.8482 35.7793 82.9758 35.5527C83.106 35.3262 83.1711 35.0879 83.1711 34.8379V33.9941C83.1321 34.041 83.0461 34.084 82.9133 34.123C82.7831 34.1595 82.6321 34.1921 82.4602 34.2207C82.2909 34.2467 82.1256 34.2702 81.9641 34.291C81.8052 34.3092 81.6763 34.3249 81.5774 34.3379C81.3378 34.3691 81.1138 34.4199 80.9055 34.4902C80.6998 34.5579 80.5331 34.6608 80.4055 34.7988C80.2805 34.9342 80.218 35.1191 80.218 35.3535C80.218 35.6738 80.3365 35.916 80.5735 36.0801C80.8131 36.2415 81.1164 36.3223 81.4836 36.3223ZM85.9956 39.2598V31.0098H86.8862V31.9629H86.9956C87.0633 31.8587 87.1571 31.7259 87.2769 31.5645C87.3993 31.4004 87.5737 31.2546 87.8003 31.127C88.0295 30.9967 88.3394 30.9316 88.73 30.9316C89.2352 30.9316 89.6805 31.0579 90.0659 31.3105C90.4514 31.5632 90.7521 31.9212 90.9683 32.3848C91.1844 32.8483 91.2925 33.3952 91.2925 34.0254C91.2925 34.6608 91.1844 35.2116 90.9683 35.6777C90.7521 36.1413 90.4527 36.5007 90.0698 36.7559C89.687 37.0085 89.2456 37.1348 88.7456 37.1348C88.3602 37.1348 88.0516 37.071 87.8198 36.9434C87.5881 36.8132 87.4097 36.666 87.2847 36.502C87.1597 36.3353 87.0633 36.1973 86.9956 36.0879H86.9175V39.2598H85.9956ZM86.9019 34.0098C86.9019 34.4629 86.9683 34.8626 87.1011 35.209C87.2339 35.5527 87.4279 35.8223 87.6831 36.0176C87.9383 36.2103 88.2508 36.3066 88.6206 36.3066C89.006 36.3066 89.3277 36.2051 89.5855 36.002C89.8459 35.7962 90.0412 35.5202 90.1714 35.1738C90.3042 34.8249 90.3706 34.4368 90.3706 34.0098C90.3706 33.5879 90.3055 33.2077 90.1753 32.8691C90.0477 32.528 89.8537 32.2585 89.5933 32.0605C89.3355 31.86 89.0112 31.7598 88.6206 31.7598C88.2456 31.7598 87.9305 31.8548 87.6753 32.0449C87.4201 32.2324 87.2274 32.4954 87.0972 32.834C86.967 33.1699 86.9019 33.5618 86.9019 34.0098ZM92.9187 37.0098V31.0098H93.8406V33.6191H94.45L96.6062 31.0098H97.7937L95.3719 33.9004L97.825 37.0098H96.6375L94.6687 34.4785H93.8406V37.0098H92.9187ZM100.813 37.1504C100.432 37.1504 100.087 37.0788 99.7774 36.9355C99.4675 36.7897 99.2214 36.5801 99.0391 36.3066C98.8568 36.0306 98.7657 35.6973 98.7657 35.3066C98.7657 34.9629 98.8334 34.6842 98.9688 34.4707C99.1042 34.2546 99.2852 34.0853 99.5118 33.9629C99.7384 33.8405 99.9884 33.7493 100.262 33.6895C100.538 33.627 100.815 33.5775 101.094 33.541C101.458 33.4941 101.754 33.459 101.981 33.4355C102.21 33.4095 102.376 33.3665 102.481 33.3066C102.587 33.2467 102.641 33.1426 102.641 32.9941V32.9629C102.641 32.5775 102.535 32.278 102.324 32.0645C102.116 31.8509 101.8 31.7441 101.375 31.7441C100.935 31.7441 100.59 31.8405 100.34 32.0332C100.09 32.2259 99.9141 32.4316 99.8126 32.6504L98.9376 32.3379C99.0938 31.9733 99.3022 31.6895 99.5626 31.4863C99.8256 31.2806 100.112 31.1374 100.422 31.0566C100.734 30.9733 101.042 30.9316 101.344 30.9316C101.537 30.9316 101.758 30.9551 102.008 31.002C102.26 31.0462 102.504 31.1387 102.738 31.2793C102.975 31.4199 103.172 31.6322 103.328 31.916C103.484 32.1999 103.563 32.5801 103.563 33.0566V37.0098H102.641V36.1973H102.594C102.531 36.3275 102.427 36.4668 102.281 36.6152C102.135 36.7637 101.941 36.89 101.699 36.9941C101.457 37.0983 101.162 37.1504 100.813 37.1504ZM100.953 36.3223C101.318 36.3223 101.625 36.2507 101.875 36.1074C102.128 35.9642 102.318 35.7793 102.445 35.5527C102.576 35.3262 102.641 35.0879 102.641 34.8379V33.9941C102.602 34.041 102.516 34.084 102.383 34.123C102.253 34.1595 102.102 34.1921 101.93 34.2207C101.76 34.2467 101.595 34.2702 101.434 34.291C101.275 34.3092 101.146 34.3249 101.047 34.3379C100.807 34.3691 100.583 34.4199 100.375 34.4902C100.169 34.5579 100.003 34.6608 99.8751 34.7988C99.7501 34.9342 99.6876 35.1191 99.6876 35.3535C99.6876 35.6738 99.8061 35.916 100.043 36.0801C100.283 36.2415 100.586 36.3223 100.953 36.3223ZM107.903 37.1348C107.34 37.1348 106.856 37.002 106.45 36.7363C106.043 36.4707 105.731 36.1048 105.512 35.6387C105.293 35.1725 105.184 34.64 105.184 34.041C105.184 33.4316 105.296 32.8939 105.52 32.4277C105.746 31.959 106.062 31.5931 106.465 31.3301C106.871 31.0645 107.345 30.9316 107.887 30.9316C108.309 30.9316 108.689 31.0098 109.028 31.166C109.366 31.3223 109.644 31.541 109.86 31.8223C110.076 32.1035 110.21 32.4316 110.262 32.8066H109.34C109.27 32.5332 109.114 32.291 108.871 32.0801C108.632 31.8665 108.309 31.7598 107.903 31.7598C107.543 31.7598 107.228 31.8535 106.957 32.041C106.689 32.2259 106.48 32.4876 106.328 32.8262C106.18 33.1621 106.106 33.5566 106.106 34.0098C106.106 34.4733 106.179 34.877 106.325 35.2207C106.473 35.5645 106.681 35.8314 106.95 36.0215C107.22 36.2116 107.538 36.3066 107.903 36.3066C108.142 36.3066 108.36 36.265 108.555 36.1816C108.75 36.0983 108.916 35.9785 109.051 35.8223C109.187 35.666 109.283 35.4785 109.34 35.2598H110.262C110.21 35.6139 110.081 35.9329 109.875 36.2168C109.672 36.498 109.403 36.722 109.067 36.8887C108.733 37.0527 108.345 37.1348 107.903 37.1348ZM115.845 33.5879V34.4473H112.533V33.5879H115.845ZM112.752 31.0098V37.0098H111.83V31.0098H112.752ZM116.548 31.0098V37.0098H115.627V31.0098H116.548ZM119.249 33.1816H120.968C121.671 33.1816 122.209 33.36 122.581 33.7168C122.953 34.0736 123.14 34.5254 123.14 35.0723C123.14 35.4316 123.056 35.7585 122.89 36.0527C122.723 36.3444 122.478 36.5775 122.155 36.752C121.832 36.9238 121.436 37.0098 120.968 37.0098H118.452V31.0098H119.374V36.1504H120.968C121.332 36.1504 121.632 36.054 121.866 35.8613C122.101 35.6686 122.218 35.4212 122.218 35.1191C122.218 34.8014 122.101 34.5423 121.866 34.3418C121.632 34.1413 121.332 34.041 120.968 34.041H119.249V33.1816ZM124.093 37.0098V31.0098H125.015V37.0098H124.093ZM129.438 37.1348C128.86 37.1348 128.361 37.0072 127.942 36.752C127.525 36.4941 127.203 36.1348 126.977 35.6738C126.753 35.2103 126.641 34.6712 126.641 34.0566C126.641 33.4421 126.753 32.9004 126.977 32.4316C127.203 31.9603 127.518 31.5931 127.922 31.3301C128.328 31.0645 128.802 30.9316 129.344 30.9316C129.656 30.9316 129.965 30.9837 130.27 31.0879C130.574 31.1921 130.852 31.3613 131.102 31.5957C131.352 31.8275 131.551 32.1348 131.699 32.5176C131.848 32.9004 131.922 33.3717 131.922 33.9316V34.3223H127.297V33.5254H130.985C130.985 33.1868 130.917 32.8848 130.781 32.6191C130.649 32.3535 130.459 32.1439 130.211 31.9902C129.966 31.8366 129.677 31.7598 129.344 31.7598C128.977 31.7598 128.659 31.8509 128.391 32.0332C128.125 32.2129 127.921 32.4473 127.778 32.7363C127.634 33.0254 127.563 33.3353 127.563 33.666V34.1973C127.563 34.6504 127.641 35.0345 127.797 35.3496C127.956 35.6621 128.176 35.9004 128.457 36.0645C128.738 36.2259 129.065 36.3066 129.438 36.3066C129.68 36.3066 129.899 36.2728 130.094 36.2051C130.292 36.1348 130.462 36.0306 130.606 35.8926C130.749 35.752 130.86 35.5775 130.938 35.3691L131.828 35.6191C131.735 35.9212 131.577 36.1868 131.356 36.416C131.134 36.6426 130.861 36.8197 130.535 36.9473C130.21 37.0723 129.844 37.1348 129.438 37.1348ZM136.218 38.7285V36.1504H136.718C136.84 36.0228 136.945 35.8848 137.034 35.7363C137.122 35.5879 137.199 35.4121 137.264 35.209C137.332 35.0033 137.389 34.7533 137.436 34.459C137.483 34.1621 137.525 33.804 137.561 33.3848L137.764 31.0098H141.577V36.1504H142.499V38.7285H141.577V37.0098H137.139V38.7285H136.218ZM137.764 36.1504H140.655V31.8691H138.624L138.468 33.3848C138.402 34.0124 138.322 34.5605 138.225 35.0293C138.129 35.498 137.975 35.8717 137.764 36.1504ZM146.38 37.1348C145.838 37.1348 145.363 37.0059 144.954 36.748C144.548 36.4902 144.23 36.1296 144.001 35.666C143.774 35.2025 143.661 34.6608 143.661 34.041C143.661 33.416 143.774 32.8704 144.001 32.4043C144.23 31.9382 144.548 31.5762 144.954 31.3184C145.363 31.0605 145.838 30.9316 146.38 30.9316C146.922 30.9316 147.396 31.0605 147.802 31.3184C148.211 31.5762 148.528 31.9382 148.755 32.4043C148.984 32.8704 149.099 33.416 149.099 34.041C149.099 34.6608 148.984 35.2025 148.755 35.666C148.528 36.1296 148.211 36.4902 147.802 36.748C147.396 37.0059 146.922 37.1348 146.38 37.1348ZM146.38 36.3066C146.791 36.3066 147.13 36.2012 147.396 35.9902C147.661 35.7793 147.858 35.502 147.985 35.1582C148.113 34.8145 148.177 34.4421 148.177 34.041C148.177 33.64 148.113 33.2663 147.985 32.9199C147.858 32.5736 147.661 32.2936 147.396 32.0801C147.13 31.8665 146.791 31.7598 146.38 31.7598C145.968 31.7598 145.63 31.8665 145.364 32.0801C145.099 32.2936 144.902 32.5736 144.774 32.9199C144.647 33.2663 144.583 33.64 144.583 34.041C144.583 34.4421 144.647 34.8145 144.774 35.1582C144.902 35.502 145.099 35.7793 145.364 35.9902C145.63 36.2012 145.968 36.3066 146.38 36.3066ZM154.007 35.7598L156.101 31.0098H156.976L154.382 37.0098H153.632L151.085 31.0098H151.945L154.007 35.7598ZM151.648 31.0098V37.0098H150.726V31.0098H151.648ZM156.367 37.0098V31.0098H157.288V37.0098H156.367ZM160.962 37.1504C160.581 37.1504 160.236 37.0788 159.926 36.9355C159.616 36.7897 159.37 36.5801 159.188 36.3066C159.006 36.0306 158.915 35.6973 158.915 35.3066C158.915 34.9629 158.982 34.6842 159.118 34.4707C159.253 34.2546 159.434 34.0853 159.661 33.9629C159.887 33.8405 160.137 33.7493 160.411 33.6895C160.687 33.627 160.964 33.5775 161.243 33.541C161.607 33.4941 161.903 33.459 162.129 33.4355C162.359 33.4095 162.525 33.3665 162.629 33.3066C162.736 33.2467 162.79 33.1426 162.79 32.9941V32.9629C162.79 32.5775 162.684 32.278 162.473 32.0645C162.265 31.8509 161.948 31.7441 161.524 31.7441C161.084 31.7441 160.739 31.8405 160.489 32.0332C160.239 32.2259 160.063 32.4316 159.962 32.6504L159.087 32.3379C159.243 31.9733 159.451 31.6895 159.712 31.4863C159.975 31.2806 160.261 31.1374 160.571 31.0566C160.883 30.9733 161.191 30.9316 161.493 30.9316C161.685 30.9316 161.907 30.9551 162.157 31.002C162.409 31.0462 162.653 31.1387 162.887 31.2793C163.124 31.4199 163.321 31.6322 163.477 31.916C163.633 32.1999 163.712 32.5801 163.712 33.0566V37.0098H162.79V36.1973H162.743C162.68 36.3275 162.576 36.4668 162.43 36.6152C162.284 36.7637 162.09 36.89 161.848 36.9941C161.606 37.0983 161.31 37.1504 160.962 37.1504ZM161.102 36.3223C161.467 36.3223 161.774 36.2507 162.024 36.1074C162.277 35.9642 162.467 35.7793 162.594 35.5527C162.725 35.3262 162.79 35.0879 162.79 34.8379V33.9941C162.751 34.041 162.665 34.084 162.532 34.123C162.402 34.1595 162.251 34.1921 162.079 34.2207C161.909 34.2467 161.744 34.2702 161.583 34.291C161.424 34.3092 161.295 34.3249 161.196 34.3379C160.956 34.3691 160.732 34.4199 160.524 34.4902C160.318 34.5579 160.152 34.6608 160.024 34.7988C159.899 34.9342 159.837 35.1191 159.837 35.3535C159.837 35.6738 159.955 35.916 160.192 36.0801C160.432 36.2415 160.735 36.3223 161.102 36.3223ZM171.365 37.1348C170.803 37.1348 170.319 37.002 169.912 36.7363C169.506 36.4707 169.194 36.1048 168.975 35.6387C168.756 35.1725 168.647 34.64 168.647 34.041C168.647 33.4316 168.759 32.8939 168.983 32.4277C169.209 31.959 169.524 31.5931 169.928 31.3301C170.334 31.0645 170.808 30.9316 171.35 30.9316C171.772 30.9316 172.152 31.0098 172.49 31.166C172.829 31.3223 173.106 31.541 173.322 31.8223C173.539 32.1035 173.673 32.4316 173.725 32.8066H172.803C172.733 32.5332 172.576 32.291 172.334 32.0801C172.095 31.8665 171.772 31.7598 171.365 31.7598C171.006 31.7598 170.691 31.8535 170.42 32.041C170.152 32.2259 169.942 32.4876 169.791 32.8262C169.643 33.1621 169.569 33.5566 169.569 34.0098C169.569 34.4733 169.641 34.877 169.787 35.2207C169.936 35.5645 170.144 35.8314 170.412 36.0215C170.683 36.2116 171.001 36.3066 171.365 36.3066C171.605 36.3066 171.822 36.265 172.018 36.1816C172.213 36.0983 172.378 35.9785 172.514 35.8223C172.649 35.666 172.746 35.4785 172.803 35.2598H173.725C173.673 35.6139 173.544 35.9329 173.338 36.2168C173.135 36.498 172.865 36.722 172.529 36.8887C172.196 37.0527 171.808 37.1348 171.365 37.1348ZM178.591 37.0098V36.3066L181.231 33.416C181.541 33.0775 181.796 32.7832 181.997 32.5332C182.197 32.2806 182.346 32.0436 182.442 31.8223C182.541 31.5983 182.591 31.3639 182.591 31.1191C182.591 30.8379 182.523 30.5944 182.387 30.3887C182.255 30.1829 182.072 30.0241 181.841 29.9121C181.609 29.8001 181.348 29.7441 181.059 29.7441C180.752 29.7441 180.484 29.8079 180.255 29.9355C180.028 30.0605 179.852 30.2363 179.727 30.4629C179.605 30.6895 179.544 30.9551 179.544 31.2598H178.622C178.622 30.791 178.73 30.3796 178.946 30.0254C179.162 29.6712 179.456 29.3952 179.829 29.1973C180.204 28.9993 180.624 28.9004 181.091 28.9004C181.559 28.9004 181.975 28.9993 182.337 29.1973C182.699 29.3952 182.982 29.6621 183.188 29.998C183.394 30.334 183.497 30.7077 183.497 31.1191C183.497 31.4134 183.443 31.7012 183.337 31.9824C183.232 32.2611 183.05 32.5723 182.79 32.916C182.532 33.2572 182.174 33.6738 181.716 34.166L179.919 36.0879V36.1504H183.637V37.0098H178.591ZM188.08 37.1191C187.492 37.1191 186.99 36.959 186.576 36.6387C186.162 36.3158 185.846 35.8483 185.627 35.2363C185.408 34.6217 185.299 33.8796 185.299 33.0098C185.299 32.1452 185.408 31.4069 185.627 30.7949C185.848 30.1803 186.166 29.7116 186.58 29.3887C186.997 29.0632 187.497 28.9004 188.08 28.9004C188.663 28.9004 189.162 29.0632 189.576 29.3887C189.993 29.7116 190.311 30.1803 190.529 30.7949C190.751 31.4069 190.861 32.1452 190.861 33.0098C190.861 33.8796 190.752 34.6217 190.533 35.2363C190.314 35.8483 189.998 36.3158 189.584 36.6387C189.17 36.959 188.669 37.1191 188.08 37.1191ZM188.08 36.2598C188.663 36.2598 189.117 35.9785 189.439 35.416C189.762 34.8535 189.924 34.0514 189.924 33.0098C189.924 32.3171 189.85 31.7272 189.701 31.2402C189.555 30.7533 189.344 30.3822 189.068 30.127C188.795 29.8717 188.465 29.7441 188.08 29.7441C187.502 29.7441 187.05 30.0293 186.725 30.5996C186.399 31.1673 186.236 31.9707 186.236 33.0098C186.236 33.7025 186.309 34.291 186.455 34.7754C186.601 35.2598 186.811 35.6283 187.084 35.8809C187.36 36.1335 187.692 36.2598 188.08 36.2598ZM195.175 37.1191C194.587 37.1191 194.085 36.959 193.671 36.6387C193.257 36.3158 192.941 35.8483 192.722 35.2363C192.503 34.6217 192.394 33.8796 192.394 33.0098C192.394 32.1452 192.503 31.4069 192.722 30.7949C192.943 30.1803 193.261 29.7116 193.675 29.3887C194.092 29.0632 194.592 28.9004 195.175 28.9004C195.758 28.9004 196.257 29.0632 196.671 29.3887C197.088 29.7116 197.406 30.1803 197.624 30.7949C197.846 31.4069 197.956 32.1452 197.956 33.0098C197.956 33.8796 197.847 34.6217 197.628 35.2363C197.409 35.8483 197.093 36.3158 196.679 36.6387C196.265 36.959 195.764 37.1191 195.175 37.1191ZM195.175 36.2598C195.758 36.2598 196.212 35.9785 196.534 35.416C196.857 34.8535 197.019 34.0514 197.019 33.0098C197.019 32.3171 196.945 31.7272 196.796 31.2402C196.65 30.7533 196.439 30.3822 196.163 30.127C195.89 29.8717 195.56 29.7441 195.175 29.7441C194.597 29.7441 194.145 30.0293 193.82 30.5996C193.494 31.1673 193.331 31.9707 193.331 33.0098C193.331 33.7025 193.404 34.291 193.55 34.7754C193.696 35.2598 193.906 35.6283 194.179 35.8809C194.455 36.1335 194.787 36.2598 195.175 36.2598ZM199.696 37.0098L203.274 29.9316V29.8691H199.149V29.0098H204.274V29.916L200.711 37.0098H199.696ZM212.983 31.0098V31.8691H210.201V37.0098H209.279V31.0098H212.983ZM216.674 37.1348C216.133 37.1348 215.657 37.0059 215.248 36.748C214.842 36.4902 214.524 36.1296 214.295 35.666C214.069 35.2025 213.955 34.6608 213.955 34.041C213.955 33.416 214.069 32.8704 214.295 32.4043C214.524 31.9382 214.842 31.5762 215.248 31.3184C215.657 31.0605 216.133 30.9316 216.674 30.9316C217.216 30.9316 217.69 31.0605 218.096 31.3184C218.505 31.5762 218.823 31.9382 219.049 32.4043C219.278 32.8704 219.393 33.416 219.393 34.041C219.393 34.6608 219.278 35.2025 219.049 35.666C218.823 36.1296 218.505 36.4902 218.096 36.748C217.69 37.0059 217.216 37.1348 216.674 37.1348ZM216.674 36.3066C217.086 36.3066 217.424 36.2012 217.69 35.9902C217.955 35.7793 218.152 35.502 218.28 35.1582C218.407 34.8145 218.471 34.4421 218.471 34.041C218.471 33.64 218.407 33.2663 218.28 32.9199C218.152 32.5736 217.955 32.2936 217.69 32.0801C217.424 31.8665 217.086 31.7598 216.674 31.7598C216.263 31.7598 215.924 31.8665 215.659 32.0801C215.393 32.2936 215.196 32.5736 215.069 32.9199C214.941 33.2663 214.877 33.64 214.877 34.041C214.877 34.4421 214.941 34.8145 215.069 35.1582C215.196 35.502 215.393 35.7793 215.659 35.9902C215.924 36.2012 216.263 36.3066 216.674 36.3066ZM220.38 38.7285V36.1504H220.88C221.002 36.0228 221.107 35.8848 221.196 35.7363C221.285 35.5879 221.361 35.4121 221.426 35.209C221.494 35.0033 221.551 34.7533 221.598 34.459C221.645 34.1621 221.687 33.804 221.723 33.3848L221.926 31.0098H225.739V36.1504H226.661V38.7285H225.739V37.0098H221.301V38.7285H220.38ZM221.926 36.1504H224.817V31.8691H222.786L222.63 33.3848C222.564 34.0124 222.484 34.5605 222.387 35.0293C222.291 35.498 222.137 35.8717 221.926 36.1504ZM229.87 37.1504C229.49 37.1504 229.145 37.0788 228.835 36.9355C228.525 36.7897 228.279 36.5801 228.097 36.3066C227.914 36.0306 227.823 35.6973 227.823 35.3066C227.823 34.9629 227.891 34.6842 228.026 34.4707C228.162 34.2546 228.343 34.0853 228.569 33.9629C228.796 33.8405 229.046 33.7493 229.319 33.6895C229.595 33.627 229.873 33.5775 230.151 33.541C230.516 33.4941 230.811 33.459 231.038 33.4355C231.267 33.4095 231.434 33.3665 231.538 33.3066C231.645 33.2467 231.698 33.1426 231.698 32.9941V32.9629C231.698 32.5775 231.593 32.278 231.382 32.0645C231.173 31.8509 230.857 31.7441 230.433 31.7441C229.992 31.7441 229.647 31.8405 229.397 32.0332C229.147 32.2259 228.972 32.4316 228.87 32.6504L227.995 32.3379C228.151 31.9733 228.36 31.6895 228.62 31.4863C228.883 31.2806 229.17 31.1374 229.479 31.0566C229.792 30.9733 230.099 30.9316 230.401 30.9316C230.594 30.9316 230.815 30.9551 231.065 31.002C231.318 31.0462 231.561 31.1387 231.796 31.2793C232.033 31.4199 232.229 31.6322 232.386 31.916C232.542 32.1999 232.62 32.5801 232.62 33.0566V37.0098H231.698V36.1973H231.651C231.589 36.3275 231.485 36.4668 231.339 36.6152C231.193 36.7637 230.999 36.89 230.757 36.9941C230.515 37.0983 230.219 37.1504 229.87 37.1504ZM230.011 36.3223C230.375 36.3223 230.683 36.2507 230.933 36.1074C231.185 35.9642 231.375 35.7793 231.503 35.5527C231.633 35.3262 231.698 35.0879 231.698 34.8379V33.9941C231.659 34.041 231.573 34.084 231.44 34.123C231.31 34.1595 231.159 34.1921 230.987 34.2207C230.818 34.2467 230.653 34.2702 230.491 34.291C230.332 34.3092 230.203 34.3249 230.104 34.3379C229.865 34.3691 229.641 34.4199 229.433 34.4902C229.227 34.5579 229.06 34.6608 228.933 34.7988C228.808 34.9342 228.745 35.1191 228.745 35.3535C228.745 35.6738 228.864 35.916 229.101 36.0801C229.34 36.2415 229.644 36.3223 230.011 36.3223Z" fill="#445547"/>
<defs>
<linearGradient id="paint0_linear_421_124" x1="20" y1="19" x2="-1.39237e-08" y2="19" gradientUnits="userSpaceOnUse">
<stop stop-color="#6E9D01"/>
<stop offset="1" stop-color="#296C02"/>
</linearGradient>
</defs>
</svg>
