<?xml version="1.0" standalone="no"?>
<!DOCTYPE svg PUBLIC "-//W3C//DTD SVG 20010904//EN"
 "http://www.w3.org/TR/2001/REC-SVG-20010904/DTD/svg10.dtd">
<svg version="1.0" xmlns="http://www.w3.org/2000/svg"
 width="184.000000pt" height="184.000000pt" viewBox="0 0 184.000000 184.000000"
 preserveAspectRatio="xMidYMid meet">
<metadata>
Created by potrace 1.14, written by Peter Selinger 2001-2017
</metadata>
<g transform="translate(0.000000,184.000000) scale(0.100000,-0.100000)"
fill="#000000" stroke="none">
<path d="M909 1553 c-9 -94 -14 -103 -61 -98 -36 5 -35 -4 1 -39 29 -28 31
-52 7 -68 -21 -15 -63 -8 -86 14 l-23 22 6 -41 c4 -23 4 -49 1 -57 -9 -23 -56
-20 -99 5 -20 12 -38 20 -40 17 -3 -2 4 -21 15 -41 19 -36 19 -36 0 -42 -35
-11 -22 -31 41 -65 33 -17 63 -38 66 -47 3 -8 -6 -27 -21 -42 -23 -24 -33 -28
-69 -24 -23 3 -57 14 -76 24 -34 20 -42 18 -54 -14 -3 -10 -76 -12 -105 -2
-36 11 -26 -18 20 -59 38 -34 40 -39 25 -51 -19 -13 -13 -25 13 -25 10 0 29
-10 44 -21 36 -28 33 -78 -5 -96 -64 -31 -113 -22 -164 30 -35 36 -45 12 -34
-83 4 -34 3 -35 -28 -32 -18 2 -33 -1 -33 -6 0 -10 32 -43 64 -66 34 -24 9
-37 -67 -35 -40 1 -82 6 -94 10 -30 11 -39 -6 -18 -37 12 -18 13 -29 6 -38
-16 -19 46 -49 176 -85 202 -56 273 -94 289 -156 l6 -25 308 0 308 0 6 23 c15
62 95 107 266 152 58 15 129 38 158 52 44 20 51 27 41 39 -9 11 -8 18 5 32 32
36 21 41 -89 35 -58 -3 -105 -2 -105 3 0 4 19 27 41 50 42 43 47 74 7 53 -33
-18 -43 2 -28 55 12 44 9 76 -7 76 -4 0 -24 -14 -43 -30 -19 -16 -37 -30 -40
-31 -34 -7 -78 -1 -108 16 -29 16 -36 26 -34 45 4 32 46 70 78 70 28 0 31 8 7
25 -16 12 -13 16 25 51 46 41 56 70 20 59 -26 -9 -94 -9 -108 0 -5 3 -10 15
-10 26 0 19 -1 19 -28 -1 -60 -44 -147 -42 -171 4 -17 31 -10 42 44 67 24 11
51 29 60 39 18 20 13 40 -11 40 -12 0 -11 8 6 40 11 22 18 40 16 40 -2 0 -27
-12 -55 -26 -50 -26 -52 -26 -71 -9 -16 14 -19 27 -15 53 3 19 8 39 11 44 4 6
-4 4 -16 -4 -60 -35 -63 -36 -86 -26 -34 16 -36 43 -3 74 31 30 30 46 -5 40
-33 -6 -47 7 -50 45 -5 57 -6 59 -16 59 -5 0 -10 -3 -11 -7z"/>
</g>
</svg>
