<svg width="32" height="32" viewBox="0 0 32 32" fill="none" xmlns="http://www.w3.org/2000/svg">
<path d="M29.3337 15.9998C29.3337 8.65317 23.347 2.6665 16.0003 2.6665C8.65366 2.6665 2.66699 8.65317 2.66699 15.9998C2.66699 19.8665 4.33366 23.3465 6.97366 25.7865C6.97366 25.7998 6.97366 25.7998 6.96032 25.8132C7.09366 25.9465 7.25366 26.0532 7.38699 26.1732C7.46699 26.2398 7.53366 26.3065 7.61366 26.3598C7.85366 26.5598 8.12033 26.7465 8.37366 26.9332C8.46699 26.9998 8.54699 27.0532 8.64033 27.1198C8.89366 27.2932 9.16033 27.4532 9.44032 27.5998C9.53366 27.6532 9.64033 27.7198 9.73366 27.7732C10.0003 27.9198 10.2803 28.0532 10.5737 28.1732C10.6803 28.2265 10.787 28.2798 10.8937 28.3198C11.187 28.4398 11.4803 28.5465 11.7737 28.6398C11.8803 28.6798 11.987 28.7198 12.0937 28.7465C12.4137 28.8398 12.7337 28.9198 13.0537 28.9998C13.147 29.0265 13.2403 29.0532 13.347 29.0665C13.7203 29.1465 14.0937 29.1998 14.4803 29.2398C14.5337 29.2398 14.587 29.2532 14.6403 29.2665C15.0937 29.3065 15.547 29.3332 16.0003 29.3332C16.4537 29.3332 16.907 29.3065 17.347 29.2665C17.4003 29.2665 17.4537 29.2532 17.507 29.2398C17.8937 29.1998 18.267 29.1465 18.6403 29.0665C18.7337 29.0532 18.827 29.0132 18.9337 28.9998C19.2537 28.9198 19.587 28.8532 19.8937 28.7465C20.0003 28.7065 20.107 28.6665 20.2137 28.6398C20.507 28.5332 20.8137 28.4398 21.0937 28.3198C21.2003 28.2798 21.307 28.2265 21.4137 28.1732C21.6937 28.0532 21.9737 27.9198 22.2537 27.7732C22.3603 27.7198 22.4537 27.6532 22.547 27.5998C22.8137 27.4398 23.0803 27.2932 23.347 27.1198C23.4403 27.0665 23.5203 26.9998 23.6137 26.9332C23.8803 26.7465 24.1337 26.5598 24.3737 26.3598C24.4537 26.2932 24.5203 26.2265 24.6003 26.1732C24.747 26.0532 24.8937 25.9332 25.027 25.8132C25.027 25.7998 25.027 25.7998 25.0137 25.7865C27.667 23.3465 29.3337 19.8665 29.3337 15.9998ZM22.587 22.6265C18.9737 20.1998 13.0537 20.1998 9.41366 22.6265C8.82699 23.0132 8.34699 23.4665 7.94699 23.9598C5.92033 21.9065 4.66699 19.0932 4.66699 15.9998C4.66699 9.7465 9.74699 4.6665 16.0003 4.6665C22.2537 4.6665 27.3337 9.7465 27.3337 15.9998C27.3337 19.0932 26.0803 21.9065 24.0537 23.9598C23.667 23.4665 23.1737 23.0132 22.587 22.6265Z" fill="#676E68"/>
<path d="M16 9.24023C13.24 9.24023 11 11.4802 11 14.2402C11 16.9469 13.12 19.1469 15.9333 19.2269C15.9733 19.2269 16.0267 19.2269 16.0533 19.2269C16.08 19.2269 16.12 19.2269 16.1467 19.2269C16.16 19.2269 16.1733 19.2269 16.1733 19.2269C18.8667 19.1336 20.9867 16.9469 21 14.2402C21 11.4802 18.76 9.24023 16 9.24023Z" fill="#676E68"/>
</svg>
