<svg width="105" height="32" viewBox="0 0 105 32" fill="none" xmlns="http://www.w3.org/2000/svg">
<g filter="url(#filter0_d_225_132)">
<rect x="4" y="2" width="97" height="24" rx="12" fill="white" shape-rendering="crispEdges"/>
<path d="M23.1637 11.8555H21.1417C21.1048 11.5939 21.0294 11.3615 20.9155 11.1584C20.8016 10.9522 20.6554 10.7768 20.4769 10.6321C20.2984 10.4875 20.0922 10.3767 19.8583 10.2997C19.6275 10.2228 19.3767 10.1843 19.1058 10.1843C18.6165 10.1843 18.1902 10.3059 17.8271 10.549C17.4639 10.7891 17.1823 11.1399 16.9822 11.6016C16.7822 12.0601 16.6822 12.6172 16.6822 13.2727C16.6822 13.9467 16.7822 14.513 16.9822 14.9716C17.1854 15.4302 17.4685 15.7764 17.8317 16.0103C18.1948 16.2442 18.6149 16.3612 19.092 16.3612C19.3597 16.3612 19.6075 16.3258 19.8352 16.255C20.0661 16.1842 20.2707 16.0811 20.4492 15.9457C20.6277 15.8072 20.7755 15.6394 20.8924 15.4425C21.0124 15.2455 21.0955 15.0208 21.1417 14.7685L23.1637 14.7777C23.1114 15.2116 22.9806 15.6302 22.7713 16.0334C22.5651 16.4335 22.2866 16.792 21.9357 17.109C21.5879 17.4229 21.1725 17.6722 20.6893 17.8569C20.2092 18.0385 19.666 18.1293 19.0597 18.1293C18.2164 18.1293 17.4624 17.9384 16.7976 17.5568C16.1359 17.1752 15.6127 16.6228 15.228 15.8995C14.8464 15.1763 14.6555 14.3007 14.6555 13.2727C14.6555 12.2417 14.8494 11.3646 15.2372 10.6413C15.625 9.91809 16.1513 9.36719 16.8161 8.98864C17.4808 8.60701 18.2287 8.41619 19.0597 8.41619C19.6075 8.41619 20.1153 8.49313 20.5831 8.64702C21.054 8.8009 21.471 9.02557 21.8342 9.32102C22.1973 9.6134 22.4928 9.97195 22.7205 10.3967C22.9513 10.8214 23.0991 11.3076 23.1637 11.8555ZM24.3002 18V10.9091H27.324C28.198 10.9091 28.889 11.0753 29.3968 11.4077C29.9046 11.7401 30.1585 12.2125 30.1585 12.8249C30.1585 13.2096 30.0154 13.5297 29.7292 13.7852C29.4429 14.0406 29.0459 14.2129 28.5381 14.3022C28.9628 14.333 29.3245 14.4299 29.623 14.593C29.9246 14.7531 30.1539 14.9608 30.3108 15.2163C30.4709 15.4717 30.5509 15.7549 30.5509 16.0657C30.5509 16.4689 30.4432 16.8151 30.2277 17.1044C30.0154 17.3937 29.703 17.6153 29.2906 17.7692C28.8813 17.9231 28.3812 18 27.7902 18H24.3002ZM26.1329 16.5273H27.7902C28.0642 16.5273 28.2781 16.4627 28.4319 16.3335C28.5889 16.2011 28.6674 16.0211 28.6674 15.7933C28.6674 15.541 28.5889 15.3424 28.4319 15.1978C28.2781 15.0531 28.0642 14.9808 27.7902 14.9808H26.1329V16.5273ZM26.1329 13.8267H27.3655C27.5625 13.8267 27.7302 13.799 27.8687 13.7436C28.0103 13.6851 28.118 13.602 28.1919 13.4943C28.2688 13.3866 28.3073 13.2589 28.3073 13.1112C28.3073 12.8926 28.2196 12.7218 28.0442 12.5987C27.8687 12.4756 27.6287 12.4141 27.324 12.4141H26.1329V13.8267ZM34.762 18.1385C34.0326 18.1385 33.4047 17.9908 32.8784 17.6953C32.3552 17.3968 31.9521 16.9751 31.6689 16.4304C31.3858 15.8826 31.2442 15.2347 31.2442 14.4869C31.2442 13.7575 31.3858 13.1173 31.6689 12.5664C31.9521 12.0155 32.3506 11.5862 32.8646 11.2784C33.3816 10.9706 33.9879 10.8168 34.6835 10.8168C35.1513 10.8168 35.5868 10.8922 35.9899 11.043C36.3962 11.1907 36.7501 11.4138 37.0517 11.7124C37.3564 12.0109 37.5934 12.3864 37.7627 12.8388C37.9319 13.2881 38.0166 13.8144 38.0166 14.4176V14.9577H32.029V13.739H36.1654C36.1654 13.4558 36.1038 13.205 35.9807 12.9865C35.8576 12.768 35.6868 12.5972 35.4683 12.4741C35.2528 12.3479 35.002 12.2848 34.7158 12.2848C34.4173 12.2848 34.1526 12.354 33.9218 12.4925C33.694 12.628 33.5155 12.8111 33.3862 13.0419C33.257 13.2696 33.1908 13.5236 33.1877 13.8036V14.9624C33.1877 15.3132 33.2524 15.6164 33.3816 15.8718C33.514 16.1272 33.7002 16.3242 33.9402 16.4627C34.1803 16.6012 34.465 16.6705 34.7943 16.6705C35.0128 16.6705 35.2128 16.6397 35.3944 16.5781C35.576 16.5166 35.7314 16.4242 35.8607 16.3011C35.9899 16.178 36.0884 16.0272 36.1561 15.8487L37.975 15.9688C37.8827 16.4058 37.6934 16.7874 37.4072 17.1136C37.1241 17.4368 36.7578 17.6892 36.3085 17.8707C35.8622 18.0492 35.3467 18.1385 34.762 18.1385ZM39.04 20.6591V10.9091H40.9789V12.1001H41.0666C41.1528 11.9093 41.2774 11.7154 41.4405 11.5185C41.6067 11.3184 41.8222 11.1522 42.0868 11.0199C42.3546 10.8845 42.687 10.8168 43.084 10.8168C43.601 10.8168 44.0781 10.9522 44.5151 11.223C44.9521 11.4908 45.3014 11.8955 45.563 12.4371C45.8246 12.9757 45.9554 13.6513 45.9554 14.4638C45.9554 15.2547 45.8277 15.9226 45.5723 16.4673C45.3199 17.009 44.9752 17.4199 44.5382 17.6999C44.1042 17.9769 43.618 18.1154 43.0794 18.1154C42.6977 18.1154 42.3731 18.0523 42.1053 17.9261C41.8406 17.8 41.6236 17.6415 41.4544 17.4506C41.2851 17.2567 41.1558 17.0613 41.0666 16.8643H41.0066V20.6591H39.04ZM40.965 14.4545C40.965 14.8762 41.0235 15.244 41.1405 15.5579C41.2574 15.8718 41.4267 16.1165 41.6483 16.2919C41.8699 16.4643 42.1392 16.5504 42.4561 16.5504C42.7762 16.5504 43.0471 16.4627 43.2686 16.2873C43.4902 16.1088 43.658 15.8626 43.7718 15.5487C43.8888 15.2317 43.9473 14.867 43.9473 14.4545C43.9473 14.0452 43.8903 13.6851 43.7765 13.3743C43.6626 13.0634 43.4949 12.8203 43.2733 12.6449C43.0517 12.4695 42.7793 12.3817 42.4561 12.3817C42.1361 12.3817 41.8652 12.4664 41.6436 12.6357C41.4251 12.8049 41.2574 13.045 41.1405 13.3558C41.0235 13.6667 40.965 14.0329 40.965 14.4545ZM51.9415 13.6697V15.2163H48.2391V13.6697H51.9415ZM48.8854 10.9091V18H47.0065V10.9091H48.8854ZM53.1741 10.9091V18H51.3091V10.9091H53.1741ZM55.4001 20.6591C55.1508 20.6591 54.9169 20.6391 54.6984 20.5991C54.483 20.5621 54.3045 20.5144 54.1629 20.456L54.6061 18.9879C54.8369 19.0587 55.0446 19.0972 55.2293 19.1033C55.417 19.1095 55.5786 19.0664 55.714 18.9741C55.8525 18.8817 55.9649 18.7248 56.051 18.5032L56.1664 18.2031L53.6228 10.9091H55.6909L57.159 16.1165H57.2328L58.7147 10.9091H60.7968L58.0407 18.7663C57.9084 19.148 57.7284 19.4804 57.5006 19.7635C57.2759 20.0497 56.9913 20.2698 56.6466 20.4237C56.3019 20.5806 55.8864 20.6591 55.4001 20.6591ZM61.1738 12.4556V10.9091H67.6V12.4556H65.3148V18H63.4405V12.4556H61.1738ZM69.7648 13.0881H71.8837C72.8224 13.0881 73.5549 13.3127 74.0812 13.7621C74.6075 14.2083 74.8706 14.8054 74.8706 15.5533C74.8706 16.0395 74.7521 16.4673 74.5151 16.8366C74.2782 17.2029 73.9365 17.4891 73.4903 17.6953C73.044 17.8984 72.5085 18 71.8837 18H68.5322V10.9091H70.4111V16.4535H71.8837C72.2131 16.4535 72.4839 16.3704 72.6962 16.2042C72.9086 16.038 73.0163 15.8256 73.0194 15.5671C73.0163 15.2932 72.9086 15.0701 72.6962 14.8977C72.4839 14.7223 72.2131 14.6346 71.8837 14.6346H69.7648V13.0881Z" fill="#B3B7B4"/>
<path d="M92.2426 15.7574L88 11.5147L83.7574 15.7574" stroke="#B3B7B4"/>
</g>
<defs>
<filter id="filter0_d_225_132" x="0" y="0" width="105" height="32" filterUnits="userSpaceOnUse" color-interpolation-filters="sRGB">
<feFlood flood-opacity="0" result="BackgroundImageFix"/>
<feColorMatrix in="SourceAlpha" type="matrix" values="0 0 0 0 0 0 0 0 0 0 0 0 0 0 0 0 0 0 127 0" result="hardAlpha"/>
<feOffset dy="2"/>
<feGaussianBlur stdDeviation="2"/>
<feComposite in2="hardAlpha" operator="out"/>
<feColorMatrix type="matrix" values="0 0 0 0 0 0 0 0 0 0 0 0 0 0 0 0 0 0 0.15 0"/>
<feBlend mode="normal" in2="BackgroundImageFix" result="effect1_dropShadow_225_132"/>
<feBlend mode="normal" in="SourceGraphic" in2="effect1_dropShadow_225_132" result="shape"/>
</filter>
</defs>
</svg>
