<svg width="25" height="24" viewBox="0 0 25 24" fill="none" xmlns="http://www.w3.org/2000/svg">
<rect x="0.5" width="24" height="24" rx="12" fill="#283B2B"/>
<path d="M12.4963 4.94141C11.1002 4.94141 9.73547 5.3554 8.57465 6.13103C7.41384 6.90667 6.50909 8.0091 5.97482 9.29893C5.44056 10.5888 5.30077 12.0081 5.57314 13.3773C5.8455 14.7466 6.51779 16.0044 7.50498 16.9916C8.49218 17.9788 9.74994 18.6511 11.1192 18.9234C12.4885 19.1958 13.9078 19.056 15.1976 18.5217C16.4875 17.9875 17.5899 17.0827 18.3655 15.9219C19.1412 14.7611 19.5552 13.3963 19.5552 12.0002C19.5552 11.0732 19.3727 10.1553 19.018 9.29884C18.6633 8.44239 18.1433 7.6642 17.4878 7.00872C16.8324 6.35323 16.0542 5.83328 15.1977 5.47857C14.3413 5.12386 13.4233 4.94133 12.4963 4.94141ZM14.7407 15.6373C14.7143 15.7031 14.6741 15.7626 14.6228 15.8117C14.5715 15.8608 14.5103 15.8983 14.4433 15.9218C14.3764 15.9453 14.3051 15.9542 14.2344 15.9479C14.1637 15.9416 14.0952 15.9203 14.0334 15.8854L12.1172 14.3964L10.8873 15.5311C10.8587 15.5521 10.8254 15.5657 10.7902 15.5705C10.7551 15.5753 10.7193 15.5712 10.6861 15.5585L10.9219 13.449L10.9294 13.455L10.9342 13.4134C10.9342 13.4134 14.3825 10.274 14.5229 10.1402C14.6652 10.0068 14.6182 9.97785 14.6182 9.97785C14.6263 9.81512 14.363 9.97785 14.363 9.97785L9.79421 12.9172L7.89151 12.2692C7.89151 12.2692 7.59928 12.1643 7.57175 11.9339C7.5428 11.7052 7.90103 11.5809 7.90103 11.5809L15.466 8.57563C15.466 8.57563 16.0879 8.29856 16.0879 8.75741L14.7407 15.6373Z" fill="#F1F6F2"/>
</svg>
