<svg width="25" height="24" viewBox="0 0 25 24" fill="none" xmlns="http://www.w3.org/2000/svg">
<circle cx="12.5" cy="12" r="12" fill="#283B2B"/>
<path d="M18.9566 11.6184C18.7366 7.86546 15.3266 4.97312 11.399 5.62018C8.69427 6.06665 6.52663 8.26016 6.10604 10.9649C5.86016 12.5308 6.1837 14.0125 6.889 15.2355L6.31311 17.3772C6.18369 17.8625 6.63015 18.3025 7.10898 18.1666L9.21839 17.5843C10.176 18.1472 11.2955 18.4708 12.4925 18.4708C16.1419 18.4708 19.1702 15.2549 18.9566 11.6184ZM15.6566 14.4072C15.5984 14.5237 15.5272 14.6337 15.4366 14.7372C15.2749 14.9119 15.1001 15.0413 14.906 15.119C14.7119 15.2031 14.4984 15.2419 14.2719 15.2419C13.9419 15.2419 13.586 15.1643 13.2172 15.0025C12.8419 14.8408 12.4731 14.6272 12.1043 14.3619C11.729 14.0902 11.3796 13.786 11.0431 13.456C10.7066 13.1196 10.409 12.7637 10.1372 12.3949C9.87191 12.026 9.65839 11.6572 9.5031 11.2884C9.34781 10.9196 9.27017 10.5637 9.27017 10.2272C9.27017 10.0072 9.30899 9.7937 9.38663 9.59958C9.46428 9.399 9.58723 9.21782 9.76194 9.05606C9.969 8.849 10.1955 8.75194 10.4349 8.75194C10.5255 8.75194 10.616 8.77135 10.7001 8.81017C10.7843 8.849 10.8619 8.90723 10.9202 8.99135L11.6707 10.0525C11.729 10.1366 11.7743 10.2078 11.8002 10.279C11.8325 10.3502 11.8455 10.4149 11.8455 10.4796C11.8455 10.5572 11.8196 10.6349 11.7743 10.7125C11.729 10.7902 11.6707 10.8678 11.5931 10.9455L11.3472 11.2043C11.3084 11.2431 11.2955 11.2819 11.2955 11.3337C11.2955 11.3596 11.3019 11.3855 11.3084 11.4113C11.3213 11.4372 11.3278 11.4566 11.3343 11.4761C11.3925 11.5861 11.496 11.7219 11.6384 11.8902C11.7872 12.0584 11.9425 12.2331 12.1108 12.4013C12.2855 12.576 12.4537 12.7313 12.6284 12.8802C12.7966 13.0225 12.939 13.1196 13.049 13.1778C13.0684 13.1843 13.0878 13.1972 13.1072 13.2037C13.1331 13.2166 13.159 13.2166 13.1913 13.2166C13.2496 13.2166 13.2884 13.1972 13.3272 13.1584L13.5731 12.9125C13.6572 12.8284 13.7349 12.7702 13.8061 12.7313C13.8837 12.6861 13.9549 12.6602 14.039 12.6602C14.1037 12.6602 14.1684 12.6731 14.2396 12.7055C14.3108 12.7378 14.3884 12.7766 14.466 12.8349L15.5402 13.5984C15.6243 13.6566 15.6825 13.7278 15.7213 13.8055C15.7537 13.8896 15.7731 13.9672 15.7731 14.0578C15.7343 14.1678 15.7084 14.2908 15.6566 14.4072Z" fill="white"/>
</svg>
