<svg width="25" height="24" viewBox="0 0 25 24" fill="none" xmlns="http://www.w3.org/2000/svg">
<rect x="0.5" width="24" height="24" rx="12" fill="#283B2B"/>
<g clip-path="url(#clip0_273_1211)">
<path d="M16.2265 14.465C16.0872 14.3252 15.9216 14.2142 15.7393 14.1385C15.5569 14.0628 15.3615 14.0238 15.164 14.0238C14.9666 14.0238 14.7711 14.0628 14.5888 14.1385C14.4065 14.2142 14.2409 14.3252 14.1015 14.465L13.3765 15.19C12.5602 14.6719 11.804 14.0649 11.1215 13.38C10.4381 12.6963 9.8312 11.9402 9.31155 11.125L10.0365 10.4C10.1764 10.2607 10.2873 10.0951 10.363 9.91274C10.4388 9.73042 10.4777 9.53494 10.4777 9.33752C10.4777 9.14009 10.4388 8.94461 10.363 8.76229C10.2873 8.57996 10.1764 8.41437 10.0365 8.27502L8.62155 6.86502C8.48416 6.72471 8.31997 6.61346 8.13873 6.53787C7.95749 6.46229 7.76291 6.42391 7.56655 6.42501C7.36879 6.42453 7.17288 6.46316 6.99011 6.53867C6.80733 6.61418 6.6413 6.72509 6.50155 6.86502L5.82155 7.54001C5.49743 7.8885 5.25553 8.30519 5.11363 8.75945C4.97173 9.21371 4.93343 9.694 5.00155 10.165C5.16155 12.04 6.39155 14.295 8.28655 16.195C10.1815 18.095 12.4615 19.32 14.3365 19.5C14.4764 19.5075 14.6166 19.5075 14.7565 19.5C15.1602 19.517 15.5631 19.4532 15.9417 19.3124C16.3204 19.1715 16.6671 18.9566 16.9615 18.68L17.6365 18C17.7765 17.8603 17.8874 17.6942 17.9629 17.5115C18.0384 17.3287 18.077 17.1328 18.0765 16.935C18.0777 16.7387 18.0393 16.5441 17.9637 16.3628C17.8881 16.1816 17.7768 16.0174 17.6365 15.88L16.2265 14.465ZM16.9315 17.295L16.2515 17.97C16.0001 18.1796 15.7066 18.3326 15.3909 18.4189C15.0752 18.5052 14.7446 18.5226 14.4215 18.47C12.7965 18.33 10.7265 17.18 9.01655 15.47C7.30655 13.76 6.15655 11.705 6.00155 10.08C5.94763 9.75697 5.9644 9.42608 6.05072 9.11015C6.13705 8.79421 6.29085 8.50076 6.50155 8.25002L7.20655 7.57001C7.25327 7.52367 7.30867 7.48701 7.36959 7.46213C7.43051 7.43725 7.49574 7.42463 7.56155 7.42501C7.62735 7.42463 7.69258 7.43725 7.7535 7.46213C7.81442 7.48701 7.86983 7.52367 7.91655 7.57001L9.33155 9.00002C9.42467 9.0937 9.47694 9.22042 9.47694 9.35252C9.47694 9.48461 9.42467 9.61133 9.33155 9.70502L8.33155 10.705C8.25329 10.7829 8.20301 10.8845 8.18854 10.9939C8.17407 11.1033 8.19622 11.2145 8.25155 11.31C8.85024 12.3292 9.57791 13.267 10.4165 14.1C11.2496 14.9386 12.1873 15.6663 13.2065 16.265C13.3021 16.3203 13.4132 16.3425 13.5227 16.328C13.6321 16.3135 13.7337 16.2633 13.8115 16.185L14.8115 15.185C14.9052 15.0919 15.032 15.0396 15.164 15.0396C15.2961 15.0396 15.4229 15.0919 15.5165 15.185L16.9315 16.6C16.9779 16.6467 17.0145 16.7021 17.0394 16.7631C17.0643 16.824 17.0769 16.8892 17.0765 16.955C17.0734 17.0827 17.0215 17.2044 16.9315 17.295ZM17.8015 6.69501C17.1067 5.9975 16.2806 5.44443 15.371 5.06771C14.4613 4.69098 13.4861 4.49804 12.5015 4.50002C12.3689 4.50002 12.2418 4.55269 12.148 4.64646C12.0542 4.74023 12.0015 4.86741 12.0015 5.00002C12.0015 5.13262 12.0542 5.2598 12.148 5.35357C12.2418 5.44734 12.3689 5.50002 12.5015 5.50002C13.3598 5.49998 14.2095 5.66992 15.0018 6.00001C15.794 6.3301 16.513 6.81381 17.1173 7.42323C17.7216 8.03264 18.1992 8.7557 18.5226 9.55068C18.846 10.3457 19.0088 11.1968 19.0015 12.055C19.0015 12.1876 19.0542 12.3148 19.148 12.4086C19.2418 12.5023 19.3689 12.555 19.5015 12.555C19.6342 12.555 19.7613 12.5023 19.8551 12.4086C19.9489 12.3148 20.0015 12.1876 20.0015 12.055C20.0111 11.06 19.8214 10.0731 19.4436 9.15255C19.0657 8.23199 18.5074 7.3964 17.8015 6.69501Z" fill="white"/>
<path d="M14.9548 9.55516C15.2386 9.8372 15.4631 10.1732 15.6151 10.5432C15.7671 10.9133 15.8435 11.3101 15.8398 11.7102C15.8398 11.8428 15.8925 11.9699 15.9863 12.0637C16.0801 12.1575 16.2072 12.2102 16.3398 12.2102C16.4725 12.2102 16.5996 12.1575 16.6934 12.0637C16.7872 11.9699 16.8398 11.8428 16.8398 11.7102C16.8465 11.1807 16.7479 10.6552 16.5498 10.1641C16.3518 9.67297 16.0582 9.2261 15.6861 8.84935C15.314 8.4726 14.8708 8.17349 14.3822 7.96935C13.8936 7.76521 13.3694 7.66011 12.8398 7.66016C12.7072 7.66016 12.5801 7.71283 12.4863 7.8066C12.3925 7.90037 12.3398 8.02755 12.3398 8.16016C12.3398 8.29276 12.3925 8.41994 12.4863 8.51371C12.5801 8.60748 12.7072 8.66016 12.8398 8.66016C13.2339 8.66312 13.6235 8.74369 13.9864 8.89726C14.3493 9.05083 14.6784 9.27438 14.9548 9.55516Z" fill="white"/>
</g>
<defs>
<clipPath id="clip0_273_1211">
<rect width="16" height="16" fill="white" transform="translate(4.5 4)"/>
</clipPath>
</defs>
</svg>
