<svg width="40" height="40" viewBox="0 0 40 40" fill="none" xmlns="http://www.w3.org/2000/svg">
<g clip-path="url(#clip0_273_1165)">
<rect width="40" height="40" rx="20" fill="white"/>
<rect x="-2.50781" y="-2.50195" width="45.0296" height="45.0296" rx="22.5148" fill="#4C75A3"/>
<path d="M19.7285 28.0445H21.3048C21.3048 28.0445 21.7814 27.9931 22.0238 27.7378C22.248 27.5034 22.2398 27.0635 22.2398 27.0635C22.2398 27.0635 22.2084 25.0036 23.1912 24.7002C24.1591 24.4016 25.4024 26.691 26.7199 27.5725C27.7158 28.2387 28.4727 28.0926 28.4727 28.0926L31.9964 28.0445C31.9964 28.0445 33.8399 27.9337 32.966 26.5224C32.8951 26.4068 32.4565 25.4789 30.3459 23.5715C28.1363 21.5742 28.4331 21.8986 31.0945 18.4451C32.7154 16.3419 33.3634 15.0575 33.1606 14.5084C32.9677 13.985 31.7755 14.123 31.7755 14.123L27.8115 14.1455C27.8115 14.1455 27.518 14.107 27.2987 14.2338C27.086 14.3591 26.9491 14.648 26.9491 14.648C26.9491 14.648 26.3209 16.276 25.4832 17.66C23.7172 20.5804 23.0098 20.7346 22.7213 20.5531C22.0501 20.1309 22.2183 18.8545 22.2183 17.949C22.2183 15.1185 22.6586 13.9384 21.3592 13.6334C20.9272 13.5322 20.6106 13.4648 19.5075 13.4535C18.0927 13.4391 16.894 13.4584 16.2162 13.7811C15.7644 13.9962 15.4165 14.4763 15.6292 14.5035C15.8914 14.5373 16.485 14.6593 16.8 15.0767C17.2073 15.6146 17.1924 16.8251 17.1924 16.8251C17.1924 16.8251 17.4266 20.1566 16.6466 20.5708C16.1107 20.855 15.3769 20.2754 13.8022 17.6247C12.9959 16.268 12.3858 14.7669 12.3858 14.7669C12.3858 14.7669 12.2687 14.4875 12.0593 14.3382C11.8054 14.1568 11.4492 14.099 11.4492 14.099L7.67977 14.1214C7.67977 14.1214 7.11419 14.1375 6.90642 14.3767C6.72175 14.5902 6.89158 15.0302 6.89158 15.0302C6.89158 15.0302 9.84316 21.7525 13.1839 25.1417C16.2492 28.2484 19.7285 28.0445 19.7285 28.0445Z" fill="white"/>
</g>
<defs>
<clipPath id="clip0_273_1165">
<rect width="40" height="40" rx="20" fill="white"/>
</clipPath>
</defs>
</svg>
