<svg width="25" height="24" viewBox="0 0 25 24" fill="none" xmlns="http://www.w3.org/2000/svg">
<rect x="0.5" width="24" height="24" rx="12" fill="#283B2B"/>
<path d="M12.3654 15.4998H13.1247C13.1247 15.4998 13.3542 15.475 13.4709 15.3521C13.5789 15.2392 13.575 15.0273 13.575 15.0273C13.575 15.0273 13.5599 14.0352 14.0332 13.8891C14.4994 13.7452 15.0982 14.8479 15.7327 15.2724C16.2124 15.5934 16.5769 15.523 16.5769 15.523L18.2741 15.4998C18.2741 15.4998 19.162 15.4464 18.7411 14.7667C18.7069 14.7111 18.4957 14.2641 17.4791 13.3455C16.4149 12.3835 16.5579 12.5397 17.8397 10.8764C18.6204 9.86343 18.9325 9.24481 18.8348 8.98035C18.7419 8.72827 18.1677 8.79477 18.1677 8.79477L16.2585 8.80559C16.2585 8.80559 16.1171 8.78704 16.0115 8.84812C15.909 8.90844 15.8431 9.04763 15.8431 9.04763C15.8431 9.04763 15.5405 9.83172 15.1371 10.4983C14.2865 11.9049 13.9458 11.9791 13.8069 11.8917C13.4836 11.6883 13.5646 11.0736 13.5646 10.6375C13.5646 9.2742 13.7767 8.70584 13.1509 8.55892C12.9428 8.51021 12.7903 8.47773 12.259 8.47232C11.5776 8.46536 11.0002 8.47463 10.6738 8.63006C10.4562 8.73368 10.2887 8.96489 10.3911 8.97803C10.5174 8.99427 10.8033 9.05304 10.955 9.25409C11.1511 9.51314 11.144 10.0962 11.144 10.0962C11.144 10.0962 11.2568 11.7007 10.8811 11.9002C10.623 12.0371 10.2696 11.7579 9.51116 10.4813C9.1228 9.82786 8.82896 9.10485 8.82896 9.10485C8.82896 9.10485 8.77257 8.9703 8.67171 8.89839C8.54941 8.81101 8.37787 8.78317 8.37787 8.78317L6.56238 8.794C6.56238 8.794 6.28998 8.80173 6.18991 8.91695C6.10096 9.01979 6.18276 9.23167 6.18276 9.23167C6.18276 9.23167 7.60434 12.4693 9.21334 14.1017C10.6897 15.598 12.3654 15.4998 12.3654 15.4998Z" fill="#F1F6F2"/>
</svg>
