<svg width="40" height="40" viewBox="0 0 40 40" fill="none" xmlns="http://www.w3.org/2000/svg">
<rect width="40" height="40" rx="20" fill="white"/>
<rect width="40" height="40" rx="20" fill="#445547"/>
<g clip-path="url(#clip0_273_1180)">
<path d="M10 13.6258V13.0559C10 12.6875 10.1317 12.3343 10.3661 12.0738C10.6005 11.8133 10.9185 11.667 11.25 11.667H28.75C29.0815 11.667 29.3995 11.8133 29.6339 12.0738C29.8683 12.3343 30 12.6875 30 13.0559V13.6258L20 20.5703L10 13.6258ZM20.3313 21.9783C20.2319 22.0472 20.1171 22.0837 20 22.0837C19.8829 22.0837 19.7681 22.0472 19.6688 21.9783L10 15.2637V26.9448C10 27.3131 10.1317 27.6664 10.3661 27.9269C10.6005 28.1873 10.9185 28.3337 11.25 28.3337H28.75C29.0815 28.3337 29.3995 28.1873 29.6339 27.9269C29.8683 27.6664 30 27.3131 30 26.9448V15.2637L20.3313 21.9783Z" fill="white"/>
</g>
<defs>
<clipPath id="clip0_273_1180">
<rect width="20" height="16.6667" fill="white" transform="translate(10 11.667)"/>
</clipPath>
</defs>
</svg>
