<svg width="25" height="24" viewBox="0 0 25 24" fill="none" xmlns="http://www.w3.org/2000/svg">
<rect x="0.5" width="24" height="24" rx="12" fill="#283B2B"/>
<g clip-path="url(#clip0_273_1218)">
<path d="M6.5 8.17531V7.83333C6.5 7.61232 6.57902 7.40036 6.71967 7.24408C6.86032 7.0878 7.05109 7 7.25 7H17.75C17.9489 7 18.1397 7.0878 18.2803 7.24408C18.421 7.40036 18.5 7.61232 18.5 7.83333V8.17531L12.5 12.342L6.5 8.17531ZM12.6988 13.1868C12.6391 13.2281 12.5703 13.25 12.5 13.25C12.4297 13.25 12.3609 13.2281 12.3013 13.1868L6.5 9.15802V16.1667C6.5 16.3877 6.57902 16.5996 6.71967 16.7559C6.86032 16.9122 7.05109 17 7.25 17H17.75C17.9489 17 18.1397 16.9122 18.2803 16.7559C18.421 16.5996 18.5 16.3877 18.5 16.1667V9.15802L12.6988 13.1868Z" fill="white"/>
</g>
<defs>
<clipPath id="clip0_273_1218">
<rect width="12" height="10" fill="white" transform="translate(6.5 7)"/>
</clipPath>
</defs>
</svg>
