<svg width="40" height="40" viewBox="0 0 40 40" fill="none" xmlns="http://www.w3.org/2000/svg">
<g clip-path="url(#clip0_273_1172)">
<rect width="40" height="40" rx="20" fill="white"/>
<g clip-path="url(#clip1_273_1172)">
<path d="M20.0148 -2.50195C15.5618 -2.50195 11.2088 -1.18148 7.50624 1.29247C3.80371 3.76642 0.917934 7.28275 -0.786155 11.3968C-2.49024 15.5108 -2.93611 20.0378 -2.06737 24.4052C-1.19864 28.7727 0.945686 32.7844 4.09443 35.9332C7.24318 39.0819 11.2549 41.2262 15.6224 42.095C19.9898 42.9637 24.5168 42.5178 28.6308 40.8138C32.7448 39.1097 36.2612 36.2239 38.7351 32.5214C41.2091 28.8188 42.5295 24.4658 42.5295 20.0128C42.5298 17.0561 41.9476 14.1282 40.8162 11.3965C39.6848 8.66477 38.0264 6.18266 35.9357 4.09192C33.8449 2.00118 31.3628 0.342768 28.6311 -0.788618C25.8994 -1.92 22.9715 -2.5022 20.0148 -2.50195ZM27.1734 31.6135C27.0891 31.8236 26.9609 32.0133 26.7973 32.1698C26.6337 32.3264 26.4386 32.4461 26.2249 32.521C26.0113 32.596 25.7841 32.6244 25.5586 32.6044C25.3331 32.5843 25.1145 32.5163 24.9174 32.4049L18.8054 27.6557L14.8826 31.2747C14.7916 31.342 14.6851 31.3852 14.573 31.4006C14.4608 31.4159 14.3466 31.4027 14.2409 31.3624L14.9929 24.6339L15.017 24.653L15.0323 24.5202C15.0323 24.5202 26.0308 14.5067 26.4789 14.0801C26.9325 13.6546 26.7828 13.5622 26.7828 13.5622C26.8086 13.0432 25.9689 13.5622 25.9689 13.5622L11.3961 22.9375L5.32729 20.8706C5.32729 20.8706 4.39518 20.5363 4.30737 19.8012C4.21506 19.0717 5.35766 18.6754 5.35766 18.6754L29.4867 9.08975C29.4867 9.08975 31.4703 8.206 31.4703 9.66953L27.1734 31.6135Z" fill="#229ED9"/>
</g>
</g>
<defs>
<clipPath id="clip0_273_1172">
<rect width="40" height="40" rx="20" fill="white"/>
</clipPath>
<clipPath id="clip1_273_1172">
<rect width="45.0296" height="45.0296" fill="white" transform="translate(-2.5 -2.50195)"/>
</clipPath>
</defs>
</svg>
