<svg width="40" height="40" viewBox="0 0 40 40" fill="none" xmlns="http://www.w3.org/2000/svg">
<rect width="40" height="40" rx="20" fill="#2EDF1F"/>
<path d="M26.2083 24.1084C25.976 23.8753 25.7001 23.6904 25.3962 23.5642C25.0923 23.438 24.7665 23.3731 24.4375 23.3731C24.1084 23.3731 23.7826 23.438 23.4788 23.5642C23.1749 23.6904 22.8989 23.8753 22.6666 24.1084L21.4583 25.3167C20.0978 24.4532 18.8373 23.4415 17.7 22.3C16.5609 21.1605 15.5494 19.9003 14.6833 18.5417L15.8916 17.3334C16.1247 17.1011 16.3096 16.8251 16.4358 16.5212C16.562 16.2174 16.6269 15.8916 16.6269 15.5625C16.6269 15.2335 16.562 14.9077 16.4358 14.6038C16.3096 14.2999 16.1247 14.024 15.8916 13.7917L13.5333 11.4417C13.3043 11.2079 13.0307 11.0224 12.7286 10.8965C12.4266 10.7705 12.1022 10.7065 11.775 10.7084C11.4454 10.7076 11.1189 10.7719 10.8142 10.8978C10.5096 11.0236 10.2329 11.2085 9.99997 11.4417L8.86664 12.5667C8.32645 13.1475 7.92328 13.842 7.68678 14.5991C7.45027 15.3562 7.38644 16.1567 7.49997 16.9417C7.76664 20.0667 9.81664 23.825 12.975 26.9917C16.1333 30.1584 19.9333 32.2 23.0583 32.5C23.2915 32.5125 23.5251 32.5125 23.7583 32.5C24.431 32.5283 25.1026 32.4219 25.7336 32.1872C26.3647 31.9526 26.9425 31.5943 27.4333 31.1334L28.5583 30C28.7915 29.7671 28.9764 29.4904 29.1022 29.1858C29.2281 28.8811 29.2924 28.5546 29.2916 28.225C29.2935 27.8978 29.2295 27.5734 29.1035 27.2714C28.9776 26.9693 28.7921 26.6957 28.5583 26.4667L26.2083 24.1084ZM27.3833 28.825L26.25 29.95C25.8309 30.2993 25.3417 30.5544 24.8155 30.6982C24.2893 30.8419 23.7384 30.871 23.2 30.7834C20.4916 30.55 17.0416 28.6334 14.1916 25.7834C11.3416 22.9334 9.42497 19.5084 9.16664 16.8C9.07677 16.2616 9.10474 15.7101 9.2486 15.1836C9.39247 14.657 9.64882 14.1679 9.99997 13.75L11.175 12.6167C11.2528 12.5395 11.3452 12.4784 11.4467 12.4369C11.5482 12.3954 11.657 12.3744 11.7666 12.375C11.8763 12.3744 11.985 12.3954 12.0866 12.4369C12.1881 12.4784 12.2804 12.5395 12.3583 12.6167L14.7166 15C14.8718 15.1562 14.959 15.3674 14.959 15.5875C14.959 15.8077 14.8718 16.0189 14.7166 16.175L13.05 17.8417C12.9196 17.9715 12.8357 18.1408 12.8116 18.3232C12.7875 18.5056 12.8244 18.6908 12.9166 18.85C13.9145 20.5487 15.1272 22.1116 16.525 23.5C17.9134 24.8977 19.4763 26.1105 21.175 27.1084C21.3342 27.2006 21.5194 27.2375 21.7018 27.2134C21.8842 27.1892 22.0535 27.1054 22.1833 26.975L23.85 25.3084C24.0061 25.1531 24.2173 25.066 24.4375 25.066C24.6576 25.066 24.8688 25.1531 25.025 25.3084L27.3833 27.6667C27.4605 27.7446 27.5216 27.8369 27.5631 27.9384C27.6046 28.04 27.6256 28.1487 27.625 28.2584C27.6198 28.4712 27.5333 28.6739 27.3833 28.825ZM28.8333 11.1584C27.6752 9.99583 26.2984 9.07406 24.7823 8.44618C23.2663 7.8183 21.6409 7.49673 20 7.50003C19.779 7.50003 19.567 7.58782 19.4107 7.7441C19.2544 7.90038 19.1666 8.11234 19.1666 8.33336C19.1666 8.55437 19.2544 8.76633 19.4107 8.92261C19.567 9.07889 19.779 9.16669 20 9.16669C21.4304 9.16664 22.8466 9.44986 24.167 10C25.4874 10.5502 26.6857 11.3563 27.6929 12.372C28.7001 13.3877 29.4961 14.5928 30.0351 15.9178C30.5741 17.2428 30.8454 18.6613 30.8333 20.0917C30.8333 20.3127 30.9211 20.5247 31.0774 20.6809C31.2337 20.8372 31.4456 20.925 31.6666 20.925C31.8877 20.925 32.0996 20.8372 32.2559 20.6809C32.4122 20.5247 32.5 20.3127 32.5 20.0917C32.5159 18.4333 32.1997 16.7885 31.57 15.2542C30.9403 13.72 30.0097 12.3273 28.8333 11.1584Z" fill="white"/>
<path d="M24.1005 15.9259C24.5735 16.396 24.9476 16.9559 25.2009 17.5727C25.4542 18.1895 25.5816 18.8508 25.5755 19.5176C25.5755 19.7386 25.6633 19.9506 25.8196 20.1068C25.9759 20.2631 26.1878 20.3509 26.4089 20.3509C26.6299 20.3509 26.8418 20.2631 26.9981 20.1068C27.1544 19.9506 27.2422 19.7386 27.2422 19.5176C27.2532 18.6351 27.0889 17.7592 26.7588 16.9408C26.4287 16.1223 25.9394 15.3775 25.3193 14.7496C24.6991 14.1217 23.9605 13.6231 23.1461 13.2829C22.3318 12.9427 21.4581 12.7675 20.5755 12.7676C20.3545 12.7676 20.1425 12.8554 19.9863 13.0117C19.83 13.1679 19.7422 13.3799 19.7422 13.6009C19.7422 13.8219 19.83 14.0339 19.9863 14.1902C20.1425 14.3464 20.3545 14.4342 20.5755 14.4342C21.2323 14.4392 21.8816 14.5735 22.4864 14.8294C23.0912 15.0854 23.6397 15.458 24.1005 15.9259Z" fill="white"/>
</svg>
