<svg width="41" height="41" viewBox="0 0 41 41" fill="none" xmlns="http://www.w3.org/2000/svg">
<rect width="40" height="40" rx="20" fill="white"/>
<path d="M20.0182 0H20.0082C8.97341 0 2.62596e-05 8.97589 2.62596e-05 20.0131C-0.00682599 24.2284 1.32752 28.3366 3.81003 31.7433L1.31589 39.1782L9.00844 36.7191C12.2715 38.884 16.1023 40.0347 20.0182 40.0263C31.0529 40.0263 40.0263 31.0479 40.0263 20.0131C40.0263 8.97839 31.0529 0 20.0182 0ZM31.6633 28.2611C31.1805 29.6244 29.2642 30.7552 27.7357 31.0854C26.69 31.3081 25.3241 31.4857 20.7261 29.5794C14.8448 27.1428 11.0573 21.1664 10.7621 20.7786C10.4794 20.3909 8.38553 17.6141 8.38553 14.7422C8.38553 11.8703 9.84398 10.4719 10.4319 9.87148C10.9147 9.37866 11.7127 9.15351 12.4782 9.15351C12.7259 9.15351 12.9485 9.16602 13.1487 9.17602C13.7365 9.20104 14.0317 9.23606 14.4195 10.1642C14.9023 11.3274 16.0781 14.1993 16.2182 14.4945C16.3608 14.7897 16.5034 15.19 16.3032 15.5777C16.1156 15.978 15.9505 16.1556 15.6553 16.4958C15.3601 16.8361 15.0799 17.0962 14.7847 17.4615C14.5145 17.7792 14.2093 18.1194 14.5496 18.7073C14.8898 19.2827 16.0656 21.2014 17.7967 22.7424C20.0307 24.7312 21.8419 25.3667 22.4898 25.6368C22.9726 25.837 23.548 25.7894 23.9007 25.4142C24.3485 24.9314 24.9014 24.1308 25.4642 23.3428C25.8645 22.7775 26.3698 22.7074 26.9002 22.9075C27.4405 23.0952 30.2999 24.5086 30.8878 24.8013C31.4757 25.0965 31.8634 25.2366 32.006 25.4842C32.1461 25.7319 32.1461 26.8952 31.6633 28.2611Z" fill="#07B944"/>
</svg>
