<svg width="291" height="48" viewBox="0 0 291 48" fill="none" xmlns="http://www.w3.org/2000/svg">
<path d="M24.9894 48H14.1602C14.1602 48 13.0995 44.9417 10.6919 45.0816C8.28422 45.2214 8.1428 46.444 5.77047 46.2504C1.9168 45.9277 -0.0383238 42.701 0.000569035 42.5468C0.24098 41.5572 2.09358 42.9053 4.14769 42.1022C4.38458 42.009 2.98099 41.1091 3.1118 40.8581C3.24262 40.6071 6.32553 40.7935 6.06393 39.8148C5.80232 38.836 4.64974 40.1482 2.58855 38.7929C0.527355 37.4377 -0.593395 36.1829 0.598063 36.3083C1.78952 36.4338 2.5638 36.5809 3.0729 35.663C3.58202 34.7452 2.28449 33.9313 2.01226 33.2393C1.74003 32.5474 2.86432 33.0959 3.30272 33.2393C3.74112 33.3827 6.42809 33.3254 7.7822 32.49C9.13625 31.6546 9.53226 29.7365 7.65137 29.9803C5.77047 30.2241 5.74928 29.5859 6.86649 29.4389C7.98369 29.2919 8.19934 28.98 8.15339 28.5641C8.10744 28.1482 7.36851 28.3956 5.77047 27.6248C4.17244 26.8539 3.62798 26.0185 4.98559 26.3735C6.34321 26.7284 5.88006 25.703 5.33916 25.2441C4.79821 24.7852 4.1583 23.5769 5.29321 23.8674C6.42809 24.1577 10.2075 24.3621 10.0732 23.8243C9.93881 23.2865 7.97661 22.3042 7.99786 21.5513C8.01905 20.7983 9.3519 21.8416 9.68071 21.4258C10.0095 21.0099 9.52518 20.4326 9.3272 19.5542C9.12917 18.6758 9.23524 17.2955 10.356 18.4213C11.4768 19.5471 11.6889 19.755 12.7389 19.7155C13.789 19.6761 15.4295 19.0882 15.4295 18.3567C15.4295 17.6254 15.1289 16.539 13.5698 16.2665C12.1803 16.0263 12.6505 15.8076 13.241 15.7036C13.8314 15.5996 13.4602 14.9328 12.5339 14.2695C11.6076 13.6062 10.8298 12.4553 12.3607 12.8927C13.8915 13.3301 15.189 12.8927 15.0723 12.2474C14.9557 11.6021 15.2032 11.7885 15.7264 12.2474C16.2496 12.7063 18.1305 13.323 19.071 13.0003C20.0114 12.6776 21.3231 11.2901 19.3786 10.5408C17.434 9.79145 16.9285 8.99554 17.1052 8.66209C17.282 8.32864 17.8477 8.64058 18.0457 8.47204C18.2437 8.30357 17.2361 6.99133 17.2573 6.48941C17.2785 5.98748 17.9361 6.67945 18.919 7.24229C19.9018 7.8052 20.9095 7.30327 20.9307 6.61486C20.9518 5.9265 20.2236 4.06932 20.8423 4.73977C21.461 5.41022 22.3519 5.86558 23.0732 5.59307C23.7944 5.32059 24.1338 4.27727 23.5328 3.9044C22.9317 3.53153 21.9807 2.52764 22.7443 2.64955C23.508 2.77144 24.1868 2.67105 24.4273 2.44159C24.6677 2.21213 24.4944 0.56289 24.6464 0.33343C24.7374 0.196202 24.8585 0.0821037 25 0L24.9894 48Z" fill="#1D5525"/>
<path d="M44.568 16.9001L44.802 16.5361C46.0153 16.5534 47.064 16.7094 47.948 17.0041C48.832 17.2814 49.5167 17.7408 50.002 18.3821C50.4873 19.0061 50.73 19.8468 50.73 20.9041C50.73 21.9788 50.4613 22.8974 49.924 23.6601C49.404 24.4228 48.624 25.0034 47.584 25.4021C46.544 25.8008 45.2527 26.0001 43.71 26.0001H35.936V24.1281L38.354 23.4261L37.86 24.1801V9.62007L38.458 10.4001L35.936 9.69807V7.82607L41.422 7.69607H44.1C45.3653 7.69607 46.44 7.86074 47.324 8.19007C48.208 8.50207 48.884 8.99607 49.352 9.67207C49.82 10.3308 50.054 11.1801 50.054 12.2201C50.054 13.6414 49.5947 14.7421 48.676 15.5221C47.7747 16.2848 46.4053 16.7441 44.568 16.9001ZM43.372 10.3221H41.006L41.578 9.75007V15.9121L41.006 15.3921H42.8C43.4587 15.3921 44.048 15.3141 44.568 15.1581C45.1053 15.0021 45.53 14.7334 45.842 14.3521C46.154 13.9534 46.31 13.4161 46.31 12.7401C46.31 12.0988 46.18 11.6048 45.92 11.2581C45.66 10.9114 45.3047 10.6688 44.854 10.5301C44.4207 10.3914 43.9267 10.3221 43.372 10.3221ZM43.372 23.3481C44.048 23.3481 44.6547 23.2701 45.192 23.1141C45.7293 22.9581 46.154 22.6808 46.466 22.2821C46.778 21.8834 46.934 21.3374 46.934 20.6441C46.934 19.9681 46.7953 19.4394 46.518 19.0581C46.2407 18.6594 45.8853 18.3821 45.452 18.2261C45.0187 18.0701 44.542 17.9921 44.022 17.9921H41.006L41.578 17.3421V23.9461L41.006 23.3481H43.372ZM63.8013 24.1541L63.3073 23.4261L65.5433 24.1281V25.9741L60.9933 26.2081L60.4993 23.7121L60.7593 23.7901C60.066 24.6394 59.312 25.2721 58.4973 25.6881C57.6826 26.1041 56.842 26.3121 55.9753 26.3121C54.866 26.3121 53.9473 25.9568 53.2193 25.2461C52.4913 24.5354 52.1273 23.5128 52.1273 22.1781C52.1273 21.1901 52.3353 20.4101 52.7513 19.8381C53.1846 19.2488 53.8086 18.8241 54.6233 18.5641C55.438 18.3041 56.426 18.1741 57.5873 18.1741H60.4213L60.1613 18.4601V16.7441C60.1613 15.9294 59.962 15.3488 59.5633 15.0021C59.182 14.6554 58.6186 14.4821 57.8733 14.4821C57.5093 14.4821 57.1193 14.5168 56.7033 14.5861C56.2873 14.6554 55.8366 14.7594 55.3513 14.8981L55.7153 14.5081L55.3773 16.6141H53.1153L52.9073 12.8181C54.086 12.4714 55.1606 12.2201 56.1313 12.0641C57.1193 11.8908 58.0206 11.8041 58.8353 11.8041C60.4473 11.8041 61.678 12.1508 62.5273 12.8441C63.3766 13.5374 63.8013 14.6121 63.8013 16.0681V24.1541ZM55.7933 21.8141C55.7933 22.4554 55.9406 22.9321 56.2353 23.2441C56.5473 23.5388 56.9373 23.6861 57.4053 23.6861C57.8386 23.6861 58.3153 23.5561 58.8353 23.2961C59.3553 23.0188 59.8493 22.6461 60.3173 22.1781L60.1613 22.8021V19.8381L60.4213 20.0981H58.1853C57.284 20.0981 56.66 20.2368 56.3133 20.5141C55.9666 20.7914 55.7933 21.2248 55.7933 21.8141ZM68.4325 26.2601C68.1032 26.2601 67.7479 26.2254 67.3665 26.1561C67.0025 26.0868 66.6039 25.9914 66.1705 25.8701L66.6905 23.0361C66.8639 23.0708 67.0199 23.0968 67.1585 23.1141C67.2972 23.1314 67.4359 23.1401 67.5745 23.1401C68.4759 23.1401 69.1432 22.7761 69.5765 22.0481C70.0099 21.3201 70.2959 20.2541 70.4345 18.8501C70.5732 17.4461 70.6512 15.7388 70.6685 13.7281L71.6045 14.8201L68.7705 13.9621V12.1161H81.7185V13.9621L79.2745 14.7941L79.9765 13.6501V23.8681L79.7165 23.5561L81.7185 24.1281V26.0001H74.6205V24.1281L76.6225 23.5561L76.3365 23.8681V13.7541L76.9085 14.7941H72.3845L73.4505 13.8061C73.4332 15.7128 73.3465 17.4374 73.1905 18.9801C73.0519 20.5054 72.8005 21.8141 72.4365 22.9061C72.0725 23.9808 71.5612 24.8128 70.9025 25.4021C70.2612 25.9741 69.4379 26.2601 68.4325 26.2601ZM82.5729 30.4721L82.4949 24.0241L85.2509 23.4261L83.4569 24.0761C84.0116 23.6774 84.4882 23.2268 84.8869 22.7241C85.3029 22.2041 85.6409 21.5714 85.9009 20.8261C86.1782 20.0808 86.3862 19.1621 86.5249 18.0701C86.6636 16.9608 86.7329 15.6174 86.7329 14.0401L87.6689 14.8201L84.8349 13.9621V12.1161H97.7049V13.9621L95.2609 14.7941L95.9889 14.0661V24.0501L95.2869 23.4781L98.5889 24.0761L98.4849 30.4721H96.2749L95.4949 25.5321L96.3009 26.0001H84.7309L85.5629 25.5321L84.8089 30.4721H82.5729ZM86.6289 23.9201L86.6549 23.3221H92.9469L92.3489 23.8941V13.9881L92.9209 14.7941H88.6309L89.3069 13.9881C89.3069 15.7561 89.2376 17.2814 89.0989 18.5641C88.9602 19.8468 88.6916 20.9214 88.2929 21.7881C87.9116 22.6548 87.3569 23.3654 86.6289 23.9201ZM111.187 24.1541L110.693 23.4261L112.929 24.1281V25.9741L108.379 26.2081L107.885 23.7121L108.145 23.7901C107.452 24.6394 106.698 25.2721 105.883 25.6881C105.069 26.1041 104.228 26.3121 103.361 26.3121C102.252 26.3121 101.333 25.9568 100.605 25.2461C99.8773 24.5354 99.5133 23.5128 99.5133 22.1781C99.5133 21.1901 99.7213 20.4101 100.137 19.8381C100.571 19.2488 101.195 18.8241 102.009 18.5641C102.824 18.3041 103.812 18.1741 104.973 18.1741H107.807L107.547 18.4601V16.7441C107.547 15.9294 107.348 15.3488 106.949 15.0021C106.568 14.6554 106.005 14.4821 105.259 14.4821C104.895 14.4821 104.505 14.5168 104.089 14.5861C103.673 14.6554 103.223 14.7594 102.737 14.8981L103.101 14.5081L102.763 16.6141H100.501L100.293 12.8181C101.472 12.4714 102.547 12.2201 103.517 12.0641C104.505 11.8908 105.407 11.8041 106.221 11.8041C107.833 11.8041 109.064 12.1508 109.913 12.8441C110.763 13.5374 111.187 14.6121 111.187 16.0681V24.1541ZM103.179 21.8141C103.179 22.4554 103.327 22.9321 103.621 23.2441C103.933 23.5388 104.323 23.6861 104.791 23.6861C105.225 23.6861 105.701 23.5561 106.221 23.2961C106.741 23.0188 107.235 22.6461 107.703 22.1781L107.547 22.8021V19.8381L107.807 20.0981H105.571C104.67 20.0981 104.046 20.2368 103.699 20.5141C103.353 20.7914 103.179 21.2248 103.179 21.8141ZM113.724 26.0001V24.1281L116.168 23.3741L115.466 24.1281V14.0921L116.402 14.8981L113.724 14.0661V12.1941L120.536 12.0121V13.8841L118.144 14.7161L118.924 14.0141V20.5921L118.43 20.4621L124.826 14.7941L124.592 15.3141L124.566 14.0921L125.138 14.6641L122.954 14.0661V12.1941L129.766 12.0121V13.8841L127.322 14.7161L128.024 14.0141V24.1281L127.322 23.3741L129.766 24.1281V26.0001H122.954V24.1281L125.164 23.4781L124.566 24.1281V16.9781L124.982 17.4721L118.638 23.4001L118.924 22.8281V24.1281L118.716 23.6341L120.536 24.1281V26.0001H113.724ZM121.758 9.51607C120.891 9.51607 120.094 9.3774 119.366 9.10007C118.655 8.82274 118.066 8.38074 117.598 7.77407C117.13 7.15007 116.87 6.35274 116.818 5.38207L120.224 5.22607C120.258 6.05807 120.466 6.6734 120.848 7.07207C121.246 7.4534 121.714 7.64407 122.252 7.64407C122.789 7.64407 123.24 7.4534 123.604 7.07207C123.968 6.6734 124.124 6.1014 124.072 5.35607L126.62 5.22607C126.654 6.21407 126.446 7.02874 125.996 7.67007C125.545 8.29407 124.938 8.76207 124.176 9.07407C123.43 9.36874 122.624 9.51607 121.758 9.51607ZM137.327 26.3121C136.131 26.3121 135.048 26.0348 134.077 25.4801C133.124 24.9081 132.37 24.0934 131.815 23.0361C131.26 21.9788 130.983 20.6961 130.983 19.1881C130.983 17.8188 131.182 16.6661 131.581 15.7301C131.98 14.7941 132.517 14.0401 133.193 13.4681C133.869 12.8788 134.623 12.4541 135.455 12.1941C136.287 11.9341 137.145 11.8041 138.029 11.8041C138.861 11.8041 139.702 11.9081 140.551 12.1161C141.4 12.3241 142.094 12.5581 142.631 12.8181L142.527 16.6401H140.187L139.797 14.5081L140.083 14.7161C139.823 14.6121 139.502 14.5341 139.121 14.4821C138.757 14.4301 138.419 14.4041 138.107 14.4041C137.362 14.4041 136.738 14.5948 136.235 14.9761C135.75 15.3401 135.386 15.8688 135.143 16.5621C134.9 17.2381 134.779 18.0441 134.779 18.9801C134.779 19.9854 134.918 20.8348 135.195 21.5281C135.472 22.2214 135.862 22.7501 136.365 23.1141C136.885 23.4608 137.483 23.6341 138.159 23.6341C138.696 23.6341 139.286 23.5214 139.927 23.2961C140.568 23.0708 141.236 22.7328 141.929 22.2821L143.151 24.1281C142.18 24.8734 141.21 25.4281 140.239 25.7921C139.268 26.1388 138.298 26.3121 137.327 26.3121ZM143.825 26.0001V24.1281L146.009 23.5041L145.567 24.1801V13.9621L146.087 14.6641L143.825 14.0661V12.1941L150.715 12.0121V13.8841L148.843 14.5081L149.207 13.9621V18.2001L148.609 17.4461H152.067L150.949 18.0961L153.549 14.0401L153.809 14.4301L151.989 14.0661V12.2201L158.307 12.0121V13.8581L156.149 14.3521L157.111 13.8061L153.653 19.0321L153.965 18.0961L157.293 24.0761L156.799 23.6341L158.775 24.1541V26.0001H154.511L151.261 19.7601L151.807 19.8641H148.609L149.207 19.7601V24.1801L148.817 23.4781L150.975 24.1281V26.0001H143.825ZM159.154 26.0001V24.1281L161.598 23.3741L160.896 24.1281V14.0921L161.832 14.8981L159.154 14.0661V12.1941L165.966 12.0121V13.8841L163.574 14.7161L164.354 14.0141V20.5921L163.86 20.4621L170.256 14.7941L170.022 15.3141L169.996 14.0921L170.568 14.6641L168.384 14.0661V12.1941L175.196 12.0121V13.8841L172.752 14.7161L173.454 14.0141V24.1281L172.752 23.3741L175.196 24.1281V26.0001H168.384V24.1281L170.594 23.4781L169.996 24.1281V16.9781L170.412 17.4721L164.068 23.4001L164.354 22.8281V24.1281L164.146 23.6341L165.966 24.1281V26.0001H159.154ZM176.414 26.0001V24.1281L178.858 23.3741L178.156 24.1281V14.0921L179.092 14.8981L176.414 14.0661V12.1941L183.226 12.0121V13.8841L180.834 14.7161L181.614 14.0141V20.5921L181.12 20.4621L187.516 14.7941L187.282 15.3141L187.256 14.0921L187.828 14.6641L185.644 14.0661V12.1941L192.456 12.0121V13.8841L190.012 14.7161L190.714 14.0141V24.1281L190.012 23.3741L192.456 24.1281V26.0001H185.644V24.1281L187.854 23.4781L187.256 24.1281V16.9781L187.672 17.4721L181.328 23.4001L181.614 22.8281V24.1281L181.406 23.6341L183.226 24.1281V26.0001H176.414ZM184.448 9.51607C183.581 9.51607 182.784 9.3774 182.056 9.10007C181.345 8.82274 180.756 8.38074 180.288 7.77407C179.82 7.15007 179.56 6.35274 179.508 5.38207L182.914 5.22607C182.949 6.05807 183.157 6.6734 183.538 7.07207C183.937 7.4534 184.405 7.64407 184.942 7.64407C185.479 7.64407 185.93 7.4534 186.294 7.07207C186.658 6.6734 186.814 6.1014 186.762 5.35607L189.31 5.22607C189.345 6.21407 189.137 7.02874 188.686 7.67007C188.235 8.29407 187.629 8.76207 186.866 9.07407C186.121 9.36874 185.315 9.51607 184.448 9.51607ZM219.093 9.56807L216.675 10.4001L217.195 9.43807V24.1801L216.675 23.4261L219.093 24.1281V26.0001H211.839V24.1281L214.361 23.4001L213.763 24.1801V11.6741L214.309 11.7001L209.551 21.2421L207.211 21.3721L202.635 11.6481H203.181V24.1801L202.765 23.4781L205.105 24.1281V26.0001H198.267V24.1281L200.685 23.4261L200.191 24.1801V9.43807L200.685 10.3481L198.267 9.69807V7.82607L204.741 7.69607L209.031 17.6541H208.589L213.087 7.82607L219.093 7.69607V9.56807ZM231.973 24.1541L231.479 23.4261L233.715 24.1281V25.9741L229.165 26.2081L228.671 23.7121L228.931 23.7901C228.237 24.6394 227.483 25.2721 226.669 25.6881C225.854 26.1041 225.013 26.3121 224.147 26.3121C223.037 26.3121 222.119 25.9568 221.391 25.2461C220.663 24.5354 220.299 23.5128 220.299 22.1781C220.299 21.1901 220.507 20.4101 220.923 19.8381C221.356 19.2488 221.98 18.8241 222.795 18.5641C223.609 18.3041 224.597 18.1741 225.759 18.1741H228.593L228.333 18.4601V16.7441C228.333 15.9294 228.133 15.3488 227.735 15.0021C227.353 14.6554 226.79 14.4821 226.045 14.4821C225.681 14.4821 225.291 14.5168 224.875 14.5861C224.459 14.6554 224.008 14.7594 223.523 14.8981L223.887 14.5081L223.549 16.6141H221.287L221.079 12.8181C222.257 12.4714 223.332 12.2201 224.303 12.0641C225.291 11.8908 226.192 11.8041 227.007 11.8041C228.619 11.8041 229.849 12.1508 230.699 12.8441C231.548 13.5374 231.973 14.6121 231.973 16.0681V24.1541ZM223.965 21.8141C223.965 22.4554 224.112 22.9321 224.407 23.2441C224.719 23.5388 225.109 23.6861 225.577 23.6861C226.01 23.6861 226.487 23.5561 227.007 23.2961C227.527 23.0188 228.021 22.6461 228.489 22.1781L228.333 22.8021V19.8381L228.593 20.0981H226.357C225.455 20.0981 224.831 20.2368 224.485 20.5141C224.138 20.7914 223.965 21.2248 223.965 21.8141ZM240.853 26.3121C239.657 26.3121 238.573 26.0348 237.603 25.4801C236.649 24.9081 235.895 24.0934 235.341 23.0361C234.786 21.9788 234.509 20.6961 234.509 19.1881C234.509 17.8188 234.708 16.6661 235.107 15.7301C235.505 14.7941 236.043 14.0401 236.719 13.4681C237.395 12.8788 238.149 12.4541 238.981 12.1941C239.813 11.9341 240.671 11.8041 241.555 11.8041C242.387 11.8041 243.227 11.9081 244.077 12.1161C244.926 12.3241 245.619 12.5581 246.157 12.8181L246.053 16.6401H243.713L243.323 14.5081L243.609 14.7161C243.349 14.6121 243.028 14.5341 242.647 14.4821C242.283 14.4301 241.945 14.4041 241.633 14.4041C240.887 14.4041 240.263 14.5948 239.761 14.9761C239.275 15.3401 238.911 15.8688 238.669 16.5621C238.426 17.2381 238.305 18.0441 238.305 18.9801C238.305 19.9854 238.443 20.8348 238.721 21.5281C238.998 22.2214 239.388 22.7501 239.891 23.1141C240.411 23.4608 241.009 23.6341 241.685 23.6341C242.222 23.6341 242.811 23.5214 243.453 23.2961C244.094 23.0708 244.761 22.7328 245.455 22.2821L246.677 24.1281C245.706 24.8734 244.735 25.4281 243.765 25.7921C242.794 26.1388 241.823 26.3121 240.853 26.3121ZM249.946 26.0001V24.1541L252.78 23.4781L252.078 24.4141V14.2221L252.884 14.7941H249.192L249.92 14.0921L249.296 16.9261H247.086V12.1161H260.71V16.9261H258.5L257.928 14.2221L258.578 14.7941H254.964L255.718 14.2221V24.4141L255.094 23.4781L257.876 24.1541V26.0001H249.946ZM267.477 26.3121C266.211 26.3121 265.102 26.0521 264.149 25.5321C263.195 24.9948 262.45 24.2061 261.913 23.1661C261.393 22.1088 261.133 20.8261 261.133 19.3181C261.133 17.7581 261.41 16.4234 261.965 15.3141C262.537 14.1874 263.334 13.3208 264.357 12.7141C265.379 12.1074 266.584 11.8041 267.971 11.8041C269.323 11.8041 270.423 12.0728 271.273 12.6101C272.122 13.1474 272.746 13.8841 273.145 14.8201C273.543 15.7388 273.743 16.7788 273.743 17.9401C273.743 18.2348 273.725 18.5294 273.691 18.8241C273.673 19.1188 273.639 19.4308 273.587 19.7601H264.071V17.6021H270.467L269.999 17.9401C270.016 17.2468 269.947 16.6401 269.791 16.1201C269.652 15.5828 269.409 15.1668 269.063 14.8721C268.733 14.5774 268.274 14.4301 267.685 14.4301C267.009 14.4301 266.463 14.6294 266.047 15.0281C265.631 15.4094 265.327 15.9294 265.137 16.5881C264.963 17.2468 264.877 17.9834 264.877 18.7981C264.877 19.7168 264.989 20.5401 265.215 21.2681C265.44 21.9961 265.804 22.5681 266.307 22.9841C266.827 23.4001 267.503 23.6081 268.335 23.6081C268.924 23.6081 269.557 23.5041 270.233 23.2961C270.926 23.0708 271.645 22.7414 272.391 22.3081L273.613 24.2581C272.607 24.9514 271.576 25.4714 270.519 25.8181C269.479 26.1474 268.465 26.3121 267.477 26.3121ZM274.881 31.9801V30.1081L277.091 29.3801L276.623 30.0041V14.2221L277.039 14.7161L274.881 14.0661V12.1941L279.457 11.9861L279.873 14.2481L279.457 14.0401C280.272 13.3121 281.061 12.7574 281.823 12.3761C282.603 11.9948 283.409 11.8041 284.241 11.8041C285.247 11.8041 286.131 12.0728 286.893 12.6101C287.656 13.1301 288.254 13.9101 288.687 14.9501C289.138 15.9728 289.363 17.2294 289.363 18.7201C289.363 20.4014 289.077 21.8054 288.505 22.9321C287.933 24.0588 287.127 24.9081 286.087 25.4801C285.065 26.0348 283.869 26.3121 282.499 26.3121C282.083 26.3121 281.65 26.2774 281.199 26.2081C280.749 26.1561 280.281 26.0781 279.795 25.9741L280.263 25.5581V30.0041L279.873 29.4581L282.291 30.1081V31.9801H274.881ZM282.031 23.7381C283.262 23.7381 284.155 23.3221 284.709 22.4901C285.281 21.6581 285.567 20.5228 285.567 19.0841C285.567 18.1308 285.455 17.3161 285.229 16.6401C285.004 15.9468 284.692 15.4181 284.293 15.0541C283.895 14.6728 283.401 14.4821 282.811 14.4821C282.361 14.4821 281.884 14.6034 281.381 14.8461C280.879 15.0888 280.359 15.4614 279.821 15.9641L280.263 15.0021V24.0761L279.821 23.3741C280.636 23.6168 281.373 23.7381 282.031 23.7381Z" fill="#283B2B"/>
<path d="M38.8765 44.1476C38.212 44.1476 37.6398 43.9907 37.1599 43.6769C36.6799 43.363 36.3106 42.9308 36.0522 42.3801C35.7938 41.8294 35.6646 41.2002 35.6646 40.4926C35.6646 39.7726 35.7969 39.1373 36.0615 38.5866C36.3292 38.0328 36.7014 37.6006 37.1782 37.2898C37.6582 36.976 38.2182 36.8191 38.8582 36.8191C39.3566 36.8191 39.8058 36.9114 40.2057 37.096C40.6057 37.2806 40.9332 37.539 41.1886 37.8713C41.4439 38.2036 41.6024 38.5912 41.6639 39.0343H40.5748C40.4917 38.7112 40.3071 38.4251 40.021 38.1759C39.738 37.9236 39.3565 37.7975 38.8765 37.7975C38.4519 37.7975 38.0798 37.9082 37.7598 38.1297C37.4429 38.3482 37.1953 38.6574 37.0168 39.0573C36.8414 39.4542 36.7537 39.9203 36.7537 40.4557C36.7537 41.0033 36.8398 41.4802 37.0121 41.8863C37.1875 42.2924 37.4336 42.6077 37.7505 42.8323C38.0705 43.0569 38.4458 43.1692 38.8765 43.1692C39.1596 43.1692 39.4166 43.12 39.6473 43.0215C39.8781 42.9231 40.0733 42.7816 40.2333 42.597C40.3933 42.4124 40.5071 42.1909 40.5748 41.9324H41.6639C41.6024 42.3508 41.4502 42.7277 41.2071 43.0631C40.9672 43.3953 40.6487 43.6599 40.2519 43.8568C39.8581 44.0507 39.3995 44.1476 38.8765 44.1476ZM43.3475 37.9267V36.9114H49.1068V37.9267H46.7809V43.9999H45.6918V37.9267H43.3475ZM51.3453 46.6581V36.9114H52.3975V38.0374H52.5267C52.6067 37.9144 52.7176 37.7575 52.8591 37.5667C53.0037 37.3729 53.2098 37.2006 53.4775 37.0499C53.7482 36.896 54.1142 36.8191 54.5757 36.8191C55.1726 36.8191 55.6987 36.9683 56.154 37.2668C56.6094 37.5652 56.9647 37.9882 57.2201 38.5359C57.4754 39.0835 57.6031 39.7296 57.6031 40.4741C57.6031 41.2248 57.4754 41.8755 57.2201 42.4262C56.9647 42.9739 56.6109 43.3984 56.1587 43.6999C55.7064 43.9984 55.1849 44.1476 54.5942 44.1476C54.1389 44.1476 53.7743 44.0722 53.5005 43.9214C53.2266 43.7676 53.0159 43.5938 52.8682 43.4C52.7205 43.2031 52.6067 43.04 52.5267 42.9108H52.4344V46.6581H51.3453ZM52.416 40.4557C52.416 40.991 52.4944 41.4632 52.6513 41.8724C52.8082 42.2785 53.0375 42.597 53.339 42.8277C53.6406 43.0554 54.0096 43.1692 54.4465 43.1692C54.9019 43.1692 55.2818 43.0492 55.5864 42.8093C55.8941 42.5662 56.1248 42.2401 56.2786 41.8309C56.4355 41.4186 56.514 40.9602 56.514 40.4557C56.514 39.9572 56.4371 39.5081 56.2833 39.1081C56.1325 38.7051 55.9033 38.3866 55.5956 38.1528C55.291 37.9159 54.908 37.7975 54.4465 37.7975C54.0035 37.7975 53.6313 37.9098 53.3298 38.1344C53.0283 38.3559 52.8006 38.6666 52.6468 39.0666C52.493 39.4634 52.416 39.9265 52.416 40.4557ZM62.794 44.1476C62.154 44.1476 61.5926 43.9953 61.1096 43.6907C60.6297 43.3861 60.2543 42.96 59.9836 42.4124C59.7159 41.8647 59.5821 41.2248 59.5821 40.4926C59.5821 39.7542 59.7159 39.1096 59.9836 38.5589C60.2543 38.0082 60.6297 37.5806 61.1096 37.276C61.5926 36.9714 62.154 36.8191 62.794 36.8191C63.4339 36.8191 63.9939 36.9714 64.4739 37.276C64.9569 37.5806 65.3322 38.0082 65.5998 38.5589C65.8706 39.1096 66.0059 39.7542 66.0059 40.4926C66.0059 41.2248 65.8706 41.8647 65.5998 42.4124C65.3322 42.96 64.9569 43.3861 64.4739 43.6907C63.9939 43.9953 63.4339 44.1476 62.794 44.1476ZM62.794 43.1692C63.2801 43.1692 63.6801 43.0446 63.9939 42.7954C64.3078 42.5462 64.5399 42.2185 64.6907 41.8124C64.8414 41.4063 64.9169 40.9664 64.9169 40.4926C64.9169 40.0188 64.8414 39.5773 64.6907 39.1681C64.5399 38.7589 64.3078 38.4282 63.9939 38.1759C63.6801 37.9236 63.2801 37.7975 62.794 37.7975C62.3079 37.7975 61.908 37.9236 61.5942 38.1759C61.2804 38.4282 61.0481 38.7589 60.8973 39.1681C60.7466 39.5773 60.6712 40.0188 60.6712 40.4926C60.6712 40.9664 60.7466 41.4063 60.8973 41.8124C61.0481 42.2185 61.2804 42.5462 61.5942 42.7954C61.908 43.0446 62.3079 43.1692 62.794 43.1692ZM69.4075 42.3939L72.8225 36.9114H74.0776V43.9999H72.9886V38.5174L69.592 43.9999H68.3182V36.9114H69.4075V42.3939ZM80.5988 42.5231L83.0724 36.9114H84.1062L81.0419 43.9999H80.1558L77.1468 36.9114H78.1622L80.5988 42.5231ZM77.8114 36.9114V43.9999H76.7222V36.9114H77.8114ZM83.3862 43.9999V36.9114H84.4754V43.9999H83.3862ZM91.4235 43.9999V36.9114H92.5127V39.9942H93.2325L95.7799 36.9114H97.1829L94.3217 40.3264L97.2199 43.9999H95.8169L93.4909 41.0094H92.5127V43.9999H91.4235ZM101.139 44.166C100.69 44.166 100.282 44.0814 99.9164 43.9122C99.5502 43.7399 99.2594 43.4923 99.044 43.1692C98.8287 42.8431 98.7211 42.4493 98.7211 41.9878C98.7211 41.5817 98.801 41.2525 98.961 41.0002C99.121 40.7449 99.3349 40.5449 99.6026 40.4003C99.8702 40.2557 100.165 40.148 100.489 40.0772C100.815 40.0034 101.142 39.9449 101.471 39.9019C101.902 39.8465 102.251 39.805 102.519 39.7773C102.79 39.7465 102.987 39.6957 103.11 39.625C103.236 39.5542 103.299 39.4311 103.299 39.2558V39.2189C103.299 38.7635 103.174 38.4097 102.925 38.1574C102.679 37.9051 102.305 37.779 101.804 37.779C101.284 37.779 100.876 37.8928 100.581 38.1205C100.285 38.3482 100.078 38.5912 99.9579 38.8497L98.9242 38.4805C99.1088 38.0497 99.3548 37.7144 99.6624 37.4744C99.9732 37.2314 100.312 37.0622 100.678 36.9668C101.047 36.8683 101.41 36.8191 101.767 36.8191C101.995 36.8191 102.256 36.8468 102.551 36.9022C102.85 36.9545 103.137 37.0637 103.414 37.2298C103.694 37.396 103.927 37.6467 104.111 37.9821C104.296 38.3174 104.388 38.7666 104.388 39.3296V43.9999H103.299V43.04H103.244C103.17 43.1938 103.047 43.3584 102.874 43.5338C102.702 43.7092 102.473 43.8584 102.187 43.9814C101.901 44.1045 101.551 44.166 101.139 44.166ZM101.305 43.1877C101.736 43.1877 102.099 43.1031 102.394 42.9339C102.693 42.7646 102.917 42.5462 103.068 42.2785C103.222 42.0109 103.299 41.7294 103.299 41.434V40.4372C103.253 40.4926 103.151 40.5433 102.994 40.5895C102.841 40.6326 102.662 40.671 102.459 40.7049C102.259 40.7356 102.064 40.7633 101.873 40.7879C101.685 40.8095 101.533 40.8279 101.416 40.8433C101.133 40.8802 100.868 40.9402 100.622 41.0233C100.379 41.1033 100.182 41.2248 100.032 41.3879C99.884 41.5478 99.8102 41.7663 99.8102 42.0432C99.8102 42.4216 99.9502 42.7077 100.23 42.9016C100.513 43.0923 100.872 43.1877 101.305 43.1877ZM107.026 46.6581V36.9114H108.078V38.0374H108.207C108.287 37.9144 108.398 37.7575 108.539 37.5667C108.684 37.3729 108.89 37.2006 109.158 37.0499C109.429 36.896 109.795 36.8191 110.256 36.8191C110.853 36.8191 111.379 36.9683 111.834 37.2668C112.29 37.5652 112.645 37.9882 112.901 38.5359C113.156 39.0835 113.284 39.7296 113.284 40.4741C113.284 41.2248 113.156 41.8755 112.901 42.4262C112.645 42.9739 112.291 43.3984 111.839 43.6999C111.387 43.9984 110.865 44.1476 110.275 44.1476C109.819 44.1476 109.455 44.0722 109.181 43.9214C108.907 43.7676 108.696 43.5938 108.549 43.4C108.401 43.2031 108.287 43.04 108.207 42.9108H108.115V46.6581H107.026ZM108.096 40.4557C108.096 40.991 108.175 41.4632 108.332 41.8724C108.489 42.2785 108.718 42.597 109.019 42.8277C109.321 43.0554 109.69 43.1692 110.127 43.1692C110.582 43.1692 110.962 43.0492 111.267 42.8093C111.575 42.5662 111.805 42.2401 111.959 41.8309C112.116 41.4186 112.194 40.9602 112.194 40.4557C112.194 39.9572 112.118 39.5081 111.964 39.1081C111.813 38.7051 111.584 38.3866 111.276 38.1528C110.972 37.9159 110.588 37.7975 110.127 37.7975C109.684 37.7975 109.312 37.9098 109.01 38.1344C108.709 38.3559 108.481 38.6666 108.327 39.0666C108.173 39.4634 108.096 39.9265 108.096 40.4557ZM115.595 43.9999V36.9114H116.684V39.9942H117.404L119.951 36.9114H121.354L118.493 40.3264L121.391 43.9999H119.988L117.662 41.0094H116.684V43.9999H115.595ZM125.31 44.166C124.861 44.166 124.454 44.0814 124.088 43.9122C123.721 43.7399 123.431 43.4923 123.215 43.1692C123 42.8431 122.892 42.4493 122.892 41.9878C122.892 41.5817 122.972 41.2525 123.132 41.0002C123.292 40.7449 123.506 40.5449 123.774 40.4003C124.041 40.2557 124.337 40.148 124.66 40.0772C124.986 40.0034 125.314 39.9449 125.643 39.9019C126.073 39.8465 126.423 39.805 126.69 39.7773C126.961 39.7465 127.158 39.6957 127.281 39.625C127.407 39.5542 127.47 39.4311 127.47 39.2558V39.2189C127.47 38.7635 127.346 38.4097 127.096 38.1574C126.85 37.9051 126.477 37.779 125.975 37.779C125.455 37.779 125.047 37.8928 124.752 38.1205C124.457 38.3482 124.249 38.5912 124.129 38.8497L123.095 38.4805C123.28 38.0497 123.526 37.7144 123.834 37.4744C124.144 37.2314 124.483 37.0622 124.849 36.9668C125.218 36.8683 125.581 36.8191 125.938 36.8191C126.166 36.8191 126.427 36.8468 126.723 36.9022C127.021 36.9545 127.309 37.0637 127.586 37.2298C127.866 37.396 128.098 37.6467 128.282 37.9821C128.467 38.3174 128.559 38.7666 128.559 39.3296V43.9999H127.47V43.04H127.415C127.341 43.1938 127.218 43.3584 127.046 43.5338C126.873 43.7092 126.644 43.8584 126.358 43.9814C126.072 44.1045 125.723 44.166 125.31 44.166ZM125.477 43.1877C125.907 43.1877 126.27 43.1031 126.566 42.9339C126.864 42.7646 127.089 42.5462 127.24 42.2785C127.393 42.0109 127.47 41.7294 127.47 41.434V40.4372C127.424 40.4926 127.323 40.5433 127.166 40.5895C127.012 40.6326 126.833 40.671 126.63 40.7049C126.43 40.7356 126.235 40.7633 126.044 40.7879C125.857 40.8095 125.704 40.8279 125.587 40.8433C125.304 40.8802 125.04 40.9402 124.794 41.0233C124.551 41.1033 124.354 41.2248 124.203 41.3879C124.055 41.5478 123.981 41.7663 123.981 42.0432C123.981 42.4216 124.121 42.7077 124.401 42.9016C124.684 43.0923 125.043 43.1877 125.477 43.1877ZM134.077 44.1476C133.412 44.1476 132.84 43.9907 132.36 43.6769C131.88 43.363 131.511 42.9308 131.252 42.3801C130.994 41.8294 130.865 41.2002 130.865 40.4926C130.865 39.7726 130.997 39.1373 131.262 38.5866C131.529 38.0328 131.902 37.6006 132.378 37.2898C132.858 36.976 133.418 36.8191 134.058 36.8191C134.557 36.8191 135.006 36.9114 135.406 37.096C135.806 37.2806 136.133 37.539 136.389 37.8713C136.644 38.2036 136.803 38.5912 136.864 39.0343H135.775C135.692 38.7112 135.507 38.4251 135.221 38.1759C134.938 37.9236 134.557 37.7975 134.077 37.7975C133.652 37.7975 133.28 37.9082 132.96 38.1297C132.643 38.3482 132.395 38.6574 132.217 39.0573C132.042 39.4542 131.954 39.9203 131.954 40.4557C131.954 41.0033 132.04 41.4802 132.212 41.8863C132.388 42.2924 132.634 42.6077 132.951 42.8323C133.271 43.0569 133.646 43.1692 134.077 43.1692C134.36 43.1692 134.617 43.12 134.847 43.0215C135.078 42.9231 135.274 42.7816 135.434 42.597C135.593 42.4124 135.707 42.1909 135.775 41.9324H136.864C136.803 42.3508 136.65 42.7277 136.407 43.0631C136.167 43.3953 135.849 43.6599 135.452 43.8568C135.058 44.0507 134.6 44.1476 134.077 44.1476ZM143.85 39.9572V40.9725H139.937V39.9572H143.85ZM140.195 36.9114V43.9999H139.106V36.9114H140.195ZM144.681 36.9114V43.9999H143.592V36.9114H144.681ZM148.261 39.4773H150.292C151.122 39.4773 151.758 39.688 152.198 40.1095C152.638 40.531 152.858 41.0648 152.858 41.7109C152.858 42.1355 152.759 42.5216 152.562 42.8692C152.365 43.2138 152.076 43.4892 151.695 43.6953C151.313 43.8984 150.845 43.9999 150.292 43.9999H147.32V36.9114H148.409V42.9846H150.292C150.722 42.9846 151.076 42.8708 151.353 42.6431C151.63 42.4154 151.768 42.1232 151.768 41.7663C151.768 41.3909 151.63 41.0848 151.353 40.8479C151.076 40.611 150.722 40.4926 150.292 40.4926H148.261V39.4773ZM153.984 43.9999V36.9114H155.073V43.9999H153.984ZM160.688 44.1476C160.005 44.1476 159.416 43.9968 158.921 43.6953C158.428 43.3907 158.048 42.9662 157.781 42.4216C157.516 41.874 157.384 41.2371 157.384 40.511C157.384 39.785 157.516 39.145 157.781 38.5912C158.048 38.0344 158.421 37.6006 158.898 37.2898C159.377 36.976 159.937 36.8191 160.577 36.8191C160.947 36.8191 161.311 36.8806 161.671 37.0037C162.031 37.1268 162.359 37.3267 162.654 37.6036C162.949 37.8775 163.185 38.2405 163.36 38.6928C163.536 39.145 163.623 39.7019 163.623 40.3634V40.8248H158.159V39.8834H162.516C162.516 39.4834 162.436 39.1266 162.276 38.8127C162.119 38.4989 161.894 38.2513 161.602 38.0697C161.313 37.8882 160.971 37.7975 160.577 37.7975C160.144 37.7975 159.768 37.9051 159.451 38.1205C159.138 38.3328 158.896 38.6097 158.727 38.9512C158.558 39.2927 158.473 39.6588 158.473 40.0495V40.6772C158.473 41.2125 158.565 41.6663 158.75 42.0386C158.938 42.4078 159.198 42.6893 159.53 42.8831C159.862 43.0738 160.248 43.1692 160.688 43.1692C160.974 43.1692 161.233 43.1292 161.463 43.0492C161.697 42.9662 161.899 42.8431 162.068 42.68C162.237 42.5139 162.368 42.3078 162.46 42.0616L163.512 42.357C163.402 42.7139 163.216 43.0277 162.954 43.2984C162.693 43.5661 162.369 43.7753 161.985 43.9261C161.6 44.0737 161.168 44.1476 160.688 44.1476ZM169.478 46.0305V42.9846H170.068C170.213 42.8339 170.338 42.6708 170.442 42.4954C170.547 42.3201 170.638 42.1124 170.714 41.8724C170.794 41.6294 170.862 41.334 170.918 40.9864C170.973 40.6356 171.022 40.2126 171.065 39.7173L171.305 36.9114H175.809V42.9846H176.898V46.0305H175.809V43.9999H170.567V46.0305H169.478ZM171.305 42.9846H174.72V37.9267H172.32L172.136 39.7173C172.059 40.4587 171.964 41.1064 171.85 41.6601C171.736 42.2139 171.554 42.6554 171.305 42.9846ZM181.874 44.1476C181.234 44.1476 180.672 43.9953 180.189 43.6907C179.709 43.3861 179.334 42.96 179.063 42.4124C178.795 41.8647 178.662 41.2248 178.662 40.4926C178.662 39.7542 178.795 39.1096 179.063 38.5589C179.334 38.0082 179.709 37.5806 180.189 37.276C180.672 36.9714 181.234 36.8191 181.874 36.8191C182.513 36.8191 183.073 36.9714 183.553 37.276C184.036 37.5806 184.412 38.0082 184.679 38.5589C184.95 39.1096 185.086 39.7542 185.086 40.4926C185.086 41.2248 184.95 41.8647 184.679 42.4124C184.412 42.96 184.036 43.3861 183.553 43.6907C183.073 43.9953 182.513 44.1476 181.874 44.1476ZM181.874 43.1692C182.36 43.1692 182.76 43.0446 183.073 42.7954C183.387 42.5462 183.62 42.2185 183.77 41.8124C183.921 41.4063 183.996 40.9664 183.996 40.4926C183.996 40.0188 183.921 39.5773 183.77 39.1681C183.62 38.7589 183.387 38.4282 183.073 38.1759C182.76 37.9236 182.36 37.7975 181.874 37.7975C181.387 37.7975 180.987 37.9236 180.674 38.1759C180.36 38.4282 180.128 38.7589 179.977 39.1681C179.826 39.5773 179.751 40.0188 179.751 40.4926C179.751 40.9664 179.826 41.4063 179.977 41.8124C180.128 42.2185 180.36 42.5462 180.674 42.7954C180.987 43.0446 181.387 43.1692 181.874 43.1692ZM191.274 42.5231L193.748 36.9114H194.782L191.717 43.9999H190.831L187.822 36.9114H188.838L191.274 42.5231ZM188.487 36.9114V43.9999H187.398V36.9114H188.487ZM194.062 43.9999V36.9114H195.151V43.9999H194.062ZM199.88 44.166C199.431 44.166 199.023 44.0814 198.657 43.9122C198.291 43.7399 198 43.4923 197.785 43.1692C197.57 42.8431 197.462 42.4493 197.462 41.9878C197.462 41.5817 197.542 41.2525 197.702 41.0002C197.862 40.7449 198.076 40.5449 198.343 40.4003C198.611 40.2557 198.906 40.148 199.23 40.0772C199.556 40.0034 199.883 39.9449 200.212 39.9019C200.643 39.8465 200.992 39.805 201.26 39.7773C201.531 39.7465 201.728 39.6957 201.851 39.625C201.977 39.5542 202.04 39.4311 202.04 39.2558V39.2189C202.04 38.7635 201.915 38.4097 201.666 38.1574C201.42 37.9051 201.046 37.779 200.545 37.779C200.025 37.779 199.617 37.8928 199.322 38.1205C199.026 38.3482 198.819 38.5912 198.699 38.8497L197.665 38.4805C197.85 38.0497 198.096 37.7144 198.403 37.4744C198.714 37.2314 199.053 37.0622 199.419 36.9668C199.788 36.8683 200.151 36.8191 200.508 36.8191C200.736 36.8191 200.997 36.8468 201.292 36.9022C201.591 36.9545 201.878 37.0637 202.155 37.2298C202.435 37.396 202.668 37.6467 202.852 37.9821C203.037 38.3174 203.129 38.7666 203.129 39.3296V43.9999H202.04V43.04H201.985C201.911 43.1938 201.788 43.3584 201.615 43.5338C201.443 43.7092 201.214 43.8584 200.928 43.9814C200.642 44.1045 200.292 44.166 199.88 44.166ZM200.046 43.1877C200.477 43.1877 200.84 43.1031 201.135 42.9339C201.434 42.7646 201.658 42.5462 201.809 42.2785C201.963 42.0109 202.04 41.7294 202.04 41.434V40.4372C201.994 40.4926 201.892 40.5433 201.735 40.5895C201.582 40.6326 201.403 40.671 201.2 40.7049C201 40.7356 200.805 40.7633 200.614 40.7879C200.426 40.8095 200.274 40.8279 200.157 40.8433C199.874 40.8802 199.609 40.9402 199.363 41.0233C199.12 41.1033 198.923 41.2248 198.773 41.3879C198.625 41.5478 198.551 41.7663 198.551 42.0432C198.551 42.4216 198.691 42.7077 198.971 42.9016C199.254 43.0923 199.613 43.1877 200.046 43.1877ZM212.951 44.1476C212.287 44.1476 211.714 43.9907 211.234 43.6769C210.755 43.363 210.385 42.9308 210.127 42.3801C209.868 41.8294 209.739 41.2002 209.739 40.4926C209.739 39.7726 209.872 39.1373 210.136 38.5866C210.404 38.0328 210.776 37.6006 211.253 37.2898C211.733 36.976 212.293 36.8191 212.933 36.8191C213.431 36.8191 213.88 36.9114 214.28 37.096C214.68 37.2806 215.008 37.539 215.263 37.8713C215.519 38.2036 215.677 38.5912 215.739 39.0343H214.65C214.566 38.7112 214.382 38.4251 214.096 38.1759C213.813 37.9236 213.431 37.7975 212.951 37.7975C212.527 37.7975 212.154 37.9082 211.834 38.1297C211.518 38.3482 211.27 38.6574 211.091 39.0573C210.916 39.4542 210.828 39.9203 210.828 40.4557C210.828 41.0033 210.915 41.4802 211.087 41.8863C211.262 42.2924 211.508 42.6077 211.825 42.8323C212.145 43.0569 212.521 43.1692 212.951 43.1692C213.234 43.1692 213.491 43.12 213.722 43.0215C213.953 42.9231 214.148 42.7816 214.308 42.597C214.468 42.4124 214.582 42.1909 214.65 41.9324H215.739C215.677 42.3508 215.525 42.7277 215.282 43.0631C215.042 43.3953 214.723 43.6599 214.326 43.8568C213.933 44.0507 213.474 44.1476 212.951 44.1476ZM222.267 43.9999V43.1692L225.387 39.7542C225.753 39.3542 226.054 39.0066 226.291 38.7112C226.528 38.4128 226.703 38.1328 226.817 37.8713C226.934 37.6067 226.993 37.3298 226.993 37.0406C226.993 36.7083 226.913 36.4207 226.753 36.1776C226.596 35.9346 226.38 35.7469 226.106 35.6146C225.833 35.4823 225.525 35.4162 225.184 35.4162C224.82 35.4162 224.504 35.4916 224.233 35.6423C223.965 35.79 223.758 35.9977 223.61 36.2653C223.465 36.533 223.393 36.8468 223.393 37.2068H222.304C222.304 36.653 222.431 36.1669 222.687 35.7484C222.942 35.33 223.29 35.0039 223.73 34.7701C224.173 34.5363 224.67 34.4194 225.22 34.4194C225.774 34.4194 226.265 34.5363 226.693 34.7701C227.12 35.0039 227.456 35.3193 227.699 35.7161C227.942 36.113 228.063 36.5545 228.063 37.0406C228.063 37.3883 228 37.7282 227.874 38.0605C227.751 38.3897 227.536 38.7574 227.228 39.1635C226.923 39.5665 226.5 40.0588 225.959 40.6402L223.836 42.9108V42.9846H228.229V43.9999H222.267ZM233.868 44.1291C233.173 44.1291 232.58 43.9399 232.091 43.5615C231.602 43.18 231.228 42.6277 230.97 41.9047C230.711 41.1787 230.582 40.3018 230.582 39.2742C230.582 38.2528 230.711 37.3806 230.97 36.6576C231.231 35.9315 231.607 35.3777 232.096 34.9962C232.588 34.6116 233.179 34.4194 233.868 34.4194C234.557 34.4194 235.146 34.6116 235.635 34.9962C236.128 35.3777 236.503 35.9315 236.761 36.6576C237.023 37.3806 237.154 38.2528 237.154 39.2742C237.154 40.3018 237.024 41.1787 236.766 41.9047C236.508 42.6277 236.134 43.18 235.645 43.5615C235.155 43.9399 234.563 44.1291 233.868 44.1291ZM233.868 43.1138C234.557 43.1138 235.092 42.7816 235.474 42.117C235.855 41.4525 236.046 40.5049 236.046 39.2742C236.046 38.4559 235.958 37.759 235.783 37.1837C235.611 36.6084 235.362 36.1699 235.035 35.8684C234.712 35.5669 234.323 35.4162 233.868 35.4162C233.185 35.4162 232.651 35.7531 232.266 36.4268C231.882 37.0975 231.69 38.0467 231.69 39.2742C231.69 40.0926 231.776 40.7879 231.948 41.3602C232.12 41.9324 232.368 42.3678 232.691 42.6662C233.017 42.9646 233.409 43.1138 233.868 43.1138ZM242.64 44.1291C241.945 44.1291 241.352 43.9399 240.863 43.5615C240.374 43.18 240 42.6277 239.742 41.9047C239.483 41.1787 239.354 40.3018 239.354 39.2742C239.354 38.2528 239.483 37.3806 239.742 36.6576C240.003 35.9315 240.379 35.3777 240.868 34.9962C241.36 34.6116 241.951 34.4194 242.64 34.4194C243.329 34.4194 243.918 34.6116 244.407 34.9962C244.9 35.3777 245.275 35.9315 245.533 36.6576C245.795 37.3806 245.926 38.2528 245.926 39.2742C245.926 40.3018 245.796 41.1787 245.538 41.9047C245.28 42.6277 244.906 43.18 244.417 43.5615C243.927 43.9399 243.335 44.1291 242.64 44.1291ZM242.64 43.1138C243.329 43.1138 243.864 42.7816 244.246 42.117C244.627 41.4525 244.818 40.5049 244.818 39.2742C244.818 38.4559 244.73 37.759 244.555 37.1837C244.383 36.6084 244.134 36.1699 243.807 35.8684C243.484 35.5669 243.095 35.4162 242.64 35.4162C241.957 35.4162 241.423 35.7531 241.038 36.4268C240.654 37.0975 240.462 38.0467 240.462 39.2742C240.462 40.0926 240.548 40.7879 240.72 41.3602C240.892 41.9324 241.14 42.3678 241.463 42.6662C241.789 42.9646 242.181 43.1138 242.64 43.1138ZM248.371 43.9999L252.598 35.6377V35.5639H247.725V34.5486H253.779V35.6192L249.571 43.9999H248.371ZM264.847 36.9114V37.9267H261.562V43.9999H260.473V36.9114H264.847ZM269.599 44.1476C268.959 44.1476 268.397 43.9953 267.914 43.6907C267.434 43.3861 267.059 42.96 266.788 42.4124C266.521 41.8647 266.387 41.2248 266.387 40.4926C266.387 39.7542 266.521 39.1096 266.788 38.5589C267.059 38.0082 267.434 37.5806 267.914 37.276C268.397 36.9714 268.959 36.8191 269.599 36.8191C270.239 36.8191 270.799 36.9714 271.279 37.276C271.762 37.5806 272.137 38.0082 272.405 38.5589C272.675 39.1096 272.811 39.7542 272.811 40.4926C272.811 41.2248 272.675 41.8647 272.405 42.4124C272.137 42.96 271.762 43.3861 271.279 43.6907C270.799 43.9953 270.239 44.1476 269.599 44.1476ZM269.599 43.1692C270.085 43.1692 270.485 43.0446 270.799 42.7954C271.112 42.5462 271.345 42.2185 271.495 41.8124C271.646 41.4063 271.722 40.9664 271.722 40.4926C271.722 40.0188 271.646 39.5773 271.495 39.1681C271.345 38.7589 271.112 38.4282 270.799 38.1759C270.485 37.9236 270.085 37.7975 269.599 37.7975C269.113 37.7975 268.713 37.9236 268.399 38.1759C268.085 38.4282 267.853 38.7589 267.702 39.1681C267.551 39.5773 267.476 40.0188 267.476 40.4926C267.476 40.9664 267.551 41.4063 267.702 41.8124C267.853 42.2185 268.085 42.5462 268.399 42.7954C268.713 43.0446 269.113 43.1692 269.599 43.1692ZM274.366 46.0305V42.9846H274.957C275.101 42.8339 275.226 42.6708 275.331 42.4954C275.435 42.3201 275.526 42.1124 275.603 41.8724C275.683 41.6294 275.751 41.334 275.806 40.9864C275.861 40.6356 275.911 40.2126 275.954 39.7173L276.194 36.9114H280.698V42.9846H281.787V46.0305H280.698V43.9999H275.455V46.0305H274.366ZM276.194 42.9846H279.609V37.9267H277.209L277.024 39.7173C276.947 40.4587 276.852 41.1064 276.738 41.6601C276.624 42.2139 276.443 42.6554 276.194 42.9846ZM285.968 44.166C285.519 44.166 285.111 44.0814 284.745 43.9122C284.379 43.7399 284.088 43.4923 283.873 43.1692C283.658 42.8431 283.55 42.4493 283.55 41.9878C283.55 41.5817 283.63 41.2525 283.79 41.0002C283.95 40.7449 284.164 40.5449 284.432 40.4003C284.699 40.2557 284.995 40.148 285.318 40.0772C285.644 40.0034 285.971 39.9449 286.301 39.9019C286.731 39.8465 287.08 39.805 287.348 39.7773C287.619 39.7465 287.816 39.6957 287.939 39.625C288.065 39.5542 288.128 39.4311 288.128 39.2558V39.2189C288.128 38.7635 288.003 38.4097 287.754 38.1574C287.508 37.9051 287.134 37.779 286.633 37.779C286.113 37.779 285.705 37.8928 285.41 38.1205C285.115 38.3482 284.907 38.5912 284.787 38.8497L283.753 38.4805C283.938 38.0497 284.184 37.7144 284.492 37.4744C284.802 37.2314 285.141 37.0622 285.507 36.9668C285.876 36.8683 286.239 36.8191 286.596 36.8191C286.824 36.8191 287.085 36.8468 287.38 36.9022C287.679 36.9545 287.967 37.0637 288.243 37.2298C288.523 37.396 288.756 37.6467 288.94 37.9821C289.125 38.3174 289.217 38.7666 289.217 39.3296V43.9999H288.128V43.04H288.073C287.999 43.1938 287.876 43.3584 287.703 43.5338C287.531 43.7092 287.302 43.8584 287.016 43.9814C286.73 44.1045 286.381 44.166 285.968 44.166ZM286.134 43.1877C286.565 43.1877 286.928 43.1031 287.224 42.9339C287.522 42.7646 287.747 42.5462 287.897 42.2785C288.051 42.0109 288.128 41.7294 288.128 41.434V40.4372C288.082 40.4926 287.98 40.5433 287.823 40.5895C287.67 40.6326 287.491 40.671 287.288 40.7049C287.088 40.7356 286.893 40.7633 286.702 40.7879C286.514 40.8095 286.362 40.8279 286.245 40.8433C285.962 40.8802 285.698 40.9402 285.451 41.0233C285.208 41.1033 285.011 41.2248 284.861 41.3879C284.713 41.5478 284.639 41.7663 284.639 42.0432C284.639 42.4216 284.779 42.7077 285.059 42.9016C285.342 43.0923 285.701 43.1877 286.134 43.1877Z" fill="#676E68"/>
</svg>
