<svg width="118" height="32" viewBox="0 0 118 32" fill="none" xmlns="http://www.w3.org/2000/svg">
<g filter="url(#filter0_d_225_101)">
<rect x="4.5" y="2" width="109" height="24" rx="12" fill="white" shape-rendering="crispEdges"/>
<path d="M15.3217 18V8.54545H19.0518C19.7689 8.54545 20.3799 8.68241 20.8846 8.95632C21.3893 9.22715 21.774 9.60417 22.0387 10.0874C22.3065 10.5675 22.4403 11.1214 22.4403 11.7493C22.4403 12.3771 22.3049 12.9311 22.0341 13.4112C21.7633 13.8913 21.3709 14.2653 20.8569 14.533C20.346 14.8008 19.7274 14.9347 19.0011 14.9347H16.6236V13.3327H18.6779C19.0626 13.3327 19.3796 13.2666 19.6289 13.1342C19.8813 12.9988 20.069 12.8126 20.1921 12.5756C20.3183 12.3356 20.3814 12.0601 20.3814 11.7493C20.3814 11.4354 20.3183 11.1615 20.1921 10.9276C20.069 10.6906 19.8813 10.5075 19.6289 10.3782C19.3765 10.2459 19.0565 10.1797 18.6687 10.1797H17.3207V18H15.3217ZM25.2734 18.1339C24.821 18.1339 24.4178 18.0554 24.0639 17.8984C23.7099 17.7384 23.4299 17.503 23.2237 17.1921C23.0205 16.8782 22.919 16.4873 22.919 16.0195C22.919 15.6256 22.9913 15.2947 23.136 15.027C23.2806 14.7592 23.4776 14.5438 23.7269 14.3807C23.9762 14.2176 24.2593 14.0945 24.5763 14.0114C24.8964 13.9283 25.2318 13.8698 25.5827 13.8359C25.9951 13.7929 26.3275 13.7528 26.5798 13.7159C26.8322 13.6759 27.0153 13.6174 27.1292 13.5405C27.2431 13.4635 27.3 13.3497 27.3 13.1989V13.1712C27.3 12.8788 27.2077 12.6526 27.023 12.4925C26.8414 12.3325 26.5829 12.2525 26.2475 12.2525C25.8935 12.2525 25.6119 12.331 25.4026 12.4879C25.1934 12.6418 25.0549 12.8357 24.9872 13.0696L23.1683 12.9219C23.2606 12.491 23.4422 12.1186 23.713 11.8047C23.9838 11.4877 24.3332 11.2446 24.761 11.0753C25.1918 10.9029 25.6904 10.8168 26.2567 10.8168C26.6506 10.8168 27.0276 10.8629 27.3877 10.9553C27.7509 11.0476 28.0725 11.1907 28.3526 11.3846C28.6357 11.5785 28.8588 11.8278 29.022 12.1325C29.1851 12.4341 29.2666 12.7957 29.2666 13.2173V18H27.4016V17.0167H27.3462C27.2323 17.2383 27.08 17.4337 26.8891 17.603C26.6983 17.7692 26.469 17.9 26.2013 17.9954C25.9335 18.0877 25.6242 18.1339 25.2734 18.1339ZM25.8366 16.7766C26.1259 16.7766 26.3813 16.7197 26.6029 16.6058C26.8245 16.4889 26.9984 16.3319 27.1246 16.1349C27.2508 15.938 27.3139 15.7148 27.3139 15.4656V14.7131C27.2523 14.7531 27.1677 14.79 27.06 14.8239C26.9553 14.8546 26.8368 14.8839 26.7045 14.9116C26.5721 14.9362 26.4398 14.9593 26.3075 14.9808C26.1751 14.9993 26.0551 15.0162 25.9474 15.0316C25.7166 15.0655 25.515 15.1193 25.3426 15.1932C25.1703 15.267 25.0364 15.3671 24.941 15.4933C24.8456 15.6164 24.7979 15.7702 24.7979 15.9549C24.7979 16.2227 24.8948 16.4273 25.0887 16.5689C25.2857 16.7074 25.535 16.7766 25.8366 16.7766ZM30.1677 15.9918H32.0743C32.0835 16.2257 32.1882 16.4104 32.3882 16.5458C32.5883 16.6812 32.8468 16.7489 33.1638 16.7489C33.4838 16.7489 33.7531 16.6751 33.9717 16.5273C34.1902 16.3765 34.2994 16.1611 34.2994 15.881C34.2994 15.7087 34.2563 15.5594 34.1702 15.4332C34.084 15.304 33.964 15.2024 33.8101 15.1286C33.6562 15.0547 33.4777 15.0178 33.2746 15.0178H32.2543V13.7298H33.2746C33.5793 13.7298 33.8132 13.659 33.9763 13.5174C34.1425 13.3758 34.2256 13.1989 34.2256 12.9865C34.2256 12.7464 34.1394 12.5541 33.967 12.4094C33.7978 12.2617 33.5685 12.1879 33.2792 12.1879C32.9868 12.1879 32.7437 12.254 32.5498 12.3864C32.359 12.5156 32.2605 12.6849 32.2543 12.8942H30.357C30.3631 12.4695 30.4908 12.1017 30.7401 11.7908C30.9925 11.48 31.331 11.2399 31.7557 11.0707C32.1835 10.9014 32.6621 10.8168 33.1915 10.8168C33.7701 10.8168 34.2686 10.8983 34.6872 11.0614C35.1088 11.2215 35.432 11.4508 35.6567 11.7493C35.8844 12.0478 35.9983 12.4033 35.9983 12.8157C35.9983 13.1912 35.8752 13.5051 35.629 13.7575C35.3828 14.0098 35.0381 14.1899 34.5949 14.2976V14.3714C34.8873 14.3899 35.1519 14.4684 35.3889 14.6069C35.6259 14.7454 35.8152 14.9362 35.9567 15.1793C36.0983 15.4194 36.1691 15.7041 36.1691 16.0334C36.1691 16.4735 36.0398 16.8505 35.7813 17.1644C35.5259 17.4783 35.1719 17.7199 34.7195 17.8892C34.2702 18.0554 33.7547 18.1385 33.173 18.1385C32.6067 18.1385 32.0989 18.0569 31.6496 17.8938C31.2033 17.7276 30.8478 17.4845 30.5832 17.1644C30.3216 16.8443 30.1831 16.4535 30.1677 15.9918ZM37.1152 18V10.9091H40.1389C41.013 10.9091 41.7039 11.0753 42.2117 11.4077C42.7196 11.7401 42.9735 12.2125 42.9735 12.8249C42.9735 13.2096 42.8304 13.5297 42.5441 13.7852C42.2579 14.0406 41.8609 14.2129 41.3531 14.3022C41.7778 14.333 42.1394 14.4299 42.438 14.593C42.7396 14.7531 42.9688 14.9608 43.1258 15.2163C43.2858 15.4717 43.3659 15.7549 43.3659 16.0657C43.3659 16.4689 43.2581 16.8151 43.0427 17.1044C42.8304 17.3937 42.518 17.6153 42.1056 17.7692C41.6962 17.9231 41.1961 18 40.6052 18H37.1152ZM38.9479 16.5273H40.6052C40.8791 16.5273 41.093 16.4627 41.2469 16.3335C41.4039 16.2011 41.4823 16.0211 41.4823 15.7933C41.4823 15.541 41.4039 15.3424 41.2469 15.1978C41.093 15.0531 40.8791 14.9808 40.6052 14.9808H38.9479V16.5273ZM38.9479 13.8267H40.1805C40.3775 13.8267 40.5452 13.799 40.6837 13.7436C40.8253 13.6851 40.933 13.602 41.0068 13.4943C41.0838 13.3866 41.1223 13.2589 41.1223 13.1112C41.1223 12.8926 41.0345 12.7218 40.8591 12.5987C40.6837 12.4756 40.4436 12.4141 40.1389 12.4141H38.9479V13.8267ZM47.5769 18.1385C46.8475 18.1385 46.2197 17.9908 45.6934 17.6953C45.1702 17.3968 44.767 16.9751 44.4839 16.4304C44.2007 15.8826 44.0592 15.2347 44.0592 14.4869C44.0592 13.7575 44.2007 13.1173 44.4839 12.5664C44.767 12.0155 45.1656 11.5862 45.6795 11.2784C46.1966 10.9706 46.8029 10.8168 47.4984 10.8168C47.9662 10.8168 48.4017 10.8922 48.8049 11.043C49.2112 11.1907 49.5651 11.4138 49.8667 11.7124C50.1714 12.0109 50.4084 12.3864 50.5776 12.8388C50.7469 13.2881 50.8315 13.8144 50.8315 14.4176V14.9577H44.844V13.739H48.9803C48.9803 13.4558 48.9188 13.205 48.7957 12.9865C48.6726 12.768 48.5018 12.5972 48.2832 12.4741C48.0678 12.3479 47.817 12.2848 47.5308 12.2848C47.2322 12.2848 46.9675 12.354 46.7367 12.4925C46.509 12.628 46.3305 12.8111 46.2012 13.0419C46.0719 13.2696 46.0058 13.5236 46.0027 13.8036V14.9624C46.0027 15.3132 46.0673 15.6164 46.1966 15.8718C46.3289 16.1272 46.5151 16.3242 46.7552 16.4627C46.9952 16.6012 47.2799 16.6705 47.6092 16.6705C47.8277 16.6705 48.0278 16.6397 48.2094 16.5781C48.391 16.5166 48.5464 16.4242 48.6756 16.3011C48.8049 16.178 48.9034 16.0272 48.9711 15.8487L50.79 15.9688C50.6977 16.4058 50.5084 16.7874 50.2222 17.1136C49.939 17.4368 49.5728 17.6892 49.1234 17.8707C48.6772 18.0492 48.1617 18.1385 47.5769 18.1385ZM51.8549 20.6591V10.9091H53.7938V12.1001H53.8816C53.9677 11.9093 54.0924 11.7154 54.2555 11.5185C54.4217 11.3184 54.6371 11.1522 54.9018 11.0199C55.1695 10.8845 55.5019 10.8168 55.899 10.8168C56.416 10.8168 56.893 10.9522 57.3301 11.223C57.7671 11.4908 58.1164 11.8955 58.378 12.4371C58.6396 12.9757 58.7704 13.6513 58.7704 14.4638C58.7704 15.2547 58.6427 15.9226 58.3872 16.4673C58.1349 17.009 57.7902 17.4199 57.3531 17.6999C56.9192 17.9769 56.4329 18.1154 55.8943 18.1154C55.5127 18.1154 55.188 18.0523 54.9203 17.9261C54.6556 17.8 54.4386 17.6415 54.2693 17.4506C54.1001 17.2567 53.9708 17.0613 53.8816 16.8643H53.8215V20.6591H51.8549ZM53.78 14.4545C53.78 14.8762 53.8385 15.244 53.9554 15.5579C54.0724 15.8718 54.2416 16.1165 54.4632 16.2919C54.6848 16.4643 54.9541 16.5504 55.2711 16.5504C55.5912 16.5504 55.862 16.4627 56.0836 16.2873C56.3052 16.1088 56.4729 15.8626 56.5868 15.5487C56.7038 15.2317 56.7622 14.867 56.7622 14.4545C56.7622 14.0452 56.7053 13.6851 56.5914 13.3743C56.4776 13.0634 56.3098 12.8203 56.0882 12.6449C55.8666 12.4695 55.5943 12.3817 55.2711 12.3817C54.951 12.3817 54.6802 12.4664 54.4586 12.6357C54.2401 12.8049 54.0724 13.045 53.9554 13.3558C53.8385 13.6667 53.78 14.0329 53.78 14.4545ZM64.7565 13.6697V15.2163H61.0541V13.6697H64.7565ZM61.7004 10.9091V18H59.8215V10.9091H61.7004ZM65.9891 10.9091V18H64.124V10.9091H65.9891ZM68.2151 20.6591C67.9658 20.6591 67.7319 20.6391 67.5134 20.5991C67.2979 20.5621 67.1194 20.5144 66.9779 20.456L67.421 18.9879C67.6519 19.0587 67.8596 19.0972 68.0443 19.1033C68.232 19.1095 68.3936 19.0664 68.529 18.9741C68.6675 18.8817 68.7798 18.7248 68.866 18.5032L68.9814 18.2031L66.4377 10.9091H68.5059L69.9739 16.1165H70.0478L71.5297 10.9091H73.6117L70.8557 18.7663C70.7234 19.148 70.5433 19.4804 70.3156 19.7635C70.0909 20.0497 69.8062 20.2698 69.4615 20.4237C69.1168 20.5806 68.7013 20.6591 68.2151 20.6591ZM73.9888 12.4556V10.9091H80.4149V12.4556H78.1298V18H76.2555V12.4556H73.9888ZM82.5797 13.0881H84.6987C85.6374 13.0881 86.3699 13.3127 86.8962 13.7621C87.4224 14.2083 87.6856 14.8054 87.6856 15.5533C87.6856 16.0395 87.5671 16.4673 87.3301 16.8366C87.0931 17.2029 86.7515 17.4891 86.3052 17.6953C85.859 17.8984 85.3235 18 84.6987 18H81.3471V10.9091H83.2261V16.4535H84.6987C85.028 16.4535 85.2989 16.3704 85.5112 16.2042C85.7236 16.038 85.8313 15.8256 85.8344 15.5671C85.8313 15.2932 85.7236 15.0701 85.5112 14.8977C85.2989 14.7223 85.028 14.6346 84.6987 14.6346H82.5797V13.0881Z" fill="#B3B7B4"/>
<path d="M104.743 12.2426L100.5 16.4853L96.2574 12.2426" stroke="#B3B7B4"/>
</g>
<defs>
<filter id="filter0_d_225_101" x="0.5" y="0" width="117" height="32" filterUnits="userSpaceOnUse" color-interpolation-filters="sRGB">
<feFlood flood-opacity="0" result="BackgroundImageFix"/>
<feColorMatrix in="SourceAlpha" type="matrix" values="0 0 0 0 0 0 0 0 0 0 0 0 0 0 0 0 0 0 127 0" result="hardAlpha"/>
<feOffset dy="2"/>
<feGaussianBlur stdDeviation="2"/>
<feComposite in2="hardAlpha" operator="out"/>
<feColorMatrix type="matrix" values="0 0 0 0 0 0 0 0 0 0 0 0 0 0 0 0 0 0 0.15 0"/>
<feBlend mode="normal" in2="BackgroundImageFix" result="effect1_dropShadow_225_101"/>
<feBlend mode="normal" in="SourceGraphic" in2="effect1_dropShadow_225_101" result="shape"/>
</filter>
</defs>
</svg>
