<svg width="40" height="40" viewBox="0 0 40 40" fill="none" xmlns="http://www.w3.org/2000/svg">
<rect width="40" height="40" rx="6" fill="white"/>
<path d="M13.3022 12.7163C13.6876 12.3207 14.2603 12.2673 14.5815 12.5969L27.3737 25.7297C27.6948 26.0594 27.6427 26.6474 27.2574 27.043C26.872 27.4386 26.2993 27.4921 25.9782 27.1624L13.186 14.0296C12.8648 13.6999 12.9169 13.112 13.3022 12.7163Z" fill="#13213C"/>
<path d="M13.6978 26.7163C13.3124 26.3207 13.2603 25.7327 13.5815 25.4031L26.3737 12.2703C26.6948 11.9406 27.2675 11.994 27.6529 12.3897C28.0383 12.7853 28.0903 13.3732 27.7692 13.7029L14.977 26.8357C14.6558 27.1654 14.0831 27.112 13.6978 26.7163Z" fill="#13213C"/>
</svg>
