<svg width="208" height="56" viewBox="0 0 208 56" fill="none" xmlns="http://www.w3.org/2000/svg">
<rect x="0.5" y="0.5" width="207" height="55" rx="9.5" stroke="#B3B7B4"/>
<circle cx="25" cy="18.5" r="8" fill="#FF3D00"/>
<path d="M28 13.5V23.5L26.3667 23.4802V14.8333C24 14.5 22.8667 15.0896 22.8667 16.7222C22.8667 18.3549 24.0333 18.8333 25.4333 19.8333L23.1 23.5H21C21.6611 22.537 23.0533 20.5222 23.3333 20.1667C22.5167 19.5 21.2333 18.5 21.2333 16.7222C21.2333 14.5 22.7889 13.5741 23.5667 13.5H28Z" fill="white"/>
<path d="M39.8239 21.8409V20.1648L44.7614 12.3636H46.1591V14.75H45.3068L41.983 20.017V20.108H48.875V21.8409H39.8239ZM45.375 24V21.3295L45.3977 20.5795V12.3636H47.3864V24H45.375ZM52.7997 22.4091L52.7259 23.0341C52.6728 23.5114 52.5781 23.9962 52.4418 24.4886C52.3092 24.9848 52.169 25.4413 52.0213 25.858C51.8736 26.2746 51.7543 26.6023 51.6634 26.8409H50.277C50.33 26.6098 50.402 26.2955 50.4929 25.8977C50.5876 25.5 50.6785 25.053 50.7656 24.5568C50.8527 24.0606 50.9115 23.5568 50.9418 23.0455L50.9815 22.4091H52.7997ZM58.7798 24.1591C57.9351 24.1591 57.1851 24.017 56.5298 23.733C55.8783 23.4489 55.367 23.0606 54.9957 22.5682C54.6283 22.072 54.4465 21.5095 54.4503 20.8807C54.4465 20.392 54.5526 19.9432 54.7685 19.5341C54.9844 19.125 55.276 18.7841 55.6435 18.5114C56.0147 18.2348 56.4276 18.0587 56.8821 17.983V17.9034C56.2836 17.7708 55.7988 17.4659 55.4276 16.9886C55.0601 16.5076 54.8783 15.9527 54.8821 15.3239C54.8783 14.7254 55.045 14.1913 55.3821 13.7216C55.7192 13.2519 56.1813 12.8826 56.7685 12.6136C57.3556 12.3409 58.026 12.2045 58.7798 12.2045C59.526 12.2045 60.1908 12.3409 60.7741 12.6136C61.3613 12.8826 61.8234 13.2519 62.1605 13.7216C62.5014 14.1913 62.6719 14.7254 62.6719 15.3239C62.6719 15.9527 62.4844 16.5076 62.1094 16.9886C61.7382 17.4659 61.259 17.7708 60.6719 17.9034V17.983C61.1264 18.0587 61.5355 18.2348 61.8991 18.5114C62.2666 18.7841 62.5582 19.125 62.7741 19.5341C62.9938 19.9432 63.1037 20.392 63.1037 20.8807C63.1037 21.5095 62.9181 22.072 62.5469 22.5682C62.1757 23.0606 61.6643 23.4489 61.0128 23.733C60.3651 24.017 59.6207 24.1591 58.7798 24.1591ZM58.7798 22.5341C59.2154 22.5341 59.5942 22.4602 59.9162 22.3125C60.2382 22.161 60.4882 21.9489 60.6662 21.6761C60.8442 21.4034 60.9351 21.089 60.9389 20.733C60.9351 20.3617 60.8385 20.0341 60.6491 19.75C60.4635 19.4621 60.2079 19.2367 59.8821 19.0739C59.5601 18.911 59.1927 18.8295 58.7798 18.8295C58.3632 18.8295 57.992 18.911 57.6662 19.0739C57.3404 19.2367 57.0829 19.4621 56.8935 19.75C56.7079 20.0341 56.617 20.3617 56.6207 20.733C56.617 21.089 56.7041 21.4034 56.8821 21.6761C57.0601 21.9451 57.3101 22.1553 57.6321 22.3068C57.9579 22.4583 58.3404 22.5341 58.7798 22.5341ZM58.7798 17.233C59.1359 17.233 59.4503 17.161 59.723 17.017C59.9995 16.8731 60.2173 16.6723 60.3764 16.4148C60.5355 16.1572 60.617 15.8598 60.6207 15.5227C60.617 15.1894 60.5374 14.8977 60.3821 14.6477C60.2268 14.3939 60.0109 14.1989 59.7344 14.0625C59.4579 13.9223 59.1397 13.8523 58.7798 13.8523C58.4124 13.8523 58.0885 13.9223 57.8082 14.0625C57.5317 14.1989 57.3158 14.3939 57.1605 14.6477C57.009 14.8977 56.9351 15.1894 56.9389 15.5227C56.9351 15.8598 57.0109 16.1572 57.1662 16.4148C57.3253 16.6686 57.5431 16.8693 57.8196 17.017C58.0999 17.161 58.42 17.233 58.7798 17.233Z" fill="#354042"/>
<path d="M82.144 11.1343C82.4135 10.3052 83.5865 10.3052 83.856 11.1343L85.0431 14.7879C85.1636 15.1588 85.5091 15.4098 85.899 15.4098H89.7407C90.6125 15.4098 90.975 16.5255 90.2697 17.0379L87.1617 19.296C86.8463 19.5252 86.7143 19.9314 86.8348 20.3022L88.0219 23.9558C88.2913 24.785 87.3423 25.4745 86.6369 24.9621L83.529 22.704C83.2136 22.4748 82.7864 22.4748 82.471 22.704L79.3631 24.9621C78.6577 25.4745 77.7087 24.785 77.9781 23.9558L79.1652 20.3022C79.2857 19.9314 79.1537 19.5252 78.8383 19.296L75.7303 17.0379C75.025 16.5255 75.3875 15.4098 76.2593 15.4098H80.101C80.4909 15.4098 80.8364 15.1588 80.9569 14.7879L82.144 11.1343Z" fill="#FFCC00"/>
<path d="M101.144 11.1343C101.413 10.3052 102.587 10.3052 102.856 11.1343L104.043 14.7879C104.164 15.1588 104.509 15.4098 104.899 15.4098H108.741C109.613 15.4098 109.975 16.5255 109.27 17.0379L106.162 19.296C105.846 19.5252 105.714 19.9314 105.835 20.3022L107.022 23.9558C107.291 24.785 106.342 25.4745 105.637 24.9621L102.529 22.704C102.214 22.4748 101.786 22.4748 101.471 22.704L98.3631 24.9621C97.6577 25.4745 96.7087 24.785 96.9781 23.9558L98.1652 20.3022C98.2857 19.9314 98.1537 19.5252 97.8383 19.296L94.7303 17.0379C94.025 16.5255 94.3875 15.4098 95.2593 15.4098H99.101C99.4909 15.4098 99.8364 15.1588 99.9569 14.7879L101.144 11.1343Z" fill="#FFCC00"/>
<path d="M120.144 11.1343C120.413 10.3052 121.587 10.3052 121.856 11.1343L123.043 14.7879C123.164 15.1588 123.509 15.4098 123.899 15.4098H127.741C128.613 15.4098 128.975 16.5255 128.27 17.0379L125.162 19.296C124.846 19.5252 124.714 19.9314 124.835 20.3022L126.022 23.9558C126.291 24.785 125.342 25.4745 124.637 24.9621L121.529 22.704C121.214 22.4748 120.786 22.4748 120.471 22.704L117.363 24.9621C116.658 25.4745 115.709 24.785 115.978 23.9558L117.165 20.3022C117.286 19.9314 117.154 19.5252 116.838 19.296L113.73 17.0379C113.025 16.5255 113.387 15.4098 114.259 15.4098H118.101C118.491 15.4098 118.836 15.1588 118.957 14.7879L120.144 11.1343Z" fill="#FFCC00"/>
<path d="M139.144 11.1343C139.413 10.3052 140.587 10.3052 140.856 11.1343L142.043 14.7879C142.164 15.1588 142.509 15.4098 142.899 15.4098H146.741C147.613 15.4098 147.975 16.5255 147.27 17.0379L144.162 19.296C143.846 19.5252 143.714 19.9314 143.835 20.3022L145.022 23.9558C145.291 24.785 144.342 25.4745 143.637 24.9621L140.529 22.704C140.214 22.4748 139.786 22.4748 139.471 22.704L136.363 24.9621C135.658 25.4745 134.709 24.785 134.978 23.9558L136.165 20.3022C136.286 19.9314 136.154 19.5252 135.838 19.296L132.73 17.0379C132.025 16.5255 132.387 15.4098 133.259 15.4098H137.101C137.491 15.4098 137.836 15.1588 137.957 14.7879L139.144 11.1343Z" fill="#FFCC00"/>
<path d="M158.144 11.1343C158.413 10.3052 159.587 10.3052 159.856 11.1343L161.043 14.7879C161.164 15.1588 161.509 15.4098 161.899 15.4098H165.741C166.613 15.4098 166.975 16.5255 166.27 17.0379L163.162 19.296C162.846 19.5252 162.714 19.9314 162.835 20.3022L164.022 23.9558C164.291 24.785 163.342 25.4745 162.637 24.9621L159.529 22.704C159.214 22.4748 158.786 22.4748 158.471 22.704L155.363 24.9621C154.658 25.4745 153.709 24.785 153.978 23.9558L155.165 20.3022C155.286 19.9314 155.154 19.5252 154.838 19.296L151.73 17.0379C151.025 16.5255 151.387 15.4098 152.259 15.4098H156.101C156.491 15.4098 156.836 15.1588 156.957 14.7879L158.144 11.1343Z" fill="url(#paint0_linear_244_958)"/>
<path d="M17.9688 44.5V36.5H20.6719C21.2995 36.5 21.8125 36.6133 22.2109 36.8398C22.612 37.0638 22.9089 37.3672 23.1016 37.75C23.2943 38.1328 23.3906 38.5599 23.3906 39.0312C23.3906 39.5026 23.2943 39.931 23.1016 40.3164C22.9115 40.7018 22.6172 41.0091 22.2188 41.2383C21.8203 41.4648 21.3099 41.5781 20.6875 41.5781H18.75V40.7188H20.6563C21.0859 40.7188 21.431 40.6445 21.6914 40.4961C21.9518 40.3477 22.1406 40.1471 22.2578 39.8945C22.3776 39.6393 22.4375 39.3516 22.4375 39.0312C22.4375 38.7109 22.3776 38.4245 22.2578 38.1719C22.1406 37.9193 21.9505 37.7214 21.6875 37.5781C21.4245 37.4323 21.0755 37.3594 20.6406 37.3594H18.9375V44.5H17.9688ZM27.2773 44.625C26.6992 44.625 26.2005 44.4974 25.7812 44.2422C25.3646 43.9844 25.043 43.625 24.8164 43.1641C24.5924 42.7005 24.4805 42.1615 24.4805 41.5469C24.4805 40.9323 24.5924 40.3906 24.8164 39.9219C25.043 39.4505 25.3581 39.0833 25.7617 38.8203C26.168 38.5547 26.6419 38.4219 27.1836 38.4219C27.4961 38.4219 27.8047 38.474 28.1094 38.5781C28.4141 38.6823 28.6914 38.8516 28.9414 39.0859C29.1914 39.3177 29.3906 39.625 29.5391 40.0078C29.6875 40.3906 29.7617 40.862 29.7617 41.4219V41.8125H25.1367V41.0156H28.8242C28.8242 40.6771 28.7565 40.375 28.6211 40.1094C28.4883 39.8437 28.2982 39.6341 28.0508 39.4805C27.806 39.3268 27.5169 39.25 27.1836 39.25C26.8164 39.25 26.4987 39.3411 26.2305 39.5234C25.9648 39.7031 25.7604 39.9375 25.6172 40.2266C25.474 40.5156 25.4023 40.8255 25.4023 41.1562V41.6875C25.4023 42.1406 25.4805 42.5247 25.6367 42.8398C25.7956 43.1523 26.0156 43.3906 26.2969 43.5547C26.5781 43.7161 26.9049 43.7969 27.2773 43.7969C27.5195 43.7969 27.7383 43.763 27.9336 43.6953C28.1315 43.625 28.3021 43.5208 28.4453 43.3828C28.5885 43.2422 28.6992 43.0677 28.7773 42.8594L29.668 43.1094C29.5742 43.4115 29.4167 43.6771 29.1953 43.9062C28.974 44.1328 28.7005 44.3099 28.375 44.4375C28.0495 44.5625 27.6836 44.625 27.2773 44.625ZM32.0859 43.1406L34.9766 38.5H36.0391V44.5H35.1172V39.8594L32.2422 44.5H31.1641V38.5H32.0859V43.1406ZM34.3672 36.5H35.2266C35.2266 36.9219 35.0807 37.2669 34.7891 37.5352C34.4974 37.8034 34.1016 37.9375 33.6016 37.9375C33.1094 37.9375 32.7174 37.8034 32.4258 37.5352C32.1367 37.2669 31.9922 36.9219 31.9922 36.5H32.8516C32.8516 36.7031 32.9076 36.8815 33.0195 37.0352C33.1341 37.1888 33.3281 37.2656 33.6016 37.2656C33.875 37.2656 34.0703 37.1888 34.1875 37.0352C34.3073 36.8815 34.3672 36.7031 34.3672 36.5ZM36.9111 39.3594V38.5H41.7861V39.3594H39.8174V44.5H38.8955V39.3594H36.9111ZM44.0527 43.1406L46.9434 38.5H48.0059V44.5H47.084V39.8594L44.209 44.5H43.1309V38.5H44.0527V43.1406ZM53.71 41.0781V41.9375H50.3975V41.0781H53.71ZM50.6162 38.5V44.5H49.6943V38.5H50.6162ZM54.4131 38.5V44.5H53.4912V38.5H54.4131ZM59.7998 38.5V39.3594H57.0186V44.5H56.0967V38.5H59.7998ZM66.6768 44.625C66.1351 44.625 65.6598 44.4961 65.251 44.2383C64.8447 43.9805 64.527 43.6198 64.2979 43.1562C64.0713 42.6927 63.958 42.151 63.958 41.5312C63.958 40.9062 64.0713 40.3607 64.2979 39.8945C64.527 39.4284 64.8447 39.0664 65.251 38.8086C65.6598 38.5508 66.1351 38.4219 66.6768 38.4219C67.2184 38.4219 67.6924 38.5508 68.0986 38.8086C68.5075 39.0664 68.8252 39.4284 69.0518 39.8945C69.2809 40.3607 69.3955 40.9062 69.3955 41.5312C69.3955 42.151 69.2809 42.6927 69.0518 43.1562C68.8252 43.6198 68.5075 43.9805 68.0986 44.2383C67.6924 44.4961 67.2184 44.625 66.6768 44.625ZM66.6768 43.7969C67.0882 43.7969 67.4268 43.6914 67.6924 43.4805C67.958 43.2695 68.1546 42.9922 68.2822 42.6484C68.4098 42.3047 68.4736 41.9323 68.4736 41.5312C68.4736 41.1302 68.4098 40.7565 68.2822 40.4102C68.1546 40.0638 67.958 39.7839 67.6924 39.5703C67.4268 39.3568 67.0882 39.25 66.6768 39.25C66.2653 39.25 65.9268 39.3568 65.6611 39.5703C65.3955 39.7839 65.1989 40.0638 65.0713 40.4102C64.9437 40.7565 64.8799 41.1302 64.8799 41.5312C64.8799 41.9323 64.9437 42.3047 65.0713 42.6484C65.1989 42.9922 65.3955 43.2695 65.6611 43.4805C65.9268 43.6914 66.2653 43.7969 66.6768 43.7969ZM70.8027 46.75V38.5H71.6934V39.4531H71.8027C71.8704 39.349 71.9642 39.2161 72.084 39.0547C72.2064 38.8906 72.3809 38.7448 72.6074 38.6172C72.8366 38.487 73.1465 38.4219 73.5371 38.4219C74.0423 38.4219 74.4876 38.5482 74.873 38.8008C75.2585 39.0534 75.5592 39.4115 75.7754 39.875C75.9915 40.3385 76.0996 40.8854 76.0996 41.5156C76.0996 42.151 75.9915 42.7018 75.7754 43.168C75.5592 43.6315 75.2598 43.9909 74.877 44.2461C74.4941 44.4987 74.0527 44.625 73.5527 44.625C73.1673 44.625 72.8587 44.5612 72.627 44.4336C72.3952 44.3034 72.2168 44.1562 72.0918 43.9922C71.9668 43.8255 71.8704 43.6875 71.8027 43.5781H71.7246V46.75H70.8027ZM71.709 41.5C71.709 41.9531 71.7754 42.3529 71.9082 42.6992C72.041 43.043 72.235 43.3125 72.4902 43.5078C72.7454 43.7005 73.0579 43.7969 73.4277 43.7969C73.8132 43.7969 74.1348 43.6953 74.3926 43.4922C74.653 43.2865 74.8483 43.0104 74.9785 42.6641C75.1113 42.3151 75.1777 41.9271 75.1777 41.5C75.1777 41.0781 75.1126 40.6979 74.9824 40.3594C74.8548 40.0182 74.6608 39.7487 74.4004 39.5508C74.1426 39.3503 73.8184 39.25 73.4277 39.25C73.0527 39.25 72.7376 39.3451 72.4824 39.5352C72.2272 39.7227 72.0345 39.9857 71.9043 40.3242C71.7741 40.6602 71.709 41.0521 71.709 41.5ZM81.209 38.5V39.3594H78.4277V44.5H77.5059V38.5H81.209ZM84.0088 44.6406C83.6286 44.6406 83.2835 44.569 82.9736 44.4258C82.6637 44.2799 82.4176 44.0703 82.2354 43.7969C82.0531 43.5208 81.9619 43.1875 81.9619 42.7969C81.9619 42.4531 82.0296 42.1745 82.165 41.9609C82.3005 41.7448 82.4814 41.5755 82.708 41.4531C82.9346 41.3307 83.1846 41.2396 83.458 41.1797C83.734 41.1172 84.0114 41.0677 84.29 41.0313C84.6546 40.9844 84.9502 40.9492 85.1768 40.9258C85.4059 40.8997 85.5726 40.8568 85.6768 40.7969C85.7835 40.737 85.8369 40.6328 85.8369 40.4844V40.4531C85.8369 40.0677 85.7314 39.7682 85.5205 39.5547C85.3122 39.3411 84.9958 39.2344 84.5713 39.2344C84.1312 39.2344 83.7861 39.3307 83.5361 39.5234C83.2861 39.7161 83.1104 39.9219 83.0088 40.1406L82.1338 39.8281C82.29 39.4635 82.4984 39.1797 82.7588 38.9766C83.0218 38.7708 83.3083 38.6276 83.6182 38.5469C83.9307 38.4635 84.238 38.4219 84.54 38.4219C84.7327 38.4219 84.9541 38.4453 85.2041 38.4922C85.4567 38.5365 85.7002 38.6289 85.9346 38.7695C86.1715 38.9102 86.3682 39.1224 86.5244 39.4062C86.6807 39.6901 86.7588 40.0703 86.7588 40.5469V44.5H85.8369V43.6875H85.79C85.7275 43.8177 85.6234 43.957 85.4775 44.1055C85.3317 44.2539 85.1377 44.3802 84.8955 44.4844C84.6533 44.5885 84.3577 44.6406 84.0088 44.6406ZM84.1494 43.8125C84.514 43.8125 84.8213 43.7409 85.0713 43.5977C85.3239 43.4544 85.514 43.2695 85.6416 43.043C85.7718 42.8164 85.8369 42.5781 85.8369 42.3281V41.4844C85.7979 41.5312 85.7119 41.5742 85.5791 41.6133C85.4489 41.6497 85.2979 41.6823 85.126 41.7109C84.9567 41.737 84.7913 41.7604 84.6299 41.7812C84.471 41.7995 84.3421 41.8151 84.2432 41.8281C84.0036 41.8594 83.7796 41.9102 83.5713 41.9805C83.3656 42.0482 83.1989 42.151 83.0713 42.2891C82.9463 42.4245 82.8838 42.6094 82.8838 42.8437C82.8838 43.1641 83.0023 43.4062 83.2393 43.5703C83.4788 43.7318 83.7822 43.8125 84.1494 43.8125ZM92.457 41.0781V41.9375H89.1445V41.0781H92.457ZM89.3633 38.5V44.5H88.4414V38.5H89.3633ZM93.1602 38.5V44.5H92.2383V38.5H93.1602ZM95.7656 43.1406L98.6563 38.5H99.7188V44.5H98.7969V39.8594L95.9219 44.5H94.8438V38.5H95.7656V43.1406ZM101.032 42.9687H102.017C102.037 43.2396 102.16 43.4453 102.384 43.5859C102.61 43.7266 102.905 43.7969 103.267 43.7969C103.636 43.7969 103.953 43.7214 104.216 43.5703C104.479 43.4167 104.61 43.1693 104.61 42.8281C104.61 42.6276 104.561 42.4531 104.462 42.3047C104.363 42.1536 104.224 42.0365 104.044 41.9531C103.864 41.8698 103.652 41.8281 103.407 41.8281H102.376V41H103.407C103.774 41 104.045 40.9167 104.22 40.75C104.397 40.5833 104.485 40.375 104.485 40.125C104.485 39.8568 104.39 39.6419 104.2 39.4805C104.01 39.3164 103.741 39.2344 103.392 39.2344C103.04 39.2344 102.747 39.3138 102.513 39.4727C102.278 39.6289 102.155 39.8307 102.142 40.0781H101.173C101.183 39.7552 101.282 39.4701 101.47 39.2227C101.657 38.9727 101.912 38.7773 102.235 38.6367C102.558 38.4935 102.928 38.4219 103.345 38.4219C103.767 38.4219 104.132 38.4961 104.442 38.6445C104.755 38.7904 104.996 38.9896 105.165 39.2422C105.337 39.4922 105.423 39.776 105.423 40.0937C105.423 40.4323 105.328 40.7057 105.138 40.9141C104.948 41.1224 104.709 41.2708 104.423 41.3594V41.4219C104.649 41.4375 104.846 41.5104 105.013 41.6406C105.182 41.7682 105.313 41.9362 105.407 42.1445C105.501 42.3503 105.548 42.5781 105.548 42.8281C105.548 43.1927 105.45 43.5104 105.255 43.7812C105.06 44.0495 104.791 44.2578 104.45 44.4062C104.109 44.5521 103.72 44.625 103.282 44.625C102.858 44.625 102.478 44.556 102.142 44.418C101.806 44.2773 101.539 44.0833 101.341 43.8359C101.146 43.5859 101.043 43.2969 101.032 42.9687ZM108.608 44.6406C108.228 44.6406 107.883 44.569 107.573 44.4258C107.263 44.2799 107.017 44.0703 106.835 43.7969C106.653 43.5208 106.562 43.1875 106.562 42.7969C106.562 42.4531 106.629 42.1745 106.765 41.9609C106.9 41.7448 107.081 41.5755 107.308 41.4531C107.534 41.3307 107.784 41.2396 108.058 41.1797C108.334 41.1172 108.611 41.0677 108.89 41.0313C109.254 40.9844 109.55 40.9492 109.776 40.9258C110.006 40.8997 110.172 40.8568 110.276 40.7969C110.383 40.737 110.437 40.6328 110.437 40.4844V40.4531C110.437 40.0677 110.331 39.7682 110.12 39.5547C109.912 39.3411 109.595 39.2344 109.171 39.2344C108.731 39.2344 108.386 39.3307 108.136 39.5234C107.886 39.7161 107.71 39.9219 107.608 40.1406L106.733 39.8281C106.89 39.4635 107.098 39.1797 107.358 38.9766C107.621 38.7708 107.908 38.6276 108.218 38.5469C108.53 38.4635 108.838 38.4219 109.14 38.4219C109.332 38.4219 109.554 38.4453 109.804 38.4922C110.056 38.5365 110.3 38.6289 110.534 38.7695C110.771 38.9102 110.968 39.1224 111.124 39.4062C111.28 39.6901 111.358 40.0703 111.358 40.5469V44.5H110.437V43.6875H110.39C110.327 43.8177 110.223 43.957 110.077 44.1055C109.931 44.2539 109.737 44.3802 109.495 44.4844C109.253 44.5885 108.957 44.6406 108.608 44.6406ZM108.749 43.8125C109.114 43.8125 109.421 43.7409 109.671 43.5977C109.924 43.4544 110.114 43.2695 110.241 43.043C110.371 42.8164 110.437 42.5781 110.437 42.3281V41.4844C110.397 41.5312 110.312 41.5742 110.179 41.6133C110.049 41.6497 109.897 41.6823 109.726 41.7109C109.556 41.737 109.391 41.7604 109.229 41.7812C109.071 41.7995 108.942 41.8151 108.843 41.8281C108.603 41.8594 108.379 41.9102 108.171 41.9805C107.965 42.0482 107.799 42.151 107.671 42.2891C107.546 42.4245 107.483 42.6094 107.483 42.8437C107.483 43.1641 107.602 43.4062 107.839 43.5703C108.078 43.7318 108.382 43.8125 108.749 43.8125ZM117.76 38.5V43.6406H118.604V46.4375H117.682V44.5H113.041V38.5H113.963V43.6406H116.838V38.5H117.76ZM120.945 43.1406L123.836 38.5H124.898V44.5H123.977V39.8594L121.102 44.5H120.023V38.5H120.945V43.1406ZM127.509 43.1406L130.399 38.5H131.462V44.5H130.54V39.8594L127.665 44.5H126.587V38.5H127.509V43.1406ZM136.244 44.5V38.5H138.697C139.343 38.5 139.856 38.6458 140.236 38.9375C140.617 39.2292 140.807 39.6146 140.807 40.0937C140.807 40.4583 140.699 40.7409 140.482 40.9414C140.266 41.1393 139.989 41.2734 139.65 41.3438C139.872 41.375 140.087 41.4531 140.295 41.5781C140.506 41.7031 140.68 41.875 140.818 42.0938C140.956 42.3099 141.025 42.5755 141.025 42.8906C141.025 43.1979 140.947 43.4727 140.791 43.7148C140.635 43.957 140.411 44.1484 140.119 44.2891C139.827 44.4297 139.479 44.5 139.072 44.5H136.244ZM137.119 43.6562H139.072C139.39 43.6562 139.639 43.5807 139.818 43.4297C139.998 43.2786 140.088 43.0729 140.088 42.8125C140.088 42.5026 139.998 42.2591 139.818 42.082C139.639 41.9023 139.39 41.8125 139.072 41.8125H137.119V43.6562ZM137.119 41.0156H138.697C138.945 41.0156 139.157 40.9818 139.334 40.9141C139.511 40.8437 139.646 40.7448 139.74 40.6172C139.837 40.487 139.885 40.3333 139.885 40.1562C139.885 39.9036 139.779 39.7057 139.568 39.5625C139.357 39.4167 139.067 39.3438 138.697 39.3438H137.119V41.0156ZM151.077 44.5H150.108V37.3594H148.405C147.973 37.3594 147.625 37.4258 147.362 37.5586C147.099 37.6888 146.908 37.8737 146.788 38.1133C146.668 38.3529 146.608 38.6328 146.608 38.9531C146.608 39.2734 146.667 39.5495 146.784 39.7812C146.904 40.0104 147.094 40.1875 147.354 40.3125C147.618 40.4375 147.963 40.5 148.39 40.5H150.546V41.375H148.358C147.739 41.375 147.229 41.2721 146.831 41.0664C146.433 40.8581 146.137 40.5716 145.944 40.207C145.752 39.8424 145.655 39.4245 145.655 38.9531C145.655 38.4818 145.752 38.0612 145.944 37.6914C146.137 37.3216 146.434 37.0312 146.835 36.8203C147.236 36.6068 147.749 36.5 148.374 36.5H151.077V44.5ZM147.312 40.9062H148.405L146.468 44.5H145.343L147.312 40.9062ZM156.91 41.0781V41.9375H153.598V41.0781H156.91ZM153.816 38.5V44.5H152.895V38.5H153.816ZM157.613 38.5V44.5H156.691V38.5H157.613ZM158.656 46.2188V43.6406H159.156C159.279 43.513 159.384 43.375 159.473 43.2266C159.561 43.0781 159.638 42.9023 159.703 42.6992C159.771 42.4935 159.828 42.2435 159.875 41.9492C159.922 41.6523 159.964 41.2943 160 40.875L160.203 38.5H164.016V43.6406H164.937V46.2188H164.016V44.5H159.578V46.2188H158.656ZM160.203 43.6406H163.094V39.3594H161.063L160.906 40.875C160.841 41.5026 160.76 42.0508 160.664 42.5195C160.568 42.9883 160.414 43.362 160.203 43.6406ZM168.677 44.625C168.099 44.625 167.6 44.4974 167.181 44.2422C166.764 43.9844 166.442 43.625 166.216 43.1641C165.992 42.7005 165.88 42.1615 165.88 41.5469C165.88 40.9323 165.992 40.3906 166.216 39.9219C166.442 39.4505 166.757 39.0833 167.161 38.8203C167.567 38.5547 168.041 38.4219 168.583 38.4219C168.896 38.4219 169.204 38.474 169.509 38.5781C169.813 38.6823 170.091 38.8516 170.341 39.0859C170.591 39.3177 170.79 39.625 170.938 40.0078C171.087 40.3906 171.161 40.862 171.161 41.4219V41.8125H166.536V41.0156H170.224C170.224 40.6771 170.156 40.375 170.021 40.1094C169.888 39.8437 169.698 39.6341 169.45 39.4805C169.205 39.3268 168.916 39.25 168.583 39.25C168.216 39.25 167.898 39.3411 167.63 39.5234C167.364 39.7031 167.16 39.9375 167.017 40.2266C166.873 40.5156 166.802 40.8255 166.802 41.1562V41.6875C166.802 42.1406 166.88 42.5247 167.036 42.8398C167.195 43.1523 167.415 43.3906 167.696 43.5547C167.978 43.7161 168.304 43.7969 168.677 43.7969C168.919 43.7969 169.138 43.763 169.333 43.6953C169.531 43.625 169.701 43.5208 169.845 43.3828C169.988 43.2422 170.099 43.0677 170.177 42.8594L171.067 43.1094C170.974 43.4115 170.816 43.6771 170.595 43.9062C170.373 44.1328 170.1 44.3099 169.774 44.4375C169.449 44.5625 169.083 44.625 168.677 44.625ZM172.563 44.5V38.5H173.485V41.1094H174.095L176.251 38.5H177.438L175.017 41.3906L177.47 44.5H176.282L174.313 41.9687H173.485V44.5H172.563ZM180.662 44.625C180.1 44.625 179.615 44.4922 179.209 44.2266C178.803 43.9609 178.49 43.5951 178.271 43.1289C178.053 42.6628 177.943 42.1302 177.943 41.5312C177.943 40.9219 178.055 40.3841 178.279 39.918C178.506 39.4492 178.821 39.0833 179.225 38.8203C179.631 38.5547 180.105 38.4219 180.646 38.4219C181.068 38.4219 181.449 38.5 181.787 38.6562C182.126 38.8125 182.403 39.0312 182.619 39.3125C182.835 39.5937 182.969 39.9219 183.021 40.2969H182.1C182.029 40.0234 181.873 39.7812 181.631 39.5703C181.391 39.3568 181.068 39.25 180.662 39.25C180.303 39.25 179.988 39.3437 179.717 39.5312C179.449 39.7161 179.239 39.9779 179.088 40.3164C178.939 40.6523 178.865 41.0469 178.865 41.5C178.865 41.9635 178.938 42.3672 179.084 42.7109C179.232 43.0547 179.441 43.3216 179.709 43.5117C179.98 43.7018 180.298 43.7969 180.662 43.7969C180.902 43.7969 181.119 43.7552 181.314 43.6719C181.51 43.5885 181.675 43.4688 181.811 43.3125C181.946 43.1562 182.042 42.9687 182.1 42.75H183.021C182.969 43.1042 182.84 43.4232 182.635 43.707C182.432 43.9883 182.162 44.2122 181.826 44.3789C181.493 44.543 181.105 44.625 180.662 44.625ZM186.885 44.625C186.307 44.625 185.808 44.4974 185.389 44.2422C184.972 43.9844 184.65 43.625 184.424 43.1641C184.2 42.7005 184.088 42.1615 184.088 41.5469C184.088 40.9323 184.2 40.3906 184.424 39.9219C184.65 39.4505 184.965 39.0833 185.369 38.8203C185.775 38.5547 186.249 38.4219 186.791 38.4219C187.104 38.4219 187.412 38.474 187.717 38.5781C188.021 38.6823 188.299 38.8516 188.549 39.0859C188.799 39.3177 188.998 39.625 189.146 40.0078C189.295 40.3906 189.369 40.862 189.369 41.4219V41.8125H184.744V41.0156H188.432C188.432 40.6771 188.364 40.375 188.229 40.1094C188.096 39.8437 187.906 39.6341 187.658 39.4805C187.413 39.3268 187.124 39.25 186.791 39.25C186.424 39.25 186.106 39.3411 185.838 39.5234C185.572 39.7031 185.368 39.9375 185.225 40.2266C185.081 40.5156 185.01 40.8255 185.01 41.1562V41.6875C185.01 42.1406 185.088 42.5247 185.244 42.8398C185.403 43.1523 185.623 43.3906 185.904 43.5547C186.186 43.7161 186.512 43.7969 186.885 43.7969C187.127 43.7969 187.346 43.763 187.541 43.6953C187.739 43.625 187.91 43.5208 188.053 43.3828C188.196 43.2422 188.307 43.0677 188.385 42.8594L189.275 43.1094C189.182 43.4115 189.024 43.6771 188.803 43.9062C188.581 44.1328 188.308 44.3099 187.982 44.4375C187.657 44.5625 187.291 44.625 186.885 44.625Z" fill="#283B2B"/>
<defs>
<linearGradient id="paint0_linear_244_958" x1="149" y1="17" x2="169" y2="17" gradientUnits="userSpaceOnUse">
<stop offset="0.494792" stop-color="#FFCC00"/>
<stop offset="0.494892" stop-color="#B7C0C2"/>
</linearGradient>
</defs>
</svg>
