<svg width="189" height="56" viewBox="0 0 189 56" fill="none" xmlns="http://www.w3.org/2000/svg">
<rect x="0.5" y="0.5" width="188" height="55" rx="9.5" stroke="#B3B7B4"/>
<rect x="18" y="9" width="19" height="19" rx="9.5" fill="#447BBA"/>
<path d="M26.9765 21.4436H27.5775C27.5775 21.4436 27.7592 21.424 27.8517 21.3267C27.9372 21.2373 27.934 21.0696 27.934 21.0696C27.934 21.0696 27.9221 20.2841 28.2968 20.1684C28.6658 20.0546 29.1399 20.9275 29.6423 21.2636C30.022 21.5177 30.3106 21.462 30.3106 21.462L31.6542 21.4436C31.6542 21.4436 32.3571 21.4014 32.0239 20.8633C31.9968 20.8192 31.8296 20.4653 31.0248 19.7381C30.1823 18.9765 30.2955 19.1002 31.3103 17.7834C31.9283 16.9815 32.1754 16.4917 32.098 16.2824C32.0245 16.0828 31.5699 16.1355 31.5699 16.1355L30.0585 16.144C30.0585 16.144 29.9466 16.1293 29.8629 16.1777C29.7818 16.2254 29.7296 16.3356 29.7296 16.3356C29.7296 16.3356 29.4901 16.9564 29.1707 17.4841C28.4973 18.5976 28.2276 18.6564 28.1176 18.5872C27.8617 18.4262 27.9258 17.9395 27.9258 17.5943C27.9258 16.515 28.0937 16.0651 27.5983 15.9487C27.4336 15.9102 27.3128 15.8845 26.8922 15.8802C26.3528 15.8747 25.8957 15.882 25.6373 16.0051C25.465 16.0871 25.3324 16.2701 25.4135 16.2805C25.5134 16.2934 25.7398 16.3399 25.8599 16.4991C26.0152 16.7042 26.0095 17.1657 26.0095 17.1657C26.0095 17.1657 26.0988 18.436 25.8014 18.5939C25.5971 18.7023 25.3173 18.4813 24.7168 17.4706C24.4094 16.9533 24.1768 16.3809 24.1768 16.3809C24.1768 16.3809 24.1321 16.2744 24.0523 16.2175C23.9555 16.1483 23.8197 16.1263 23.8197 16.1263L22.3824 16.1348C22.3824 16.1348 22.1667 16.141 22.0875 16.2322C22.0171 16.3136 22.0819 16.4813 22.0819 16.4813C22.0819 16.4813 23.2073 19.0445 24.4811 20.3368C25.6499 21.5213 26.9765 21.4436 26.9765 21.4436Z" fill="#F1F6F2"/>
<path d="M48.0795 24.1591C47.322 24.1591 46.6439 24.017 46.0455 23.733C45.447 23.4451 44.9716 23.0511 44.6193 22.5511C44.2708 22.0511 44.0852 21.4792 44.0625 20.8352H46.108C46.1458 21.3125 46.3523 21.7027 46.7273 22.0057C47.1023 22.3049 47.553 22.4545 48.0795 22.4545C48.4924 22.4545 48.8598 22.3598 49.1818 22.1705C49.5038 21.9811 49.7576 21.7178 49.9432 21.3807C50.1288 21.0436 50.2197 20.6591 50.2159 20.2273C50.2197 19.7879 50.1269 19.3977 49.9375 19.0568C49.7481 18.7159 49.4886 18.4489 49.1591 18.2557C48.8295 18.0587 48.4508 17.9602 48.0227 17.9602C47.6742 17.9564 47.3314 18.0208 46.9943 18.1534C46.6572 18.286 46.3902 18.4602 46.1932 18.6761L44.2898 18.3636L44.8977 12.3636H51.6477V14.125H46.642L46.3068 17.2102H46.375C46.5909 16.9564 46.8958 16.7462 47.2898 16.5795C47.6837 16.4091 48.1155 16.3239 48.5852 16.3239C49.2898 16.3239 49.9186 16.4905 50.4716 16.8239C51.0246 17.1534 51.4602 17.608 51.7784 18.1875C52.0966 18.767 52.2557 19.4299 52.2557 20.1761C52.2557 20.9451 52.0777 21.6307 51.7216 22.233C51.3693 22.8314 50.8788 23.303 50.25 23.6477C49.625 23.9886 48.9015 24.1591 48.0795 24.1591ZM56.206 22.4091L56.1321 23.0341C56.0791 23.5114 55.9844 23.9962 55.848 24.4886C55.7154 24.9848 55.5753 25.4413 55.4276 25.858C55.2798 26.2746 55.1605 26.6023 55.0696 26.8409H53.6832C53.7363 26.6098 53.8082 26.2955 53.8991 25.8977C53.9938 25.5 54.0848 25.053 54.1719 24.5568C54.259 24.0606 54.3177 23.5568 54.348 23.0455L54.3878 22.4091H56.206ZM62.3352 24.2216C61.3996 24.2216 60.5966 23.9848 59.9261 23.5114C59.2595 23.0341 58.7462 22.3466 58.3864 21.4489C58.0303 20.5473 57.8523 19.4621 57.8523 18.1932C57.8561 16.9242 58.036 15.8447 58.392 14.9545C58.7519 14.0606 59.2652 13.3788 59.9318 12.9091C60.6023 12.4394 61.4034 12.2045 62.3352 12.2045C63.267 12.2045 64.0682 12.4394 64.7386 12.9091C65.4091 13.3788 65.9223 14.0606 66.2784 14.9545C66.6383 15.8485 66.8182 16.928 66.8182 18.1932C66.8182 19.4659 66.6383 20.553 66.2784 21.4545C65.9223 22.3523 65.4091 23.0379 64.7386 23.5114C64.072 23.9848 63.2708 24.2216 62.3352 24.2216ZM62.3352 22.4432C63.0625 22.4432 63.6364 22.0852 64.0568 21.3693C64.4811 20.6496 64.6932 19.5909 64.6932 18.1932C64.6932 17.2689 64.5966 16.4924 64.4034 15.8636C64.2102 15.2348 63.9375 14.7614 63.5852 14.4432C63.233 14.1212 62.8163 13.9602 62.3352 13.9602C61.6117 13.9602 61.0398 14.3201 60.6193 15.0398C60.1989 15.7557 59.9867 16.8068 59.983 18.1932C59.9792 19.1212 60.072 19.9015 60.2614 20.5341C60.4545 21.1667 60.7273 21.6439 61.0795 21.9659C61.4318 22.2841 61.8504 22.4432 62.3352 22.4432Z" fill="#354042"/>
<path d="M86.144 11.1343C86.4135 10.3052 87.5865 10.3052 87.856 11.1343L89.0431 14.7879C89.1636 15.1588 89.5091 15.4098 89.899 15.4098H93.7407C94.6125 15.4098 94.975 16.5255 94.2697 17.0379L91.1617 19.296C90.8463 19.5252 90.7143 19.9314 90.8348 20.3022L92.0219 23.9558C92.2913 24.785 91.3423 25.4745 90.6369 24.9621L87.529 22.704C87.2136 22.4748 86.7864 22.4748 86.471 22.704L83.3631 24.9621C82.6577 25.4745 81.7087 24.785 81.9781 23.9558L83.1652 20.3022C83.2857 19.9314 83.1537 19.5252 82.8383 19.296L79.7303 17.0379C79.025 16.5255 79.3875 15.4098 80.2593 15.4098H84.101C84.4909 15.4098 84.8364 15.1588 84.9569 14.7879L86.144 11.1343Z" fill="#FFCC00"/>
<path d="M105.144 11.1343C105.413 10.3052 106.587 10.3052 106.856 11.1343L108.043 14.7879C108.164 15.1588 108.509 15.4098 108.899 15.4098H112.741C113.613 15.4098 113.975 16.5255 113.27 17.0379L110.162 19.296C109.846 19.5252 109.714 19.9314 109.835 20.3022L111.022 23.9558C111.291 24.785 110.342 25.4745 109.637 24.9621L106.529 22.704C106.214 22.4748 105.786 22.4748 105.471 22.704L102.363 24.9621C101.658 25.4745 100.709 24.785 100.978 23.9558L102.165 20.3022C102.286 19.9314 102.154 19.5252 101.838 19.296L98.7303 17.0379C98.025 16.5255 98.3875 15.4098 99.2593 15.4098H103.101C103.491 15.4098 103.836 15.1588 103.957 14.7879L105.144 11.1343Z" fill="#FFCC00"/>
<path d="M124.144 11.1343C124.413 10.3052 125.587 10.3052 125.856 11.1343L127.043 14.7879C127.164 15.1588 127.509 15.4098 127.899 15.4098H131.741C132.613 15.4098 132.975 16.5255 132.27 17.0379L129.162 19.296C128.846 19.5252 128.714 19.9314 128.835 20.3022L130.022 23.9558C130.291 24.785 129.342 25.4745 128.637 24.9621L125.529 22.704C125.214 22.4748 124.786 22.4748 124.471 22.704L121.363 24.9621C120.658 25.4745 119.709 24.785 119.978 23.9558L121.165 20.3022C121.286 19.9314 121.154 19.5252 120.838 19.296L117.73 17.0379C117.025 16.5255 117.387 15.4098 118.259 15.4098H122.101C122.491 15.4098 122.836 15.1588 122.957 14.7879L124.144 11.1343Z" fill="#FFCC00"/>
<path d="M143.144 11.1343C143.413 10.3052 144.587 10.3052 144.856 11.1343L146.043 14.7879C146.164 15.1588 146.509 15.4098 146.899 15.4098H150.741C151.613 15.4098 151.975 16.5255 151.27 17.0379L148.162 19.296C147.846 19.5252 147.714 19.9314 147.835 20.3022L149.022 23.9558C149.291 24.785 148.342 25.4745 147.637 24.9621L144.529 22.704C144.214 22.4748 143.786 22.4748 143.471 22.704L140.363 24.9621C139.658 25.4745 138.709 24.785 138.978 23.9558L140.165 20.3022C140.286 19.9314 140.154 19.5252 139.838 19.296L136.73 17.0379C136.025 16.5255 136.387 15.4098 137.259 15.4098H141.101C141.491 15.4098 141.836 15.1588 141.957 14.7879L143.144 11.1343Z" fill="#FFCC00"/>
<path d="M162.144 11.1343C162.413 10.3052 163.587 10.3052 163.856 11.1343L165.043 14.7879C165.164 15.1588 165.509 15.4098 165.899 15.4098H169.741C170.613 15.4098 170.975 16.5255 170.27 17.0379L167.162 19.296C166.846 19.5252 166.714 19.9314 166.835 20.3022L168.022 23.9558C168.291 24.785 167.342 25.4745 166.637 24.9621L163.529 22.704C163.214 22.4748 162.786 22.4748 162.471 22.704L159.363 24.9621C158.658 25.4745 157.709 24.785 157.978 23.9558L159.165 20.3022C159.286 19.9314 159.154 19.5252 158.838 19.296L155.73 17.0379C155.025 16.5255 155.387 15.4098 156.259 15.4098H160.101C160.491 15.4098 160.836 15.1588 160.957 14.7879L162.144 11.1343Z" fill="#FFCC00"/>
<path d="M18.9688 44.5V36.5H21.6719C22.2995 36.5 22.8125 36.6133 23.2109 36.8398C23.612 37.0638 23.9089 37.3672 24.1016 37.75C24.2943 38.1328 24.3906 38.5599 24.3906 39.0312C24.3906 39.5026 24.2943 39.931 24.1016 40.3164C23.9115 40.7018 23.6172 41.0091 23.2188 41.2383C22.8203 41.4648 22.3099 41.5781 21.6875 41.5781H19.75V40.7188H21.6563C22.0859 40.7188 22.431 40.6445 22.6914 40.4961C22.9518 40.3477 23.1406 40.1471 23.2578 39.8945C23.3776 39.6393 23.4375 39.3516 23.4375 39.0312C23.4375 38.7109 23.3776 38.4245 23.2578 38.1719C23.1406 37.9193 22.9505 37.7214 22.6875 37.5781C22.4245 37.4323 22.0755 37.3594 21.6406 37.3594H19.9375V44.5H18.9688ZM28.2773 44.625C27.6992 44.625 27.2005 44.4974 26.7812 44.2422C26.3646 43.9844 26.043 43.625 25.8164 43.1641C25.5924 42.7005 25.4805 42.1615 25.4805 41.5469C25.4805 40.9323 25.5924 40.3906 25.8164 39.9219C26.043 39.4505 26.3581 39.0833 26.7617 38.8203C27.168 38.5547 27.6419 38.4219 28.1836 38.4219C28.4961 38.4219 28.8047 38.474 29.1094 38.5781C29.4141 38.6823 29.6914 38.8516 29.9414 39.0859C30.1914 39.3177 30.3906 39.625 30.5391 40.0078C30.6875 40.3906 30.7617 40.862 30.7617 41.4219V41.8125H26.1367V41.0156H29.8242C29.8242 40.6771 29.7565 40.375 29.6211 40.1094C29.4883 39.8437 29.2982 39.6341 29.0508 39.4805C28.806 39.3268 28.5169 39.25 28.1836 39.25C27.8164 39.25 27.4987 39.3411 27.2305 39.5234C26.9648 39.7031 26.7604 39.9375 26.6172 40.2266C26.474 40.5156 26.4023 40.8255 26.4023 41.1562V41.6875C26.4023 42.1406 26.4805 42.5247 26.6367 42.8398C26.7956 43.1523 27.0156 43.3906 27.2969 43.5547C27.5781 43.7161 27.9049 43.7969 28.2773 43.7969C28.5195 43.7969 28.7383 43.763 28.9336 43.6953C29.1315 43.625 29.3021 43.5208 29.4453 43.3828C29.5885 43.2422 29.6992 43.0677 29.7773 42.8594L30.668 43.1094C30.5742 43.4115 30.4167 43.6771 30.1953 43.9062C29.974 44.1328 29.7005 44.3099 29.375 44.4375C29.0495 44.5625 28.6836 44.625 28.2773 44.625ZM33.0859 43.1406L35.9766 38.5H37.0391V44.5H36.1172V39.8594L33.2422 44.5H32.1641V38.5H33.0859V43.1406ZM35.3672 36.5H36.2266C36.2266 36.9219 36.0807 37.2669 35.7891 37.5352C35.4974 37.8034 35.1016 37.9375 34.6016 37.9375C34.1094 37.9375 33.7174 37.8034 33.4258 37.5352C33.1367 37.2669 32.9922 36.9219 32.9922 36.5H33.8516C33.8516 36.7031 33.9076 36.8815 34.0195 37.0352C34.1341 37.1888 34.3281 37.2656 34.6016 37.2656C34.875 37.2656 35.0703 37.1888 35.1875 37.0352C35.3073 36.8815 35.3672 36.7031 35.3672 36.5ZM37.9111 39.3594V38.5H42.7861V39.3594H40.8174V44.5H39.8955V39.3594H37.9111ZM45.0527 43.1406L47.9434 38.5H49.0059V44.5H48.084V39.8594L45.209 44.5H44.1309V38.5H45.0527V43.1406ZM54.71 41.0781V41.9375H51.3975V41.0781H54.71ZM51.6162 38.5V44.5H50.6943V38.5H51.6162ZM55.4131 38.5V44.5H54.4912V38.5H55.4131ZM60.7998 38.5V39.3594H58.0186V44.5H57.0967V38.5H60.7998ZM67.6768 44.625C67.1351 44.625 66.6598 44.4961 66.251 44.2383C65.8447 43.9805 65.527 43.6198 65.2979 43.1562C65.0713 42.6927 64.958 42.151 64.958 41.5312C64.958 40.9062 65.0713 40.3607 65.2979 39.8945C65.527 39.4284 65.8447 39.0664 66.251 38.8086C66.6598 38.5508 67.1351 38.4219 67.6768 38.4219C68.2184 38.4219 68.6924 38.5508 69.0986 38.8086C69.5075 39.0664 69.8252 39.4284 70.0518 39.8945C70.2809 40.3607 70.3955 40.9062 70.3955 41.5312C70.3955 42.151 70.2809 42.6927 70.0518 43.1562C69.8252 43.6198 69.5075 43.9805 69.0986 44.2383C68.6924 44.4961 68.2184 44.625 67.6768 44.625ZM67.6768 43.7969C68.0882 43.7969 68.4268 43.6914 68.6924 43.4805C68.958 43.2695 69.1546 42.9922 69.2822 42.6484C69.4098 42.3047 69.4736 41.9323 69.4736 41.5312C69.4736 41.1302 69.4098 40.7565 69.2822 40.4102C69.1546 40.0638 68.958 39.7839 68.6924 39.5703C68.4268 39.3568 68.0882 39.25 67.6768 39.25C67.2653 39.25 66.9268 39.3568 66.6611 39.5703C66.3955 39.7839 66.1989 40.0638 66.0713 40.4102C65.9437 40.7565 65.8799 41.1302 65.8799 41.5312C65.8799 41.9323 65.9437 42.3047 66.0713 42.6484C66.1989 42.9922 66.3955 43.2695 66.6611 43.4805C66.9268 43.6914 67.2653 43.7969 67.6768 43.7969ZM71.8027 46.75V38.5H72.6934V39.4531H72.8027C72.8704 39.349 72.9642 39.2161 73.084 39.0547C73.2064 38.8906 73.3809 38.7448 73.6074 38.6172C73.8366 38.487 74.1465 38.4219 74.5371 38.4219C75.0423 38.4219 75.4876 38.5482 75.873 38.8008C76.2585 39.0534 76.5592 39.4115 76.7754 39.875C76.9915 40.3385 77.0996 40.8854 77.0996 41.5156C77.0996 42.151 76.9915 42.7018 76.7754 43.168C76.5592 43.6315 76.2598 43.9909 75.877 44.2461C75.4941 44.4987 75.0527 44.625 74.5527 44.625C74.1673 44.625 73.8587 44.5612 73.627 44.4336C73.3952 44.3034 73.2168 44.1562 73.0918 43.9922C72.9668 43.8255 72.8704 43.6875 72.8027 43.5781H72.7246V46.75H71.8027ZM72.709 41.5C72.709 41.9531 72.7754 42.3529 72.9082 42.6992C73.041 43.043 73.235 43.3125 73.4902 43.5078C73.7454 43.7005 74.0579 43.7969 74.4277 43.7969C74.8132 43.7969 75.1348 43.6953 75.3926 43.4922C75.653 43.2865 75.8483 43.0104 75.9785 42.6641C76.1113 42.3151 76.1777 41.9271 76.1777 41.5C76.1777 41.0781 76.1126 40.6979 75.9824 40.3594C75.8548 40.0182 75.6608 39.7487 75.4004 39.5508C75.1426 39.3503 74.8184 39.25 74.4277 39.25C74.0527 39.25 73.7376 39.3451 73.4824 39.5352C73.2272 39.7227 73.0345 39.9857 72.9043 40.3242C72.7741 40.6602 72.709 41.0521 72.709 41.5ZM82.209 38.5V39.3594H79.4277V44.5H78.5059V38.5H82.209ZM85.0088 44.6406C84.6286 44.6406 84.2835 44.569 83.9736 44.4258C83.6637 44.2799 83.4176 44.0703 83.2354 43.7969C83.0531 43.5208 82.9619 43.1875 82.9619 42.7969C82.9619 42.4531 83.0296 42.1745 83.165 41.9609C83.3005 41.7448 83.4814 41.5755 83.708 41.4531C83.9346 41.3307 84.1846 41.2396 84.458 41.1797C84.734 41.1172 85.0114 41.0677 85.29 41.0313C85.6546 40.9844 85.9502 40.9492 86.1768 40.9258C86.4059 40.8997 86.5726 40.8568 86.6768 40.7969C86.7835 40.737 86.8369 40.6328 86.8369 40.4844V40.4531C86.8369 40.0677 86.7314 39.7682 86.5205 39.5547C86.3122 39.3411 85.9958 39.2344 85.5713 39.2344C85.1312 39.2344 84.7861 39.3307 84.5361 39.5234C84.2861 39.7161 84.1104 39.9219 84.0088 40.1406L83.1338 39.8281C83.29 39.4635 83.4984 39.1797 83.7588 38.9766C84.0218 38.7708 84.3083 38.6276 84.6182 38.5469C84.9307 38.4635 85.238 38.4219 85.54 38.4219C85.7327 38.4219 85.9541 38.4453 86.2041 38.4922C86.4567 38.5365 86.7002 38.6289 86.9346 38.7695C87.1715 38.9102 87.3682 39.1224 87.5244 39.4062C87.6807 39.6901 87.7588 40.0703 87.7588 40.5469V44.5H86.8369V43.6875H86.79C86.7275 43.8177 86.6234 43.957 86.4775 44.1055C86.3317 44.2539 86.1377 44.3802 85.8955 44.4844C85.6533 44.5885 85.3577 44.6406 85.0088 44.6406ZM85.1494 43.8125C85.514 43.8125 85.8213 43.7409 86.0713 43.5977C86.3239 43.4544 86.514 43.2695 86.6416 43.043C86.7718 42.8164 86.8369 42.5781 86.8369 42.3281V41.4844C86.7979 41.5312 86.7119 41.5742 86.5791 41.6133C86.4489 41.6497 86.2979 41.6823 86.126 41.7109C85.9567 41.737 85.7913 41.7604 85.6299 41.7812C85.471 41.7995 85.3421 41.8151 85.2432 41.8281C85.0036 41.8594 84.7796 41.9102 84.5713 41.9805C84.3656 42.0482 84.1989 42.151 84.0713 42.2891C83.9463 42.4245 83.8838 42.6094 83.8838 42.8437C83.8838 43.1641 84.0023 43.4062 84.2393 43.5703C84.4788 43.7318 84.7822 43.8125 85.1494 43.8125ZM93.457 41.0781V41.9375H90.1445V41.0781H93.457ZM90.3633 38.5V44.5H89.4414V38.5H90.3633ZM94.1602 38.5V44.5H93.2383V38.5H94.1602ZM96.7656 43.1406L99.6563 38.5H100.719V44.5H99.7969V39.8594L96.9219 44.5H95.8438V38.5H96.7656V43.1406ZM102.032 42.9687H103.017C103.037 43.2396 103.16 43.4453 103.384 43.5859C103.61 43.7266 103.905 43.7969 104.267 43.7969C104.636 43.7969 104.953 43.7214 105.216 43.5703C105.479 43.4167 105.61 43.1693 105.61 42.8281C105.61 42.6276 105.561 42.4531 105.462 42.3047C105.363 42.1536 105.224 42.0365 105.044 41.9531C104.864 41.8698 104.652 41.8281 104.407 41.8281H103.376V41H104.407C104.774 41 105.045 40.9167 105.22 40.75C105.397 40.5833 105.485 40.375 105.485 40.125C105.485 39.8568 105.39 39.6419 105.2 39.4805C105.01 39.3164 104.741 39.2344 104.392 39.2344C104.04 39.2344 103.747 39.3138 103.513 39.4727C103.278 39.6289 103.155 39.8307 103.142 40.0781H102.173C102.183 39.7552 102.282 39.4701 102.47 39.2227C102.657 38.9727 102.912 38.7773 103.235 38.6367C103.558 38.4935 103.928 38.4219 104.345 38.4219C104.767 38.4219 105.132 38.4961 105.442 38.6445C105.755 38.7904 105.996 38.9896 106.165 39.2422C106.337 39.4922 106.423 39.776 106.423 40.0937C106.423 40.4323 106.328 40.7057 106.138 40.9141C105.948 41.1224 105.709 41.2708 105.423 41.3594V41.4219C105.649 41.4375 105.846 41.5104 106.013 41.6406C106.182 41.7682 106.313 41.9362 106.407 42.1445C106.501 42.3503 106.548 42.5781 106.548 42.8281C106.548 43.1927 106.45 43.5104 106.255 43.7812C106.06 44.0495 105.791 44.2578 105.45 44.4062C105.109 44.5521 104.72 44.625 104.282 44.625C103.858 44.625 103.478 44.556 103.142 44.418C102.806 44.2773 102.539 44.0833 102.341 43.8359C102.146 43.5859 102.043 43.2969 102.032 42.9687ZM109.608 44.6406C109.228 44.6406 108.883 44.569 108.573 44.4258C108.263 44.2799 108.017 44.0703 107.835 43.7969C107.653 43.5208 107.562 43.1875 107.562 42.7969C107.562 42.4531 107.629 42.1745 107.765 41.9609C107.9 41.7448 108.081 41.5755 108.308 41.4531C108.534 41.3307 108.784 41.2396 109.058 41.1797C109.334 41.1172 109.611 41.0677 109.89 41.0313C110.254 40.9844 110.55 40.9492 110.776 40.9258C111.006 40.8997 111.172 40.8568 111.276 40.7969C111.383 40.737 111.437 40.6328 111.437 40.4844V40.4531C111.437 40.0677 111.331 39.7682 111.12 39.5547C110.912 39.3411 110.595 39.2344 110.171 39.2344C109.731 39.2344 109.386 39.3307 109.136 39.5234C108.886 39.7161 108.71 39.9219 108.608 40.1406L107.733 39.8281C107.89 39.4635 108.098 39.1797 108.358 38.9766C108.621 38.7708 108.908 38.6276 109.218 38.5469C109.53 38.4635 109.838 38.4219 110.14 38.4219C110.332 38.4219 110.554 38.4453 110.804 38.4922C111.056 38.5365 111.3 38.6289 111.534 38.7695C111.771 38.9102 111.968 39.1224 112.124 39.4062C112.28 39.6901 112.358 40.0703 112.358 40.5469V44.5H111.437V43.6875H111.39C111.327 43.8177 111.223 43.957 111.077 44.1055C110.931 44.2539 110.737 44.3802 110.495 44.4844C110.253 44.5885 109.957 44.6406 109.608 44.6406ZM109.749 43.8125C110.114 43.8125 110.421 43.7409 110.671 43.5977C110.924 43.4544 111.114 43.2695 111.241 43.043C111.371 42.8164 111.437 42.5781 111.437 42.3281V41.4844C111.397 41.5312 111.312 41.5742 111.179 41.6133C111.049 41.6497 110.897 41.6823 110.726 41.7109C110.556 41.737 110.391 41.7604 110.229 41.7812C110.071 41.7995 109.942 41.8151 109.843 41.8281C109.603 41.8594 109.379 41.9102 109.171 41.9805C108.965 42.0482 108.799 42.151 108.671 42.2891C108.546 42.4245 108.483 42.6094 108.483 42.8437C108.483 43.1641 108.602 43.4062 108.839 43.5703C109.078 43.7318 109.382 43.8125 109.749 43.8125ZM118.76 38.5V43.6406H119.604V46.4375H118.682V44.5H114.041V38.5H114.963V43.6406H117.838V38.5H118.76ZM121.945 43.1406L124.836 38.5H125.898V44.5H124.977V39.8594L122.102 44.5H121.023V38.5H121.945V43.1406ZM128.509 43.1406L131.399 38.5H132.462V44.5H131.54V39.8594L128.665 44.5H127.587V38.5H128.509V43.1406ZM137.244 44.5V38.5H139.697C140.343 38.5 140.856 38.6458 141.236 38.9375C141.617 39.2292 141.807 39.6146 141.807 40.0937C141.807 40.4583 141.699 40.7409 141.482 40.9414C141.266 41.1393 140.989 41.2734 140.65 41.3438C140.872 41.375 141.087 41.4531 141.295 41.5781C141.506 41.7031 141.68 41.875 141.818 42.0938C141.956 42.3099 142.025 42.5755 142.025 42.8906C142.025 43.1979 141.947 43.4727 141.791 43.7148C141.635 43.957 141.411 44.1484 141.119 44.2891C140.827 44.4297 140.479 44.5 140.072 44.5H137.244ZM138.119 43.6562H140.072C140.39 43.6562 140.639 43.5807 140.818 43.4297C140.998 43.2786 141.088 43.0729 141.088 42.8125C141.088 42.5026 140.998 42.2591 140.818 42.082C140.639 41.9023 140.39 41.8125 140.072 41.8125H138.119V43.6562ZM138.119 41.0156H139.697C139.945 41.0156 140.157 40.9818 140.334 40.9141C140.511 40.8437 140.646 40.7448 140.74 40.6172C140.837 40.487 140.885 40.3333 140.885 40.1562C140.885 39.9036 140.779 39.7057 140.568 39.5625C140.357 39.4167 140.067 39.3438 139.697 39.3438H138.119V41.0156ZM146.968 36.5L149.343 43.2344H149.437L151.812 36.5H152.827L149.89 44.5H148.89L145.952 36.5H146.968ZM154.073 44.5V36.5H155.042V40.4687H155.136L158.729 36.5H159.995L156.636 40.1094L159.995 44.5H158.823L156.042 40.7812L155.042 41.9062V44.5H154.073Z" fill="#283B2B"/>
</svg>
