<svg width="83" height="73" viewBox="0 0 83 73" fill="none" xmlns="http://www.w3.org/2000/svg">
<path d="M82.7065 20.3334L72.6306 13.3482L68.96 10.1887L68.9553 10.1761C68.9427 10.1479 68.927 10.1213 68.9128 10.0931C69.2443 9.71537 69.5615 9.35334 69.86 9.01169L70.017 8.83302C70.328 8.47726 70.3186 7.9491 69.9935 7.60588C69.4249 7.00563 67.9265 5.45407 66.2741 4.03103C64.7568 2.72553 63.2788 1.66921 62.5327 1.15516C62.0804 0.844852 61.4647 0.916944 61.0972 1.32599L60.1453 2.39171L57.5521 0.214825C57.1815 -0.10489 56.6207 -0.0625743 56.3003 0.307292L50.7574 6.71726C50.4668 7.05422 50.4951 7.55416 50.8234 7.85507L52.8668 9.73418C52.9249 9.78903 52.9595 9.86269 52.9626 9.94105C52.9673 10.0758 52.9736 10.2294 52.9846 10.4003L50.6302 13.0332L50.5846 13.0959C50.5375 13.1742 46.4207 20.0936 41.9899 26.4377C37.1223 20.5465 35.8846 15.6771 35.7339 15.0204C35.6946 14.8512 35.5972 14.6992 35.4574 14.5942C35.0019 14.2509 33.4375 13.0598 31.7585 11.6854C31.7726 11.1713 31.7051 10.709 31.6548 10.3689C31.5401 9.5994 32.3208 9.23267 32.3522 9.21856L32.4166 9.19035L33.2208 8.41927C33.37 8.27665 33.4532 8.08389 33.4532 7.87858C33.4532 7.6717 33.3747 7.47894 33.2271 7.33475L26.6852 0.923213C26.4103 0.65365 25.9752 0.633276 25.6752 0.876196L23.2423 2.8462C22.9313 2.47164 22.6564 2.14252 22.4302 1.88236C21.9197 1.29778 21.6119 0.943587 21.2475 1.21158L21.2067 1.24136C20.2533 1.93721 19.27 2.66911 18.4391 3.30227C17.1135 4.3147 14.7952 6.26903 14.4433 6.76585C14.2658 7.0166 14.2234 7.07929 15.5883 9.04616L0.2711 21.4571C0.118745 21.5793 0.024504 21.7548 0.0040852 21.9476C-0.0163336 22.1404 0.0402108 22.33 0.164294 22.4805C0.875811 23.3518 3.43602 26.4064 6.54281 29.1631C9.87422 32.1174 12.9732 33.5247 13.8449 33.8868C13.9407 33.9259 14.0412 33.9463 14.1418 33.9463C14.2564 33.9463 14.3711 33.9212 14.4763 33.8695C14.6742 33.7739 14.8234 33.5984 14.8847 33.3868C15.2397 32.1534 17.0287 25.9425 17.4527 24.742C17.9899 23.2249 20.2218 18.1126 21.2773 16.9842C21.2946 16.9654 21.3135 16.9497 21.3307 16.9309C23.4166 19.6986 26.4779 23.6621 28.4365 25.7732C30.8915 28.4171 33.4721 31.0657 36.304 33.846C29.1826 42.4485 16.98 56.0333 14.415 58.6976C12.2711 60.9246 9.45956 63.2739 7.97527 64.4759C7.35485 64.979 7.24962 65.899 7.74281 66.5259C8.3114 67.2484 9.27736 68.3595 10.6548 69.5459C12.2459 70.9157 13.7035 72.0222 14.4292 72.5597C14.6161 72.6976 14.8407 72.7697 15.0685 72.7697C15.1454 72.7697 15.2239 72.7619 15.3009 72.7446C15.6041 72.6773 15.8648 72.4814 16.0124 72.2087C16.6878 70.9611 18.1156 68.4551 20.093 65.6858C22.7396 61.9793 31.7051 51.9883 38.759 44.2587C39.7061 43.2212 41.049 41.7245 42.6605 39.9159C42.8113 40.0569 42.9605 40.1964 43.1129 40.3375C50.2014 46.9214 55.5919 52.4271 58.7034 56.2558C62.2123 60.5751 62.9301 67.7044 63.0652 69.7873C63.1893 71.6915 64.8259 72.1005 66.9039 72.1005C67.427 72.1005 67.9799 72.0739 68.5422 72.0394C72.2757 71.809 74.7699 68.673 74.9662 67.4411C75.2348 65.7548 72.7453 61.1613 67.9532 54.5068C62.4448 46.8571 56.9066 40.6917 48.6825 33.1157C53.1951 28.0049 58.3422 22.1482 62.7526 17.1205C62.9003 17.1817 63.0432 17.2788 63.2223 17.434C63.8961 18.0139 64.0265 21.2314 63.8191 23.1904C63.794 23.4333 63.7594 23.6982 63.7249 23.9756C63.5097 25.6792 63.2411 27.7996 64.1647 29.0628C65.1338 30.3856 67.6155 33.4683 67.65 33.5106L69.3825 35.5088C69.5113 35.6577 69.6982 35.7471 69.8961 35.7533C69.9039 35.7533 69.9118 35.7533 69.9212 35.7533C70.1097 35.7533 70.2919 35.6781 70.4254 35.5449C71.4353 34.5309 74.9348 30.9968 77.6018 28.0896C80.2673 25.1808 82.3217 22.1325 82.8872 21.2674C83.0913 20.9555 83.0112 20.5465 82.705 20.3334H82.7065ZM68.7966 7.53222C69.0511 7.79238 69.2584 8.01023 69.4029 8.16225C69.439 8.20143 69.4406 8.26098 69.406 8.30016L69.249 8.47883C68.9929 8.77033 68.7259 9.07594 68.4463 9.39566C68.371 9.31259 68.2909 9.23423 68.2045 9.16057L67.6296 8.67787C67.9484 8.18576 68.4652 7.76887 68.795 7.53222H68.7966ZM68.5657 7.29714C68.2217 7.54633 67.7191 7.96321 67.3814 8.46786L66.3652 7.61372C66.8223 7.00877 67.328 6.60285 67.6437 6.38501C67.9846 6.71413 68.2956 7.02287 68.5657 7.29714ZM66.9291 5.70797C67.0924 5.85999 67.2495 6.00887 67.4034 6.15463C67.0673 6.39284 66.571 6.80346 66.1155 7.40528L65.7573 7.10437C66.1626 6.51666 66.5725 6.0841 66.882 5.75498C66.8977 5.73774 66.9118 5.72364 66.9275 5.7064L66.9291 5.70797ZM66.6903 5.48855C66.6762 5.50423 66.6621 5.51833 66.6479 5.534C66.3338 5.86469 65.9223 6.30195 65.5092 6.89593L64.727 6.23926C65.2437 5.5387 65.5642 4.99331 65.7464 4.64695C66.0699 4.92435 66.3856 5.20802 66.6903 5.48855ZM65.4919 4.43067C65.3254 4.75509 65.0081 5.30675 64.4772 6.02925L63.4202 5.14063C63.4704 4.90398 63.6118 4.56232 63.9841 4.17051C64.1191 4.02946 64.1254 3.83042 63.9998 3.69878C63.8396 3.52952 63.4987 3.51228 63.0966 3.85237C62.85 4.06081 62.6537 4.23947 62.5076 4.37425L61.5291 3.55302C62.2704 3.02957 62.9961 2.85404 63.4327 2.79762C64.0453 3.25525 64.76 3.81005 65.4919 4.42911V4.43067ZM63.1469 4.91338L62.7589 4.5874C62.8987 4.45732 63.0825 4.29276 63.3071 4.10155C63.5458 3.89938 63.6888 3.90252 63.7265 3.90879C63.7532 3.91349 63.7642 3.92289 63.7642 3.92289C63.7642 3.92603 63.761 3.93543 63.7485 3.94953C63.4045 4.31156 63.2333 4.64382 63.1485 4.91338H63.1469ZM61.7034 1.86825C61.7977 1.76325 61.9563 1.74444 62.0725 1.82437C62.327 1.9999 62.6694 2.23969 63.0668 2.53119C62.5814 2.63149 61.9312 2.85404 61.2715 3.33988L60.7657 2.91516L61.7019 1.86825H61.7034ZM52.5589 12.4361C52.7883 12.1602 52.9438 11.9737 53.1228 11.8123C53.1762 12.1932 53.2453 12.5881 53.338 12.9768C53.0741 13.1774 52.6972 13.5002 52.4239 13.8873C51.805 14.7571 51.4061 15.5361 50.9804 16.3604C50.693 16.9184 50.3961 17.4967 50.0129 18.1408C48.6228 20.4728 48.7987 21.0073 48.8569 21.1828C48.9024 21.3223 48.9951 21.4257 49.1239 21.479C49.1898 21.5072 49.2574 21.5197 49.3249 21.5197C49.6956 21.5197 50.0788 21.1217 50.5108 20.6719C50.7747 20.3976 51.0747 20.0857 51.3951 19.8381C51.5474 19.7206 51.6998 19.6062 51.8521 19.4933C52.6092 18.9291 53.393 18.3445 54.1233 17.3008C54.5961 16.6253 54.9024 16.1488 55.083 15.8542C55.3123 16.0172 55.5495 16.163 55.793 16.2946C55.705 16.4231 55.5841 16.5986 55.4144 16.8431C55.1301 17.2537 54.9275 17.7035 54.7328 18.1392C54.4359 18.8037 54.1548 19.4322 53.5987 19.9572L53.3616 20.1829C52.5055 20.9963 51.7673 21.7 50.6836 21.9946C50.2705 22.1075 49.7914 22.3175 49.2825 22.5384C48.3621 22.9412 47.3192 23.3973 46.9579 23.0854C46.6532 22.8237 47.4527 21.6859 48.0951 20.7737C48.5427 20.139 49.0045 19.4808 49.2699 18.9244C49.5197 18.4025 49.7679 17.7192 50.0317 16.9952C50.5234 15.6442 51.0794 14.113 51.7516 13.3717C52.1113 12.9752 52.3595 12.6759 52.5589 12.4345V12.4361ZM52.8511 14.5926C52.3673 15.0393 52.3076 15.2994 52.2401 15.6019C52.1804 15.8667 52.1129 16.1677 51.6841 16.7303C51.227 17.3321 51.1124 17.7553 51.3448 17.9903C51.4359 18.0828 51.5647 18.1189 51.6904 18.1189C51.816 18.1189 51.9495 18.0797 52.0296 18.0217C52.2558 17.8556 53.2642 16.9528 53.8453 16.1614C54.1045 15.8072 54.3197 15.547 54.4736 15.3684C54.4987 15.3934 54.5254 15.4185 54.5521 15.4405C54.6417 15.5173 54.7312 15.5909 54.8207 15.6614C54.6432 15.9498 54.3354 16.431 53.8563 17.1174C53.1558 18.1189 52.427 18.6611 51.6574 19.2363C51.5035 19.3507 51.3495 19.4651 51.1956 19.5842C50.8563 19.8459 50.5469 20.1672 50.2752 20.4493C49.8652 20.8756 49.4773 21.2784 49.2495 21.1812C49.2213 21.1687 49.1867 21.1467 49.1647 21.0825C49.1082 20.9117 49.105 20.2973 50.2925 18.3069C50.682 17.655 50.9804 17.0719 51.271 16.5093C51.6888 15.6944 52.0846 14.9264 52.6893 14.0754C52.9029 13.7745 53.1935 13.5096 53.4275 13.3216C53.4872 13.5378 53.5532 13.751 53.6286 13.9532C53.3851 14.1193 53.0977 14.3653 52.8542 14.591L52.8511 14.5926ZM53.7495 14.2635C53.8909 14.5879 54.0574 14.8825 54.2521 15.127C54.0904 15.3119 53.8626 15.5878 53.5815 15.9702C53.0192 16.735 52.0265 17.6205 51.8364 17.76C51.7877 17.7944 51.6291 17.8179 51.5757 17.7631C51.5239 17.7098 51.5317 17.4669 51.9432 16.9262C52.4144 16.3071 52.493 15.9545 52.5574 15.6724C52.6186 15.4028 52.6626 15.2085 53.0726 14.8292C53.3804 14.5456 53.5972 14.3716 53.7511 14.2619L53.7495 14.2635ZM47.9993 19.3256C48.4548 18.5169 48.816 17.8744 49.0846 17.1017C49.7302 16.0658 50.261 15.1975 50.6396 14.5754C50.305 15.2916 50.005 16.1175 49.7254 16.887C49.4647 17.6032 49.2197 18.2803 48.9762 18.7881C48.7218 19.3209 48.2679 19.9666 47.8281 20.5919C46.9642 21.8207 46.2166 22.8817 46.7443 23.3362C46.8919 23.4631 47.0836 23.5164 47.3066 23.5164C47.8642 23.5164 48.6213 23.1857 49.4113 22.8409C49.9076 22.6246 50.3773 22.4193 50.7668 22.3128C51.9291 21.9962 52.6956 21.2674 53.583 20.4227L53.8202 20.1986C54.4233 19.6297 54.7312 18.9417 55.0281 18.2771C55.226 17.8352 55.4129 17.4183 55.6799 17.0328C55.8542 16.7804 55.9862 16.5908 56.0835 16.4466C56.2281 16.5156 56.3757 16.5783 56.5281 16.6363C56.1055 17.4199 55.116 19.2567 54.4171 20.5324C53.5343 22.1451 50.6427 25.5648 48.4689 27.809C47.1857 29.1333 46.2637 29.3293 45.4501 29.5032C45.2663 29.5424 45.0872 29.5816 44.9098 29.6333C44.3742 29.1051 43.87 28.5785 43.394 28.0598C43.5244 27.5802 43.727 27.0536 44.0192 26.5098C44.7181 25.2059 45.3433 24.0963 45.9464 23.0227C46.4443 22.1372 46.9611 21.2204 47.5124 20.2033C47.6851 19.8851 47.8469 19.5983 47.9993 19.3288V19.3256ZM56.8375 16.7428C57.0118 16.7992 57.1909 16.851 57.3762 16.8964C56.0977 20.1641 53.137 24.7953 51.9495 25.8939C51.4359 26.3688 50.9427 27.1101 50.4213 27.8952C49.5778 29.1647 48.6213 30.6034 47.3317 31.2867C47.1857 31.3635 47.049 31.4387 46.9218 31.5108C46.7757 31.3792 46.6312 31.2475 46.482 31.1143C46.0296 30.7068 45.5961 30.3009 45.1799 29.895C45.2899 29.8684 45.4014 29.8433 45.5176 29.8182C46.3344 29.6443 47.3506 29.428 48.7014 28.0316C50.938 25.7215 53.7951 22.3425 54.7014 20.6844C55.4129 19.3836 56.4291 17.5014 56.8375 16.7428ZM47.2422 20.0183C47.2375 20.0277 47.2328 20.0371 47.2265 20.0465C46.6752 21.0605 46.16 21.9758 45.6621 22.8613C45.0574 23.9364 44.4323 25.0476 43.7317 26.3546C43.4804 26.8248 43.281 27.3091 43.138 27.7746C42.9291 27.5426 42.7265 27.3122 42.5286 27.0818C44.2077 24.6855 45.8459 22.1984 47.2422 20.0183ZM34.9454 15.2289C35.0019 15.4702 35.17 16.1285 35.5265 17.1049C35.3428 16.9403 35.1558 16.7115 35.0113 16.3886C34.603 15.4749 34.1695 14.7556 33.2742 13.9422C34.0579 14.5565 34.6721 15.0236 34.9454 15.2289ZM32.6742 13.8513C33.7941 14.7697 34.27 15.5251 34.7145 16.5203C34.9941 17.1456 35.4197 17.4747 35.7291 17.6424C36.1893 18.8147 36.8883 20.3396 37.9234 22.0871C37.3359 21.8379 36.549 21.3912 36.114 20.6656C35.4574 19.5748 34.5825 17.4653 34.0045 16.0705C33.8883 15.7915 33.7862 15.5423 33.6998 15.3386C33.2993 14.3904 32.0286 13.6178 31.3878 13.2761C31.4867 13.0724 31.5621 12.8686 31.6171 12.6649C31.8009 12.983 32.1197 13.3968 32.6742 13.8513ZM21.4847 2.04378C21.7218 2.2914 22.1444 2.79135 22.614 3.35712L22.2543 3.64863C21.7313 3.028 21.3496 2.58448 21.1156 2.31491C21.2381 2.22401 21.3622 2.13468 21.4847 2.04378ZM20.8533 2.50768C21.0841 2.77411 21.4705 3.22077 22.0014 3.85237L21.7156 4.08432C21.5161 3.72229 21.1423 3.2051 20.4873 2.77881C20.6082 2.68948 20.7307 2.59858 20.8533 2.50768ZM18.9339 3.94797C19.3297 3.64549 19.7616 3.31951 20.2077 2.98725C20.9004 3.40884 21.2758 3.95267 21.458 4.29432L20.8376 4.7974C20.2517 3.90722 20.0004 3.74736 19.7899 3.79438C19.5622 3.8461 19.5292 4.14387 19.5182 4.24104C19.4601 4.75352 19.5857 5.07794 19.8496 5.59826L19.1287 6.18127C18.8821 5.55594 18.6904 4.6924 18.5946 4.21126C18.7109 4.12036 18.8255 4.03103 18.9355 3.9464L18.9339 3.94797ZM20.5847 5.00271L20.1072 5.38982C19.8904 4.95413 19.7946 4.683 19.8402 4.27865C19.8496 4.19245 19.8637 4.14544 19.8732 4.12193C19.9454 4.15798 20.1355 4.3194 20.5847 5.00271ZM18.3072 4.43851C18.4187 4.97293 18.6135 5.7973 18.8648 6.39598L18.004 7.0934C17.591 6.33486 17.3664 5.67662 17.2564 5.29578C17.6067 5.00428 17.9648 4.71121 18.3072 4.43851ZM16.9831 5.5246C17.1103 5.94305 17.3444 6.57621 17.7465 7.30184L16.5166 8.29703C16.2575 7.70462 16.1459 6.79249 16.102 6.28157C16.3674 6.04805 16.6674 5.78946 16.9815 5.52303L16.9831 5.5246ZM15.2538 7.07146C15.3794 6.94294 15.5711 6.76271 15.802 6.5527C15.8616 7.12161 15.9904 7.94597 16.2575 8.5086L16.226 8.53368C15.7501 7.84723 15.4093 7.33632 15.2522 7.07302L15.2538 7.07146ZM14.1166 33.1235C13.2245 32.7489 10.27 31.387 7.08313 28.5597C4.09413 25.908 1.6156 22.9726 0.847539 22.0354L3.00094 20.291C3.35905 20.9979 4.19936 22.5259 5.54072 24.2169C7.38627 26.5427 10.9988 29.1757 12.2538 29.7179C13.1397 30.1003 14.2438 30.5188 14.8077 30.7304C14.5187 31.724 14.2674 32.5954 14.1166 33.1251V33.1235ZM20.6836 16.4341C19.4475 17.7553 17.0962 23.3174 16.6862 24.474C16.4051 25.2701 15.5695 28.1037 14.8972 30.4169C14.3287 30.2053 13.2496 29.7947 12.381 29.4201C11.1528 28.8904 7.6093 26.3045 5.7936 24.0163C4.42554 22.2924 3.58837 20.7424 3.25696 20.0826L26.1512 1.53443L32.6176 7.87388L31.9517 8.51174C31.4663 8.75623 30.6936 9.43327 30.8506 10.488C31.0407 11.7653 31.0988 13.2134 29.3836 14.2102C27.3684 15.3825 27.0464 15.5298 25.3344 15.4922C25.0077 15.4843 24.6951 15.4671 24.392 15.4499C22.9705 15.3684 21.7438 15.2994 20.6852 16.431L20.6836 16.4341ZM28.0988 16.6754C28.3108 16.9387 28.5511 17.2365 28.7993 17.5296C29.3381 18.1659 29.649 18.8288 29.9506 19.4698C30.1422 19.8789 30.3244 20.266 30.5585 20.6421C30.8977 21.1844 31.7569 22.4397 32.4433 22.4397C32.448 22.4397 32.4511 22.4397 32.4559 22.4397C32.5909 22.4366 32.7778 22.3833 32.9113 22.1482C33.015 21.9633 32.8595 21.7282 32.4857 21.1608C32.049 20.4995 31.3878 19.4996 30.9323 18.2066C30.7454 17.6753 30.2114 17.1628 29.536 16.514C29.2438 16.2335 28.9234 15.9247 28.6014 15.5846C28.7223 15.5204 28.848 15.4514 28.9815 15.3762C29.5375 15.7429 30.6967 16.5642 31.2826 17.3823C31.5197 17.7145 31.9438 18.4589 32.481 19.4024C33.7438 21.62 35.6506 24.9692 37.2778 26.6885C38.7401 28.2338 39.7815 29.464 40.6171 30.453C41.0789 30.9983 41.4762 31.4701 41.8234 31.8447C42.4124 32.4841 42.7548 33.1298 43.0548 33.7018C43.226 34.0247 43.3862 34.3303 43.57 34.5842C43.7286 34.8036 44.0647 35.1311 44.4527 35.5104C45.0385 36.0809 46.2558 37.2704 46.0281 37.529C46.0077 37.5525 45.9652 37.5619 45.9087 37.5635C45.216 37.5494 43.1663 35.8959 41.9192 34.3475C41.671 34.0388 41.3946 33.6861 41.0899 33.2975C39.6841 31.503 37.76 29.044 35.4213 26.8765C32.4354 24.1104 30.2428 21.6295 29.4056 20.0732C29.0993 19.5043 28.7899 18.9761 28.4915 18.4652C28.0203 17.6597 27.571 16.8917 27.2522 16.1488C27.3637 16.1191 27.4737 16.0862 27.5852 16.047C27.736 16.2241 27.9087 16.4388 28.0972 16.6723L28.0988 16.6754ZM27.9056 15.9263C28.0328 15.8714 28.1632 15.8103 28.3014 15.7429C28.6485 16.1144 28.9956 16.4498 29.3098 16.7507C29.9286 17.3462 30.4627 17.8587 30.6244 18.3179C31.0941 19.6485 31.7679 20.6672 32.2124 21.3426C32.3977 21.6232 32.5894 21.9131 32.6129 22.015C32.5548 22.1043 32.4951 22.1169 32.448 22.1184H32.4417C32.1731 22.1184 31.5935 21.689 30.8333 20.4744C30.6087 20.1155 30.4312 19.7362 30.2443 19.3366C29.9349 18.6752 29.6145 17.9919 29.0475 17.3243C28.8009 17.0343 28.5621 16.7366 28.3517 16.4764C28.1899 16.2758 28.0422 16.0924 27.9056 15.9294V15.9263ZM28.2103 18.6329C28.5072 19.1407 28.815 19.6657 29.1182 20.2299C29.971 21.8175 32.1888 24.3282 35.1998 27.1179C37.5197 29.2681 39.4359 31.7146 40.8338 33.5012C41.1386 33.8899 41.4166 34.2456 41.6647 34.5544C42.8946 36.0824 45.0118 37.8722 45.8993 37.891C45.904 37.891 45.9087 37.891 45.9134 37.891C46.1019 37.891 46.2118 37.8127 46.27 37.7468C46.6673 37.2923 45.86 36.4398 44.6773 35.2832C44.3145 34.929 43.9736 34.5951 43.8307 34.3992C43.6611 34.1642 43.5118 33.8821 43.3391 33.5545C43.0281 32.9668 42.6762 32.2991 42.059 31.6299C41.7181 31.2601 41.3208 30.7915 40.8621 30.2492C40.0234 29.2572 38.9789 28.0222 37.5103 26.4706C35.9098 24.7796 34.014 21.4508 32.7606 19.2473C32.2187 18.296 31.7915 17.5437 31.5433 17.1989C30.9668 16.3933 29.9035 15.6113 29.2956 15.2007C29.4496 15.1113 29.6129 15.0173 29.7888 14.9154C30.0826 14.7446 30.3354 14.5612 30.5506 14.3685C31.0155 14.6553 31.892 15.2649 32.5124 16.094C32.8752 16.5798 33.5271 17.7882 34.2825 19.1861C35.36 21.1812 36.7014 23.6637 37.6721 24.8752C38.726 26.1885 39.4658 27.1931 40.0077 27.9281C40.3092 28.3356 40.5464 28.6585 40.7569 28.9249C41.3726 29.707 42.6998 31.7302 43.0202 32.2333C43.2323 32.5671 43.9485 33.0859 44.7071 33.636C45.2961 34.0623 45.9621 34.5466 46.0658 34.7346C46.2433 35.0606 46.6249 35.8552 46.9595 36.5557C47.0946 36.8378 47.2265 37.1121 47.3412 37.3472C47.4731 37.6183 47.7323 37.9929 48.0338 38.4254C48.5412 39.1542 49.3893 40.3719 49.1443 40.6885C48.9731 40.9079 48.2836 40.3955 47.7291 39.9817C47.2139 39.5977 46.6815 39.2012 46.2464 39.0915C45.2993 38.8533 42.3684 36.8817 41.2752 35.6311C40.8386 35.1311 40.4427 34.6296 40.0595 34.1438C39.4532 33.3743 38.8799 32.6471 38.1543 31.923C36.8176 30.5893 29.7025 23.3174 28.1349 20.9305C26.7213 18.7787 26.1621 17.5374 26.0868 16.3056C26.3977 16.2946 26.6695 16.2695 26.9255 16.2241C27.2538 17.003 27.7187 17.7976 28.2072 18.6329H28.2103ZM21.9967 16.4607C22.3218 16.3118 22.6752 16.2492 23.0663 16.2288C23.0695 16.409 23.1009 16.6206 23.2014 16.8212C23.2878 16.9936 23.5281 17.2929 23.8313 17.6706C24.3009 18.2568 24.9449 19.0592 25.058 19.4902C25.1286 19.7629 25.2763 20.0654 25.4459 20.4164C25.6093 20.7534 25.793 21.1373 25.947 21.5699C24.6967 20.0074 23.3271 18.227 21.9967 16.4592V16.4607ZM29.0302 25.2247C28.3234 24.463 27.4438 23.4239 26.4731 22.2266C26.3004 21.4477 25.9941 20.8082 25.7381 20.2769C25.5747 19.9415 25.4349 19.6516 25.3721 19.4103C25.2433 18.9134 24.6009 18.1126 24.0857 17.47C23.8171 17.1362 23.5642 16.8196 23.4936 16.6786C23.4182 16.5281 23.3946 16.3636 23.393 16.2241C23.6836 16.2241 23.993 16.2429 24.3276 16.2617C24.4171 16.7287 24.6103 17.5358 24.9669 18.1565C25.0328 18.2709 25.1192 18.426 25.2245 18.6125C25.9548 19.9196 27.4737 22.6387 28.9988 24.184L29.3962 24.5852C31.1113 26.3217 33.981 29.2274 34.4742 29.9655C34.5511 30.08 34.6344 30.2006 34.7223 30.3276C35.093 30.8589 35.5281 31.4842 35.7119 32.1236C33.3401 29.7665 31.1396 27.494 29.0333 25.2262L29.0302 25.2247ZM36.1155 32.5248C36.0401 31.6535 35.4637 30.8244 34.9862 30.1411C34.8998 30.0173 34.8166 29.8982 34.7412 29.7853C34.2307 29.0205 31.4585 26.2136 29.6239 24.358L29.2265 23.9568C27.7328 22.4428 26.2281 19.7488 25.5056 18.4542C25.4004 18.2662 25.3124 18.1095 25.2464 17.9935C24.9339 17.4512 24.7517 16.7334 24.6606 16.2789C24.8726 16.2899 25.0878 16.3009 25.3124 16.3056C25.4726 16.3087 25.6218 16.3103 25.7632 16.3103C25.8386 17.6079 26.4119 18.8931 27.8648 21.106C29.448 23.5148 36.5867 30.8118 37.9265 32.1487C38.6396 32.8602 39.205 33.5796 39.805 34.3397C40.1899 34.8287 40.5888 35.3333 41.0302 35.8395C42.1846 37.1607 45.1673 39.1495 46.1663 39.4003C46.5385 39.4943 47.0443 39.8704 47.5328 40.2356C48.0982 40.6572 48.6401 41.0615 49.0343 41.0615C49.1773 41.0615 49.3014 41.0082 49.3987 40.8813C49.7883 40.3782 49.0312 39.289 48.2977 38.2358C48.0165 37.8315 47.7511 37.4491 47.6302 37.2014C47.5155 36.9664 47.3851 36.6921 47.2501 36.4116C46.8967 35.6734 46.5307 34.9102 46.3485 34.5763C46.2166 34.335 45.7108 33.9604 44.8956 33.3696C44.2281 32.8853 43.471 32.3368 43.292 32.0547C42.97 31.5484 41.6317 29.511 41.0098 28.7196C40.8024 28.4563 40.5668 28.1366 40.2668 27.7307C39.7234 26.9941 38.9804 25.9863 37.9234 24.6683C36.9715 23.4803 35.638 21.012 34.5668 19.0279C33.8051 17.6189 33.1485 16.4012 32.77 15.8965C32.1433 15.0565 31.2873 14.4453 30.7878 14.1303C30.9621 13.9453 31.1066 13.7541 31.2276 13.5598C31.8323 13.8826 33.0386 14.613 33.3983 15.4624C33.4846 15.6661 33.5867 15.9138 33.703 16.1927C34.2857 17.597 35.1653 19.719 35.8344 20.8302C36.4328 21.8254 37.5841 22.3316 38.1967 22.5384C38.6066 23.2077 39.0653 23.9066 39.5773 24.6291C39.5427 25.9644 40.003 26.5741 40.6705 27.4517C40.7317 27.5316 40.7946 27.6163 40.8605 27.7025L40.8825 27.7322C41.7935 28.9437 44.2139 32.1644 45.9747 33.7598C47.0396 34.7252 47.7872 36.0009 48.5773 37.3503C49.0736 38.1966 49.5857 39.0711 50.1951 39.8924C51.3055 41.3891 52.5637 43.0848 52.3909 43.754C52.3642 43.859 52.2982 43.9327 52.1867 43.9828C51.5097 44.2916 48.6825 42.2949 47.6176 41.5442C47.3145 41.3311 47.0757 41.1618 46.9406 41.0772C46.2417 40.6384 44.3427 39.3956 42.9323 38.3502C42.2098 37.8142 41.2548 36.7924 40.4145 35.8897C39.4878 34.8976 38.9051 34.2817 38.5925 34.1579C38.2485 34.02 37.9171 34.0215 37.6736 34.056C37.1443 33.5404 36.6244 33.0295 36.1108 32.5217L36.1155 32.5248ZM36.5066 34.8804C36.6354 34.7252 36.7611 34.5732 36.8867 34.4212C38.0412 35.548 39.2396 36.6984 40.4867 37.8785C39.2427 38.4615 38.0019 38.6856 36.7422 38.2781C36.2993 38.1355 36.0904 37.7108 36.1061 36.9836C36.1171 36.4539 36.2506 35.7612 36.5066 34.8819V34.8804ZM30.6826 41.7245C30.6433 41.8028 30.5899 41.8922 30.5239 41.9972C30.3794 42.2276 30.2161 42.4877 30.1689 42.798C30.0731 43.4249 29.4244 43.8293 28.6862 44.0189C29.3553 43.2541 30.0229 42.4861 30.6826 41.7229V41.7245ZM25.9768 47.1048C27.2051 46.365 29.0381 45.4654 29.759 45.9591C29.7637 45.9623 29.7794 45.9732 29.7826 46.0218C29.8312 46.749 27.4375 49.6186 26.4888 50.479C25.6124 51.2736 24.6433 52.4741 22.9297 54.7043C22.2826 55.5459 21.7313 56.1665 21.2444 56.715C20.47 57.588 19.7993 58.3418 19.0093 59.6583C18.4391 60.6065 17.9349 61.5374 17.4889 62.3586C17.3664 62.5843 17.2486 62.799 17.1339 63.0106C16.9611 62.7786 16.7381 62.5874 16.4805 62.4527C17.2627 60.9058 18.326 59.1113 19.6972 57.6428C20.5093 56.773 21.1391 55.7339 21.8695 54.5303C22.5574 53.3972 23.3365 52.1121 24.4768 50.5919C25.2025 49.6233 25.2449 49.3287 25.0784 49.1657C24.9574 49.0481 24.7375 48.987 23.781 49.5888C24.4988 48.7817 25.2354 47.9495 25.9799 47.1048H25.9768ZM16.702 64.1515C16.702 64.7627 16.2041 65.2596 15.5915 65.2596C14.9789 65.2596 14.481 64.7627 14.481 64.1515C14.481 63.5403 14.9789 63.0435 15.5915 63.0435C16.2041 63.0435 16.702 63.5403 16.702 64.1515ZM14.9993 59.2618C16.1805 58.0362 19.2339 54.6886 22.8889 50.5887C23.7512 49.965 24.5522 49.4572 24.8224 49.4149C24.7957 49.5136 24.6826 49.7738 24.2145 50.396C23.0648 51.9271 22.281 53.2201 21.5899 54.3595C20.8391 55.596 20.247 56.574 19.4585 57.4187C18.0559 58.9217 16.9737 60.7522 16.1805 62.3241C15.9952 62.2646 15.7988 62.2317 15.5931 62.2317C15.2664 62.2317 14.9585 62.3132 14.6883 62.4574C15.9433 60.456 17.8847 57.8231 18.1815 57.5457C18.6056 57.1476 19.4883 56.3216 19.5465 55.5224C19.559 55.3421 19.4569 55.281 19.4129 55.2622C19.1585 55.1588 18.7847 55.5161 17.0538 57.5237C16.2622 58.4405 15.4438 59.3887 15.0873 59.6442C14.8941 59.7821 14.6805 59.9482 14.4543 60.1237C14.0601 60.4309 13.6187 60.7726 13.1475 61.0751C13.7883 60.4779 14.4198 59.8636 15.0025 59.2586L14.9993 59.2618ZM8.4936 66.1717C9.35433 65.5072 11.7135 64.4995 12.2114 64.4744C12.202 64.5308 12.1517 64.6029 12.0402 64.7518C11.8878 64.9555 11.6585 65.2643 11.437 65.7893C11.1402 66.4914 10.0925 67.1011 9.54909 67.3785C9.11715 66.9224 8.76532 66.5102 8.4936 66.1717ZM10.5716 68.3893C10.2873 68.126 10.025 67.869 9.78469 67.6229C10.3831 67.3095 11.4151 66.6795 11.737 65.9147C11.9428 65.4257 12.1501 65.1483 12.3009 64.9445C12.4658 64.7236 12.5962 64.548 12.5114 64.3035C12.4957 64.2565 12.4486 64.175 12.3119 64.1547C11.7763 64.0779 9.2915 65.1624 8.30669 65.9115C8.17475 65.642 8.24072 65.3034 8.48417 65.1075C9.3826 64.3803 10.7648 63.2347 12.1941 61.948C13.1161 61.575 13.9533 60.9246 14.6507 60.3823C14.8737 60.2084 15.0842 60.0454 15.2726 59.9106C15.6622 59.6332 16.4569 58.7117 17.2972 57.7384C17.9522 56.9799 18.8129 55.9816 19.1931 55.6681C19.0407 56.2981 18.3182 56.9752 17.9459 57.3231C17.5674 57.6773 13.8983 62.6658 13.3611 64.2409C13.2889 64.4509 13.2213 64.6593 13.1538 64.8615C12.7454 66.0949 12.3936 67.1606 11.7669 67.5681C11.3035 67.869 10.8575 68.1824 10.57 68.3877L10.5716 68.3893ZM11.1842 68.9378C11.0569 68.8281 10.936 68.7216 10.8166 68.6134C11.1009 68.4113 11.5172 68.1197 11.9459 67.8408C12.6669 67.3706 13.036 66.2563 13.4632 64.9649C13.5308 64.7627 13.5983 64.5559 13.6705 64.3474C13.6737 64.3396 13.6768 64.3302 13.68 64.3239C13.7349 64.9555 14.0993 65.4993 14.6192 65.8065C14.5753 65.9178 14.5313 66.0275 14.4904 66.1356C14.0711 67.2061 13.7412 68.0524 13.0266 68.6855C12.5271 69.129 12.1863 69.4221 11.9711 69.6039C11.7151 69.3908 11.4512 69.1682 11.1842 68.9394V68.9378ZM12.224 69.8124C12.4407 69.6274 12.7706 69.3438 13.2402 68.9253C14.0114 68.2404 14.3726 67.3189 14.7904 66.25C14.8297 66.1497 14.8705 66.0479 14.9114 65.9444C15.0637 66.0024 15.2255 66.0432 15.3936 66.0604C15.3088 66.2971 15.2475 66.5227 15.1925 66.7453C15.0669 67.2421 14.9475 67.7123 14.5156 68.2733C13.9046 69.0711 13.2465 69.9142 12.8962 70.3593C12.6795 70.1854 12.4548 70.002 12.2224 69.8124H12.224ZM14.2548 71.4203C13.936 71.1774 13.5622 70.889 13.1522 70.5631C13.5009 70.118 14.1622 69.2717 14.7747 68.4708C15.2459 67.8565 15.3794 67.3314 15.5082 66.8252C15.5711 66.5807 15.6355 66.33 15.7391 66.0635C16.7302 65.9883 17.514 65.1608 17.514 64.1531C17.514 63.86 17.4449 63.5826 17.3271 63.3334C17.4716 63.0717 17.6192 62.799 17.7747 62.5153C18.2192 61.6972 18.7218 60.7694 19.2873 59.8275C20.0632 58.5377 20.7229 57.7933 21.4862 56.9329C21.9763 56.3812 22.5323 55.7543 23.1857 54.9049C24.8868 52.6904 25.848 51.4993 26.7056 50.7219C27.4564 50.0418 30.1721 46.9841 30.1061 46.003C30.0951 45.8337 30.0103 45.7428 29.9428 45.6958C29.2108 45.1943 27.7894 45.746 26.6428 46.3525C27.2035 45.7146 27.7674 45.0721 28.3328 44.4264C29.3648 44.2728 30.3496 43.7587 30.4894 42.8513C30.5271 42.6068 30.6653 42.3858 30.7988 42.1727C30.9606 41.9157 31.1506 41.6116 31.0501 41.3029C31.6941 40.5585 32.3286 39.8203 32.9506 39.0931C33.0291 39.7215 32.8909 40.8437 31.9972 42.8168C31.7663 43.3277 31.6344 43.8966 31.4962 44.5C31.2464 45.5846 30.9888 46.7051 30.1187 47.6846L29.9286 47.8978C28.3627 49.6578 23.6004 55.0146 22.1334 56.9188C20.6271 58.8762 17.4166 64.921 16.3941 66.9976C15.9716 67.8565 15.6449 68.5413 15.3276 69.2058C14.9868 69.9221 14.6616 70.6038 14.2533 71.4203H14.2548ZM17.1512 68.6448C16.314 69.991 15.6842 71.1132 15.2978 71.8278C15.2491 71.9187 15.169 71.9485 15.125 71.9579C15.081 71.9673 14.9962 71.9751 14.913 71.9124C14.7999 71.8294 14.6664 71.7291 14.5203 71.6194C14.9428 70.7746 15.2758 70.0772 15.6245 69.3438C15.9402 68.6808 16.2669 67.9959 16.6894 67.1402C17.7088 65.0731 20.9035 59.0549 22.3957 57.1162C23.8548 55.2199 28.6124 49.8709 30.1752 48.1125L30.3653 47.8994C31.2904 46.8587 31.57 45.6441 31.8166 44.5721C31.9517 43.986 32.0789 43.4312 32.2972 42.95C33.3119 40.7089 33.4045 39.4661 33.2255 38.7765C34.1977 37.6371 35.1354 36.5307 36.0119 35.4806C35.8689 36.0715 35.7935 36.5636 35.7857 36.9789C35.7668 37.8565 36.0574 38.3988 36.6464 38.5884C37.1255 38.7436 37.5998 38.8141 38.071 38.8141C38.9726 38.8141 39.86 38.5524 40.7459 38.1214C40.9328 38.2985 41.1213 38.4756 41.3113 38.6543C38.9051 40.1854 36.8459 41.5458 35.5611 42.9453C33.7705 44.8934 33.026 45.7601 31.8983 47.0719C30.8585 48.2802 29.4339 49.9368 26.5093 53.2326C25.3752 54.5099 24.8648 55.1102 24.2161 55.8719C23.781 56.3843 23.2862 56.9642 22.504 57.8654C21.3763 59.1646 21.147 59.6943 20.8281 60.4294C20.5925 60.9701 20.3004 61.644 19.5543 62.8523C18.3904 64.7361 17.9679 66.0871 17.5203 67.5179C17.4056 67.8862 17.2878 68.2592 17.1559 68.6463L17.1512 68.6448ZM38.159 43.7164C32.6742 49.7252 26.0349 57.1021 22.0878 61.854C22.2449 61.2741 22.6423 60.3964 23.6129 59.2054C24.9841 57.5206 26.3915 55.8766 28.0218 53.9724C28.7962 53.0681 29.6145 52.1121 30.4941 51.0761C31.314 50.1107 31.9925 49.2911 32.5925 48.567C33.9935 46.876 35.0066 45.6535 36.5647 44.0549C37.5213 43.0739 38.2988 42.8294 39.1972 42.5457C39.2082 42.5426 39.2192 42.5379 39.2318 42.5347C38.8344 42.9751 38.4747 43.3716 38.1605 43.7164H38.159ZM39.6653 42.052C39.4721 42.1194 39.2836 42.179 39.0998 42.237C38.1967 42.5206 37.3454 42.7886 36.3307 43.8293C34.7632 45.4372 33.7469 46.6644 32.3412 48.3601C31.7428 49.0826 31.0627 49.9023 30.2443 50.8661C29.3663 51.9005 28.548 52.8565 27.7737 53.7608C26.1417 55.6665 24.7328 57.3121 23.3601 59C21.9936 60.6801 21.7046 61.7866 21.6716 62.357C20.7229 63.509 19.9548 64.4853 19.4318 65.2188C18.8538 66.0291 18.3245 66.8143 17.8438 67.5556C18.2789 66.167 18.6999 64.8458 19.8276 63.02C20.5862 61.7913 20.8831 61.1064 21.1234 60.5563C21.4423 59.8213 21.6527 59.337 22.7475 58.0754C23.5313 57.1727 24.026 56.5912 24.4627 56.0787C25.1098 55.3186 25.6203 54.7199 26.7511 53.4458C29.6773 50.1483 31.1035 48.4918 32.1433 47.2819C33.2695 45.9732 34.0124 45.1081 35.7998 43.1632C37.0689 41.7809 39.1375 40.4205 41.5548 38.8831C41.726 39.0445 41.8956 39.2028 42.0684 39.3658C41.1794 40.3625 40.3705 41.2684 39.6668 42.052H39.6653ZM43.6658 39.7482C41.6522 37.8785 39.7736 36.095 37.9941 34.3663C38.1433 34.3695 38.3098 34.3961 38.4778 34.4635C38.7386 34.5669 39.4721 35.3537 40.182 36.1154C41.0333 37.0275 41.9977 38.0619 42.7438 38.6151C44.1621 39.6667 46.0705 40.9158 46.7726 41.3562C46.8998 41.4361 47.1354 41.6022 47.4354 41.8138C49.1883 43.0503 51.0982 44.3386 52.0391 44.3386C52.149 44.3386 52.2448 44.3214 52.3265 44.2838C52.5291 44.1913 52.6579 44.0424 52.7097 43.8402C52.9061 43.0786 51.948 41.7088 50.4605 39.7043C49.8621 38.8972 49.3532 38.0305 48.8616 37.1905C48.0574 35.8176 47.2987 34.5215 46.1961 33.5232C44.4574 31.9481 42.0511 28.7462 41.1448 27.541L41.1228 27.5113C41.0569 27.4235 40.9941 27.3404 40.9312 27.2589C40.3516 26.4973 39.9778 26.002 39.9119 25.093C41.3412 27.0474 43.1616 29.1569 45.4736 31.293C45.6323 32.2271 46.248 33.2912 46.8935 33.6626C47.6113 34.0764 49.5307 35.9665 49.9108 36.8284C50.3349 37.7876 51.8616 40.0851 53.1951 41.3624C54.0118 42.1461 54.4092 43.0598 54.7925 43.9452C55.0281 44.4875 55.2495 45 55.5558 45.4435C56.0631 46.1754 56.0521 46.9418 55.826 47.343C55.7286 47.517 55.5401 47.7223 55.1835 47.7019C54.6731 47.6737 53.9066 46.9966 53.0192 46.2115C52.2825 45.5595 51.4469 44.8198 50.4747 44.1741C48.893 43.1224 46.7176 42.0755 45.6008 41.5615C44.9333 40.933 44.2862 40.3265 43.6658 39.7498V39.7482ZM60.293 57.0927C60.3998 57.0394 60.5191 57.0128 60.6212 57.0786C60.8066 57.1977 60.9589 57.5519 61.094 57.8638C61.1992 58.1067 61.2982 58.3355 61.4191 58.4923C61.5165 58.6176 61.6704 58.7618 61.8354 58.9138C62.1087 59.1677 62.4825 59.5141 62.4825 59.7163C62.4825 59.8401 62.3191 60.0877 62.1746 60.3055C62.1134 60.3964 62.0521 60.492 61.9924 60.5876C61.5401 59.3793 60.9825 58.1851 60.2945 57.0927H60.293ZM62.1369 60.9904C62.2233 60.8212 62.3364 60.6472 62.4448 60.4842C62.6396 60.1911 62.806 59.9372 62.806 59.7163C62.806 59.373 62.4244 59.0189 62.0568 58.6772C61.9029 58.5346 61.7584 58.3998 61.6767 58.2948C61.5794 58.171 61.4898 57.9594 61.3924 57.7369C61.2322 57.3639 61.0657 56.9783 60.7972 56.8059C60.5663 56.6586 60.3197 56.7072 60.1139 56.8185C59.8689 56.4486 59.6113 56.0897 59.3333 55.748C59.0113 55.3515 58.6689 54.9425 58.3123 54.5272C58.7961 54.4974 59.4794 54.5162 59.9694 54.7826C60.7909 55.2293 62.1369 57.1727 62.4966 57.9735C62.6396 58.2901 63.0511 58.7101 63.5286 59.1959C64.2385 59.9184 65.1228 60.8165 64.9783 61.3195C64.8668 61.7114 64.595 61.7035 64.0453 61.5954C63.7186 61.5311 63.4092 61.47 63.1924 61.6424C62.9773 61.8132 62.7699 62.1141 62.6066 62.4527C62.4652 61.9684 62.3097 61.4778 62.1369 60.9904ZM62.7495 62.9589C62.9034 62.5122 63.1657 62.0796 63.395 61.8963C63.494 61.8164 63.7422 61.8665 63.9825 61.9135C64.4207 61.9997 65.0835 62.1298 65.2909 61.4089C65.4872 60.724 64.6092 59.8322 63.761 58.9687C63.3244 58.5252 62.9113 58.1052 62.7935 57.8419C62.4495 57.0771 61.0862 55.0208 60.1249 54.499C59.4715 54.1432 58.5589 54.1714 58.05 54.2231C57.7469 53.8736 57.4328 53.5179 57.1108 53.1574C57.8364 53.6401 58.5181 53.9818 58.9532 53.9379C59.5249 53.8799 59.7479 53.6244 59.9458 53.3988C60.1328 53.1856 60.2804 53.0164 60.7312 52.9929C61.4097 52.9537 61.6422 53.7812 61.8008 54.5569C61.8244 54.6682 61.8432 54.767 61.8636 54.8437C62.0034 55.3719 64.2935 58.8684 64.782 59.2994C65.2406 59.7037 66.4484 61.1048 66.45 61.8681C66.45 62.0076 66.4092 62.1126 66.3228 62.1894C65.993 62.4824 65.7149 62.5122 65.4181 62.5451C65.0804 62.5812 64.7317 62.6188 64.383 63.0451C64.0312 63.4761 63.5647 64.2722 63.2647 65.1781C63.1249 64.4712 62.9537 63.7237 62.7464 62.9604L62.7495 62.9589ZM68.4919 71.2354C67.3045 71.3091 66.395 71.3122 65.7087 71.2276C66.0762 70.8123 66.6102 70.3045 67.0469 70.2183C67.5212 70.1227 68.7463 70.6508 69.5977 71.0693C69.2474 71.1523 68.8799 71.2119 68.4919 71.2354ZM70.0641 70.9408C69.3385 70.5662 67.6751 69.7638 66.9825 69.9017C66.3605 70.0255 65.682 70.7496 65.3317 71.1696C64.738 71.052 64.3532 70.8467 64.1286 70.5349C64.6312 70.3546 65.4401 69.9973 65.9191 69.4362C66.1783 69.1322 66.3039 68.7999 66.4139 68.5053C66.6134 67.9771 66.7563 67.5963 67.5511 67.5493C68.4008 67.5007 68.8186 67.974 69.3479 68.5743C69.6134 68.8752 69.8867 69.1855 70.2448 69.4597C70.7851 69.875 71.1919 70.143 71.4636 70.3076C71.0427 70.5584 70.5762 70.7762 70.0641 70.9408ZM71.773 70.1148C71.5233 69.9706 71.0772 69.6901 70.4427 69.2027C70.1097 68.9472 69.8474 68.6495 69.5929 68.3595C69.0526 67.7452 68.5406 67.1653 67.5338 67.2249C66.5286 67.2844 66.3165 67.8471 66.1123 68.3909C66.0055 68.673 65.8956 68.9661 65.6741 69.2262C65.2327 69.7434 64.4427 70.0804 63.9778 70.2449C63.9212 70.0945 63.8882 69.9268 63.8757 69.7387C63.8757 69.7309 63.8757 69.723 63.8741 69.7152C64.3626 69.4002 65.2296 68.7184 65.3176 67.8079C65.3474 67.496 65.3615 67.134 65.3757 66.75C65.4087 65.8582 65.4558 64.6374 65.7809 64.4979C65.9914 64.4086 66.194 64.3333 66.3935 64.3051C66.3778 64.4054 66.3668 64.5073 66.3668 64.6123C66.3668 65.6733 67.2322 66.5369 68.2956 66.5369C68.4699 66.5369 68.6364 66.5118 68.7966 66.4679C69.3244 66.9976 69.9244 67.4694 70.5668 67.7389C71.4652 68.115 72.4798 68.7937 72.962 69.1337C72.6306 69.4707 72.2333 69.8092 71.7746 70.1148H71.773ZM67.1772 64.6123C67.1772 63.9979 67.6783 63.498 68.294 63.498C68.9097 63.498 69.4107 63.9979 69.4107 64.6123C69.4107 65.2266 68.9097 65.7266 68.294 65.7266C67.6783 65.7266 67.1772 65.2266 67.1772 64.6123ZM73.1835 68.894C72.7076 68.557 71.6521 67.8424 70.6908 67.4411C70.1317 67.2076 69.6039 66.8048 69.1296 66.3441C69.7751 66.0322 70.2228 65.374 70.2228 64.6123C70.2228 64.2722 70.1333 63.9525 69.9778 63.6751C70.1191 63.8616 70.2668 64.0575 70.4223 64.2659C71.3474 65.5025 72.4846 67.0211 73.7835 68.1245C73.6296 68.3611 73.4285 68.6244 73.1867 68.894H73.1835ZM67.2935 54.9864C68.316 56.4078 69.1877 57.6695 69.9306 58.79C68.8799 58.2697 67.8275 57.5504 67.5008 56.8122C67.2495 56.2464 66.8191 55.6023 66.3636 54.9205C66.0055 54.3846 65.6348 53.8313 65.2956 53.2373C64.939 52.6151 64.7505 51.96 64.65 51.4366C65.539 52.5901 66.417 53.7686 67.2935 54.9864ZM61.5526 47.5796C62.4684 48.6736 63.3621 49.78 64.2416 50.91C64.2998 51.482 64.4772 52.4663 65.0128 53.4003C65.3584 54.0037 65.7322 54.5616 66.0935 55.1023C66.5411 55.7715 66.9636 56.4047 67.2039 56.9454C67.617 57.8795 68.9882 58.7446 70.2715 59.3104C71.3505 60.9638 72.1343 62.2897 72.7029 63.3507C71.5798 62.7253 70.4411 61.506 69.2505 60.2272C68.8107 59.7554 68.3568 59.268 67.9013 58.8104C65.9929 56.8937 64.5338 54.7137 64.182 53.2561C64.0265 52.6136 63.4971 51.8801 62.9364 51.1028C62.5312 50.5417 62.1118 49.9603 61.8715 49.4462C61.5731 48.8068 61.5307 48.0937 61.5542 47.5828L61.5526 47.5796ZM61.2526 47.2223C61.1961 47.7505 61.171 48.7127 61.5762 49.5794C61.8307 50.1217 62.2579 50.7157 62.6725 51.2893C63.1909 52.0071 63.7265 52.7499 63.8663 53.3298C64.2306 54.8406 65.7244 57.0802 67.6704 59.0361C68.1228 59.4906 68.5751 59.9764 69.0134 60.445C70.3641 61.8932 71.6458 63.266 72.9589 63.8318C74.1997 66.25 74.1997 67.1042 74.1652 67.3189C74.1463 67.4396 74.0741 67.6229 73.9531 67.8408C72.6982 66.7641 71.5877 65.2799 70.6814 64.07C70.2039 63.4322 69.7924 62.8821 69.4233 62.4715C69.3055 62.3398 69.1736 62.1941 69.0291 62.0342C67.7678 60.6378 65.6568 58.2995 64.5982 56.4502C63.4547 54.4535 62.2563 52.2421 61.1333 50.0559C60.4924 48.8099 60.1359 47.9072 59.8218 47.111C59.6066 46.5641 59.4024 46.0485 59.1369 45.4968C58.9092 45.0219 58.6595 44.4891 58.4349 44.0001C59.4055 45.0705 60.3417 46.1409 61.2526 47.2207V47.2223ZM57.7186 43.2212C58.0123 43.8684 58.4568 44.8339 58.8432 45.6394C59.104 46.1817 59.305 46.6926 59.5186 47.2333C59.8359 48.0373 60.1956 48.9478 60.8427 50.2079C61.9689 52.3989 63.1689 54.6134 64.3139 56.6147C65.3898 58.4938 67.5165 60.8494 68.7856 62.2552C68.9285 62.4135 69.0605 62.5608 69.1783 62.6909C69.3212 62.8507 69.472 63.0325 69.6306 63.2331C69.2835 62.8977 68.8123 62.6909 68.2909 62.6909C67.4537 62.6909 66.7422 63.2269 66.4767 63.9713C66.1594 63.9885 65.872 64.1092 65.649 64.2032C65.1354 64.4227 65.093 65.5495 65.0474 66.7406C65.0333 67.1199 65.0191 67.4772 64.9909 67.7797C64.9233 68.4677 64.2919 69.0272 63.8427 69.3438C63.7799 68.5476 63.6526 67.3361 63.4013 65.9131C63.6354 64.8395 64.1945 63.7926 64.6343 63.2535C64.8982 62.9307 65.1432 62.904 65.4526 62.8711C65.7715 62.8366 66.1312 62.7974 66.538 62.4354C66.695 62.2959 66.7736 62.1063 66.7736 61.8712C66.7704 60.9215 65.3867 59.4044 64.9956 59.0596C64.5432 58.6615 62.305 55.2512 62.1762 54.7654C62.1574 54.6933 62.1385 54.6008 62.1165 54.4958C61.9814 53.8407 61.7333 52.6183 60.7108 52.6731C60.1218 52.7045 59.8972 52.9615 59.6977 53.1888C59.5171 53.3956 59.3616 53.5727 58.9171 53.6182C58.339 53.6762 57.0904 52.8126 55.9689 51.9083C53.8642 49.6311 51.4705 47.2207 49.1192 44.9326C49.6532 45.1473 50.4008 45.5846 51.3244 46.4685C51.8741 46.9951 52.4647 47.5765 53.038 48.1407C54.6574 49.733 56.1856 51.2376 56.8799 51.6247C57.9966 52.2484 58.8841 52.6684 59.4259 52.6684C59.6537 52.6684 59.8186 52.5948 59.9144 52.4286C60.2694 51.8174 59.8893 49.0325 59.1558 47.7849C58.9799 47.484 58.738 47.0609 58.4663 46.5829C57.5631 44.9984 56.4401 43.0284 55.9972 42.5441C55.4176 41.911 53.5658 39.8203 53.2233 39.3219C53.1621 39.231 53.0757 39.1197 52.9767 38.9881C52.661 38.5712 52.1993 37.9631 51.8961 37.272C53.9993 39.3094 55.9202 41.2715 57.7186 43.2227V43.2212ZM51.3731 36.7673C51.637 37.7578 52.2982 38.6308 52.7176 39.1824C52.8134 39.3094 52.8966 39.4175 52.9548 39.5037C53.3223 40.0397 55.2275 42.1837 55.7568 42.7604C56.1746 43.218 57.3354 45.2539 58.1835 46.7412C58.4568 47.2207 58.6987 47.6455 58.8762 47.9464C59.605 49.1876 59.8767 51.8456 59.6333 52.2641C59.528 52.4443 58.994 52.4302 57.0385 51.3394C56.3835 50.9743 54.7987 49.4149 53.2673 47.9072C52.694 47.343 52.1019 46.7615 51.5506 46.2334C50.1825 44.9232 49.1663 44.5424 48.6134 44.4389C47.8485 43.6992 47.0914 42.9736 46.3516 42.273C47.5124 42.8309 49.0799 43.6365 50.2925 44.442C51.2459 45.0752 52.072 45.8071 52.8008 46.4528C53.7731 47.3132 54.5396 47.9918 55.1631 48.0247C55.1851 48.0247 55.2055 48.0263 55.2275 48.0263C55.6061 48.0263 55.9155 47.8414 56.1071 47.5013C56.4401 46.9073 56.3223 45.9858 55.8197 45.2601C55.5322 44.8448 55.3155 44.3464 55.0877 43.8183C54.7108 42.9469 54.282 41.9596 53.4181 41.1305C52.1129 39.8798 50.6207 37.6356 50.2061 36.6999C49.7726 35.7188 47.7464 33.7833 47.0537 33.3852C46.5872 33.1157 46.127 32.4026 45.9008 31.6879C45.9134 31.6989 45.9244 31.7099 45.9354 31.7193C47.8846 33.4746 49.6862 35.1452 51.3731 36.7673ZM49.2684 31.2334C48.8317 31.5955 48.3684 31.9747 47.8705 32.3791C47.6396 32.1691 47.4071 31.9575 47.1731 31.7443C47.2705 31.6895 47.3726 31.6346 47.4825 31.5767C48.8459 30.8542 49.826 29.3794 50.6914 28.0786C51.2019 27.3107 51.6841 26.585 52.1694 26.1368C53.4998 24.9065 56.4778 20.0998 57.6966 16.9732C58.0909 17.0516 58.5102 17.1049 58.9579 17.1346C58.193 18.5201 57.6715 19.6626 57.1673 20.769C56.6663 21.8677 56.1872 22.9193 55.4961 24.1652C53.3993 26.5505 51.2851 28.9515 49.2715 31.235L49.2684 31.2334ZM56.415 23.1152C56.7998 22.3504 57.1249 21.6357 57.461 20.9007C57.9794 19.7644 58.5165 18.5875 59.3176 17.1519C59.5516 17.1613 59.7919 17.1644 60.0417 17.1613C60.1438 17.1613 60.2411 17.1581 60.3354 17.155C60.1218 17.6252 59.8155 18.4213 59.5705 19.5215C58.5369 20.6985 57.4799 21.9021 56.415 23.1136V23.1152ZM60.0354 18.9934C60.2725 18.1157 60.5364 17.4904 60.7029 17.1425C61.0422 17.1268 61.3265 17.1033 61.5731 17.0845C61.6249 17.0798 61.6736 17.0766 61.7223 17.0719C61.1694 17.702 60.6071 18.343 60.0354 18.9934ZM64.8212 28.5911C64.0877 27.5881 64.3437 25.5616 64.5307 24.0837C64.5668 23.8001 64.6013 23.5305 64.6265 23.2813C64.6327 23.2296 65.1149 18.0013 63.7516 16.8275C63.1987 16.351 62.7746 16.2366 62.2359 16.2366C62.0176 16.2366 61.7804 16.2554 61.5087 16.2774C61.1286 16.3071 60.6558 16.3448 60.0307 16.3542C57.8034 16.3839 56.3663 15.9435 55.0783 14.8339C54.2144 14.0911 53.8375 11.8092 53.7715 9.92225C53.7621 9.62917 53.6317 9.34707 53.415 9.14803L51.3715 7.25482L56.916 0.837015C56.9427 0.805671 56.9914 0.802536 57.026 0.832314L67.6799 9.77649C67.9076 9.9724 68.0914 10.2216 68.2107 10.4974L68.2893 10.6808L72.1155 13.9751L72.1312 13.9892L79.0908 18.8131C78.7955 19.3476 78.1798 20.4478 77.8186 20.9728C77.3537 21.6483 73.8401 26.129 72.8537 27.2104C71.9552 28.1946 70.2966 29.9702 69.5882 30.652C68.9961 31.2225 68.5155 31.807 67.9139 32.5421C67.1882 31.6362 65.5579 29.591 64.8212 28.5848V28.5911ZM77.0018 27.5473C74.4102 30.3746 71.0223 33.799 69.9259 34.9007L68.2736 32.9966C68.2736 32.9966 68.2139 32.9229 68.1212 32.8069L68.1306 32.7944C68.7401 32.0484 69.2223 31.4591 69.8128 30.8902C70.5275 30.2022 72.194 28.4218 73.094 27.4329C74.1196 26.3076 77.6065 21.8567 78.0856 21.1608C78.4531 20.6264 79.0563 19.5529 79.3594 19.0028L82.1395 20.9305C81.4987 21.9021 79.529 24.789 77.0018 27.5442V27.5473Z" fill="#B3B7B4"/>
<path d="M23.8442 13.6618C23.7342 13.8655 23.6526 14.0066 23.6023 14.0818C23.5819 14.1163 23.6023 14.1711 23.662 14.2464C23.7233 14.3232 23.7704 14.3467 23.8034 14.3185L26.1327 12.3484C26.64 11.919 26.9353 11.4238 27.0138 10.8627C27.0939 10.3016 26.94 9.79543 26.5552 9.34093C26.2662 9.00084 25.9081 8.80337 25.4808 8.74538C25.0536 8.68739 24.5856 8.80807 24.0798 9.10428C24.317 8.77203 24.4473 8.40216 24.4693 7.99154C24.4913 7.5825 24.3657 7.2142 24.0892 6.88978C23.7767 6.52148 23.362 6.38827 22.8484 6.49014C22.3348 6.59201 21.7772 6.89605 21.1788 7.40383C20.4358 8.03229 19.8295 8.59336 19.3615 9.08861C19.3285 9.11682 19.3442 9.16697 19.4086 9.23906C19.4746 9.31115 19.5248 9.33936 19.5625 9.32526C20.0824 9.13249 20.3542 9.04942 20.3793 9.0792L23.9808 13.3186C24.0013 13.3421 23.9557 13.4565 23.8458 13.6618H23.8442ZM23.0479 9.70609L22.8468 9.87692L21.3107 8.06991C21.4018 7.93512 21.5274 7.80034 21.6845 7.66713C21.8903 7.49317 22.1212 7.42264 22.3772 7.45712C22.6332 7.4916 22.8751 7.64205 23.1013 7.91005C23.3777 8.23603 23.5002 8.56202 23.4719 8.89113C23.4421 9.22025 23.3007 9.49138 23.0463 9.70609H23.0479ZM23.3824 10.101C24.1678 9.43653 24.8871 9.48668 25.5358 10.2515C25.8405 10.6104 25.9882 10.9646 25.9803 11.3125C25.9709 11.6604 25.828 11.9519 25.55 12.187C25.4102 12.3046 25.2484 12.4049 25.063 12.4879L23.1798 10.2719L23.3808 10.101H23.3824Z" fill="#B3B7B4"/>
<path d="M64.5049 8.89189L59.8007 11.4433L61.6242 6.4235L59.9436 4.98322C59.9106 4.95501 59.8635 4.97852 59.8022 5.05375C59.741 5.12897 59.7206 5.18383 59.741 5.2183C60.0143 5.69944 60.1384 5.9549 60.1132 5.98311L56.43 10.2632C56.4049 10.2914 56.1347 10.2084 55.6148 10.0109C55.5787 9.99522 55.5269 10.025 55.4609 10.0955C55.3949 10.166 55.3792 10.2178 55.4122 10.246L57.0284 11.6298C57.0614 11.6581 57.1085 11.6345 57.1698 11.5593C57.2311 11.4841 57.2515 11.4292 57.231 11.3948C57.1808 11.318 57.1007 11.1785 56.9923 10.9732C56.8824 10.7679 56.8384 10.6535 56.8588 10.6299L59.8619 7.1413L57.9033 12.4918L58.3117 12.8413L63.2876 10.177L60.3347 13.6077C60.3096 13.6359 60.0394 13.5528 59.5195 13.3554C59.4834 13.3413 59.4316 13.3679 59.3656 13.44C59.2996 13.5121 59.2839 13.5622 59.3169 13.5904L61.541 15.4962C61.574 15.5244 61.6211 15.5009 61.6823 15.4257C61.7436 15.3504 61.764 15.2956 61.7436 15.2611C61.6933 15.1843 61.6132 15.0448 61.5049 14.8395C61.3965 14.6342 61.3509 14.5198 61.3714 14.4963L65.0546 10.2162C65.075 10.1927 65.196 10.2193 65.4143 10.2961C65.6342 10.3729 65.785 10.4309 65.8682 10.4685C65.9043 10.4842 65.9562 10.456 66.0221 10.3839C66.0881 10.3118 66.1038 10.2616 66.0708 10.2334L64.5049 8.89189Z" fill="#B3B7B4"/>
</svg>
