<svg width="83" height="73" viewBox="0 0 83 73" fill="none" xmlns="http://www.w3.org/2000/svg">
<path d="M82.7065 20.3977L72.6306 13.3905L68.96 10.2209L68.9553 10.2083C68.9427 10.18 68.927 10.1533 68.9128 10.125C69.2443 9.74611 69.5615 9.38294 69.86 9.0402L70.017 8.86097C70.328 8.50409 70.3186 7.97426 69.9935 7.62995C69.4249 7.0278 67.9265 5.47133 66.2741 4.04379C64.7568 2.73415 63.2788 1.6745 62.5327 1.15882C62.0804 0.847525 61.4647 0.919846 61.0972 1.33019L60.1453 2.39928L57.5521 0.215505C57.1815 -0.105221 56.6207 -0.0627723 56.3003 0.308264L50.7574 6.73852C50.4668 7.07654 50.4951 7.57807 50.8234 7.87993L52.8668 9.76498C52.9249 9.82001 52.9595 9.8939 52.9626 9.97251C52.9673 10.1077 52.9736 10.2618 52.9846 10.4332L50.6302 13.0744L50.5846 13.1373C50.5375 13.2159 46.4207 20.1571 41.9899 26.5214C37.1223 20.6115 35.8846 15.7267 35.7339 15.068C35.6946 14.8982 35.5972 14.7457 35.4574 14.6403C35.0019 14.296 33.4375 13.1012 31.7585 11.7224C31.7726 11.2067 31.7051 10.7429 31.6548 10.4017C31.5401 9.62977 32.3208 9.26188 32.3522 9.24773L32.4166 9.21943L33.2208 8.44592C33.37 8.30285 33.4532 8.10947 33.4532 7.90351C33.4532 7.69598 33.3747 7.5026 33.2271 7.35796L26.6852 0.926135C26.4103 0.655718 25.9752 0.63528 25.6752 0.878969L23.2423 2.85521C22.9313 2.47946 22.6564 2.1493 22.4302 1.88831C21.9197 1.30189 21.6119 0.946573 21.2475 1.21542L21.2067 1.24529C20.2533 1.94334 19.27 2.67755 18.4391 3.31272C17.1135 4.32835 14.7952 6.28887 14.4433 6.78726C14.2658 7.03881 14.2234 7.10169 15.5883 9.07479L0.2711 21.525C0.118745 21.6476 0.024504 21.8237 0.0040852 22.017C-0.0163336 22.2104 0.0402108 22.4007 0.164294 22.5516C0.875811 23.4257 3.43602 26.4899 6.54281 29.2554C9.87422 32.219 12.9732 33.6308 13.8449 33.994C13.9407 34.0333 14.0412 34.0537 14.1418 34.0537C14.2564 34.0537 14.3711 34.0286 14.4763 33.9767C14.6742 33.8808 14.8234 33.7047 14.8847 33.4925C15.2397 32.2551 17.0287 26.0246 17.4527 24.8203C17.9899 23.2984 20.2218 18.1699 21.2773 17.0379C21.2946 17.0191 21.3135 17.0033 21.3307 16.9845C23.4166 19.761 26.4778 23.737 28.4365 25.8548C30.8915 28.507 33.4721 31.164 36.304 33.9531C29.1826 42.5829 16.98 56.2106 14.415 58.8833C12.2711 61.1174 9.45956 63.4741 7.97527 64.68C7.35486 65.1846 7.24962 66.1075 7.74281 66.7364C8.3114 67.4612 9.27736 68.5759 10.6548 69.766C12.2459 71.1401 13.7035 72.2501 14.4292 72.7893C14.6161 72.9277 14.8407 73 15.0685 73C15.1454 73 15.2239 72.9921 15.3009 72.9748C15.6041 72.9072 15.8648 72.7107 16.0124 72.4372C16.6878 71.1857 18.1156 68.6718 20.093 65.8937C22.7396 62.1755 31.7051 52.1528 38.759 44.3987C39.7061 43.3579 41.049 41.8565 42.6605 40.0422C42.8113 40.1837 42.9605 40.3236 43.1129 40.4651C50.2014 47.0699 55.5919 52.593 58.7034 56.4338C62.2123 60.7668 62.9301 67.9187 63.0652 70.0081C63.1893 71.9183 64.8259 72.3287 66.9039 72.3287C67.427 72.3287 67.9799 72.3019 68.5422 72.2674C72.2757 72.0362 74.7699 68.8903 74.9662 67.6546C75.2348 65.9629 72.7453 61.3548 67.9532 54.6793C62.4448 47.0054 56.9066 40.8204 48.6825 33.2205C53.1951 28.0936 58.3422 22.2183 62.7526 17.1747C62.9003 17.236 63.0432 17.3335 63.2223 17.4891C63.8961 18.0709 64.0265 21.2986 63.8191 23.2638C63.794 23.5075 63.7594 23.7732 63.7249 24.0515C63.5097 25.7604 63.2411 27.8876 64.1647 29.1548C65.1338 30.4817 67.6155 33.5742 67.65 33.6167L69.3825 35.6212C69.5113 35.7706 69.6982 35.8602 69.8961 35.8665C69.9039 35.8665 69.9118 35.8665 69.9212 35.8665C70.1097 35.8665 70.2919 35.791 70.4254 35.6574C71.4353 34.6402 74.9348 31.0949 77.6018 28.1785C80.2673 25.2605 82.3217 22.2026 82.8872 21.3347C83.0913 21.0219 83.0112 20.6115 82.7049 20.3977H82.7065ZM68.7966 7.55606C69.0511 7.81704 69.2584 8.03557 69.4029 8.18808C69.439 8.22738 69.4406 8.28712 69.406 8.32643L69.249 8.50566C68.9929 8.79809 68.7259 9.10466 68.4464 9.42539C68.371 9.34206 68.2909 9.26345 68.2045 9.18956L67.6296 8.70533C67.9484 8.21166 68.4652 7.79346 68.795 7.55606H68.7966ZM68.5657 7.32023C68.2217 7.57021 67.7191 7.98841 67.3814 8.49465L66.3652 7.63781C66.8223 7.03094 67.328 6.62375 67.6437 6.40521C67.9846 6.73537 68.2956 7.04509 68.5657 7.32023ZM66.9291 5.72603C67.0924 5.87853 67.2495 6.02789 67.4034 6.1741C67.0673 6.41307 66.571 6.82499 66.1155 7.42871L65.7573 7.12685C66.1626 6.53728 66.5725 6.10335 66.882 5.77319C66.8977 5.7559 66.9118 5.74175 66.9275 5.72446L66.9291 5.72603ZM66.6903 5.50592C66.6762 5.52164 66.6621 5.53579 66.6479 5.55151C66.3338 5.88325 65.9223 6.32189 65.5092 6.91775L64.727 6.259C65.2437 5.55623 65.5642 5.00911 65.7464 4.66166C66.0699 4.93993 66.3856 5.2245 66.6903 5.50592ZM65.4919 4.44469C65.3254 4.77014 65.0081 5.32355 64.4772 6.04833L63.4202 5.1569C63.4704 4.9195 63.6118 4.57676 63.9841 4.18371C64.1191 4.04221 64.1254 3.84255 63.9998 3.71048C63.8396 3.54068 63.4987 3.52339 63.0966 3.86456C62.85 4.07366 62.6537 4.25289 62.5076 4.38809L61.5291 3.56427C62.2704 3.03916 62.9961 2.86307 63.4327 2.80647C64.0453 3.26555 64.76 3.82211 65.4919 4.44312V4.44469ZM63.1469 4.92893L62.7589 4.60191C62.8987 4.47142 63.0825 4.30634 63.3071 4.11453C63.5458 3.91172 63.6888 3.91487 63.7265 3.92115C63.7532 3.92587 63.7642 3.9353 63.7642 3.9353C63.7642 3.93845 63.761 3.94788 63.7485 3.96203C63.4045 4.32521 63.2333 4.65851 63.1485 4.92893H63.1469ZM61.7034 1.87416C61.7977 1.76883 61.9563 1.74996 62.0725 1.83014C62.327 2.00623 62.6694 2.24677 63.0668 2.5392C62.5814 2.63982 61.9312 2.86307 61.2715 3.35045L60.7657 2.92439L61.7019 1.87416H61.7034ZM52.5589 12.4754C52.7883 12.1987 52.9438 12.0116 53.1228 11.8497C53.1762 12.2317 53.2453 12.6279 53.338 13.0178C53.0741 13.2191 52.6972 13.543 52.4239 13.9313C51.805 14.8038 51.4061 15.5852 50.9804 16.4122C50.693 16.9719 50.3961 17.552 50.0129 18.1982C48.6228 20.5376 48.7987 21.0737 48.8569 21.2498C48.9024 21.3897 48.9951 21.4935 49.1239 21.547C49.1898 21.5753 49.2574 21.5878 49.3249 21.5878C49.6956 21.5878 50.0788 21.1885 50.5108 20.7373C50.7747 20.4622 51.0747 20.1493 51.3951 19.9009C51.5474 19.783 51.6998 19.6682 51.8521 19.555C52.6092 18.989 53.393 18.4026 54.1233 17.3555C54.5961 16.6779 54.9024 16.2 55.083 15.9044C55.3123 16.0679 55.5495 16.2141 55.793 16.3462C55.705 16.4751 55.5841 16.6512 55.4144 16.8964C55.1301 17.3083 54.9275 17.7596 54.7328 18.1966C54.4359 18.8632 54.1548 19.4937 53.5987 20.0204L53.3616 20.2468C52.5055 21.0627 51.7673 21.7686 50.6836 22.0642C50.2705 22.1774 49.7914 22.3881 49.2825 22.6098C48.3621 23.0138 47.3192 23.4713 46.9579 23.1585C46.6532 22.8959 47.4527 21.7545 48.0951 20.8395C48.5427 20.2027 49.0045 19.5424 49.27 18.9843C49.5197 18.4608 49.7679 17.7753 50.0317 17.0489C50.5233 15.6937 51.0794 14.1577 51.7516 13.414C52.1113 13.0163 52.3595 12.716 52.5589 12.4739V12.4754ZM52.8511 14.6388C52.3673 15.0868 52.3076 15.3478 52.2401 15.6513C52.1804 15.917 52.1129 16.2188 51.6841 16.7832C51.227 17.387 51.1124 17.8114 51.3448 18.0473C51.4359 18.14 51.5647 18.1762 51.6904 18.1762C51.816 18.1762 51.9495 18.1369 52.0296 18.0787C52.2558 17.9121 53.2642 17.0065 53.8453 16.2125C54.1045 15.8572 54.3197 15.5962 54.4736 15.417C54.4987 15.4422 54.5254 15.4673 54.5521 15.4893C54.6417 15.5664 54.7312 15.6403 54.8207 15.711C54.6432 16.0003 54.3354 16.4829 53.8563 17.1716C53.1558 18.1762 52.427 18.7202 51.6574 19.2972C51.5035 19.4119 51.3495 19.5267 51.1956 19.6462C50.8563 19.9087 50.5469 20.231 50.2752 20.514C49.8652 20.9417 49.4773 21.3457 49.2495 21.2482C49.2213 21.2357 49.1867 21.2137 49.1647 21.1492C49.1082 20.9778 49.105 20.3615 50.2925 18.3649C50.682 17.7108 50.9804 17.126 51.271 16.5616C51.6888 15.744 52.0846 14.9736 52.6893 14.1199C52.9029 13.8181 53.1935 13.5524 53.4275 13.3637C53.4872 13.5807 53.5532 13.7945 53.6286 13.9973C53.3851 14.164 53.0977 14.4108 52.8542 14.6372L52.8511 14.6388ZM53.7495 14.3086C53.8909 14.6341 54.0574 14.9296 54.2521 15.1749C54.0904 15.3604 53.8626 15.6371 53.5815 16.0207C53.0192 16.788 52.0265 17.6762 51.8364 17.8162C51.7877 17.8507 51.6291 17.8743 51.5757 17.8193C51.5239 17.7659 51.5317 17.5222 51.9432 16.9798C52.4144 16.3587 52.493 16.005 52.5574 15.722C52.6186 15.4516 52.6626 15.2566 53.0726 14.8762C53.3804 14.5916 53.5972 14.4171 53.7511 14.307L53.7495 14.3086ZM47.9993 19.3868C48.4548 18.5755 48.816 17.9309 49.0846 17.1558C49.7302 16.1166 50.261 15.2456 50.6396 14.6215C50.305 15.34 50.005 16.1685 49.7254 16.9405C49.4647 17.6589 49.2197 18.3381 48.9762 18.8475C48.7218 19.3821 48.2679 20.0298 47.8281 20.6571C46.9642 21.8897 46.2166 22.9541 46.7443 23.41C46.8919 23.5374 47.0836 23.5908 47.3066 23.5908C47.8642 23.5908 48.6213 23.2591 49.4113 22.9132C49.9076 22.6962 50.3773 22.4903 50.7668 22.3834C51.9291 22.0658 52.6956 21.3347 53.583 20.4873L53.8202 20.2625C54.4233 19.6918 54.7312 19.0016 55.0281 18.335C55.226 17.8916 55.4129 17.4734 55.6799 17.0867C55.8542 16.8335 55.9862 16.6433 56.0835 16.4987C56.2281 16.5678 56.3757 16.6307 56.5281 16.6889C56.1055 17.475 55.116 19.3176 54.4171 20.5974C53.5343 22.2151 50.6427 25.6457 48.4689 27.897C47.1857 29.2255 46.2637 29.4221 45.4501 29.5966C45.2663 29.6359 45.0872 29.6752 44.9098 29.7271C44.3741 29.1972 43.87 28.669 43.394 28.1486C43.5244 27.6675 43.727 27.1392 44.0192 26.5937C44.7181 25.2856 45.3433 24.1725 45.9464 23.0956C46.4443 22.2073 46.9611 21.2876 47.5124 20.2672C47.6851 19.948 47.8469 19.6603 47.9993 19.3899V19.3868ZM56.8375 16.7958C57.0118 16.8524 57.1909 16.9043 57.3762 16.9499C56.0977 20.2279 53.137 24.8737 51.9495 25.9758C51.4359 26.4522 50.9427 27.1958 50.4213 27.9835C49.5778 29.257 48.6213 30.7002 47.3317 31.3857C47.1857 31.4628 47.049 31.5382 46.9218 31.6105C46.7757 31.4785 46.6312 31.3464 46.482 31.2128C46.0296 30.804 45.5961 30.3968 45.1799 29.9896C45.2899 29.9629 45.4014 29.9377 45.5176 29.9126C46.3344 29.7381 47.3506 29.5211 48.7014 28.1203C50.938 25.8029 53.7951 22.4132 54.7014 20.7499C55.4129 19.4449 56.4291 17.5568 56.8375 16.7958ZM47.2422 20.0817C47.2375 20.0911 47.2328 20.1006 47.2265 20.11C46.6752 21.1272 46.16 22.0453 45.6621 22.9336C45.0574 24.0122 44.4323 25.1268 43.7317 26.438C43.4804 26.9097 43.281 27.3955 43.138 27.8624C42.9291 27.6298 42.7265 27.3987 42.5286 27.1675C44.2077 24.7637 45.8459 22.2686 47.2422 20.0817ZM34.9454 15.2771C35.0019 15.5192 35.17 16.1795 35.5265 17.159C35.3428 16.9939 35.1558 16.7644 35.0113 16.4405C34.603 15.5239 34.1695 14.8023 33.2742 13.9863C34.0579 14.6026 34.6721 15.0711 34.9454 15.2771ZM32.6742 13.8951C33.7941 14.8164 34.27 15.5742 34.7145 16.5726C34.9941 17.1999 35.4197 17.53 35.7291 17.6982C36.1894 18.8742 36.8883 20.404 37.9234 22.157C37.3359 21.907 36.549 21.4589 36.114 20.731C35.4574 19.6368 34.5825 17.5206 34.0045 16.1213C33.8883 15.8415 33.7862 15.5915 33.6998 15.3871C33.2993 14.436 32.0286 13.6609 31.3878 13.3181C31.4867 13.1137 31.5621 12.9094 31.6171 12.705C31.8009 13.0241 32.1197 13.4392 32.6742 13.8951ZM21.4847 2.05025C21.7218 2.29866 22.1444 2.80018 22.614 3.36774L22.2543 3.66017C21.7313 3.03758 21.3496 2.59265 21.1156 2.32224C21.2381 2.23105 21.3622 2.14144 21.4847 2.05025ZM20.8533 2.51562C21.0841 2.78289 21.4705 3.23096 22.0014 3.86456L21.7156 4.09724C21.5161 3.73406 21.1423 3.21524 20.4873 2.78761C20.6082 2.69799 20.7307 2.6068 20.8533 2.51562ZM18.9339 3.96046C19.3297 3.65703 19.7616 3.33001 20.2077 2.99671C20.9004 3.41963 21.2758 3.96518 21.458 4.30791L20.8375 4.81259C20.2517 3.91958 20.0004 3.75922 19.7899 3.80639C19.5622 3.85827 19.5292 4.15698 19.5182 4.25446C19.4601 4.76856 19.5857 5.09401 19.8496 5.61597L19.1287 6.20083C18.8821 5.57353 18.6904 4.70725 18.5946 4.22459C18.7109 4.1334 18.8255 4.04379 18.9355 3.95889L18.9339 3.96046ZM20.5847 5.01854L20.1072 5.40687C19.8904 4.96981 19.7946 4.69782 19.8402 4.29219C19.8496 4.20572 19.8637 4.15856 19.8732 4.13497C19.9454 4.17113 20.1355 4.33307 20.5847 5.01854ZM18.3072 4.45255C18.4187 4.98867 18.6135 5.81564 18.8648 6.41622L18.004 7.11584C17.591 6.3549 17.3664 5.69458 17.2564 5.31254C17.6067 5.02011 17.9648 4.72612 18.3072 4.45255ZM16.9831 5.54208C17.1103 5.96186 17.3444 6.59702 17.7465 7.32494L16.5166 8.32328C16.2575 7.729 16.1459 6.81398 16.102 6.30145C16.3674 6.06719 16.6674 5.80778 16.9815 5.54051L16.9831 5.54208ZM15.2538 7.09383C15.3794 6.96491 15.5711 6.78411 15.802 6.57344C15.8616 7.14414 15.9904 7.97111 16.2575 8.53553L16.226 8.56068C15.7501 7.87207 15.4093 7.35953 15.2522 7.0954L15.2538 7.09383ZM14.1166 33.2283C13.2245 32.8526 10.27 31.4863 7.08313 28.6501C4.09413 25.99 1.6156 23.0453 0.847539 22.1051L3.00094 20.3552C3.35905 21.0643 4.19936 22.5972 5.54072 24.2936C7.38627 26.6267 10.9988 29.268 12.2538 29.812C13.1397 30.1956 14.2438 30.6154 14.8077 30.8276C14.5187 31.8244 14.2674 32.6985 14.1166 33.2299V33.2283ZM20.6836 16.4861C19.4475 17.8114 17.0962 23.3911 16.6863 24.5514C16.4051 25.3501 15.5695 28.1926 14.8972 30.5132C14.3287 30.3009 13.2496 29.889 12.381 29.5132C11.1528 28.9818 7.6093 26.3877 5.7936 24.0923C4.42554 22.3629 3.58837 20.808 3.25696 20.1461L26.1512 1.53929L32.6176 7.89879L31.9517 8.53867C31.4663 8.78394 30.6936 9.46312 30.8506 10.5212C31.0407 11.8025 31.0988 13.2552 29.3836 14.2552C27.3684 15.4312 27.0464 15.5789 25.3344 15.5412C25.0077 15.5333 24.6951 15.516 24.392 15.4988C22.9705 15.417 21.7438 15.3478 20.6852 16.4829L20.6836 16.4861ZM28.0988 16.7282C28.3108 16.9923 28.5511 17.291 28.7993 17.585C29.3381 18.2234 29.649 18.8884 29.9506 19.5314C30.1422 19.9418 30.3244 20.3301 30.5585 20.7074C30.8977 21.2514 31.7569 22.5107 32.4433 22.5107C32.448 22.5107 32.4511 22.5107 32.4558 22.5107C32.5909 22.5076 32.7778 22.4541 32.9113 22.2183C33.015 22.0328 32.8595 21.7969 32.4857 21.2278C32.049 20.5643 31.3878 19.5613 30.9323 18.2642C30.7454 17.7313 30.2114 17.2172 29.536 16.5663C29.2438 16.2848 28.9234 15.9751 28.6014 15.634C28.7223 15.5695 28.848 15.5003 28.9815 15.4249C29.5375 15.7928 30.6967 16.6166 31.2826 17.4373C31.5197 17.7706 31.9438 18.5174 32.481 19.4638C33.7438 21.6885 35.6506 25.0482 37.2778 26.7729C38.7401 28.3231 39.7815 29.5573 40.6171 30.5493C41.0789 31.0964 41.4762 31.5697 41.8234 31.9454C42.4124 32.5869 42.7548 33.2346 43.0548 33.8085C43.226 34.1323 43.3862 34.4389 43.57 34.6936C43.7286 34.9137 44.0647 35.2423 44.4527 35.6228C45.0385 36.1951 46.2558 37.3883 46.0281 37.6478C46.0077 37.6713 45.9652 37.6808 45.9087 37.6823C45.216 37.6682 43.1663 36.0095 41.9192 34.4562C41.671 34.1465 41.3946 33.7927 41.0899 33.4028C39.6841 31.6027 37.76 29.1359 35.4213 26.9616C32.4354 24.1867 30.2428 21.6979 29.4056 20.1367C29.0993 19.566 28.7899 19.0362 28.4915 18.5236C28.0203 17.7155 27.571 16.9452 27.2522 16.2C27.3637 16.1701 27.4737 16.1371 27.5852 16.0978C27.736 16.2754 27.9087 16.4908 28.0972 16.7251L28.0988 16.7282ZM27.9056 15.9767C28.0328 15.9217 28.1632 15.8604 28.3014 15.7928C28.6485 16.1654 28.9956 16.5018 29.3098 16.8037C29.9286 17.4011 30.4627 17.9152 30.6244 18.3759C31.0941 19.7106 31.7679 20.7326 32.2124 21.4102C32.3977 21.6916 32.5894 21.9825 32.6129 22.0847C32.5548 22.1743 32.4951 22.1868 32.448 22.1884H32.4417C32.1731 22.1884 31.5935 21.7576 30.8333 20.5392C30.6087 20.1792 30.4312 19.7987 30.2443 19.3978C29.9349 18.7343 29.6145 18.0488 29.0475 17.3791C28.8009 17.0882 28.5621 16.7895 28.3517 16.5285C28.1899 16.3273 28.0422 16.1434 27.9056 15.9798V15.9767ZM28.2103 18.6919C28.5072 19.2013 28.815 19.7279 29.1182 20.2939C29.971 21.8866 32.1888 24.4052 35.1998 27.2037C37.5197 29.3607 39.4359 31.8149 40.8338 33.6072C41.1386 33.9971 41.4166 34.354 41.6647 34.6637C42.8946 36.1966 45.0118 37.9921 45.8993 38.0109C45.904 38.0109 45.9087 38.0109 45.9134 38.0109C46.1019 38.0109 46.2118 37.9323 46.27 37.8663C46.6673 37.4104 45.86 36.5551 44.6773 35.3948C44.3145 35.0395 43.9736 34.7046 43.8307 34.5081C43.6611 34.2723 43.5118 33.9893 43.3391 33.6607C43.0281 33.0711 42.6762 32.4014 42.059 31.73C41.7181 31.359 41.3208 30.8889 40.8621 30.3449C40.0234 29.3497 38.9789 28.1109 37.5103 26.5544C35.9098 24.858 34.014 21.5187 32.7606 19.3082C32.2187 18.3539 31.7915 17.5992 31.5433 17.2533C30.9668 16.4452 29.9035 15.6607 29.2956 15.2488C29.4496 15.1592 29.6129 15.0648 29.7888 14.9626C30.0826 14.7913 30.3354 14.6073 30.5506 14.4139C31.0155 14.7017 31.892 15.3132 32.5124 16.1449C32.8752 16.6323 33.5271 17.8445 34.2825 19.2469C35.36 21.2483 36.7014 23.7386 37.6721 24.9539C38.726 26.2714 39.4658 27.2792 40.0077 28.0165C40.3092 28.4253 40.5464 28.7492 40.7569 29.0164C41.3726 29.801 42.6998 31.8307 43.0202 32.3353C43.2323 32.6702 43.9485 33.1906 44.7071 33.7424C45.2961 34.1701 45.9621 34.6559 46.0658 34.8445C46.2433 35.1716 46.6249 35.9687 46.9595 36.6714C47.0946 36.9544 47.2265 37.2295 47.3412 37.4654C47.4731 37.7374 47.7323 38.1131 48.0338 38.547C48.5412 39.2781 49.3893 40.4997 49.1443 40.8173C48.9731 41.0374 48.2836 40.5233 47.7291 40.1082C47.2139 39.723 46.6815 39.3253 46.2464 39.2152C45.2993 38.9763 42.3684 36.9984 41.2752 35.7438C40.8386 35.2423 40.4427 34.7392 40.0595 34.2518C39.4532 33.4799 38.8799 32.7504 38.1543 32.024C36.8176 30.6861 29.7025 23.3911 28.1349 20.9967C26.7213 18.8381 26.1621 17.5929 26.0868 16.3572C26.3977 16.3462 26.6695 16.321 26.9255 16.2754C27.2538 17.0568 27.7187 17.8539 28.2072 18.6919H28.2103ZM21.9967 16.5128C22.3218 16.3635 22.6752 16.3006 23.0663 16.2801C23.0695 16.4609 23.1009 16.6732 23.2014 16.8744C23.2878 17.0474 23.5281 17.3476 23.8313 17.7265C24.3009 18.3145 24.9449 19.1195 25.058 19.5519C25.1286 19.8254 25.2763 20.1288 25.4459 20.481C25.6093 20.819 25.793 21.2042 25.947 21.6382C24.6967 20.0707 23.3271 18.2847 21.9967 16.5112V16.5128ZM29.0302 25.3045C28.3234 24.5404 27.4438 23.4981 26.4731 22.2969C26.3004 21.5155 25.9941 20.8741 25.7381 20.3411C25.5747 20.0046 25.4349 19.7138 25.3721 19.4717C25.2433 18.9733 24.6009 18.1699 24.0857 17.5253C23.8171 17.1904 23.5642 16.8728 23.4936 16.7314C23.4182 16.5804 23.3946 16.4153 23.393 16.2754C23.6836 16.2754 23.993 16.2943 24.3276 16.3131C24.4171 16.7817 24.6103 17.5913 24.9669 18.2139C25.0328 18.3287 25.1192 18.4843 25.2245 18.6714C25.9548 19.9826 27.4737 22.7104 28.9988 24.2606L29.3962 24.663C31.1113 26.405 33.981 29.3199 34.4742 30.0604C34.5511 30.1751 34.6344 30.2962 34.7223 30.4235C35.093 30.9565 35.5281 31.5838 35.7119 32.2253C33.3401 29.8607 31.1396 27.581 29.0333 25.3061L29.0302 25.3045ZM36.1155 32.6278C36.0401 31.7536 35.4637 30.9219 34.9862 30.2365C34.8998 30.1123 34.8166 29.9928 34.7412 29.8796C34.2307 29.1123 31.4585 26.2965 29.6239 24.4351L29.2265 24.0326C27.7328 22.5139 26.2281 19.8113 25.5056 18.5126C25.4004 18.324 25.3124 18.1668 25.2464 18.0504C24.9339 17.5064 24.7517 16.7864 24.6606 16.3304C24.8726 16.3414 25.0878 16.3525 25.3124 16.3572C25.4726 16.3603 25.6218 16.3619 25.7632 16.3619C25.8386 17.6637 26.4119 18.9529 27.8648 21.1728C29.448 23.5892 36.5867 30.9093 37.9265 32.2504C38.6396 32.9642 39.2051 33.6858 39.805 34.4483C40.1899 34.9389 40.5888 35.4451 41.0302 35.9529C42.1846 37.2783 45.1673 39.2734 46.1663 39.5249C46.5385 39.6193 47.0443 39.9966 47.5328 40.3629C48.0982 40.7858 48.6401 41.1915 49.0343 41.1915C49.1773 41.1915 49.3014 41.138 49.3987 41.0107C49.7883 40.506 49.0312 39.4133 48.2977 38.3568C48.0165 37.9512 47.7511 37.5676 47.6302 37.3192C47.5155 37.0833 47.3851 36.8082 47.2501 36.5268C46.8967 35.7863 46.5307 35.0206 46.3485 34.6857C46.2166 34.4436 45.7108 34.0679 44.8956 33.4752C44.2281 32.9894 43.471 32.4391 43.292 32.1561C42.97 31.6483 41.6317 29.6044 41.0098 28.8105C40.8024 28.5464 40.5668 28.2256 40.2668 27.8184C39.7234 27.0795 38.9804 26.0686 37.9234 24.7464C36.9715 23.5546 35.638 21.0785 34.5668 19.0881C33.8051 17.6747 33.1485 16.4531 32.77 15.9468C32.1433 15.1041 31.2873 14.491 30.7878 14.175C30.9621 13.9895 31.1066 13.7976 31.2276 13.6027C31.8323 13.9266 33.0386 14.6592 33.3983 15.5113C33.4846 15.7157 33.5867 15.9641 33.703 16.244C34.2857 17.6527 35.1653 19.7814 35.8344 20.8961C36.4328 21.8944 37.5841 22.4022 38.1967 22.6098C38.6066 23.2811 39.0653 23.9823 39.5773 24.7071C39.5427 26.0466 40.003 26.6581 40.6705 27.5386C40.7317 27.6188 40.7946 27.7037 40.8605 27.7901L40.8825 27.82C41.7935 29.0353 44.2139 32.2661 45.9747 33.8666C47.0396 34.8351 47.7872 36.1149 48.5773 37.4685C49.0736 38.3175 49.5857 39.1948 50.1951 40.0186C51.3055 41.5201 52.5637 43.2212 52.3909 43.8925C52.3642 43.9978 52.2982 44.0717 52.1867 44.122C51.5097 44.4318 48.6825 42.4288 47.6176 41.6757C47.3145 41.4619 47.0757 41.2921 46.9406 41.2072C46.2417 40.767 44.3427 39.5202 42.9323 38.4716C42.2098 37.9339 41.2548 36.9088 40.4145 36.0032C39.4878 35.008 38.905 34.3902 38.5925 34.266C38.2485 34.1276 37.9171 34.1292 37.6736 34.1638C37.1443 33.6465 36.6244 33.134 36.1108 32.6246L36.1155 32.6278ZM36.5066 34.9908C36.6354 34.8351 36.7611 34.6826 36.8867 34.5301C38.0412 35.6605 39.2396 36.8145 40.4867 37.9983C39.2427 38.5832 38.0019 38.808 36.7422 38.3993C36.2993 38.2562 36.0904 37.8301 36.1061 37.1006C36.1171 36.5692 36.2506 35.8743 36.5066 34.9923V34.9908ZM30.6826 41.8565C30.6433 41.9351 30.5899 42.0247 30.5239 42.1301C30.3794 42.3612 30.2161 42.6222 30.1689 42.9335C30.0731 43.5623 29.4244 43.968 28.6862 44.1582C29.3553 43.391 30.0229 42.6206 30.6826 41.8549V41.8565ZM25.9768 47.2538C27.2051 46.5118 29.0381 45.6093 29.759 46.1046C29.7637 46.1077 29.7794 46.1187 29.7826 46.1674C29.8312 46.8969 27.4375 49.7756 26.4888 50.6388C25.6124 51.4359 24.6433 52.6402 22.9297 54.8774C22.2826 55.7216 21.7313 56.3442 21.2444 56.8945C20.47 57.7702 19.7993 58.5264 19.0093 59.8471C18.4391 60.7982 17.9349 61.7321 17.4889 62.5559C17.3664 62.7823 17.2486 62.9977 17.1339 63.21C16.9611 62.9773 16.7381 62.7855 16.4805 62.6503C17.2627 61.0985 18.326 59.2984 19.6972 57.8252C20.5093 56.9527 21.1391 55.9103 21.8695 54.7029C22.5574 53.5662 23.3365 52.277 24.4768 50.7519C25.2025 49.7803 25.2449 49.4848 25.0784 49.3213C24.9574 49.2033 24.7375 49.142 23.781 49.7458C24.4988 48.9361 25.2354 48.1012 25.9799 47.2538H25.9768ZM16.702 64.3545C16.702 64.9677 16.2041 65.4661 15.5915 65.4661C14.9789 65.4661 14.481 64.9677 14.481 64.3545C14.481 63.7414 14.9789 63.243 15.5915 63.243C16.2041 63.243 16.702 63.7414 16.702 64.3545ZM14.9993 59.4493C16.1805 58.2198 19.2339 54.8617 22.8889 50.7488C23.7512 50.1231 24.5522 49.6137 24.8224 49.5712C24.7957 49.6703 24.6826 49.9313 24.2145 50.5554C23.0648 52.0915 22.281 53.3885 21.5899 54.5315C20.8391 55.7719 20.247 56.753 19.4585 57.6004C18.0559 59.1081 16.9737 60.9445 16.1805 62.5214C15.9952 62.4616 15.7988 62.4286 15.5931 62.4286C15.2664 62.4286 14.9585 62.5104 14.6883 62.655C15.9433 60.6473 17.8847 58.006 18.1815 57.7278C18.6056 57.3284 19.4883 56.4999 19.5465 55.6981C19.559 55.5173 19.4569 55.4559 19.4129 55.4371C19.1585 55.3333 18.7847 55.6918 17.0538 57.7057C16.2622 58.6255 15.4438 59.5766 15.0873 59.8329C14.8941 59.9713 14.6805 60.1379 14.4543 60.314C14.0601 60.6222 13.6187 60.9649 13.1475 61.2683C13.7883 60.6693 14.4198 60.053 15.0025 59.4462L14.9993 59.4493ZM8.4936 66.3811C9.35433 65.7145 11.7135 64.7036 12.2114 64.6784C12.202 64.735 12.1517 64.8073 12.0402 64.9567C11.8878 65.1611 11.6585 65.4708 11.437 65.9975C11.1402 66.7018 10.0925 67.3134 9.54909 67.5917C9.11716 67.1342 8.76532 66.7207 8.4936 66.3811ZM10.5716 68.6057C10.2873 68.3416 10.025 68.0838 9.78469 67.8369C10.3831 67.5225 11.4151 66.8905 11.737 66.1232C11.9428 65.6327 12.1501 65.3544 12.3009 65.1501C12.4658 64.9284 12.5962 64.7523 12.5114 64.507C12.4957 64.4599 12.4486 64.3781 12.3119 64.3577C11.7763 64.2806 9.2915 65.3686 8.30669 66.1201C8.17475 65.8497 8.24072 65.5101 8.48417 65.3136C9.3826 64.5841 10.7648 63.4348 12.1941 62.144C13.1161 61.7699 13.9533 61.1174 14.6507 60.5734C14.8737 60.3989 15.0842 60.2354 15.2726 60.1002C15.6622 59.8219 16.4569 58.8975 17.2972 57.9211C17.9522 57.1602 18.8129 56.1587 19.1931 55.8443C19.0407 56.4763 18.3182 57.1555 17.9459 57.5045C17.5674 57.8598 13.8983 62.8641 13.3611 64.4441C13.2889 64.6548 13.2213 64.8639 13.1538 65.0667C12.7454 66.304 12.3936 67.3731 11.7669 67.7819C11.3035 68.0838 10.8575 68.3982 10.57 68.6042L10.5716 68.6057ZM11.1842 69.156C11.0569 69.0459 10.936 68.939 10.8166 68.8306C11.1009 68.6277 11.5172 68.3353 11.9459 68.0555C12.6669 67.5838 13.036 66.466 13.4632 65.1705C13.5308 64.9677 13.5983 64.7602 13.6705 64.5511C13.6737 64.5432 13.6768 64.5338 13.68 64.5275C13.7349 65.1611 14.0993 65.7066 14.6192 66.0148C14.5753 66.1264 14.5313 66.2364 14.4904 66.3449C14.0711 67.4187 13.7412 68.2677 13.0266 68.9029C12.5271 69.3478 12.1863 69.6418 11.9711 69.8242C11.7151 69.6104 11.4512 69.3871 11.1842 69.1576V69.156ZM12.224 70.0333C12.4407 69.8478 12.7706 69.5632 13.2402 69.1434C14.0114 68.4564 14.3726 67.5319 14.7904 66.4597C14.8297 66.3591 14.8705 66.2569 14.9114 66.1531C15.0637 66.2113 15.2255 66.2522 15.3936 66.2695C15.3088 66.5069 15.2475 66.7333 15.1925 66.9565C15.0669 67.4549 14.9475 67.9265 14.5156 68.4894C13.9046 69.2896 13.2465 70.1355 12.8962 70.582C12.6795 70.4075 12.4548 70.2235 12.2224 70.0333H12.224ZM14.2548 71.6463C13.936 71.4027 13.5622 71.1134 13.1522 70.7864C13.5009 70.3399 14.1622 69.4909 14.7747 68.6875C15.2459 68.0712 15.3794 67.5445 15.5082 67.0367C15.5711 66.7914 15.6355 66.5399 15.7391 66.2726C16.7302 66.1971 17.514 65.367 17.514 64.3561C17.514 64.0621 17.4449 63.7838 17.3271 63.5338C17.4716 63.2713 17.6192 62.9977 17.7747 62.7132C18.2192 61.8925 18.7218 60.9618 19.2873 60.0169C20.0632 58.7229 20.7229 57.9762 21.4862 57.113C21.9763 56.5596 22.5323 55.9307 23.1857 55.0786C24.8868 52.8571 25.848 51.6623 26.7056 50.8824C27.4564 50.2001 30.1721 47.1328 30.1061 46.1486C30.0951 45.9788 30.0103 45.8876 29.9428 45.8404C29.2108 45.3373 27.7894 45.8907 26.6428 46.4992C27.2035 45.8593 27.7674 45.2147 28.3328 44.567C29.3648 44.4129 30.3496 43.8972 30.4894 42.9869C30.5271 42.7416 30.6653 42.52 30.7988 42.3061C30.9606 42.0483 31.1506 41.7433 31.0501 41.4336C31.6941 40.6868 32.3286 39.9463 32.9506 39.2168C33.0291 39.8472 32.8909 40.9729 31.9972 42.9523C31.7663 43.4649 31.6344 44.0356 31.4962 44.6409C31.2464 45.7288 30.9888 46.8529 30.1187 47.8355L29.9286 48.0494C28.3627 49.8149 23.6004 55.1887 22.1334 57.0989C20.6271 59.0625 17.4166 65.1265 16.3941 67.2096C15.9716 68.0712 15.6449 68.7582 15.3276 69.4248C14.9868 70.1433 14.6616 70.8272 14.2533 71.6463H14.2548ZM17.1512 68.862C16.314 70.2125 15.6842 71.3382 15.2978 72.0551C15.2491 72.1463 15.169 72.1762 15.125 72.1856C15.081 72.195 14.9962 72.2029 14.913 72.14C14.7999 72.0567 14.6664 71.9561 14.5203 71.846C14.9428 70.9986 15.2758 70.299 15.6245 69.5632C15.9402 68.8982 16.2669 68.2111 16.6894 67.3527C17.7088 65.279 20.9035 59.2418 22.3957 57.297C23.8548 55.3946 28.6124 50.0287 30.1752 48.2648L30.3653 48.0509C31.2904 47.007 31.57 45.7886 31.8166 44.7132C31.9517 44.1252 32.0789 43.5686 32.2972 43.086C33.3119 40.8377 33.4045 39.591 33.2255 38.8992C34.1977 37.7562 35.1354 36.6463 36.0119 35.5929C35.8689 36.1856 35.7935 36.6793 35.7857 37.0959C35.7668 37.9763 36.0574 38.5203 36.6464 38.7106C37.1255 38.8662 37.5998 38.9369 38.071 38.9369C38.9726 38.9369 39.86 38.6744 40.7459 38.242C40.9328 38.4197 41.1213 38.5974 41.3113 38.7766C38.9051 40.3126 36.8459 41.6773 35.5611 43.0812C33.7705 45.0355 33.026 45.9049 31.8983 47.2208C30.8585 48.433 29.4339 50.0948 26.5093 53.4011C25.3752 54.6824 24.8648 55.2846 24.2161 56.0487C23.781 56.5628 23.2862 57.1445 22.504 58.0485C21.3763 59.3518 21.147 59.8832 20.8281 60.6206C20.5925 61.163 20.3004 61.839 19.5543 63.0512C18.3904 64.941 17.9679 66.2962 17.5203 67.7316C17.4056 68.1011 17.2878 68.4752 17.1559 68.8636L17.1512 68.862ZM38.159 43.8548C32.6742 49.8825 26.0349 57.2828 22.0878 62.0497C22.2449 61.468 22.6423 60.5876 23.6129 59.3927C24.9841 57.7026 26.3915 56.0534 28.0218 54.1432C28.7962 53.236 29.6145 52.277 30.4941 51.2378C31.314 50.2693 31.9925 49.447 32.5925 48.7207C33.9935 47.0243 35.0066 45.798 36.5647 44.1944C37.5213 43.2102 38.2988 42.9649 39.1972 42.6803C39.2082 42.6772 39.2192 42.6725 39.2318 42.6693C38.8344 43.1111 38.4747 43.5089 38.1605 43.8548H38.159ZM39.6653 42.1851C39.4721 42.2527 39.2836 42.3124 39.0998 42.3706C38.1967 42.6552 37.3454 42.924 36.3307 43.968C34.7632 45.581 33.7469 46.812 32.3412 48.5132C31.7428 49.2379 31.0627 50.0602 30.2443 51.0271C29.3663 52.0647 28.548 53.0238 27.7737 53.9309C26.1417 55.8427 24.7328 57.4935 23.3601 59.1867C21.9936 60.8721 21.7046 61.9821 21.6716 62.5544C20.7229 63.7099 19.9548 64.6894 19.4318 65.4252C18.8538 66.238 18.3245 67.0257 17.8438 67.7693C18.2789 66.3764 18.6999 65.051 19.8276 63.2194C20.5862 61.9868 20.8831 61.2998 21.1234 60.7479C21.4423 60.0106 21.6527 59.5248 22.7475 58.2592C23.5313 57.3536 24.026 56.7703 24.4627 56.2562C25.1098 55.4937 25.6203 54.8931 26.7511 53.6149C29.6773 50.307 31.1035 48.6452 32.1433 47.4315C33.2695 46.1187 34.0124 45.2509 35.7998 43.2998C37.0689 41.9131 39.1375 40.5484 41.5548 39.0061C41.726 39.1681 41.8956 39.3269 42.0684 39.4904C41.1794 40.4903 40.3705 41.399 39.6668 42.1851H39.6653ZM43.6658 39.874C41.6522 37.9984 39.7736 36.2092 37.9941 34.4751C38.1433 34.4782 38.3098 34.5049 38.4778 34.5726C38.7386 34.6763 39.4721 35.4656 40.182 36.2296C41.0333 37.1446 41.9977 38.1823 42.7438 38.7373C44.1621 39.7922 46.0705 41.0453 46.7726 41.487C46.8998 41.5672 47.1354 41.7339 47.4354 41.9461C49.1883 43.1866 51.0982 44.4789 52.0391 44.4789C52.149 44.4789 52.2448 44.4616 52.3265 44.4239C52.5291 44.3311 52.6579 44.1818 52.7097 43.979C52.9061 43.2149 51.948 41.8408 50.4605 39.83C49.8621 39.0203 49.3532 38.1509 48.8616 37.3082C48.0574 35.9309 47.2987 34.6307 46.1961 33.6292C44.4574 32.0492 42.0511 28.8372 41.1448 27.6282L41.1228 27.5983C41.0569 27.5103 40.994 27.427 40.9312 27.3452C40.3516 26.5811 39.9778 26.0843 39.9119 25.1724C41.3412 27.133 43.1616 29.2491 45.4736 31.392C45.6323 32.329 46.248 33.3966 46.8935 33.7692C47.6113 34.1842 49.5307 36.0803 49.9108 36.945C50.3349 37.9072 51.8616 40.212 53.1951 41.4933C54.0118 42.2794 54.4092 43.196 54.7924 44.0843C55.0281 44.6283 55.2495 45.1424 55.5558 45.5873C56.0631 46.3215 56.0521 47.0903 55.826 47.4928C55.7286 47.6673 55.5401 47.8733 55.1835 47.8528C54.6731 47.8245 53.9066 47.1454 53.0192 46.3577C52.2825 45.7037 51.4469 44.9616 50.4747 44.3138C48.893 43.2589 46.7176 42.2087 45.6008 41.693C44.9333 41.0625 44.2862 40.4541 43.6658 39.8755V39.874ZM60.293 57.2734C60.3998 57.2199 60.5191 57.1932 60.6212 57.2592C60.8066 57.3787 60.9589 57.734 61.094 58.0469C61.1992 58.2906 61.2982 58.5201 61.4191 58.6774C61.5165 58.8031 61.6704 58.9478 61.8354 59.1003C62.1087 59.355 62.4825 59.7024 62.4825 59.9052C62.4825 60.0294 62.3191 60.2778 62.1746 60.4964C62.1134 60.5876 62.0521 60.6835 61.9924 60.7794C61.5401 59.5672 60.9825 58.3692 60.2945 57.2734H60.293ZM62.1369 61.1834C62.2233 61.0136 62.3364 60.8391 62.4448 60.6756C62.6396 60.3816 62.806 60.1269 62.806 59.9052C62.806 59.5609 62.4244 59.2056 62.0568 58.8629C61.9029 58.7198 61.7584 58.5846 61.6767 58.4793C61.5793 58.3551 61.4898 58.1428 61.3924 57.9196C61.2322 57.5454 61.0657 57.1586 60.7972 56.9857C60.5663 56.8379 60.3197 56.8866 60.1139 56.9983C59.8689 56.6272 59.6113 56.2672 59.3333 55.9245C59.0113 55.5267 58.6689 55.1163 58.3123 54.6997C58.7961 54.6698 59.4794 54.6887 59.9694 54.956C60.7909 55.4041 62.1369 57.3536 62.4966 58.157C62.6396 58.4745 63.0511 58.8959 63.5286 59.3833C64.2385 60.1081 65.1228 61.0089 64.9783 61.5136C64.8668 61.9066 64.595 61.8988 64.0453 61.7903C63.7186 61.7258 63.4092 61.6645 63.1924 61.8375C62.9773 62.0088 62.7699 62.3107 62.6066 62.6503C62.4652 62.1645 62.3097 61.6724 62.1369 61.1834ZM62.7495 63.1581C62.9034 62.71 63.1657 62.2761 63.3951 62.0921C63.494 62.012 63.7422 62.0623 63.9825 62.1094C64.4207 62.1959 65.0835 62.3264 65.2909 61.6032C65.4872 60.9162 64.6092 60.0216 63.761 59.1553C63.3244 58.7104 62.9113 58.289 62.7935 58.0249C62.4495 57.2577 61.0862 55.195 60.1249 54.6714C59.4715 54.3145 58.5589 54.3428 58.05 54.3947C57.7469 54.0441 57.4328 53.6872 57.1108 53.3256C57.8364 53.8099 58.5181 54.1526 58.9532 54.1086C59.5249 54.0504 59.7479 53.7941 59.9458 53.5677C60.1328 53.3539 60.2804 53.1841 60.7312 53.1605C61.4097 53.1212 61.6422 53.9514 61.8008 54.7296C61.8244 54.8412 61.8432 54.9403 61.8636 55.0173C62.0034 55.5471 64.2935 59.0547 64.782 59.487C65.2406 59.8927 66.4484 61.2982 66.45 62.0639C66.45 62.2038 66.4092 62.3091 66.3228 62.3861C65.993 62.6801 65.7149 62.71 65.4181 62.743C65.0804 62.7792 64.7317 62.8169 64.383 63.2446C64.0312 63.6769 63.5647 64.4756 63.2647 65.3843C63.1249 64.6753 62.9537 63.9253 62.7464 63.1597L62.7495 63.1581ZM68.4919 71.4608C67.3045 71.5347 66.395 71.5379 65.7087 71.453C66.0762 71.0363 66.6102 70.5269 67.0469 70.4405C67.5212 70.3446 68.7464 70.8744 69.5977 71.2942C69.2474 71.3775 68.8799 71.4372 68.4919 71.4608ZM70.0641 71.1653C69.3385 70.7895 67.6751 69.9845 66.9825 70.1229C66.3605 70.2471 65.682 70.9734 65.3317 71.3948C64.738 71.2769 64.3532 71.0709 64.1286 70.7581C64.6312 70.5773 65.4401 70.2188 65.9191 69.656C66.1783 69.351 66.3039 69.0176 66.4139 68.7221C66.6134 68.1922 66.7563 67.8102 67.5511 67.763C68.4008 67.7143 68.8186 68.1891 69.3479 68.7913C69.6134 69.0931 69.8867 69.4044 70.2448 69.6795C70.7851 70.0962 71.1919 70.365 71.4636 70.5301C71.0427 70.7816 70.5762 71.0002 70.0641 71.1653ZM71.773 70.3367C71.5233 70.1921 71.0772 69.9106 70.4427 69.4217C70.1097 69.1654 69.8474 68.8667 69.5929 68.5759C69.0526 67.9596 68.5406 67.3778 67.5338 67.4376C66.5285 67.4973 66.3165 68.0618 66.1123 68.6073C66.0055 68.8903 65.8956 69.1843 65.6741 69.4453C65.2327 69.9641 64.4427 70.3021 63.9778 70.4672C63.9212 70.3163 63.8882 70.148 63.8757 69.9594C63.8757 69.9515 63.8757 69.9437 63.8741 69.9358C64.3626 69.6198 65.2296 68.9359 65.3176 68.0224C65.3474 67.7096 65.3615 67.3464 65.3757 66.9612C65.4087 66.0666 65.4558 64.8419 65.7809 64.702C65.9914 64.6124 66.194 64.5369 66.3935 64.5086C66.3778 64.6092 66.3668 64.7114 66.3668 64.8168C66.3668 65.8811 67.2322 66.7474 68.2956 66.7474C68.4699 66.7474 68.6364 66.7222 68.7966 66.6782C69.3244 67.2096 69.9244 67.6829 70.5668 67.9533C71.4652 68.3306 72.4799 69.0114 72.962 69.3525C72.6306 69.6905 72.2333 70.0301 71.7746 70.3367H71.773ZM67.1772 64.8168C67.1772 64.2005 67.6783 63.6989 68.294 63.6989C68.9097 63.6989 69.4107 64.2005 69.4107 64.8168C69.4107 65.4331 68.9097 65.9346 68.294 65.9346C67.6783 65.9346 67.1772 65.4331 67.1772 64.8168ZM73.1835 69.112C72.7076 68.7739 71.6521 68.057 70.6908 67.6546C70.1317 67.4203 69.6039 67.0162 69.1296 66.554C69.7751 66.2412 70.2228 65.5808 70.2228 64.8168C70.2228 64.4756 70.1333 64.1549 69.9778 63.8766C70.1191 64.0637 70.2668 64.2602 70.4223 64.4693C71.3474 65.7098 72.4846 67.2332 73.7835 68.34C73.6296 68.5774 73.4285 68.8416 73.1867 69.112H73.1835ZM67.2935 55.1604C68.316 56.5863 69.1877 57.852 69.9306 58.9761C68.8799 58.4541 67.8275 57.7325 67.5008 56.992C67.2495 56.4244 66.8191 55.7782 66.3636 55.0943C66.0055 54.5567 65.6348 54.0017 65.2956 53.4058C64.939 52.7816 64.7505 52.1245 64.65 51.5994C65.539 52.7565 66.417 53.9388 67.2935 55.1604ZM61.5526 47.7302C62.4684 48.8276 63.3621 49.9376 64.2416 51.0711C64.2998 51.645 64.4772 52.6323 65.0128 53.5693C65.3584 54.1746 65.7322 54.7343 66.0935 55.2767C66.5411 55.948 66.9636 56.5832 67.2039 57.1256C67.617 58.0626 68.9882 58.9305 70.2715 59.498C71.3505 61.1567 72.1343 62.4868 72.7029 63.5511C71.5798 62.9238 70.4411 61.7007 69.2505 60.4178C68.8107 59.9445 68.3568 59.4556 67.9013 58.9965C65.993 57.0737 64.5338 54.8868 64.182 53.4247C64.0265 52.7801 63.4971 52.0443 62.9364 51.2645C62.5312 50.7016 62.1118 50.1184 61.8715 49.6027C61.5731 48.9612 61.5307 48.2459 61.5542 47.7333L61.5526 47.7302ZM61.2526 47.3717C61.1961 47.9016 61.171 48.8669 61.5762 49.7363C61.8307 50.2803 62.2579 50.8762 62.6725 51.4516C63.1909 52.1716 63.7265 52.9169 63.8663 53.4986C64.2307 55.0142 65.7244 57.2608 67.6704 59.2229C68.1228 59.6788 68.5751 60.1662 69.0134 60.6363C70.3642 62.089 71.6458 63.4662 72.9589 64.0338C74.1997 66.4597 74.1997 67.3165 74.1652 67.5319C74.1463 67.653 74.0741 67.8369 73.9531 68.0555C72.6982 66.9754 71.5877 65.4865 70.6814 64.2728C70.2039 63.6329 69.7924 63.0811 69.4233 62.6691C69.3055 62.5371 69.1736 62.3909 69.0291 62.2305C67.7678 60.8297 65.6568 58.484 64.5982 56.6288C63.4547 54.6258 62.2563 52.4075 61.1333 50.2143C60.4924 48.9644 60.1359 48.0588 59.8218 47.2601C59.6066 46.7114 59.4024 46.1942 59.1369 45.6408C58.9092 45.1644 58.6595 44.6298 58.4349 44.1393C59.4055 45.2131 60.3417 46.2869 61.2526 47.3702V47.3717ZM57.7186 43.3579C58.0123 44.0073 58.4568 44.9757 58.8432 45.7838C59.104 46.3278 59.305 46.8403 59.5186 47.3827C59.8359 48.1893 60.1956 49.1027 60.8427 50.3668C61.9689 52.5647 63.1689 54.7862 64.3139 56.7939C65.3898 58.6789 67.5165 61.0419 68.7856 62.4522C68.9285 62.611 69.0605 62.7588 69.1783 62.8893C69.3212 63.0496 69.472 63.232 69.6306 63.4332C69.2835 63.0968 68.8123 62.8893 68.2909 62.8893C67.4537 62.8893 66.7422 63.4269 66.4767 64.1737C66.1594 64.191 65.872 64.3121 65.649 64.4064C65.1354 64.6265 65.093 65.7569 65.0474 66.9518C65.0333 67.3323 65.0191 67.6907 64.9909 67.9941C64.9233 68.6843 64.2919 69.2456 63.8427 69.5632C63.7799 68.7645 63.6526 67.5492 63.4013 66.1217C63.6354 65.0447 64.1945 63.9945 64.6343 63.4537C64.8982 63.1298 65.1432 63.1031 65.4526 63.07C65.7715 63.0355 66.1312 62.9962 66.538 62.633C66.695 62.4931 66.7736 62.3028 66.7736 62.067C66.7704 61.1142 65.3867 59.5924 64.9956 59.2465C64.5432 58.8471 62.305 55.4261 62.1762 54.9387C62.1574 54.8664 62.1385 54.7736 62.1165 54.6683C61.9814 54.0111 61.7333 52.7848 60.7108 52.8398C60.1218 52.8713 59.8972 53.1291 59.6977 53.3571C59.5171 53.5646 59.3616 53.7423 58.917 53.7878C58.339 53.846 57.0904 52.9797 55.9689 52.0726C53.8642 49.7882 51.4705 47.3702 49.1192 45.0748C49.6532 45.2902 50.4008 45.7288 51.3244 46.6155C51.8741 47.1438 52.4647 47.7271 53.038 48.293C54.6574 49.8904 56.1856 51.3997 56.8799 51.788C57.9966 52.4138 58.8841 52.8351 59.4259 52.8351C59.6537 52.8351 59.8186 52.7612 59.9144 52.5946C60.2694 51.9814 59.8893 49.1876 59.1558 47.9362C58.9799 47.6343 58.738 47.2098 58.4663 46.7303C57.5631 45.1408 56.4401 43.1646 55.9972 42.6788C55.4176 42.0436 53.5658 39.9463 53.2233 39.4463C53.1621 39.3551 53.0757 39.2435 52.9767 39.1115C52.661 38.6933 52.1993 38.0832 51.8961 37.3899C53.9993 39.4338 55.9202 41.4021 57.7186 43.3595V43.3579ZM51.3731 36.8837C51.637 37.8773 52.2982 38.753 52.7176 39.3064C52.8134 39.4338 52.8966 39.5422 52.9548 39.6287C53.3223 40.1664 55.2275 42.3172 55.7568 42.8957C56.1746 43.3548 57.3354 45.3971 58.1835 46.8891C58.4568 47.3702 58.6987 47.7962 58.8762 48.0981C59.605 49.3433 59.8767 52.0097 59.6333 52.4295C59.528 52.6103 58.994 52.5961 57.0385 51.5019C56.3835 51.1356 54.7987 49.5712 53.2673 48.0588C52.694 47.4928 52.1019 46.9095 51.5506 46.3797C50.1825 45.0653 49.1663 44.6833 48.6134 44.5795C47.8485 43.8375 47.0914 43.1095 46.3516 42.4068C47.5124 42.9665 49.0799 43.7746 50.2925 44.5827C51.2459 45.2178 52.072 45.9521 52.8008 46.5998C53.7731 47.4629 54.5396 48.1437 55.1631 48.1767C55.1851 48.1767 55.2055 48.1783 55.2275 48.1783C55.6061 48.1783 55.9155 47.9928 56.1071 47.6516C56.4401 47.0557 56.3223 46.1313 55.8197 45.4034C55.5322 44.9867 55.3155 44.4868 55.0877 43.9569C54.7108 43.0828 54.282 42.0923 53.4181 41.2606C52.1129 40.006 50.6207 37.7547 50.2061 36.8161C49.7726 35.8319 47.7464 33.8902 47.0537 33.4909C46.5872 33.2205 46.127 32.5051 45.9008 31.7882C45.9134 31.7992 45.9244 31.8102 45.9354 31.8196C47.8846 33.5805 49.6862 35.2565 51.3731 36.8837ZM49.2684 31.3323C48.8317 31.6954 48.3684 32.0759 47.8705 32.4815C47.6396 32.2709 47.4071 32.0586 47.1731 31.8448C47.2705 31.7898 47.3726 31.7348 47.4825 31.6766C48.8459 30.9518 49.826 29.4724 50.6914 28.1675C51.2019 27.3971 51.6841 26.6692 52.1694 26.2195C53.4998 24.9853 56.4778 20.1634 57.6966 17.0269C58.0909 17.1055 58.5102 17.159 58.9579 17.1889C58.193 18.5787 57.6715 19.7248 57.1673 20.8348C56.6663 21.9369 56.1872 22.9918 55.4961 24.2417C53.3993 26.6346 51.2851 29.0432 49.2715 31.3338L49.2684 31.3323ZM56.415 23.1883C56.7998 22.4211 57.1249 21.7042 57.461 20.9668C57.9794 19.827 58.5165 18.6463 59.3176 17.2062C59.5516 17.2156 59.7919 17.2187 60.0417 17.2156C60.1437 17.2156 60.2411 17.2124 60.3354 17.2093C60.1218 17.681 59.8155 18.4796 59.5705 19.5833C58.5369 20.764 57.4799 21.9715 56.415 23.1868V23.1883ZM60.0354 19.0535C60.2725 18.173 60.5364 17.5457 60.7029 17.1967C61.0422 17.181 61.3265 17.1574 61.5731 17.1385C61.6249 17.1338 61.6736 17.1307 61.7223 17.126C61.1694 17.758 60.6071 18.401 60.0354 19.0535ZM64.8212 28.6816C64.0877 27.6754 64.3437 25.6425 64.5306 24.1599C64.5668 23.8754 64.6013 23.605 64.6265 23.355C64.6327 23.3031 65.1149 18.0583 63.7516 16.8807C63.1987 16.4028 62.7746 16.288 62.2359 16.288C62.0176 16.288 61.7804 16.3069 61.5087 16.3289C61.1286 16.3587 60.6558 16.3965 60.0307 16.4059C57.8034 16.4358 56.3663 15.994 55.0783 14.8809C54.2144 14.1357 53.8375 11.8466 53.7715 9.95364C53.7621 9.65965 53.6317 9.37665 53.415 9.17698L51.3715 7.27778L56.916 0.839664C56.9427 0.80822 56.9914 0.805076 57.026 0.834948L67.6799 9.80743C67.9076 10.004 68.0914 10.2539 68.2107 10.5306L68.2893 10.7146L72.1155 14.0193L72.1312 14.0335L79.0908 18.8727C78.7955 19.4088 78.1798 20.5125 77.8186 21.0391C77.3537 21.7168 73.84 26.2117 72.8537 27.2965C71.9552 28.2838 70.2966 30.0651 69.5882 30.749C68.9961 31.3213 68.5155 31.9077 67.9139 32.645C67.1882 31.7363 65.5579 29.6846 64.8212 28.6753V28.6816ZM77.0018 27.6345C74.4102 30.4707 71.0223 33.9059 69.9259 35.0112L68.2736 33.101C68.2736 33.101 68.2139 33.0271 68.1212 32.9107L68.1306 32.8982C68.7401 32.1498 69.2223 31.5587 69.8128 30.988C70.5275 30.2978 72.194 28.5118 73.094 27.5197C74.1196 26.3909 77.6065 21.9259 78.0856 21.2278C78.4531 20.6917 79.0563 19.6147 79.3594 19.0629L82.1395 20.9967C81.4987 21.9715 79.529 24.8674 77.0018 27.6313V27.6345Z" fill="#B3B7B4"/>
</svg>
