<svg width="80" height="80" viewBox="0 0 80 80" fill="none" xmlns="http://www.w3.org/2000/svg">
<path d="M76.8103 25.6922L67.7984 19.4446L64.5153 16.6187L64.5111 16.6075C64.4998 16.5823 64.4858 16.5584 64.4731 16.5332C64.7696 16.1954 65.0533 15.8716 65.3203 15.566L65.4607 15.4062C65.7389 15.088 65.7305 14.6156 65.4397 14.3086C64.9311 13.7718 63.5909 12.384 62.113 11.1112C60.756 9.94359 59.434 8.99882 58.7667 8.53905C58.3621 8.2615 57.8115 8.32598 57.4827 8.69184L56.6314 9.64502L54.312 7.698C53.9805 7.41205 53.479 7.44989 53.1924 7.7807L48.2347 13.5138C47.9749 13.8152 48.0001 14.2624 48.2937 14.5315L50.1214 16.2122C50.1734 16.2613 50.2043 16.3271 50.2071 16.3972C50.2113 16.5178 50.217 16.6551 50.2268 16.8079L48.121 19.1629L48.0802 19.2189C48.0381 19.289 44.356 25.4777 40.393 31.152C36.0394 25.8828 34.9324 21.5276 34.7976 20.9403C34.7625 20.7889 34.6754 20.6529 34.5503 20.559C34.1429 20.252 32.7437 19.1867 31.242 17.9574C31.2546 17.4976 31.1942 17.0841 31.1492 16.7799C31.0467 16.0916 31.7449 15.7636 31.773 15.751L31.8306 15.7258L32.5499 15.0361C32.6833 14.9086 32.7578 14.7362 32.7578 14.5525C32.7578 14.3675 32.6875 14.1951 32.5555 14.0661L26.7044 8.33159C26.4585 8.09049 26.0694 8.07227 25.8011 8.28954L23.625 10.0515C23.3468 9.71651 23.101 9.42215 22.8987 9.18946C22.4421 8.66661 22.1668 8.34981 21.8409 8.58951L21.8043 8.61614C20.9516 9.23852 20.0722 9.89313 19.329 10.4594C18.1433 11.365 16.0698 13.1129 15.7551 13.5573C15.5964 13.7816 15.5585 13.8376 16.7793 15.5968L3.07939 26.6972C2.94312 26.8066 2.85883 26.9636 2.84057 27.136C2.82231 27.3084 2.87288 27.478 2.98386 27.6126C3.62025 28.3919 5.91012 31.1239 8.68886 33.5896C11.6685 36.2319 14.4402 37.4907 15.2199 37.8145C15.3056 37.8495 15.3955 37.8677 15.4854 37.8677C15.588 37.8677 15.6905 37.8453 15.7846 37.799C15.9617 37.7135 16.0951 37.5565 16.1499 37.3673C16.4674 36.2641 18.0675 30.709 18.4468 29.6353C18.9272 28.2784 20.9235 23.7059 21.8675 22.6967C21.883 22.6798 21.8999 22.6658 21.9153 22.649C23.7809 25.1245 26.5189 28.6695 28.2707 30.5576C30.4665 32.9224 32.7746 35.2913 35.3075 37.778C28.938 45.4722 18.0239 57.6225 15.7299 60.0055C13.8123 61.9973 11.2976 64.0986 9.97007 65.1737C9.41516 65.6237 9.32104 66.4465 9.76215 67.0072C10.2707 67.6534 11.1347 68.6472 12.3667 69.7083C13.7898 70.9335 15.0935 71.9231 15.7425 72.4039C15.9097 72.5272 16.1106 72.5917 16.3143 72.5917C16.3831 72.5917 16.4533 72.5847 16.5222 72.5693C16.7933 72.509 17.0265 72.3338 17.1586 72.0899C17.7626 70.9741 19.0396 68.7327 20.8083 66.2558C23.1754 62.9407 31.1942 54.0046 37.5033 47.0912C38.3504 46.1632 39.5515 44.8246 40.9929 43.207C41.1277 43.3331 41.2612 43.4579 41.3975 43.584C47.7374 49.4728 52.5588 54.3971 55.3418 57.8215C58.4801 61.6847 59.1222 68.0613 59.243 69.9242C59.354 71.6273 60.8178 71.9932 62.6764 71.9932C63.1442 71.9932 63.6387 71.9693 64.1416 71.9385C67.4809 71.7324 69.7117 68.9276 69.8873 67.8258C70.1276 66.3175 67.9009 62.209 63.6148 56.2572C58.6881 49.4153 53.7346 43.9008 46.379 37.1248C50.415 32.5537 55.0187 27.3154 58.9634 22.8186C59.0955 22.8733 59.2233 22.9602 59.3835 23.099C59.9861 23.6176 60.1027 26.4954 59.9173 28.2476C59.8948 28.4648 59.8639 28.7017 59.833 28.9498C59.6405 30.4735 59.4003 32.3701 60.2264 33.4999C61.0931 34.683 63.3128 37.4402 63.3437 37.478L64.8932 39.2653C65.0084 39.3984 65.1756 39.4783 65.3526 39.4839C65.3596 39.4839 65.3666 39.4839 65.375 39.4839C65.5436 39.4839 65.7066 39.4166 65.826 39.2975C66.7293 38.3906 69.8592 35.2296 72.2446 32.6294C74.6286 30.0278 76.4661 27.3014 76.9719 26.5276C77.1545 26.2487 77.0829 25.8828 76.8089 25.6922H76.8103ZM64.3692 14.2427C64.5968 14.4754 64.7822 14.6703 64.9114 14.8062C64.9438 14.8413 64.9452 14.8946 64.9143 14.9296L64.7738 15.0894C64.5448 15.3501 64.306 15.6235 64.0559 15.9094C63.9885 15.8351 63.9168 15.765 63.8396 15.6992L63.3254 15.2674C63.6106 14.8273 64.0728 14.4544 64.3678 14.2427H64.3692ZM64.1627 14.0325C63.855 14.2554 63.4055 14.6282 63.1034 15.0796L62.1945 14.3156C62.6033 13.7746 63.0557 13.4115 63.338 13.2167C63.6429 13.511 63.921 13.7872 64.1627 14.0325ZM62.6988 12.6111C62.8449 12.7471 62.9854 12.8802 63.1231 13.0106C62.8225 13.2237 62.3785 13.5909 61.9711 14.1292L61.6508 13.8601C62.0133 13.3344 62.3799 12.9475 62.6567 12.6532C62.6707 12.6377 62.6834 12.6251 62.6974 12.6097L62.6988 12.6111ZM62.4853 12.4149C62.4727 12.4289 62.46 12.4415 62.4474 12.4555C62.1664 12.7513 61.7984 13.1424 61.4289 13.6736L60.7293 13.0863C61.1915 12.4597 61.478 11.9719 61.641 11.6621C61.9304 11.9102 62.2128 12.164 62.4853 12.4149ZM61.4134 11.4687C61.2645 11.7589 60.9807 12.2523 60.5059 12.8985L59.5605 12.1037C59.6054 11.892 59.7318 11.5864 60.0648 11.236C60.1856 11.1098 60.1912 10.9318 60.0788 10.8141C59.9355 10.6627 59.6307 10.6473 59.2711 10.9514C59.0505 11.1379 58.8749 11.2977 58.7443 11.4182L57.8691 10.6837C58.5321 10.2155 59.1812 10.0585 59.5717 10.0081C60.1196 10.4174 60.7588 10.9136 61.4134 11.4673V11.4687ZM59.316 11.9004L58.969 11.6089C59.0941 11.4925 59.2584 11.3453 59.4593 11.1743C59.6728 10.9935 59.8007 10.9963 59.8344 11.0019C59.8583 11.0061 59.8681 11.0145 59.8681 11.0145C59.8681 11.0173 59.8653 11.0257 59.8541 11.0384C59.5464 11.3622 59.3933 11.6593 59.3174 11.9004H59.316ZM58.025 9.17684C58.1093 9.08292 58.2512 9.0661 58.3551 9.13759C58.5827 9.29459 58.889 9.50905 59.2444 9.76978C58.8103 9.85949 58.2287 10.0585 57.6387 10.4931L57.1863 10.1132L58.0236 9.17684H58.025ZM49.8461 18.6288C50.0512 18.3821 50.1903 18.2153 50.3504 18.0709C50.3982 18.4115 50.46 18.7648 50.5429 19.1124C50.3069 19.2918 49.9697 19.5806 49.7253 19.9268C49.1718 20.7048 48.8149 21.4014 48.4342 22.1388C48.1771 22.6378 47.9116 23.155 47.5689 23.7311C46.3256 25.8169 46.4829 26.2949 46.5349 26.4519C46.5756 26.5767 46.6585 26.6692 46.7737 26.7169C46.8327 26.7421 46.8931 26.7533 46.9535 26.7533C47.2851 26.7533 47.6279 26.3973 48.0142 25.995C48.2502 25.7497 48.5185 25.4707 48.8051 25.2492C48.9414 25.1441 49.0776 25.0418 49.2139 24.9408C49.891 24.4362 50.592 23.9134 51.2453 22.9798C51.6681 22.3757 51.9421 21.9495 52.1036 21.686C52.3087 21.8318 52.5209 21.9621 52.7386 22.0799C52.66 22.1948 52.5518 22.3518 52.4001 22.5705C52.1458 22.9378 51.9646 23.3401 51.7904 23.7297C51.5248 24.3241 51.2734 24.8862 50.7761 25.3558L50.564 25.5576C49.7983 26.2851 49.138 26.9145 48.1687 27.178C47.7992 27.279 47.3708 27.4668 46.9156 27.6644C46.0924 28.0247 45.1596 28.4326 44.8365 28.1536C44.5639 27.9196 45.279 26.9019 45.8536 26.0861C46.2539 25.5184 46.667 24.9296 46.9044 24.432C47.1277 23.9652 47.3497 23.3541 47.5857 22.7065C48.0254 21.4982 48.5227 20.1287 49.124 19.4656C49.4457 19.111 49.6677 18.8433 49.8461 18.6274V18.6288ZM50.1074 20.5576C49.6747 20.9571 49.6213 21.1898 49.5609 21.4603C49.5075 21.6972 49.4471 21.9663 49.0636 22.4696C48.6548 23.0078 48.5522 23.3863 48.7602 23.5966C48.8416 23.6793 48.9568 23.7115 49.0692 23.7115C49.1816 23.7115 49.301 23.6765 49.3727 23.6246C49.575 23.476 50.4768 22.6686 50.9966 21.9607C51.2284 21.6439 51.4209 21.4113 51.5586 21.2515C51.581 21.2739 51.6049 21.2963 51.6288 21.3159C51.7089 21.3846 51.789 21.4505 51.869 21.5136C51.7103 21.7715 51.4349 22.2018 51.0065 22.8158C50.3799 23.7115 49.7281 24.1965 49.0397 24.711C48.902 24.8133 48.7644 24.9156 48.6267 25.0221C48.3233 25.2562 48.0465 25.5436 47.8035 25.7959C47.4368 26.1772 47.0898 26.5374 46.8861 26.4505C46.8608 26.4393 46.8299 26.4197 46.8103 26.3622C46.7597 26.2094 46.7569 25.6599 47.8189 23.8797C48.1673 23.2966 48.4342 22.7752 48.6941 22.2719C49.0678 21.543 49.4218 20.8562 49.9627 20.095C50.1537 19.8259 50.4136 19.589 50.623 19.4208C50.6763 19.6142 50.7353 19.8049 50.8028 19.9857C50.585 20.1343 50.3279 20.3543 50.1102 20.5562L50.1074 20.5576ZM50.9109 20.2632C51.0374 20.5534 51.1863 20.8169 51.3605 21.0356C51.2158 21.201 51.0121 21.4477 50.7606 21.7897C50.2577 22.4738 49.3698 23.2658 49.1999 23.3905C49.1563 23.4214 49.0144 23.4424 48.9667 23.3933C48.9203 23.3457 48.9273 23.1284 49.2954 22.6448C49.7168 22.0911 49.7871 21.7757 49.8447 21.5234C49.8995 21.2823 49.9388 21.1085 50.3055 20.7693C50.5808 20.5155 50.7747 20.3599 50.9123 20.2618L50.9109 20.2632ZM45.7679 24.7909C46.1753 24.0676 46.4984 23.4928 46.7386 22.8018C47.316 21.8752 47.7908 21.0987 48.1294 20.5422C47.8302 21.1828 47.5618 21.9215 47.3118 22.6097C47.0786 23.2503 46.8594 23.8559 46.6417 24.3101C46.4141 24.7867 46.0081 25.3642 45.6147 25.9235C44.8421 27.0224 44.1734 27.9714 44.6454 28.3779C44.7775 28.4915 44.9489 28.5391 45.1483 28.5391C45.6471 28.5391 46.3242 28.2434 47.0308 27.935C47.4747 27.7415 47.8948 27.5579 48.2432 27.4626C49.2827 27.1794 49.9683 26.5276 50.762 25.7721L50.9742 25.5716C51.5136 25.0628 51.789 24.4474 52.0545 23.8531C52.2315 23.4578 52.3987 23.0849 52.6375 22.7401C52.7934 22.5144 52.9114 22.3448 52.9985 22.2159C53.1278 22.2775 53.2598 22.3336 53.3961 22.3855C53.0182 23.0863 52.1331 24.7292 51.508 25.8702C50.7185 27.3126 48.1322 30.3712 46.1879 32.3785C45.0402 33.563 44.2155 33.7382 43.4878 33.8938C43.3235 33.9288 43.1633 33.9639 43.0046 34.0101C42.5255 33.5377 42.0746 33.0668 41.6489 32.6028C41.7655 32.1738 41.9467 31.7029 42.208 31.2165C42.8332 30.0502 43.3923 29.0578 43.9318 28.0976C44.3771 27.3056 44.8393 26.4856 45.3324 25.5758C45.4869 25.2913 45.6316 25.0348 45.7679 24.7937V24.7909ZM53.6728 22.4808C53.8288 22.5313 53.9889 22.5775 54.1547 22.6182C53.0112 25.5408 50.3631 29.6829 49.301 30.6656C48.8416 31.0903 48.4005 31.7533 47.9341 32.4556C47.1797 33.591 46.3242 34.8778 45.1708 35.489C45.0402 35.5577 44.918 35.6249 44.8042 35.6894C44.6735 35.5717 44.5443 35.4539 44.4108 35.3348C44.0062 34.9703 43.6185 34.6073 43.2462 34.2442C43.3445 34.2204 43.4443 34.198 43.5482 34.1755C44.2788 34.0199 45.1877 33.8265 46.3958 32.5775C48.3963 30.5114 50.9517 27.4892 51.7623 26.0062C52.3987 24.8427 53.3076 23.1592 53.6728 22.4808ZM45.0907 25.4104C45.0865 25.4188 45.0823 25.4273 45.0767 25.4357C44.5836 26.3426 44.1228 27.1612 43.6775 27.9532C43.1366 28.9148 42.5775 29.9086 41.951 31.0777C41.7262 31.4982 41.5478 31.9313 41.4199 32.3477C41.2331 32.1402 41.0519 31.9341 40.8749 31.7281C42.3766 29.5848 43.8419 27.3603 45.0907 25.4104ZM34.0924 21.1267C34.1429 21.3426 34.2932 21.9313 34.6121 22.8046C34.4478 22.6574 34.2806 22.4528 34.1514 22.164C33.7861 21.3468 33.3984 20.7034 32.5976 19.9759C33.2986 20.5254 33.8479 20.9431 34.0924 21.1267ZM32.061 19.8946C33.0626 20.716 33.4883 21.3916 33.8858 22.2817C34.1359 22.841 34.5166 23.1354 34.7934 23.2854C35.205 24.3339 35.8301 25.6978 36.7559 27.2607C36.2305 27.0379 35.5267 26.6384 35.1375 25.9894C34.5503 25.0137 33.7678 23.127 33.2509 21.8794C33.1469 21.6299 33.0556 21.4071 32.9783 21.2248C32.6201 20.3768 31.4836 19.6857 30.9104 19.3801C30.9989 19.1979 31.0664 19.0157 31.1155 18.8335C31.2799 19.118 31.5651 19.4881 32.061 19.8946ZM22.053 9.33384C22.2651 9.55531 22.643 10.0025 23.0631 10.5085L22.7413 10.7692C22.2735 10.2141 21.9322 9.81744 21.7228 9.57634C21.8324 9.49504 21.9434 9.41514 22.053 9.33384ZM21.4882 9.74875C21.6948 9.98705 22.0403 10.3865 22.5152 10.9514L22.2595 11.1589C22.0811 10.8351 21.7467 10.3725 21.1609 9.99125C21.2691 9.91135 21.3787 9.83005 21.4882 9.74875ZM19.7715 11.037C20.1256 10.7664 20.5119 10.4749 20.9109 10.1777C21.5304 10.5548 21.8661 11.0412 22.0291 11.3467L21.4742 11.7967C20.9502 11.0005 20.7254 10.8575 20.5372 10.8996C20.3335 10.9458 20.304 11.2122 20.2941 11.2991C20.2422 11.7574 20.3545 12.0476 20.5906 12.513L19.9457 13.0344C19.7252 12.4751 19.5538 11.7028 19.4681 11.2724C19.5721 11.1911 19.6746 11.1112 19.7729 11.0356L19.7715 11.037ZM21.248 11.9803L20.8209 12.3266C20.6271 11.9369 20.5414 11.6944 20.5821 11.3327C20.5906 11.2556 20.6032 11.2136 20.6116 11.1925C20.6763 11.2248 20.8462 11.3692 21.248 11.9803ZM19.211 11.4757C19.3108 11.9537 19.485 12.691 19.7097 13.2265L18.9399 13.8503C18.5704 13.1718 18.3695 12.5831 18.2712 12.2425C18.5845 11.9817 18.9048 11.7196 19.211 11.4757ZM18.0267 12.4471C18.1405 12.8214 18.3499 13.3877 18.7095 14.0367L17.6095 14.9268C17.3777 14.3969 17.278 13.5811 17.2386 13.1242C17.4761 12.9153 17.7444 12.684 18.0253 12.4457L18.0267 12.4471ZM16.48 13.8306C16.5924 13.7157 16.7638 13.5545 16.9703 13.3667C17.0237 13.8755 17.1389 14.6128 17.3777 15.116L17.3496 15.1385C16.924 14.5245 16.6191 14.0675 16.4786 13.832L16.48 13.8306ZM15.4629 37.1318C14.665 36.7968 12.0225 35.5787 9.17212 33.0499C6.49874 30.6782 4.28192 28.0527 3.59496 27.2145L5.52098 25.6543C5.84128 26.2865 6.59286 27.6532 7.79258 29.1657C9.44326 31.2459 12.6744 33.6008 13.7968 34.0858C14.5891 34.4278 15.5767 34.8021 16.0811 34.9913C15.8226 35.8801 15.5978 36.6594 15.4629 37.1332V37.1318ZM21.3365 22.2046C20.2309 23.3863 18.1279 28.3611 17.7612 29.3956C17.5098 30.1077 16.7624 32.642 16.1611 34.711C15.6526 34.5218 14.6875 34.1545 13.9106 33.8195C12.812 33.3457 9.64274 31.0328 8.01876 28.9863C6.79516 27.4444 6.04638 26.058 5.74996 25.4679L26.2267 8.87827L32.0104 14.5483L31.4148 15.1188C30.9807 15.3375 30.2895 15.9431 30.43 16.8864C30.6 18.0289 30.6519 19.3241 29.1179 20.2156C27.3155 21.2641 27.0275 21.3958 25.4962 21.3622C25.204 21.3552 24.9244 21.3398 24.6533 21.3243C23.3819 21.2515 22.2848 21.1898 21.3379 22.2018L21.3365 22.2046ZM27.9687 22.4205C28.1584 22.656 28.3733 22.9223 28.5953 23.1845C29.0771 23.7536 29.3553 24.3465 29.625 24.9198C29.7964 25.2857 29.9594 25.6319 30.1687 25.9683C30.4721 26.4533 31.2406 27.5761 31.8545 27.5761C31.8587 27.5761 31.8615 27.5761 31.8657 27.5761C31.9865 27.5733 32.1537 27.5257 32.2731 27.3154C32.3658 27.15 32.2267 26.9397 31.8924 26.4323C31.5019 25.8408 30.9104 24.9465 30.503 23.79C30.3358 23.3148 29.8582 22.8565 29.2541 22.2761C28.9928 22.0252 28.7062 21.7491 28.4183 21.4449C28.5264 21.3874 28.6388 21.3258 28.7582 21.2585C29.2555 21.5865 30.2923 22.321 30.8163 23.0527C31.0284 23.3499 31.4077 24.0157 31.8882 24.8595C33.0177 26.843 34.7231 29.8385 36.1785 31.3763C37.4864 32.7584 38.4178 33.8587 39.1652 34.7432C39.5782 35.231 39.9336 35.653 40.2441 35.988C40.7709 36.5599 41.0771 37.1374 41.3455 37.6491C41.4986 37.9378 41.6419 38.2112 41.8063 38.4382C41.9481 38.6345 42.2488 38.9274 42.5958 39.2667C43.1198 39.7769 44.2085 40.8408 44.0048 41.0721C43.9866 41.0931 43.9486 41.1015 43.898 41.1029C43.2785 41.0903 41.4452 39.6115 40.3298 38.2266C40.1078 37.9504 39.8606 37.635 39.588 37.2874C38.3307 35.6824 36.6098 33.4831 34.518 31.5445C31.8474 29.0704 29.8863 26.8514 29.1375 25.4595C28.8636 24.9507 28.5868 24.4783 28.3199 24.0213C27.8985 23.3008 27.4967 22.614 27.2115 21.9495C27.3113 21.9229 27.4096 21.8935 27.5093 21.8584C27.6442 22.0168 27.7987 22.2088 27.9673 22.4177L27.9687 22.4205ZM27.7959 21.7505C27.9097 21.7014 28.0263 21.6468 28.1499 21.5865C28.4604 21.9187 28.7709 22.2187 29.0518 22.4878C29.6053 23.0205 30.083 23.4788 30.2277 23.8895C30.6477 25.0796 31.2504 25.9908 31.648 26.5949C31.8137 26.8458 31.9851 27.1051 32.0062 27.1963C31.9542 27.2762 31.9008 27.2874 31.8587 27.2888H31.8531C31.6128 27.2888 31.0945 26.9047 30.4145 25.8183C30.2136 25.4973 30.0549 25.1581 29.8877 24.8007C29.611 24.2091 29.3244 23.598 28.8172 23.0008C28.5967 22.7415 28.3831 22.4752 28.1949 22.2425C28.0502 22.0631 27.9181 21.8991 27.7959 21.7533V21.7505ZM28.0685 24.1713C28.334 24.6255 28.6093 25.095 28.8804 25.5997C29.6433 27.0196 31.6269 29.2652 34.3199 31.7603C36.3949 33.6835 38.1088 35.8716 39.359 37.4696C39.6316 37.8173 39.8802 38.1355 40.1022 38.4116C41.2022 39.7783 43.0959 41.3791 43.8896 41.3959C43.8938 41.3959 43.898 41.3959 43.9023 41.3959C44.0708 41.3959 44.1692 41.3258 44.2212 41.267C44.5766 40.8604 43.8545 40.0979 42.7967 39.0634C42.4721 38.7466 42.1673 38.448 42.0395 38.2728C41.8877 38.0626 41.7543 37.8103 41.5997 37.5173C41.3216 36.9916 41.0069 36.3945 40.4548 35.7959C40.15 35.4651 39.7945 35.046 39.3843 34.561C38.6342 33.6737 37.6999 32.5691 36.3864 31.1814C34.9549 29.6689 33.2593 26.6916 32.1382 24.7208C31.6536 23.8699 31.2715 23.1971 31.0495 22.8887C30.5339 22.1682 29.5829 21.4687 29.0392 21.1015C29.1769 21.0216 29.323 20.9375 29.4803 20.8464C29.743 20.6936 29.9692 20.5296 30.1616 20.3571C30.5775 20.6137 31.3614 21.1589 31.9163 21.9005C32.2408 22.335 32.8238 23.4158 33.4995 24.6661C34.4632 26.4505 35.6629 28.6709 36.5311 29.7544C37.4738 30.9291 38.1354 31.8276 38.6201 32.485C38.8898 32.8495 39.102 33.1382 39.2902 33.3765C39.8409 34.076 41.028 35.8857 41.3146 36.3356C41.5042 36.6342 42.1448 37.0982 42.8234 37.5902C43.3502 37.9715 43.9458 38.4046 44.0385 38.5728C44.1973 38.8644 44.5386 39.575 44.8379 40.2016C44.9587 40.4539 45.0767 40.6992 45.1792 40.9095C45.2973 41.152 45.529 41.487 45.7988 41.8739C46.2525 42.5257 47.0111 43.6149 46.792 43.898C46.6389 44.0943 46.0221 43.6359 45.5262 43.2658C45.0655 42.9224 44.5892 42.5678 44.2001 42.4696C43.353 42.2566 40.7316 40.4932 39.7538 39.3746C39.3633 38.9274 39.0092 38.4789 38.6665 38.0443C38.1242 37.3561 37.6114 36.7057 36.9624 36.0581C35.7669 34.8652 29.403 28.3611 28.001 26.2262C26.7367 24.3017 26.2366 23.1915 26.1691 22.0897C26.4473 22.0799 26.6903 22.0575 26.9193 22.0168C27.2129 22.7135 27.6287 23.4242 28.0656 24.1713H28.0685ZM22.511 22.2285C22.8018 22.0953 23.1178 22.0392 23.4676 22.021C23.4705 22.1822 23.4986 22.3715 23.5885 22.5509C23.6657 22.7051 23.8807 22.9728 24.1518 23.3106C24.5718 23.8349 25.1478 24.5526 25.249 24.938C25.3122 25.1819 25.4442 25.4525 25.596 25.7665C25.7421 26.0678 25.9064 26.4113 26.0441 26.7982C24.9259 25.4006 23.7008 23.8082 22.511 22.2271V22.2285ZM28.8018 30.067C28.1696 29.3858 27.3829 28.4564 26.5147 27.3855C26.3602 26.6888 26.0862 26.1169 25.8573 25.6417C25.7112 25.3417 25.5861 25.0824 25.5299 24.8666C25.4147 24.4222 24.8402 23.7059 24.3794 23.1312C24.1392 22.8326 23.913 22.5495 23.8498 22.4233C23.7823 22.2887 23.7613 22.1416 23.7598 22.0168C24.0197 22.0168 24.2965 22.0336 24.5957 22.0505C24.6758 22.4682 24.8486 23.1901 25.1675 23.7452C25.2265 23.8475 25.3038 23.9863 25.3979 24.1531C26.0511 25.3221 27.4096 27.7541 28.7737 29.1363L29.1291 29.4951C30.6632 31.0482 33.2298 33.6471 33.6709 34.3073C33.7397 34.4096 33.8142 34.5176 33.8929 34.6311C34.2244 35.1063 34.6135 35.6656 34.7779 36.2375C32.6566 34.1293 30.6885 32.0967 28.8046 30.0684L28.8018 30.067ZM35.1389 36.5963C35.0715 35.817 34.5559 35.0755 34.1289 34.4643C34.0516 34.3536 33.9772 34.247 33.9097 34.1461C33.4532 33.462 30.9736 30.9515 29.3328 29.2919L28.9774 28.933C27.6414 27.5789 26.2956 25.1693 25.6493 24.0115C25.5552 23.8433 25.4765 23.7031 25.4175 23.5994C25.138 23.1144 24.975 22.4724 24.8935 22.0659C25.0832 22.0757 25.2757 22.0855 25.4765 22.0897C25.6198 22.0925 25.7533 22.0939 25.8797 22.0939C25.9472 23.2545 26.4599 24.404 27.7594 26.3832C29.1755 28.5377 35.5604 35.0642 36.7587 36.2599C37.3965 36.8963 37.9022 37.5397 38.4389 38.2196C38.7831 38.6569 39.1399 39.1083 39.5347 39.561C40.5672 40.7427 43.235 42.5215 44.1284 42.7458C44.4614 42.8299 44.9137 43.1663 45.3506 43.4929C45.8564 43.87 46.341 44.2316 46.6936 44.2316C46.8215 44.2316 46.9325 44.184 47.0196 44.0704C47.368 43.6205 46.6908 42.6463 46.0348 41.7043C45.7833 41.3426 45.5459 41.0006 45.4377 40.7791C45.3352 40.5689 45.2186 40.3236 45.0978 40.0727C44.7817 39.4124 44.4544 38.7298 44.2914 38.4312C44.1734 38.2154 43.721 37.8803 42.9919 37.3519C42.3949 36.9187 41.7178 36.4281 41.5576 36.1758C41.2696 35.7231 40.0727 33.9008 39.5164 33.1929C39.331 32.9574 39.1202 32.6715 38.8519 32.3084C38.3658 31.6496 37.7014 30.7483 36.7559 29.5694C35.9046 28.5069 34.7119 26.2991 33.7538 24.5245C33.0724 23.2644 32.4852 22.1752 32.1467 21.7238C31.5861 20.9725 30.8205 20.4258 30.3738 20.1441C30.5297 19.9787 30.659 19.8077 30.7671 19.6338C31.308 19.9226 32.3869 20.5758 32.7086 21.3356C32.7859 21.5178 32.8772 21.7393 32.9811 21.9888C33.5023 23.2447 34.289 25.1427 34.8875 26.1365C35.4227 27.0266 36.4525 27.4794 37.0003 27.6644C37.367 28.263 37.7772 28.8882 38.2352 29.5344C38.2043 30.7286 38.6159 31.2739 39.2129 32.0589C39.2677 32.1304 39.3239 32.2061 39.3829 32.2832L39.4026 32.3098C40.2174 33.3934 42.3822 36.2739 43.957 37.7009C44.9095 38.5644 45.5782 39.7054 46.2848 40.9123C46.7288 41.6693 47.1867 42.4514 47.7318 43.1859C48.725 44.5246 49.8503 46.0413 49.6958 46.6398C49.6719 46.7338 49.6129 46.7996 49.5131 46.8445C48.9077 47.1206 46.379 45.3348 45.4265 44.6634C45.1554 44.4727 44.9418 44.3214 44.821 44.2457C44.1959 43.8532 42.4974 42.7416 41.2359 41.8066C40.5897 41.3272 39.7355 40.4133 38.984 39.6059C38.1551 38.7186 37.6339 38.1677 37.3544 38.057C37.0467 37.9336 36.7503 37.935 36.5325 37.9658C36.0591 37.5047 35.5941 37.0477 35.1347 36.5935L35.1389 36.5963ZM35.4887 38.7032C35.6039 38.5644 35.7163 38.4284 35.8287 38.2925C36.8613 39.3003 37.9332 40.3292 39.0486 41.3847C37.936 41.9061 36.8261 42.1066 35.6995 41.7421C35.3033 41.6146 35.1165 41.2347 35.1305 40.5843C35.1404 40.1105 35.2598 39.4909 35.4887 38.7046V38.7032ZM30.2797 44.8246C30.2445 44.8947 30.1968 44.9746 30.1378 45.0685C30.0085 45.2745 29.8624 45.5072 29.8203 45.7848C29.7346 46.3455 29.1544 46.7071 28.4941 46.8767C29.0926 46.1927 29.6896 45.5058 30.2797 44.8232V44.8246ZM26.0708 49.6368C27.1694 48.9751 28.8088 48.1705 29.4536 48.6121C29.4578 48.6149 29.4719 48.6247 29.4747 48.6682C29.5182 49.3186 27.3773 51.8852 26.5288 52.6547C25.7449 53.3654 24.8781 54.4391 23.3454 56.4338C22.7666 57.1866 22.2735 57.7416 21.838 58.2323C21.1455 59.013 20.5456 59.6873 19.839 60.8647C19.329 61.7128 18.8781 62.5454 18.4791 63.2799C18.3695 63.4818 18.2642 63.6738 18.1616 63.8631C18.0071 63.6556 17.8076 63.4846 17.5772 63.364C18.2768 61.9805 19.2279 60.3755 20.4543 59.0621C21.1806 58.2841 21.7439 57.3548 22.3972 56.2782C23.0125 55.2648 23.7093 54.1153 24.7292 52.7556C25.3782 51.8894 25.4161 51.6258 25.2672 51.4801C25.1591 51.3749 24.9624 51.3203 24.1068 51.8585C24.7488 51.1366 25.4077 50.3923 26.0736 49.6368H26.0708ZM17.7753 64.8835C17.7753 65.4302 17.33 65.8746 16.7821 65.8746C16.2342 65.8746 15.7889 65.4302 15.7889 64.8835C15.7889 64.3368 16.2342 63.8925 16.7821 63.8925C17.33 63.8925 17.7753 64.3368 17.7753 64.8835ZM16.2525 60.5101C17.3089 59.4139 20.0399 56.4198 23.3089 52.7528C24.0801 52.1949 24.7966 51.7408 25.0382 51.7029C25.0144 51.7912 24.9132 52.0239 24.4946 52.5804C23.4662 53.9499 22.7652 55.1064 22.1471 56.1254C21.4756 57.2314 20.946 58.1061 20.2408 58.8616C18.9862 60.2059 18.0183 61.8431 17.3089 63.2491C17.1431 63.1958 16.9675 63.1664 16.7835 63.1664C16.4913 63.1664 16.2159 63.2393 15.9743 63.3682C17.0968 61.5782 18.8331 59.2233 19.0986 58.9752C19.4779 58.6191 20.2674 57.8804 20.3194 57.1655C20.3307 57.0043 20.2394 56.9497 20.2 56.9328C19.9724 56.8403 19.6381 57.1599 18.09 58.9556C17.3819 59.7756 16.65 60.6236 16.3311 60.8521C16.1583 60.9755 15.9673 61.1241 15.765 61.281C15.4124 61.5558 15.0176 61.8614 14.5962 62.1319C15.1693 61.5978 15.7341 61.0484 16.2553 60.5073L16.2525 60.5101ZM10.4337 66.6904C11.2035 66.096 13.3136 65.1947 13.7589 65.1723C13.7505 65.2228 13.7055 65.2872 13.6058 65.4204C13.4695 65.6026 13.2644 65.8788 13.0663 66.3483C12.8008 66.9763 11.8638 67.5216 11.3777 67.7697C10.9914 67.3618 10.6767 66.9932 10.4337 66.6904ZM12.2922 68.6738C12.038 68.4383 11.8034 68.2085 11.5884 67.9884C12.1237 67.708 13.0466 67.1445 13.3346 66.4605C13.5187 66.0231 13.7041 65.775 13.839 65.5928C13.9865 65.3952 14.1031 65.2382 14.0272 65.0195C14.0132 64.9774 13.971 64.9046 13.8488 64.8863C13.3697 64.8176 11.1473 65.7877 10.2665 66.4577C10.1485 66.2166 10.2075 65.9138 10.4252 65.7386C11.2288 65.0882 12.465 64.0635 13.7434 62.9127C14.5681 62.5791 15.3168 61.9973 15.9406 61.5123C16.1401 61.3567 16.3283 61.211 16.4969 61.0904C16.8453 60.8423 17.5561 60.0181 18.3077 59.1476C18.8935 58.4691 19.6634 57.5762 20.0033 57.2959C19.8671 57.8594 19.2209 58.4649 18.8879 58.7761C18.5493 59.0929 15.2677 63.5547 14.7872 64.9634C14.7226 65.1513 14.6622 65.3377 14.6018 65.5185C14.2365 66.6217 13.9218 67.5749 13.3613 67.9393C12.9469 68.2085 12.5479 68.4888 12.2908 68.6724L12.2922 68.6738ZM12.8401 69.1645C12.7263 69.0663 12.6182 68.971 12.5114 68.8743C12.7657 68.6935 13.138 68.4327 13.5215 68.1832C14.1663 67.7627 14.4964 66.7661 14.8785 65.611C14.9389 65.4302 14.9993 65.2452 15.064 65.0587C15.0668 65.0517 15.0696 65.0433 15.0724 65.0377C15.1216 65.6026 15.4475 66.089 15.9125 66.3638C15.8731 66.4633 15.8338 66.5614 15.7973 66.6581C15.4222 67.6155 15.1272 68.3725 14.488 68.9388C14.0413 69.3355 13.7364 69.5976 13.5439 69.7602C13.315 69.5696 13.0789 69.3705 12.8401 69.1659V69.1645ZM13.7701 69.9466C13.964 69.7812 14.259 69.5275 14.679 69.1532C15.3688 68.5407 15.6919 67.7165 16.0656 66.7605C16.1007 66.6707 16.1373 66.5796 16.1738 66.4871C16.3101 66.539 16.4547 66.5754 16.6051 66.5909C16.5292 66.8025 16.4744 67.0044 16.4252 67.2034C16.3129 67.6478 16.2061 68.0683 15.8198 68.5701C15.2733 69.2836 14.6847 70.0377 14.3714 70.4358C14.1775 70.2802 13.9766 70.1162 13.7687 69.9466H13.7701ZM15.5866 71.3848C15.3014 71.1675 14.967 70.9096 14.6004 70.6181C14.9122 70.22 15.5037 69.463 16.0516 68.7467C16.473 68.1972 16.5924 67.7277 16.7076 67.2749C16.7638 67.0562 16.8214 66.8319 16.9141 66.5937C17.8006 66.5264 18.5016 65.7862 18.5016 64.8849C18.5016 64.6228 18.4398 64.3747 18.3344 64.1518C18.4636 63.9177 18.5957 63.6738 18.7348 63.4201C19.1323 62.6884 19.5819 61.8586 20.0876 61.0161C20.7816 59.8625 21.3716 59.1967 22.0544 58.4271C22.4927 57.9337 22.99 57.373 23.5744 56.6132C25.0958 54.6326 25.9556 53.5673 26.7226 52.872C27.3941 52.2636 29.8231 49.5288 29.7641 48.6513C29.7542 48.4999 29.6784 48.4186 29.618 48.3766C28.9633 47.928 27.692 48.4215 26.6664 48.9639C27.168 48.3934 27.6723 47.8187 28.178 47.2412C29.101 47.1038 29.9818 46.644 30.1069 45.8324C30.1406 45.6138 30.2642 45.4161 30.3836 45.2255C30.5283 44.9956 30.6983 44.7237 30.6084 44.4475C31.1844 43.7817 31.7519 43.1215 32.3082 42.471C32.3785 43.0331 32.2548 44.0368 31.4555 45.8016C31.249 46.2586 31.131 46.7674 31.0074 47.3071C30.784 48.2771 30.5536 49.2793 29.7753 50.1554L29.6053 50.346C28.2047 51.9202 23.9453 56.7114 22.6332 58.4145C21.2859 60.1653 18.4145 65.5718 17.4999 67.4291C17.122 68.1973 16.8298 68.8098 16.5461 69.4042C16.2412 70.0447 15.9504 70.6545 15.5852 71.3848H15.5866ZM18.1771 68.9023C17.4283 70.1064 16.865 71.1101 16.5194 71.7493C16.4758 71.8306 16.4042 71.8572 16.3648 71.8656C16.3255 71.874 16.2496 71.881 16.1752 71.825C16.074 71.7507 15.9546 71.661 15.824 71.5628C16.2019 70.8073 16.4997 70.1835 16.8116 69.5275C17.0939 68.9346 17.3861 68.322 17.764 67.5567C18.6758 65.7078 21.5332 60.3251 22.8678 58.5911C24.1729 56.895 28.4281 52.1108 29.8259 50.5381L29.9959 50.3474C30.8233 49.4167 31.0734 48.3303 31.2939 47.3715C31.4148 46.8473 31.5285 46.3511 31.7238 45.9207C32.6313 43.9163 32.7142 42.8047 32.5541 42.1879C33.4237 41.1688 34.2623 40.1792 35.0462 39.24C34.9184 39.7685 34.851 40.2086 34.8439 40.5801C34.8271 41.3651 35.087 41.8501 35.6138 42.0197C36.0423 42.1585 36.4665 42.2215 36.888 42.2215C37.6943 42.2215 38.4881 41.9874 39.2804 41.602C39.4476 41.7604 39.6161 41.9188 39.7861 42.0786C37.6339 43.4481 35.7922 44.6648 34.643 45.9165C33.0415 47.6589 32.3757 48.4341 31.367 49.6073C30.437 50.6881 29.1628 52.1697 26.547 55.1176C25.5327 56.26 25.0762 56.7969 24.496 57.4781C24.1068 57.9365 23.6643 58.4551 22.9647 59.2611C21.9561 60.4232 21.7509 60.897 21.4658 61.5544C21.255 62.038 20.9937 62.6407 20.3265 63.7215C19.2855 65.4064 18.9076 66.6147 18.5072 67.8945C18.4046 68.2239 18.2993 68.5575 18.1813 68.9037L18.1771 68.9023ZM36.9666 46.6062C32.061 51.9805 26.1228 58.5785 22.5924 62.8286C22.7329 62.3099 23.0883 61.525 23.9565 60.4596C25.1829 58.9528 26.4417 57.4823 27.8999 55.7792C28.5925 54.9704 29.3244 54.1153 30.1111 53.1888C30.8444 52.3253 31.4513 51.5922 31.9879 50.9446C33.241 49.4321 34.1471 48.3387 35.5407 46.909C36.3963 46.0315 37.0917 45.8128 37.8952 45.5591C37.9051 45.5563 37.9149 45.5521 37.9261 45.5493C37.5707 45.9432 37.249 46.2978 36.968 46.6062H36.9666ZM38.3139 45.1175C38.1411 45.1778 37.9725 45.2311 37.8081 45.2829C37.0003 45.5367 36.2389 45.7764 35.3314 46.7071C33.9294 48.1453 33.0205 49.2429 31.7631 50.7596C31.2279 51.4058 30.6196 52.1389 29.8877 53.0009C29.1024 53.9261 28.3705 54.7812 27.6779 55.59C26.2183 57.2945 24.9582 58.7663 23.7303 60.276C22.5081 61.7787 22.2497 62.7683 22.2202 63.2785C21.3716 64.3088 20.6847 65.1821 20.2169 65.8381C19.6999 66.5628 19.2265 67.2651 18.7966 67.9281C19.1857 66.6862 19.5622 65.5045 20.5709 63.8715C21.2494 62.7725 21.5149 62.1599 21.7299 61.6679C22.0151 61.0105 22.2033 60.5774 23.1825 59.449C23.8835 58.6416 24.326 58.1215 24.7165 57.6631C25.2953 56.9833 25.7519 56.4478 26.7634 55.3082C29.3806 52.359 30.6561 50.8773 31.5861 49.7952C32.5934 48.6247 33.2579 47.8509 34.8566 46.1114C35.9917 44.875 37.8418 43.6583 40.0039 42.2832C40.157 42.4276 40.3087 42.5692 40.4632 42.715C39.6681 43.6065 38.9446 44.4167 38.3153 45.1175H38.3139ZM41.892 43.057C40.091 41.3847 38.4108 39.7895 36.8191 38.2434C36.9526 38.2462 37.1015 38.27 37.2518 38.3303C37.485 38.4228 38.1411 39.1265 38.776 39.8077C39.5375 40.6236 40.4 41.5487 41.0673 42.0435C42.3359 42.9841 44.0427 44.1013 44.6707 44.4952C44.7845 44.5667 44.9952 44.7152 45.2635 44.9045C46.8313 46.0105 48.5396 47.1627 49.3811 47.1627C49.4794 47.1627 49.5651 47.1473 49.6382 47.1136C49.8194 47.0309 49.9346 46.8978 49.9809 46.7169C50.1565 46.0357 49.2996 44.8106 47.9692 43.0177C47.434 42.2958 46.9788 41.5207 46.5391 40.7693C45.8198 39.5414 45.1413 38.3822 44.1551 37.4893C42.6 36.0805 40.4478 33.2167 39.6372 32.1388L39.6175 32.1122C39.5585 32.0337 39.5023 31.9594 39.4461 31.8865C38.9278 31.2052 38.5934 30.7623 38.5344 29.9493C39.8128 31.6973 41.441 33.584 43.5089 35.4946C43.6508 36.33 44.2015 37.2818 44.7789 37.614C45.4209 37.9841 47.1376 39.6746 47.4775 40.4455C47.8568 41.3034 49.2223 43.3584 50.415 44.5008C51.1455 45.2016 51.501 46.0189 51.8437 46.8109C52.0545 47.2959 52.2526 47.7542 52.5265 48.1509C52.9803 48.8055 52.9704 49.491 52.7681 49.8498C52.681 50.0054 52.5124 50.189 52.1935 50.1708C51.737 50.1456 51.0514 49.54 50.2577 48.8378C49.5988 48.2546 48.8515 47.593 47.9819 47.0155C46.5672 46.0749 44.6215 45.1386 43.6227 44.6788C43.0256 44.1167 42.4469 43.5742 41.892 43.0584V43.057ZM56.7634 58.5701C56.859 58.5224 56.9657 58.4986 57.0571 58.5575C57.2228 58.664 57.3591 58.9808 57.4799 59.2597C57.574 59.477 57.6625 59.6817 57.7707 59.8218C57.8578 59.934 57.9955 60.0629 58.143 60.1989C58.3874 60.426 58.7218 60.7358 58.7218 60.9166C58.7218 61.0273 58.5757 61.2488 58.4464 61.4436C58.3916 61.525 58.3369 61.6105 58.2835 61.696C57.8789 60.6152 57.3802 59.5471 56.7649 58.5701H56.7634ZM58.4127 62.0562C58.49 61.9048 58.5911 61.7492 58.6881 61.6034C58.8623 61.3413 59.0112 61.1142 59.0112 60.9166C59.0112 60.6096 58.6698 60.2928 58.3411 59.9872C58.2034 59.8597 58.0742 59.7391 58.0011 59.6452C57.914 59.5345 57.8339 59.3452 57.7468 59.1462C57.6035 58.8126 57.4546 58.4677 57.2144 58.3136C57.0079 58.1818 56.7873 58.2252 56.6033 58.3248C56.3841 57.994 56.1538 57.673 55.9051 57.3674C55.6171 57.0127 55.3109 56.6469 54.992 56.2754C55.4247 56.2488 56.0357 56.2656 56.4741 56.5039C57.2088 56.9034 58.4127 58.6416 58.7344 59.3579C58.8623 59.641 59.2303 60.0167 59.6574 60.4512C60.2924 61.0974 61.0833 61.9006 60.9541 62.3506C60.8543 62.701 60.6113 62.694 60.1196 62.5973C59.8274 62.5398 59.5506 62.4851 59.3568 62.6393C59.1643 62.7921 58.9789 63.0613 58.8328 63.364C58.7063 62.9309 58.5673 62.4922 58.4127 62.0562ZM58.9606 63.8168C59.0983 63.4173 59.3329 63.0304 59.538 62.8664C59.6265 62.7949 59.8485 62.8398 60.0634 62.8818C60.4553 62.9589 61.0482 63.0753 61.2336 62.4305C61.4092 61.8179 60.6239 61.0203 59.8653 60.248C59.4748 59.8513 59.1053 59.4756 58.9999 59.2401C58.6923 58.5561 57.4729 56.717 56.6131 56.2502C56.0287 55.932 55.2125 55.9572 54.7574 56.0035C54.4862 55.6909 54.2053 55.3727 53.9173 55.0503C54.5663 55.482 55.176 55.7876 55.5651 55.7484C56.0765 55.6965 56.276 55.468 56.453 55.2662C56.6202 55.0755 56.7522 54.9241 57.1554 54.9031C57.7623 54.8681 57.9702 55.6082 58.1121 56.3021C58.1332 56.4016 58.15 56.4899 58.1683 56.5586C58.2933 57.031 60.3415 60.1582 60.7784 60.5437C61.1887 60.9054 62.269 62.1585 62.2704 62.8412C62.2704 62.9659 62.2338 63.0599 62.1566 63.1285C61.8616 63.3907 61.6129 63.4173 61.3474 63.4467C61.0454 63.479 60.7335 63.5126 60.4216 63.8939C60.1069 64.2794 59.6897 64.9915 59.4214 65.8017C59.2964 65.1695 59.1432 64.5009 58.9578 63.8182L58.9606 63.8168ZM64.0966 71.2194C63.0346 71.2853 62.2212 71.2881 61.6073 71.2124C61.936 70.8409 62.4137 70.3868 62.8042 70.3097C63.2285 70.2242 64.3242 70.6966 65.0856 71.0708C64.7724 71.1451 64.4436 71.1984 64.0966 71.2194ZM65.5029 70.9559C64.8539 70.6209 63.3661 69.9032 62.7466 70.0265C62.1903 70.1373 61.5834 70.7849 61.2701 71.1605C60.7391 71.0554 60.3949 70.8718 60.194 70.5928C60.6436 70.4316 61.3671 70.112 61.7955 69.6102C62.0273 69.3383 62.1397 69.0411 62.2381 68.7776C62.4165 68.3052 62.5443 67.9646 63.2552 67.9225C64.0152 67.8791 64.3889 68.3024 64.8623 68.8392C65.0997 69.1084 65.3441 69.3859 65.6644 69.6312C66.1477 70.0027 66.5115 70.2424 66.7546 70.3896C66.3781 70.6139 65.9609 70.8087 65.5029 70.9559ZM67.0313 70.2172C66.808 70.0882 66.409 69.8373 65.8414 69.4013C65.5436 69.1729 65.309 68.9065 65.0814 68.6472C64.5982 68.0977 64.1402 67.5791 63.2397 67.6323C62.3406 67.6856 62.151 68.1888 61.9683 68.6752C61.8728 68.9276 61.7745 69.1897 61.5764 69.4224C61.1816 69.885 60.475 70.1863 60.0592 70.3335C60.0086 70.1989 59.9791 70.049 59.9679 69.8807C59.9679 69.8737 59.9679 69.8667 59.9665 69.8597C60.4034 69.578 61.1788 68.9682 61.2575 68.1538C61.2842 67.8748 61.2968 67.551 61.3095 67.2076C61.339 66.41 61.3811 65.3181 61.6719 65.1933C61.8602 65.1134 62.0414 65.0461 62.2198 65.0209C62.2058 65.1106 62.1959 65.2017 62.1959 65.2956C62.1959 66.2446 62.97 67.017 63.921 67.017C64.077 67.017 64.2259 66.9946 64.3692 66.9553C64.8412 67.4291 65.3778 67.851 65.9524 68.0921C66.756 68.4285 67.6635 69.0355 68.0948 69.3397C67.7984 69.641 67.4429 69.9438 67.0327 70.2172H67.0313ZM62.9208 65.2956C62.9208 64.7462 63.3689 64.299 63.9196 64.299C64.4703 64.299 64.9185 64.7462 64.9185 65.2956C64.9185 65.8451 64.4703 66.2923 63.9196 66.2923C63.3689 66.2923 62.9208 65.8451 62.9208 65.2956ZM68.2929 69.1252C67.8672 68.8238 66.9232 68.1846 66.0634 67.8258C65.5633 67.6169 65.0913 67.2567 64.667 66.8446C65.2444 66.5656 65.6448 65.9769 65.6448 65.2956C65.6448 64.9915 65.5647 64.7055 65.4256 64.4574C65.552 64.6242 65.6841 64.7994 65.8232 64.9859C66.6506 66.0918 67.6677 67.4501 68.8295 68.4369C68.6918 68.6486 68.512 68.8841 68.2957 69.1252H68.2929ZM63.0248 56.6861C63.9393 57.9575 64.719 59.0859 65.3835 60.0882C64.4436 59.6228 63.5024 58.9794 63.2102 58.3192C62.9854 57.8131 62.6005 57.237 62.1931 56.6273C61.8728 56.1479 61.5413 55.653 61.2378 55.1218C60.9189 54.5653 60.7504 53.9794 60.6604 53.5112C61.4556 54.5429 62.2409 55.597 63.0248 56.6861ZM57.8901 50.0615C58.7091 51.0399 59.5085 52.0295 60.2952 53.0402C60.3472 53.5518 60.5059 54.4321 60.985 55.2676C61.294 55.8072 61.6284 56.3063 61.9515 56.7899C62.3519 57.3884 62.7297 57.9547 62.9447 58.4383C63.3142 59.2737 64.5406 60.0475 65.6883 60.5535C66.6534 62.0324 67.3544 63.2183 67.863 64.1672C66.8585 63.6079 65.84 62.5174 64.7752 61.3736C64.3818 60.9516 63.9758 60.5157 63.5684 60.1064C61.8616 58.3921 60.5565 56.4422 60.2418 55.1386C60.1027 54.5639 59.6293 53.9079 59.1278 53.2126C58.7653 52.7108 58.3902 52.1907 58.1753 51.731C57.9084 51.1591 57.8705 50.5213 57.8915 50.0643L57.8901 50.0615ZM57.6218 49.7419C57.5712 50.2143 57.5487 51.075 57.9112 51.8501C58.1388 52.3351 58.5209 52.8664 58.8918 53.3794C59.3554 54.0214 59.8344 54.6858 59.9594 55.2045C60.2854 56.5558 61.6213 58.5589 63.3619 60.3082C63.7665 60.7147 64.1711 61.1493 64.5631 61.5684C65.7712 62.8636 66.9175 64.0915 68.092 64.5976C69.2018 66.7605 69.2018 67.5244 69.1709 67.7165C69.154 67.8244 69.0894 67.9884 68.9812 68.1832C67.8588 67.2202 66.8656 65.8928 66.055 64.8106C65.6279 64.2401 65.2598 63.7481 64.9297 63.3809C64.8243 63.2631 64.7063 63.1327 64.5771 62.9898C63.449 61.7408 61.5609 59.6494 60.6141 57.9954C59.5914 56.2095 58.5195 54.2317 57.515 52.2762C56.9419 51.1619 56.623 50.3545 56.342 49.6424C56.1495 49.1532 55.9669 48.692 55.7295 48.1986C55.5258 47.7738 55.3024 47.2973 55.1015 46.8599C55.9697 47.8173 56.807 48.7747 57.6218 49.7405V49.7419ZM54.4609 46.1632C54.7236 46.7422 55.1212 47.6056 55.4668 48.3261C55.7 48.8111 55.8798 49.2681 56.0709 49.7517C56.3546 50.4708 56.6763 51.2852 57.2551 52.4122C58.2624 54.3719 59.3357 56.3525 60.3598 58.1425C61.3221 59.8232 63.2243 61.9301 64.3594 63.1874C64.4872 63.329 64.6052 63.4608 64.7106 63.5771C64.8384 63.7201 64.9733 63.8827 65.1151 64.0621C64.8047 63.7621 64.3832 63.5771 63.9168 63.5771C63.1681 63.5771 62.5317 64.0565 62.2943 64.7223C62.0105 64.7377 61.7534 64.8457 61.5539 64.9298C61.0945 65.126 61.0566 66.1339 61.0159 67.1992C61.0032 67.5384 60.9906 67.858 60.9653 68.1286C60.9049 68.7439 60.3401 69.2444 59.9384 69.5275C59.8822 68.8154 59.7684 67.7319 59.5436 66.4591C59.7529 65.4989 60.253 64.5625 60.6464 64.0803C60.8824 63.7916 61.1016 63.7677 61.3783 63.7383C61.6635 63.7075 61.9852 63.6724 62.349 63.3486C62.4895 63.2239 62.5598 63.0543 62.5598 62.844C62.557 61.9945 61.3193 60.6376 60.9695 60.3293C60.5649 59.9732 58.563 56.923 58.4478 56.4885C58.431 56.424 58.4141 56.3413 58.3945 56.2474C58.2736 55.6615 58.0517 54.5681 57.1371 54.6172C56.6103 54.6452 56.4094 54.8751 56.231 55.0783C56.0695 55.2634 55.9304 55.4218 55.5328 55.4624C55.0158 55.5143 53.899 54.7419 52.896 53.9331C51.0135 51.8964 48.8725 49.7405 46.7695 47.6939C47.2472 47.886 47.9159 48.2771 48.7419 49.0677C49.2336 49.5386 49.7618 50.0587 50.2746 50.5633C51.7229 51.9875 53.0898 53.3332 53.7108 53.6794C54.7096 54.2373 55.5033 54.613 55.988 54.613C56.1917 54.613 56.3392 54.5471 56.4249 54.3985C56.7424 53.8518 56.4024 51.3609 55.7464 50.2451C55.589 49.976 55.3727 49.5975 55.1296 49.17C54.3219 47.7528 53.3174 45.9908 52.9213 45.5577C52.4029 44.9914 50.7466 43.1215 50.4403 42.6757C50.3855 42.5944 50.3083 42.4949 50.2198 42.3771C49.9374 42.0043 49.5244 41.4604 49.2532 40.8422C51.1343 42.6645 52.8524 44.4195 54.4609 46.1646V46.1632ZM48.7854 40.3909C49.0215 41.2768 49.6129 42.0575 49.988 42.5509C50.0737 42.6645 50.1481 42.7612 50.2001 42.8383C50.5288 43.3177 52.2329 45.2353 52.7063 45.7511C53.08 46.1604 54.1182 47.9813 54.8768 49.3116C55.1212 49.7405 55.3376 50.1204 55.4963 50.3895C56.1481 51.4997 56.3912 53.877 56.1734 54.2513C56.0793 54.4125 55.6017 54.3999 53.8527 53.4243C53.2668 53.0977 51.8494 51.7029 50.4797 50.3545C49.9669 49.8498 49.4373 49.3298 48.9442 48.8574C47.7206 47.6855 46.8117 47.3449 46.3172 47.2524C45.633 46.5908 44.9559 45.9418 44.2942 45.3152C45.3324 45.8142 46.7344 46.5347 47.8189 47.2552C48.6716 47.8215 49.4106 48.4761 50.0624 49.0536C50.932 49.8232 51.6176 50.4302 52.1753 50.4596C52.195 50.4596 52.2132 50.461 52.2329 50.461C52.5714 50.461 52.8482 50.2956 53.0196 49.9914C53.3174 49.4601 53.212 48.6359 52.7625 47.9869C52.5054 47.6155 52.3116 47.1697 52.1079 46.6973C51.7707 45.9179 51.3872 45.0348 50.6145 44.2933C49.4471 43.1747 48.1125 41.1674 47.7417 40.3306C47.3539 39.4531 45.5417 37.7219 44.9222 37.3659C44.5049 37.1248 44.0933 36.487 43.891 35.8478C43.9023 35.8576 43.9121 35.8674 43.9219 35.8758C45.6653 37.4458 47.2767 38.9401 48.7854 40.3909ZM46.903 35.4413C46.5124 35.7651 46.098 36.1043 45.6527 36.466C45.4462 36.2781 45.2382 36.0889 45.0289 35.8983C45.116 35.8492 45.2073 35.8002 45.3057 35.7483C46.5251 35.1021 47.4017 33.783 48.1757 32.6196C48.6323 31.9327 49.0636 31.2837 49.4977 30.8828C50.6876 29.7825 53.3511 25.4833 54.4413 22.6868C54.7939 22.7569 55.169 22.8046 55.5693 22.8312C54.8852 24.0704 54.4188 25.0922 53.9678 26.0819C53.5197 27.0645 53.0912 28.0051 52.4731 29.1194C50.5977 31.2529 48.7068 33.4004 46.9058 35.4427L46.903 35.4413ZM53.2949 28.1803C53.6391 27.4962 53.9299 26.857 54.2305 26.1996C54.6941 25.1833 55.1746 24.1306 55.8911 22.8466C56.1004 22.8551 56.3153 22.8579 56.5387 22.8551C56.63 22.8551 56.7171 22.8522 56.8014 22.8494C56.6103 23.27 56.3364 23.9821 56.1172 24.9661C55.1929 26.0188 54.2474 27.0953 53.2949 28.1789V28.1803ZM56.5331 24.4937C56.7452 23.7087 56.9812 23.1494 57.1301 22.8382C57.4336 22.8242 57.6878 22.8032 57.9084 22.7864C57.9547 22.7822 57.9983 22.7794 58.0418 22.7752C57.5473 23.3387 57.0444 23.912 56.5331 24.4937ZM60.8136 33.078C60.1575 32.1809 60.3865 30.3684 60.5537 29.0466C60.586 28.7928 60.6169 28.5517 60.6394 28.3289C60.645 28.2826 61.0763 23.6064 59.8569 22.5565C59.3624 22.1304 58.9831 22.028 58.5012 22.028C58.306 22.028 58.0938 22.0448 57.8508 22.0645C57.5108 22.0911 57.088 22.1247 56.5288 22.1332C54.5368 22.1598 53.2514 21.7659 52.0994 20.7735C51.3268 20.109 50.9896 18.0681 50.9306 16.3804C50.9222 16.1183 50.8056 15.866 50.6117 15.6879L48.784 13.9946L53.7431 8.25449C53.767 8.22646 53.8105 8.22365 53.8414 8.25029L63.3704 16.25C63.5741 16.4253 63.7384 16.6481 63.8452 16.8948L63.9154 17.0588L67.3376 20.0053L67.3516 20.0179L73.5764 24.3325C73.3123 24.8105 72.7616 25.7945 72.4385 26.2641C72.0227 26.8682 68.8801 30.8758 67.9979 31.843C67.1943 32.7233 65.7108 34.3115 65.0772 34.9213C64.5476 35.4315 64.1177 35.9543 63.5797 36.6118C62.9306 35.8016 61.4724 33.9723 60.8136 33.0724V33.078ZM71.708 32.1444C69.39 34.6732 66.3598 37.736 65.3793 38.7214L63.9014 37.0183C63.9014 37.0183 63.848 36.9524 63.7651 36.8487L63.7735 36.8374C64.3186 36.1702 64.7499 35.6432 65.2781 35.1343C65.9173 34.519 67.4078 32.9266 68.2128 32.0421C69.1301 31.0356 72.2489 27.0547 72.6773 26.4323C73.0061 25.9543 73.5455 24.9941 73.8166 24.5021L76.3032 26.2262C75.73 27.0953 73.9684 29.6773 71.708 32.1416V32.1444Z" fill="#445547"/>
<path d="M24.163 19.7252C24.0647 19.9075 23.9916 20.0336 23.9467 20.1009C23.9284 20.1317 23.9467 20.1808 24.0001 20.2481C24.0549 20.3168 24.097 20.3378 24.1265 20.3126L26.2099 18.5506C26.6636 18.1665 26.9277 17.7236 26.998 17.2217C27.0696 16.7199 26.932 16.2671 26.5878 15.8606C26.3293 15.5565 26.009 15.3798 25.6269 15.328C25.2448 15.2761 24.8261 15.384 24.3738 15.649C24.5859 15.3518 24.7025 15.021 24.7222 14.6537C24.7418 14.2879 24.6294 13.9585 24.3822 13.6683C24.1026 13.3389 23.7318 13.2197 23.2724 13.3109C22.813 13.402 22.3143 13.6739 21.779 14.1281C21.1146 14.6902 20.5723 15.192 20.1537 15.635C20.1242 15.6602 20.1382 15.705 20.1958 15.7695C20.2548 15.834 20.2998 15.8592 20.3335 15.8466C20.7985 15.6742 21.0415 15.5999 21.064 15.6265L24.2853 19.4183C24.3035 19.4393 24.2628 19.5416 24.1644 19.7252H24.163ZM23.4508 16.1872L23.271 16.34L21.897 14.7238C21.9785 14.6033 22.0909 14.4827 22.2314 14.3636C22.4154 14.208 22.6219 14.1449 22.8509 14.1757C23.0799 14.2066 23.2963 14.3411 23.4986 14.5808C23.7458 14.8724 23.8554 15.164 23.8301 15.4583C23.8034 15.7527 23.677 15.9952 23.4494 16.1872H23.4508ZM23.75 16.5405C24.4524 15.9461 25.0958 15.991 25.676 16.675C25.9486 16.996 26.0806 17.3128 26.0736 17.624C26.0652 17.9352 25.9373 18.1959 25.6887 18.4062C25.5636 18.5113 25.419 18.601 25.2532 18.6753L23.5688 16.6933L23.7486 16.5405H23.75Z" fill="#445547"/>
<path d="M60.5303 15.4584L56.3228 17.7405L57.9538 13.2507L56.4507 11.9625C56.4212 11.9372 56.379 11.9583 56.3242 12.0255C56.2694 12.0928 56.2512 12.1419 56.2694 12.1727C56.5139 12.6031 56.6249 12.8316 56.6024 12.8568L53.3081 16.6849C53.2856 16.7102 53.044 16.6359 52.579 16.4593C52.5467 16.4452 52.5003 16.4719 52.4413 16.535C52.3823 16.598 52.3682 16.6443 52.3977 16.6695L53.8433 17.9073C53.8728 17.9325 53.915 17.9115 53.9697 17.8442C54.0245 17.7769 54.0428 17.7278 54.0245 17.697C53.9796 17.6283 53.9079 17.5036 53.811 17.3199C53.7127 17.1363 53.6733 17.034 53.6916 17.013L56.3776 13.8927L54.6258 18.6782L54.9911 18.9908L59.4415 16.6078L56.8005 19.6763C56.778 19.7015 56.5364 19.6272 56.0714 19.4506C56.0391 19.438 55.9927 19.4618 55.9337 19.5263C55.8747 19.5908 55.8606 19.6356 55.8901 19.6608L57.8794 21.3654C57.9089 21.3906 57.951 21.3696 58.0058 21.3023C58.0606 21.235 58.0789 21.1859 58.0606 21.1551C58.0156 21.0864 57.944 20.9617 57.8471 20.778C57.7501 20.5944 57.7094 20.4921 57.7277 20.4711L61.022 16.6429C61.0402 16.6219 61.1484 16.6457 61.3437 16.7144C61.5404 16.7831 61.6752 16.8349 61.7497 16.8686C61.782 16.8826 61.8283 16.8574 61.8874 16.7929C61.9464 16.7284 61.9604 16.6835 61.9309 16.6583L60.5303 15.4584Z" fill="#445547"/>
</svg>
