<svg width="28" height="28" viewBox="0 0 28 28" fill="none" xmlns="http://www.w3.org/2000/svg">
<rect width="28" height="28" rx="14" fill="white"/>
<path d="M13.506 18.1312H14.4023C14.4023 18.1312 14.6733 18.102 14.8111 17.9569C14.9386 17.8236 14.9339 17.5735 14.9339 17.5735C14.9339 17.5735 14.9161 16.4022 15.4749 16.2297C16.0252 16.0599 16.7322 17.3617 17.4813 17.8628C18.0476 18.2417 18.4779 18.1586 18.4779 18.1586L20.4815 18.1312C20.4815 18.1312 21.5297 18.0682 21.0328 17.2658C20.9925 17.2001 20.7431 16.6724 19.543 15.5879C18.2867 14.4523 18.4554 14.6367 19.9687 12.6731C20.8903 11.4772 21.2588 10.7469 21.1434 10.4347C21.0337 10.1371 20.3559 10.2156 20.3559 10.2156L18.102 10.2284C18.102 10.2284 17.9351 10.2065 17.8104 10.2786C17.6894 10.3498 17.6116 10.5141 17.6116 10.5141C17.6116 10.5141 17.2544 11.4398 16.7781 12.2267C15.774 13.8872 15.3718 13.9749 15.2077 13.8717C14.8261 13.6316 14.9217 12.9059 14.9217 12.391C14.9217 10.7816 15.1721 10.1106 14.4333 9.93715C14.1876 9.87964 14.0076 9.8413 13.3804 9.83491C12.5759 9.82669 11.8943 9.83765 11.509 10.0211C11.2521 10.1435 11.0543 10.4164 11.1752 10.4319C11.3243 10.4511 11.6618 10.5205 11.8409 10.7578C12.0725 11.0637 12.064 11.752 12.064 11.752C12.064 11.752 12.1972 13.6462 11.7537 13.8817C11.449 14.0433 11.0318 13.7138 10.1364 12.2066C9.67791 11.4352 9.33101 10.5817 9.33101 10.5817C9.33101 10.5817 9.26444 10.4228 9.14537 10.3379C9.00098 10.2348 8.79847 10.2019 8.79847 10.2019L6.65519 10.2147C6.65519 10.2147 6.3336 10.2238 6.21547 10.3598C6.11046 10.4812 6.20703 10.7314 6.20703 10.7314C6.20703 10.7314 7.88528 14.5536 9.78479 16.4807C11.5277 18.2472 13.506 18.1312 13.506 18.1312Z" fill="#447BBA"/>
</svg>
