<svg width="76" height="32" viewBox="0 0 76 32" fill="none" xmlns="http://www.w3.org/2000/svg">
<g clip-path="url(#clip0_128_93)">
<path d="M32.8511 8.31181L33.8082 3.89668L69.0057 3.31006L72.4946 10.9362L73.9148 18.5932L72.4946 25.5092L68.7896 27.5469H33.8082L32.8511 8.31181Z" fill="white"/>
<path d="M43.2453 31.7215C35.8319 31.474 33.8245 30.9464 32.4597 28.8857C31.9083 28.0532 31.2893 26.1901 31.0922 24.7692C30.4002 19.782 30.5702 9.38245 31.4019 5.79812C32.1552 2.55218 33.9265 0.962065 37.1577 0.63081C40.3318 0.305321 48.6064 0.128085 56.6549 0.213061C65.344 0.304714 69.4348 0.490599 70.9149 0.861004C73.8102 1.58527 75.2147 3.71803 75.7044 8.13254C75.797 8.96713 75.9108 11.8809 75.9572 14.6074C76.1444 25.6141 75.3164 29.1156 72.1606 30.6617C70.9689 31.2456 70.1894 31.3797 66.8215 31.5808C63.1636 31.799 48.236 31.8881 43.2453 31.7215ZM46.8923 25.7222C47.1481 25.5897 47.6568 25.2056 48.0228 24.8678L48.6883 24.2548V25.8108H51.5715V10.6365H48.6883V22.209L48.0255 22.8717C47.3142 23.5832 47.0264 23.6719 46.6507 23.2962C46.4416 23.0871 46.4122 22.2908 46.4122 16.8471V10.6363H43.5291V17.2097C43.5291 24.461 43.5887 25.0348 44.4043 25.6435C44.9207 26.0288 46.2198 26.0698 46.8923 25.7222ZM60.7692 25.6731C61.034 25.5117 61.4009 25.0616 61.6038 24.6495C61.9598 23.9266 61.9669 23.827 62.0169 18.9093C62.0715 13.5176 61.9847 12.544 61.3513 11.4512C60.9994 10.8439 60.1603 10.3328 59.5146 10.3328C58.8928 10.3328 58.0017 10.7512 57.3224 11.3619L56.5791 12.0301V5.47703H53.8478V25.8106H56.5791V24.4097L57.202 24.9725C57.5447 25.2819 58.0398 25.6287 58.3022 25.7428C59.0067 26.0496 60.2076 26.0158 60.7692 25.6731ZM57.148 23.1979L56.579 22.868V13.5616L57.2524 13.2044C57.7988 12.9146 58.0063 12.8756 58.3526 12.9971C59.1008 13.2599 59.1814 13.8396 59.1295 18.5782L59.0828 22.8025L58.657 23.1685C58.1357 23.6167 57.8796 23.6217 57.148 23.1979ZM69.9324 25.6463C71.3988 24.9815 72.0592 23.8572 72.1747 21.8287L72.2506 20.4998H69.3253V21.4005C69.3253 22.5037 69.1542 22.9856 68.6444 23.3198C68.0697 23.6961 67.3555 23.4569 67.0116 22.7727C66.8039 22.3598 66.7461 21.8566 66.7461 20.4617L66.7456 18.6787H72.2084V16.4506C72.2084 13.6464 71.9891 12.7527 71.0436 11.7011C70.2081 10.772 69.313 10.402 67.9596 10.4269C66.8377 10.4474 66.0881 10.727 65.3007 11.4184C64.0139 12.5484 63.8188 13.5552 63.8957 18.6788C63.9458 22.0079 64.0009 22.819 64.217 23.3915C64.586 24.3691 65.2526 25.1134 66.1681 25.5697C67.1999 26.0835 68.8919 26.118 69.9324 25.6463ZM66.7458 15.2595C66.7458 13.3721 67.23 12.7281 68.4485 12.9958C69.0602 13.1302 69.3256 13.8149 69.3256 15.2596V16.4025H66.7459V15.2596L66.7458 15.2595ZM40.646 17.0855V8.3603H43.9843V5.47718H34.4245V8.3603H37.6111V25.8108H40.646V17.0855Z" fill="#D02726"/>
<path d="M12.7251 25.8175C12.1171 25.6089 11.7014 25.3259 11.194 24.7761C10.1282 23.6212 10.0696 23.2764 10.0696 18.1476C10.0696 13.2058 10.1455 12.7404 11.1385 11.5801C12.5307 9.95367 15.75 10.0018 17.1247 11.6694C18.0378 12.7772 18.112 13.2703 18.112 18.2235C18.112 22.1437 18.078 22.7971 17.8388 23.4829C17.4722 24.5333 16.392 25.5495 15.2959 25.875C14.2623 26.182 13.7532 26.1708 12.7251 25.8174V25.8175ZM14.6151 23.4403C15.2357 23.2021 15.3047 22.6807 15.3047 18.2382C15.3047 15.4034 15.2477 13.8638 15.1333 13.6128C14.7494 12.77 13.4322 12.77 13.0483 13.6128C12.9339 13.8638 12.8768 15.4034 12.8768 18.2382C12.8768 23.1949 12.9401 23.4825 14.0404 23.5227C14.2214 23.5292 14.48 23.492 14.6151 23.4403ZM21.3566 25.7344C21.138 25.6157 20.8306 25.2597 20.6737 24.9438C20.4089 24.4108 20.3849 23.8658 20.3431 17.4269L20.298 10.4846H23.1954V16.8392C23.1954 22.2781 23.2279 23.221 23.421 23.3811C23.7573 23.6602 24.3036 23.4559 24.9213 22.8201L25.4715 22.2537V10.4848H28.3546V25.8108H25.4715V24.2676L24.7507 24.9075C24.3544 25.2594 23.8102 25.6407 23.5417 25.755C22.9156 26.021 21.866 26.011 21.3566 25.7344ZM3.77028 21.5997L3.768 17.3888L1.89291 11.3949L0.0178223 5.40107L1.54132 5.35752C2.43312 5.33202 3.10322 5.37633 3.15754 5.46434C3.20868 5.54704 3.69228 7.29057 4.23219 9.3388C4.77239 11.387 5.24856 13.0632 5.2909 13.0635C5.33339 13.0638 5.73126 11.6814 6.17526 9.9913C6.61941 8.30133 7.0845 6.56008 7.20908 6.12185L7.43564 5.3252H9.0344C10.337 5.3252 10.6183 5.36434 10.5523 5.53612C10.5078 5.65205 9.64684 8.38054 8.63926 11.5993L6.80727 17.4516V25.8105H3.7724L3.77028 21.5997Z" fill="white"/>
</g>
<defs>
<clipPath id="clip0_128_93">
<rect width="76" height="31.616" fill="white" transform="translate(0 0.191895)"/>
</clipPath>
</defs>
</svg>
