<svg width="617" height="640" viewBox="0 0 617 640" fill="none" xmlns="http://www.w3.org/2000/svg">
<g clip-path="url(#clip0_128_84)">
<path opacity="0.15" d="M-5.73599 918H264.128C264.128 918 290.56 841.607 350.558 845.101C410.557 848.593 414.082 879.132 473.2 874.296C569.233 866.236 617.955 785.635 616.986 781.783C610.995 757.065 564.828 790.739 513.639 770.678C507.736 768.35 542.714 745.871 539.454 739.601C536.194 733.332 459.368 737.989 465.887 713.539C472.406 689.09 501.129 721.869 552.493 688.015C603.858 654.164 631.787 622.818 602.096 625.952C572.405 629.087 553.11 632.759 540.423 609.832C527.736 586.906 560.07 566.576 566.854 549.291C573.639 532.006 545.621 545.709 534.696 549.291C523.771 552.873 456.812 551.44 423.068 530.573C389.325 509.706 379.456 461.792 426.328 467.882C473.2 473.973 473.728 458.031 445.887 454.36C418.046 450.687 412.672 442.897 413.817 432.507C414.963 422.119 433.377 428.299 473.2 409.044C513.023 389.788 526.591 368.921 492.759 377.788C458.927 386.653 470.469 361.041 483.948 349.578C497.429 338.113 513.375 307.932 485.093 315.187C456.812 322.44 362.629 327.546 365.977 314.112C369.325 300.678 418.223 276.14 417.693 257.333C417.165 238.525 383.951 264.586 375.757 254.198C367.563 243.809 379.633 229.39 384.566 207.449C389.501 185.507 386.858 151.028 358.928 179.148C330.999 207.27 325.713 212.464 299.546 211.478C273.378 210.493 232.498 195.806 232.498 177.536C232.498 159.267 239.987 132.131 278.842 125.325C313.467 119.324 301.749 113.86 287.035 111.264C272.322 108.666 281.572 92.0086 304.656 75.4402C327.74 58.8717 347.122 30.1239 308.973 41.0496C270.824 51.9753 238.489 41.0496 241.398 24.9297C244.305 8.80977 238.137 13.4666 225.097 24.9297C212.059 36.3927 165.187 51.7976 141.752 43.7362C118.315 35.6763 85.6285 1.01775 134.086 -17.7C182.544 -36.4177 195.143 -56.2989 190.737 -64.6283C186.332 -72.9576 172.236 -65.1656 167.301 -69.3754C162.367 -73.5838 187.477 -106.362 186.949 -118.9C186.419 -131.438 170.033 -114.153 145.539 -100.094C121.046 -86.0327 95.9361 -98.5703 95.4081 -115.766C94.88 -132.961 113.029 -179.352 97.6108 -162.605C82.1931 -145.857 59.9905 -134.483 42.017 -141.29C24.0434 -148.096 15.5855 -174.157 30.5627 -183.471C45.5414 -192.785 69.2406 -217.862 50.2109 -214.817C31.1798 -211.772 14.2638 -214.279 8.27263 -220.011C2.28144 -225.743 6.59945 -266.939 2.81102 -272.671C0.543 -276.099 -2.47264 -278.949 -6.00001 -281L-5.73599 918Z" fill="#18231A"/>
<path d="M-23.9072 686H70.9568C70.9568 686 80.2482 659.113 101.339 660.342C122.43 661.571 123.669 672.32 144.451 670.618C178.209 667.781 195.336 639.413 194.995 638.057C192.889 629.357 176.66 641.209 158.666 634.149C156.591 633.329 168.887 625.417 167.741 623.211C166.595 621.004 139.588 622.643 141.88 614.038C144.172 605.433 154.268 616.97 172.324 605.055C190.38 593.14 200.198 582.108 189.761 583.211C179.324 584.314 172.541 585.607 168.081 577.537C163.622 569.468 174.988 562.313 177.373 556.229C179.757 550.146 169.909 554.968 166.068 556.229C162.228 557.49 138.69 556.986 126.828 549.641C114.966 542.297 111.497 525.433 127.974 527.576C144.451 529.72 144.636 524.109 134.85 522.817C125.063 521.525 123.174 518.783 123.576 515.126C123.979 511.47 130.452 513.645 144.451 506.868C158.449 500.091 163.219 492.746 151.326 495.867C139.433 498.987 143.491 489.973 148.229 485.938C152.968 481.903 158.573 471.281 148.631 473.834C138.69 476.387 105.582 478.184 106.759 473.456C107.936 468.727 125.125 460.091 124.939 453.472C124.753 446.852 113.077 456.025 110.197 452.368C107.317 448.712 111.559 443.637 113.294 435.914C115.029 428.192 114.099 416.056 104.281 425.954C94.4634 435.851 92.6055 437.679 83.407 437.332C74.2085 436.986 59.8379 431.817 59.8379 425.386C59.8379 418.956 62.4706 409.405 76.1289 407.01C88.3006 404.898 84.1813 402.975 79.0093 402.061C73.8372 401.147 77.0888 395.284 85.2033 389.453C93.3178 383.621 100.131 373.503 86.7207 377.349C73.3106 381.194 61.9439 377.349 62.9665 371.675C63.9885 366.001 61.8204 367.64 57.2365 371.675C52.6531 375.71 36.1765 381.131 27.9385 378.294C19.6999 375.457 8.20969 363.259 25.2437 356.671C42.2778 350.083 46.7068 343.086 45.1581 340.154C43.6095 337.223 38.6543 339.965 36.9196 338.483C35.1853 337.002 44.012 325.465 43.8264 321.053C43.6402 316.64 37.88 322.723 29.2697 327.672C20.6598 332.621 11.8331 328.208 11.6475 322.156C11.4618 316.104 17.8415 299.776 12.4218 305.67C7.00207 311.565 -0.802697 315.568 -7.12085 313.172C-13.439 310.777 -16.4122 301.604 -11.1473 298.326C-5.88191 295.048 2.44896 286.222 -4.24045 287.294C-10.9304 288.366 -16.8768 287.483 -18.9828 285.466C-21.0889 283.448 -19.571 268.949 -20.9027 266.931C-21.7 265.725 -22.76 264.722 -24 264L-23.9072 686Z" fill="#1D5525"/>
</g>
<defs>
<clipPath id="clip0_128_84">
<rect width="617" height="640" fill="white"/>
</clipPath>
</defs>
</svg>
