<svg width="34" height="35" viewBox="0 0 34 35" fill="none" xmlns="http://www.w3.org/2000/svg">
<rect y="0.5" width="34" height="34" rx="17" fill="#283B2B"/>
<path d="M26.8 12.9523C26.8 12.9523 26.605 11.3835 26.0056 10.693C25.245 9.78792 24.3925 9.78258 24.0019 9.73127C21.2031 9.5 17.0044 9.5 17.0044 9.5H16.995C16.995 9.5 12.7969 9.5 9.99875 9.73127C9.6075 9.78192 8.75625 9.78725 7.995 10.693C7.39562 11.3835 7.2 12.9523 7.2 12.9523C7.2 12.9523 7 14.7931 7 16.6339V18.3594C7 20.2015 7.2 22.0417 7.2 22.0417C7.2 22.0417 7.395 23.6099 7.99437 24.299C8.75563 25.2041 9.75437 25.1768 10.1994 25.2714C11.7994 25.446 17 25.5 17 25.5C17 25.5 21.2025 25.492 24.0019 25.2634C24.3925 25.2101 25.245 25.2048 26.0056 24.299C26.6044 23.6099 26.8 22.0417 26.8 22.0417C26.8 22.0417 27 20.2009 27 18.3594V16.6339C27 14.7931 26.8 12.9523 26.8 12.9523ZM14.5025 21.4998V13.4995L20.7544 17.4997L14.5025 21.4998Z" fill="#F1F6F2"/>
</svg>
