<svg width="34" height="35" viewBox="0 0 34 35" fill="none" xmlns="http://www.w3.org/2000/svg">
<rect y="0.5" width="34" height="34" rx="17" fill="#283B2B"/>
<g clip-path="url(#clip0_499_84)">
<path d="M17.0027 6.875H16.9974C11.139 6.875 6.37501 11.6403 6.37501 17.5C6.37138 19.7379 7.07978 21.9189 8.39775 23.7276L7.07361 27.6748L11.1576 26.3692C12.89 27.5185 14.9237 28.1295 17.0027 28.125C22.861 28.125 27.625 23.3584 27.625 17.5C27.625 11.6416 22.861 6.875 17.0027 6.875ZM23.1851 21.8788C22.9288 22.6027 21.9114 23.203 21.0999 23.3783C20.5448 23.4965 19.8196 23.5908 17.3785 22.5788C14.2561 21.2852 12.2453 18.1123 12.0886 17.9064C11.9385 17.7005 10.8269 16.2263 10.8269 14.7016C10.8269 13.177 11.6012 12.4345 11.9133 12.1158C12.1696 11.8541 12.5933 11.7346 12.9997 11.7346C13.1312 11.7346 13.2494 11.7413 13.3556 11.7466C13.6677 11.7598 13.8245 11.7784 14.0303 12.2712C14.2867 12.8888 14.9109 14.4134 14.9852 14.5702C15.061 14.7269 15.1367 14.9394 15.0304 15.1452C14.9308 15.3577 14.8431 15.452 14.6864 15.6327C14.5297 15.8133 14.381 15.9514 14.2242 16.1453C14.0808 16.314 13.9188 16.4946 14.0994 16.8067C14.28 17.1122 14.9042 18.1309 15.8233 18.949C17.0093 20.0048 17.9709 20.3422 18.3149 20.4856C18.5712 20.5919 18.8767 20.5666 19.0639 20.3674C19.3017 20.1111 19.5952 19.6861 19.894 19.2677C20.1065 18.9676 20.3748 18.9304 20.6563 19.0366C20.9432 19.1363 22.4613 19.8866 22.7734 20.042C23.0855 20.1988 23.2913 20.2731 23.367 20.4046C23.4414 20.5361 23.4414 21.1537 23.1851 21.8788Z" fill="white"/>
</g>
<defs>
<clipPath id="clip0_499_84">
<rect width="21.25" height="21.25" fill="white" transform="translate(6.375 6.875)"/>
</clipPath>
</defs>
</svg>
