<svg width="34" height="35" viewBox="0 0 34 35" fill="none" xmlns="http://www.w3.org/2000/svg">
<rect y="0.5" width="34" height="34" rx="17" fill="#283B2B"/>
<path d="M16.9941 7.5C15.0163 7.5 13.0829 8.08649 11.4384 9.1853C9.79395 10.2841 8.51223 11.8459 7.75535 13.6732C6.99847 15.5004 6.80044 17.5111 7.18629 19.4509C7.57214 21.3907 8.52455 23.1725 9.92308 24.5711C11.3216 25.9696 13.1034 26.922 15.0432 27.3079C16.9831 27.6937 18.9937 27.4957 20.821 26.7388C22.6482 25.9819 24.21 24.7002 25.3088 23.0557C26.4077 21.4112 26.9941 19.4778 26.9941 17.5C26.9943 16.1868 26.7357 14.8863 26.2332 13.673C25.7307 12.4597 24.9941 11.3573 24.0655 10.4287C23.1368 9.50008 22.0344 8.76349 20.8211 8.26098C19.6078 7.75847 18.3074 7.49989 16.9941 7.5ZM20.1737 22.6525C20.1362 22.7458 20.0793 22.83 20.0066 22.8996C19.934 22.9691 19.8473 23.0223 19.7524 23.0556C19.6575 23.0889 19.5566 23.1015 19.4565 23.0926C19.3563 23.0837 19.2592 23.0535 19.1717 23.004L16.457 20.8946L14.7147 22.502C14.6742 22.5319 14.6269 22.5511 14.5771 22.5579C14.5273 22.5647 14.4766 22.5589 14.4297 22.5409L14.7637 19.5525L14.7744 19.561L14.7812 19.502C14.7812 19.502 19.6662 15.0544 19.8652 14.865C20.0667 14.676 20.0002 14.635 20.0002 14.635C20.0117 14.4044 19.6387 14.635 19.6387 14.635L13.1661 18.799L10.4707 17.881C10.4707 17.881 10.0567 17.7325 10.0177 17.406C9.97666 17.082 10.4841 16.906 10.4841 16.906L21.2011 12.6485C21.2011 12.6485 22.0821 12.256 22.0821 12.906L20.1737 22.6525Z" fill="#F1F6F2"/>
</svg>
