<svg width="34" height="35" viewBox="0 0 34 35" fill="none" xmlns="http://www.w3.org/2000/svg">
<rect y="0.5" width="34" height="34" rx="17" fill="#283B2B"/>
<path d="M16.8074 22.4579H17.883C17.883 22.4579 18.2081 22.4228 18.3735 22.2486C18.5265 22.0887 18.5209 21.7885 18.5209 21.7885C18.5209 21.7885 18.4995 20.3831 19.1701 20.176C19.8305 19.9723 20.6788 21.5344 21.5777 22.1358C22.2573 22.5904 22.7737 22.4907 22.7737 22.4907L25.178 22.4579C25.178 22.4579 26.4359 22.3823 25.8396 21.4194C25.7912 21.3405 25.4919 20.7073 24.0518 19.4059C22.5442 18.0431 22.7467 18.2644 24.5626 15.9081C25.6685 14.473 26.1107 13.5967 25.9723 13.222C25.8407 12.8649 25.0273 12.9591 25.0273 12.9591L22.3226 12.9744C22.3226 12.9744 22.1223 12.9481 21.9727 13.0347C21.8275 13.1201 21.7341 13.3173 21.7341 13.3173C21.7341 13.3173 21.3055 14.4281 20.7339 15.3724C19.529 17.3651 19.0463 17.4702 18.8494 17.3464C18.3915 17.0583 18.5063 16.1874 18.5063 15.5696C18.5063 13.6383 18.8067 12.8331 17.9201 12.625C17.6253 12.556 17.4093 12.51 16.6566 12.5023C15.6913 12.4924 14.8734 12.5056 14.411 12.7258C14.1027 12.8726 13.8653 13.2001 14.0104 13.2187C14.1893 13.2417 14.5944 13.325 14.8093 13.6098C15.0871 13.9768 15.077 14.8028 15.077 14.8028C15.077 14.8028 15.2368 17.0759 14.7046 17.3585C14.339 17.5524 13.8383 17.1569 12.7639 15.3483C12.2137 14.4226 11.7974 13.3984 11.7974 13.3984C11.7974 13.3984 11.7175 13.2078 11.5746 13.1059C11.4014 12.9821 11.1584 12.9427 11.1584 12.9427L8.58642 12.958C8.58642 12.958 8.20052 12.969 8.05876 13.1322C7.93275 13.2779 8.04863 13.578 8.04863 13.578C8.04863 13.578 10.0625 18.1647 12.3419 20.4773C14.4335 22.597 16.8074 22.4579 16.8074 22.4579Z" fill="#F1F6F2"/>
</svg>
