<svg width="173" height="29" viewBox="0 0 173 29" fill="none" xmlns="http://www.w3.org/2000/svg">
<rect y="0.5" width="173" height="28" rx="14" fill="white"/>
<path d="M14.3799 14.5001L16.7899 16.9201L21.6199 12.0801" stroke="url(#paint0_linear_199_198)" stroke-width="1.5" stroke-linecap="round" stroke-linejoin="round"/>
<path d="M16.7499 4.95031C17.4399 4.36031 18.5699 4.36031 19.2699 4.95031L20.8499 6.31031C21.1499 6.57031 21.7099 6.78031 22.1099 6.78031H23.8099C24.8699 6.78031 25.7399 7.65031 25.7399 8.71031V10.4103C25.7399 10.8003 25.9499 11.3703 26.2099 11.6703L27.5699 13.2503C28.1599 13.9403 28.1599 15.0703 27.5699 15.7703L26.2099 17.3503C25.9499 17.6503 25.7399 18.2103 25.7399 18.6103V20.3103C25.7399 21.3703 24.8699 22.2403 23.8099 22.2403H22.1099C21.7199 22.2403 21.1499 22.4503 20.8499 22.7103L19.2699 24.0703C18.5799 24.6603 17.4499 24.6603 16.7499 24.0703L15.1699 22.7103C14.8699 22.4503 14.3099 22.2403 13.9099 22.2403H12.1799C11.1199 22.2403 10.2499 21.3703 10.2499 20.3103V18.6003C10.2499 18.2103 10.0399 17.6503 9.78988 17.3503L8.43988 15.7603C7.85988 15.0703 7.85988 13.9503 8.43988 13.2603L9.78988 11.6703C10.0399 11.3703 10.2499 10.8103 10.2499 10.4203V8.70031C10.2499 7.64031 11.1199 6.77031 12.1799 6.77031H13.9099C14.2999 6.77031 14.8699 6.56031 15.1699 6.30031L16.7499 4.95031Z" stroke="url(#paint1_linear_199_198)" stroke-width="1.5" stroke-linecap="round" stroke-linejoin="round"/>
<path d="M35.3324 21.7898V18.4844H35.9418C36.151 18.2936 36.348 18.0243 36.5327 17.6765C36.7204 17.3256 36.8789 16.8578 37.0082 16.2731C37.1405 15.6853 37.2282 14.9389 37.2713 14.0341L37.4744 10.0455H43.0881V18.4844H44.1776V21.7713H43.0881V19.5H36.4219V21.7898H35.3324ZM37.3082 18.4844H41.9986V11.0611H38.5085L38.3608 14.0341C38.3239 14.7235 38.2592 15.3482 38.1669 15.9084C38.0746 16.4654 37.9561 16.9594 37.8114 17.3903C37.6668 17.8181 37.4991 18.1828 37.3082 18.4844ZM48.6405 19.6477C48.0004 19.6477 47.4387 19.4954 46.9555 19.1907C46.4754 18.886 46.0999 18.4598 45.8291 17.9119C45.5613 17.3641 45.4275 16.724 45.4275 15.9915C45.4275 15.2528 45.5613 14.6081 45.8291 14.0572C46.0999 13.5063 46.4754 13.0785 46.9555 12.7738C47.4387 12.4691 48.0004 12.3168 48.6405 12.3168C49.2807 12.3168 49.8408 12.4691 50.3209 12.7738C50.8041 13.0785 51.1796 13.5063 51.4474 14.0572C51.7182 14.6081 51.8536 15.2528 51.8536 15.9915C51.8536 16.724 51.7182 17.3641 51.4474 17.9119C51.1796 18.4598 50.8041 18.886 50.3209 19.1907C49.8408 19.4954 49.2807 19.6477 48.6405 19.6477ZM48.6405 18.669C49.1268 18.669 49.5269 18.5444 49.8408 18.2951C50.1547 18.0458 50.3871 17.718 50.5379 17.3118C50.6887 16.9055 50.7641 16.4654 50.7641 15.9915C50.7641 15.5175 50.6887 15.0759 50.5379 14.6665C50.3871 14.2572 50.1547 13.9264 49.8408 13.674C49.5269 13.4216 49.1268 13.2955 48.6405 13.2955C48.1543 13.2955 47.7542 13.4216 47.4403 13.674C47.1263 13.9264 46.894 14.2572 46.7432 14.6665C46.5924 15.0759 46.517 15.5175 46.517 15.9915C46.517 16.4654 46.5924 16.9055 46.7432 17.3118C46.894 17.718 47.1263 18.0458 47.4403 18.2951C47.7542 18.5444 48.1543 18.669 48.6405 18.669ZM56.3974 19.6477C55.7326 19.6477 55.1602 19.4908 54.68 19.1768C54.1999 18.8629 53.8306 18.4305 53.5721 17.8796C53.3136 17.3287 53.1843 16.6993 53.1843 15.9915C53.1843 15.2713 53.3166 14.6358 53.5813 14.0849C53.8491 13.5309 54.2215 13.0985 54.6985 12.7876C55.1786 12.4737 55.7388 12.3168 56.3789 12.3168C56.8775 12.3168 57.3268 12.4091 57.7269 12.5938C58.127 12.7784 58.4548 13.0369 58.7102 13.3693C58.9657 13.7017 59.1242 14.0895 59.1857 14.5327H58.0962C58.0131 14.2095 57.8285 13.9233 57.5423 13.674C57.2591 13.4216 56.8775 13.2955 56.3974 13.2955C55.9727 13.2955 55.6003 13.4062 55.2802 13.6278C54.9632 13.8464 54.7154 14.1557 54.5369 14.5558C54.3615 14.9528 54.2738 15.419 54.2738 15.9545C54.2738 16.5024 54.36 16.9794 54.5323 17.3857C54.7077 17.7919 54.954 18.1074 55.271 18.332C55.591 18.5567 55.9665 18.669 56.3974 18.669C56.6805 18.669 56.9375 18.6198 57.1683 18.5213C57.3991 18.4228 57.5946 18.2812 57.7546 18.0966C57.9147 17.9119 58.0285 17.6903 58.0962 17.4318H59.1857C59.1242 17.8504 58.9718 18.2274 58.7287 18.5629C58.4886 18.8952 58.1701 19.1599 57.7731 19.3569C57.3791 19.5508 56.9206 19.6477 56.3974 19.6477ZM60.2198 13.4247V12.4091H65.9812V13.4247H63.6545V19.5H62.565V13.4247H60.2198ZM68.2721 22.1591C68.0874 22.1591 67.9228 22.1437 67.7781 22.1129C67.6335 22.0852 67.5335 22.0575 67.4781 22.0298L67.7551 21.0696C68.0197 21.1373 68.2536 21.1619 68.4568 21.1435C68.6599 21.125 68.8399 21.0342 68.9969 20.8711C69.1569 20.7111 69.3031 20.451 69.4355 20.0909L69.6386 19.5369L67.0164 12.4091H68.1982L70.1556 18.0597H70.2295L72.1869 12.4091H73.3687L70.3588 20.5341C70.2233 20.9003 70.0556 21.2035 69.8556 21.4435C69.6555 21.6867 69.4231 21.8667 69.1585 21.9837C68.8969 22.1006 68.6014 22.1591 68.2721 22.1591ZM74.8067 19.5V12.4091H80.3834V19.5H79.2939V13.4247H75.8962V19.5H74.8067ZM87.1189 15.456V16.4716H83.2041V15.456H87.1189ZM83.4626 12.4091V19.5H82.3731V12.4091H83.4626ZM87.9498 12.4091V19.5H86.8604V12.4091H87.9498ZM92.8202 19.6477C92.1801 19.6477 91.6184 19.4954 91.1352 19.1907C90.6551 18.886 90.2796 18.4598 90.0088 17.9119C89.741 17.3641 89.6072 16.724 89.6072 15.9915C89.6072 15.2528 89.741 14.6081 90.0088 14.0572C90.2796 13.5063 90.6551 13.0785 91.1352 12.7738C91.6184 12.4691 92.1801 12.3168 92.8202 12.3168C93.4604 12.3168 94.0205 12.4691 94.5006 12.7738C94.9838 13.0785 95.3593 13.5063 95.627 14.0572C95.8979 14.6081 96.0333 15.2528 96.0333 15.9915C96.0333 16.724 95.8979 17.3641 95.627 17.9119C95.3593 18.4598 94.9838 18.886 94.5006 19.1907C94.0205 19.4954 93.4604 19.6477 92.8202 19.6477ZM92.8202 18.669C93.3065 18.669 93.7066 18.5444 94.0205 18.2951C94.3344 18.0458 94.5668 17.718 94.7176 17.3118C94.8684 16.9055 94.9438 16.4654 94.9438 15.9915C94.9438 15.5175 94.8684 15.0759 94.7176 14.6665C94.5668 14.2572 94.3344 13.9264 94.0205 13.674C93.7066 13.4216 93.3065 13.2955 92.8202 13.2955C92.334 13.2955 91.9339 13.4216 91.6199 13.674C91.306 13.9264 91.0737 14.2572 90.9229 14.6665C90.772 15.0759 90.6966 15.5175 90.6966 15.9915C90.6966 16.4654 90.772 16.9055 90.9229 17.3118C91.0737 17.718 91.306 18.0458 91.6199 18.2951C91.9339 18.5444 92.334 18.669 92.8202 18.669ZM101.353 19.5V12.4091H104.252C105.015 12.4091 105.621 12.5814 106.071 12.9261C106.52 13.2708 106.745 13.7263 106.745 14.2926C106.745 14.7235 106.617 15.0574 106.362 15.2944C106.106 15.5283 105.778 15.6868 105.378 15.7699C105.64 15.8068 105.894 15.8991 106.14 16.0469C106.389 16.1946 106.595 16.3977 106.759 16.6562C106.922 16.9117 107.003 17.2256 107.003 17.598C107.003 17.9612 106.911 18.2859 106.726 18.5721C106.542 18.8583 106.277 19.0845 105.932 19.2507C105.587 19.4169 105.175 19.5 104.695 19.5H101.353ZM102.387 18.5028H104.695C105.07 18.5028 105.364 18.4136 105.577 18.2351C105.789 18.0566 105.895 17.8134 105.895 17.5057C105.895 17.1394 105.789 16.8517 105.577 16.6424C105.364 16.43 105.07 16.3239 104.695 16.3239H102.387V18.5028ZM102.387 15.3821H104.252C104.544 15.3821 104.795 15.3421 105.004 15.2621C105.214 15.179 105.374 15.062 105.484 14.9112C105.598 14.7573 105.655 14.5758 105.655 14.3665C105.655 14.0679 105.531 13.834 105.281 13.6648C105.032 13.4924 104.689 13.4062 104.252 13.4062H102.387V15.3821ZM113.398 17.8935L116.814 12.4091H118.07V19.5H116.981V14.0156L113.583 19.5H112.309V12.4091H113.398V17.8935ZM120.066 19.5V12.4091H125.642V19.5H124.553V13.4247H121.155V19.5H120.066ZM130.513 19.6477C129.872 19.6477 129.311 19.4954 128.828 19.1907C128.347 18.886 127.972 18.4598 127.701 17.9119C127.433 17.3641 127.3 16.724 127.3 15.9915C127.3 15.2528 127.433 14.6081 127.701 14.0572C127.972 13.5063 128.347 13.0785 128.828 12.7738C129.311 12.4691 129.872 12.3168 130.513 12.3168C131.153 12.3168 131.713 12.4691 132.193 12.7738C132.676 13.0785 133.052 13.5063 133.319 14.0572C133.59 14.6081 133.726 15.2528 133.726 15.9915C133.726 16.724 133.59 17.3641 133.319 17.9119C133.052 18.4598 132.676 18.886 132.193 19.1907C131.713 19.4954 131.153 19.6477 130.513 19.6477ZM130.513 18.669C130.999 18.669 131.399 18.5444 131.713 18.2951C132.027 18.0458 132.259 17.718 132.41 17.3118C132.561 16.9055 132.636 16.4654 132.636 15.9915C132.636 15.5175 132.561 15.0759 132.41 14.6665C132.259 14.2572 132.027 13.9264 131.713 13.674C131.399 13.4216 130.999 13.2955 130.513 13.2955C130.026 13.2955 129.626 13.4216 129.312 13.674C128.998 13.9264 128.766 14.2572 128.615 14.6665C128.464 15.0759 128.389 15.5175 128.389 15.9915C128.389 16.4654 128.464 16.9055 128.615 17.3118C128.766 17.718 128.998 18.0458 129.312 18.2951C129.626 18.5444 130.026 18.669 130.513 18.669ZM134.462 13.4247V12.4091H140.223V13.4247H137.897V19.5H136.807V13.4247H134.462ZM144.417 19.6477C143.734 19.6477 143.145 19.4969 142.649 19.1953C142.157 18.8906 141.777 18.4659 141.509 17.9212C141.244 17.3733 141.112 16.7363 141.112 16.0099C141.112 15.2836 141.244 14.6435 141.509 14.0895C141.777 13.5324 142.149 13.0985 142.626 12.7876C143.106 12.4737 143.666 12.3168 144.307 12.3168C144.676 12.3168 145.041 12.3783 145.401 12.5014C145.761 12.6245 146.089 12.8246 146.384 13.1016C146.68 13.3755 146.915 13.7386 147.09 14.1911C147.266 14.6435 147.354 15.2005 147.354 15.8622V16.3239H141.888V15.3821H146.246C146.246 14.982 146.166 14.625 146.006 14.3111C145.849 13.9972 145.624 13.7494 145.331 13.5678C145.042 13.3862 144.701 13.2955 144.307 13.2955C143.873 13.2955 143.497 13.4032 143.18 13.6186C142.866 13.831 142.625 14.108 142.455 14.4496C142.286 14.7912 142.202 15.1574 142.202 15.5483V16.1761C142.202 16.7116 142.294 17.1656 142.479 17.538C142.666 17.9073 142.926 18.1889 143.259 18.3828C143.591 18.5736 143.977 18.669 144.417 18.669C144.704 18.669 144.962 18.629 145.193 18.549C145.427 18.4659 145.628 18.3428 145.798 18.1797C145.967 18.0135 146.098 17.8073 146.19 17.5611L147.243 17.8565C147.132 18.2135 146.946 18.5275 146.684 18.7983C146.423 19.0661 146.099 19.2753 145.715 19.4261C145.33 19.5739 144.898 19.6477 144.417 19.6477ZM149.011 19.5V12.4091H150.1V15.4929H150.82L153.369 12.4091H154.772L151.91 15.8253L154.809 19.5H153.406L151.079 16.5085H150.1V19.5H149.011ZM156.695 22.1591C156.51 22.1591 156.346 22.1437 156.201 22.1129C156.056 22.0852 155.956 22.0575 155.901 22.0298L156.178 21.0696C156.443 21.1373 156.676 21.1619 156.88 21.1435C157.083 21.125 157.263 21.0342 157.42 20.8711C157.58 20.7111 157.726 20.451 157.858 20.0909L158.061 19.5369L155.439 12.4091H156.621L158.578 18.0597H158.652L160.61 12.4091H161.792L158.782 20.5341C158.646 20.9003 158.478 21.2035 158.278 21.4435C158.078 21.6867 157.846 21.8667 157.581 21.9837C157.32 22.1006 157.024 22.1591 156.695 22.1591Z" fill="#283B2B"/>
<defs>
<linearGradient id="paint0_linear_199_198" x1="21.6199" y1="14.5001" x2="14.3799" y2="14.5001" gradientUnits="userSpaceOnUse">
<stop stop-color="#6E9D01"/>
<stop offset="1" stop-color="#296C02"/>
</linearGradient>
<linearGradient id="paint1_linear_199_198" x1="28.0124" y1="14.5103" x2="8.00488" y2="14.5103" gradientUnits="userSpaceOnUse">
<stop stop-color="#6E9D01"/>
<stop offset="1" stop-color="#296C02"/>
</linearGradient>
</defs>
</svg>
