<svg width="91" height="25" viewBox="0 0 91 25" fill="none" xmlns="http://www.w3.org/2000/svg">
<rect y="0.5" width="91" height="24" rx="12" fill="white"/>
<g clip-path="url(#clip0_199_190)">
<mask id="mask0_199_190" style="mask-type:luminance" maskUnits="userSpaceOnUse" x="3" y="2" width="20" height="21">
<path d="M23 2.5H3V22.5H23V2.5Z" fill="white"/>
</mask>
<g mask="url(#mask0_199_190)">
<path d="M23 2.5H3V22.5H23V2.5Z" fill="#1D5525"/>
</g>
<g clip-path="url(#clip1_199_190)">
<path d="M16.093 11.229V11.8504C16.0919 11.9378 16.0562 12.0215 15.9932 12.0839L15.9342 12.1368C15.9033 12.1683 15.866 12.1932 15.8246 12.2099C15.7832 12.2266 15.7387 12.2347 15.6939 12.2338H14.8367C14.6121 12.2364 14.3906 12.2857 14.1872 12.3785C13.9839 12.4712 13.8033 12.6052 13.6576 12.7714C13.509 12.9344 13.3985 13.1267 13.3335 13.3351C13.2686 13.5435 13.2507 13.7631 13.2812 13.9788V14.0052L13.9252 17.5791C13.9427 17.7189 13.9277 17.8607 13.8814 17.9941C13.8351 18.1276 13.7586 18.2493 13.6576 18.3502C13.4811 18.5192 13.2433 18.614 12.9955 18.614C12.7477 18.614 12.5098 18.5192 12.3333 18.3502C12.2317 18.2515 12.1546 18.1315 12.1083 17.9993C12.0619 17.8671 12.0473 17.7264 12.0658 17.5879L12.7098 13.9964V13.97C12.7401 13.754 12.7226 13.5342 12.6584 13.3253C12.5942 13.1164 12.4848 12.9233 12.3375 12.7588C12.1902 12.5944 12.0084 12.4625 11.8043 12.3719C11.6002 12.2814 11.3786 12.2343 11.1542 12.2338H10.3061C10.2612 12.2353 10.2166 12.2274 10.1751 12.2107C10.1336 12.194 10.0963 12.1688 10.0658 12.1368L10.0068 12.1104C9.97284 12.0768 9.94643 12.0368 9.92926 11.9928C9.91208 11.9488 9.90451 11.9018 9.90703 11.8548V11.229H16.093ZM16.7098 10.3477H9.29025C9.25209 10.347 9.2142 10.3541 9.17904 10.3685C9.14388 10.3829 9.11224 10.4044 9.08617 10.4314C9.03159 10.4839 9.00061 10.5552 9 10.6297V11.8504C9.00004 12.0094 9.03253 12.1668 9.09559 12.3136C9.15864 12.4603 9.25101 12.5934 9.36735 12.7053L9.42177 12.7626C9.53778 12.8753 9.6757 12.9646 9.82752 13.0251C9.97934 13.0856 10.142 13.1162 10.3061 13.1151H11.1633C11.2605 13.115 11.3565 13.1356 11.4447 13.1753C11.5328 13.2151 11.611 13.2731 11.6736 13.3454C11.7363 13.4176 11.7819 13.5022 11.8073 13.5934C11.8328 13.6845 11.8374 13.78 11.8209 13.873L11.1723 17.4557C11.133 17.7108 11.1507 17.9712 11.2244 18.2191C11.298 18.467 11.4258 18.6965 11.5991 18.892C11.7724 19.0875 11.9871 19.2444 12.2284 19.3519C12.4698 19.4595 12.7322 19.5152 12.9977 19.5152C13.2633 19.5152 13.5257 19.4595 13.767 19.3519C14.0084 19.2444 14.2231 19.0875 14.3963 18.892C14.5696 18.6965 14.6975 18.467 14.7711 18.2191C14.8448 17.9712 14.8625 17.7108 14.8231 17.4557L14.1791 13.873C14.1698 13.782 14.1796 13.6901 14.208 13.6028C14.2364 13.5156 14.2828 13.4349 14.3443 13.3657C14.4058 13.2964 14.4812 13.24 14.5659 13.2C14.6505 13.1599 14.7427 13.1371 14.8367 13.1327H15.6939C15.8572 13.1335 16.0191 13.1027 16.1702 13.0422C16.3212 12.9817 16.4584 12.8926 16.5737 12.7802L16.6327 12.7229C16.749 12.6111 16.8414 12.4779 16.9044 12.3312C16.9675 12.1845 17 12.027 17 11.868V10.6341C17 10.5589 16.9696 10.4867 16.9153 10.4331C16.861 10.3796 16.7871 10.3489 16.7098 10.3477Z" fill="white"/>
<path d="M12.5878 17.257C12.6695 17.1772 12.7737 17.1228 12.8873 17.1007C13.0008 17.0785 13.1186 17.0896 13.2257 17.1326C13.3327 17.1755 13.4243 17.2484 13.4887 17.3419C13.5531 17.4355 13.5875 17.5455 13.5875 17.658C13.5875 17.7706 13.5531 17.8806 13.4887 17.9741C13.4243 18.0677 13.3327 18.1405 13.2257 18.1835C13.1186 18.2264 13.0008 18.2375 12.8873 18.2154C12.7737 18.1932 12.6695 18.1388 12.5878 18.059C12.4787 17.9525 12.4174 17.8083 12.4174 17.658C12.4174 17.5077 12.4787 17.3635 12.5878 17.257ZM16.3474 9.97719C16.4248 9.97603 16.4986 9.94534 16.5529 9.89175C16.6072 9.83816 16.6377 9.76596 16.6377 9.69075V6.63252C16.6383 6.48364 16.6085 6.33611 16.5502 6.19844C16.4918 6.06077 16.406 5.9357 16.2976 5.83042C16.1893 5.72514 16.0606 5.64174 15.9189 5.58503C15.7772 5.52832 15.6254 5.49943 15.4721 5.50001H14.8372C14.774 5.49994 14.7126 5.52024 14.6625 5.55771C14.6125 5.59519 14.5766 5.64773 14.5606 5.70712L14.234 6.82201L13.912 5.70712C13.8951 5.64738 13.8584 5.59472 13.8076 5.55728C13.7567 5.51985 13.6946 5.49972 13.6309 5.50001H10.5288C10.3756 5.49943 10.2238 5.52832 10.0821 5.58503C9.9404 5.64174 9.81168 5.72514 9.70333 5.83042C9.59498 5.9357 9.50915 6.06077 9.45079 6.19844C9.39243 6.33611 9.36269 6.48364 9.36329 6.63252V9.69075C9.36328 9.76596 9.39372 9.83816 9.44802 9.89175C9.50233 9.94534 9.57615 9.97603 9.65354 9.97719H16.3474Z" fill="white"/>
</g>
</g>
<path d="M28.5724 9.27344V8.04545H35.8896V9.27344H32.9396V17.5H31.5178V9.27344H28.5724ZM37.3957 17.5V10.4091H38.776V17.5H37.3957ZM38.0928 9.31499C37.8527 9.31499 37.6465 9.23497 37.4742 9.07493C37.3049 8.91181 37.2203 8.71792 37.2203 8.49325C37.2203 8.26551 37.3049 8.07161 37.4742 7.91158C37.6465 7.74846 37.8527 7.6669 38.0928 7.6669C38.3328 7.6669 38.5375 7.74846 38.7068 7.91158C38.8791 8.07161 38.9653 8.26551 38.9653 8.49325C38.9653 8.71792 38.8791 8.91181 38.7068 9.07493C38.5375 9.23497 38.3328 9.31499 38.0928 9.31499ZM41.9025 15.0948L41.8933 13.4098H42.1333L44.9586 10.4091H46.6113L43.389 13.8253H43.1721L41.9025 15.0948ZM40.633 17.5V8.04545H42.0133V17.5H40.633ZM45.111 17.5L42.5719 14.13L43.5229 13.1651L46.8052 17.5H45.111ZM49.1388 15.0948L49.1296 13.4098H49.3697L52.195 10.4091H53.8477L50.6254 13.8253H50.4084L49.1388 15.0948ZM47.8693 17.5V8.04545H49.2496V17.5H47.8693ZM52.3473 17.5L49.8082 14.13L50.7592 13.1651L54.0415 17.5H52.3473ZM59.5975 14.5593V10.4091H60.9824V17.5H59.6252V16.272H59.5513C59.3882 16.6506 59.1266 16.966 58.7665 17.2184C58.4095 17.4677 57.9648 17.5923 57.4324 17.5923C56.9769 17.5923 56.5737 17.4923 56.2228 17.2923C55.8751 17.0891 55.6011 16.7891 55.4011 16.392C55.2041 15.995 55.1056 15.5041 55.1056 14.9194V10.4091H56.486V14.7532C56.486 15.2364 56.6199 15.6211 56.8876 15.9073C57.1554 16.1935 57.5031 16.3366 57.9309 16.3366C58.1895 16.3366 58.4464 16.272 58.7019 16.1428C58.9604 16.0135 59.1743 15.8181 59.3436 15.5565C59.5159 15.2949 59.6006 14.9625 59.5975 14.5593ZM62.8371 17.5V10.4091H64.1713V11.5355H64.2451C64.3744 11.1539 64.6021 10.8538 64.9284 10.6353C65.2577 10.4137 65.6301 10.3029 66.0455 10.3029C66.1317 10.3029 66.2333 10.306 66.3502 10.3121C66.4703 10.3183 66.5641 10.326 66.6318 10.3352V11.6555C66.5764 11.6402 66.478 11.6232 66.3364 11.6048C66.1948 11.5832 66.0532 11.5724 65.9117 11.5724C65.5854 11.5724 65.2946 11.6417 65.0392 11.7802C64.7868 11.9156 64.5867 12.1049 64.439 12.348C64.2913 12.5881 64.2174 12.862 64.2174 13.1697V17.5H62.8371ZM67.8263 17.5V10.4091H69.2067V17.5H67.8263ZM68.5234 9.31499C68.2834 9.31499 68.0772 9.23497 67.9048 9.07493C67.7356 8.91181 67.6509 8.71792 67.6509 8.49325C67.6509 8.26551 67.7356 8.07161 67.9048 7.91158C68.0772 7.74846 68.2834 7.6669 68.5234 7.6669C68.7635 7.6669 68.9682 7.74846 69.1374 7.91158C69.3098 8.07161 69.396 8.26551 69.396 8.49325C69.396 8.71792 69.3098 8.91181 69.1374 9.07493C68.9682 9.23497 68.7635 9.31499 68.5234 9.31499ZM72.444 8.04545V17.5H71.0637V8.04545H72.444ZM76.3645 17.657C75.9152 17.657 75.5089 17.5739 75.1458 17.4077C74.7826 17.2384 74.4949 16.9937 74.2825 16.6737C74.0732 16.3536 73.9686 15.9612 73.9686 15.4964C73.9686 15.0964 74.0455 14.767 74.1994 14.5085C74.3533 14.25 74.561 14.0453 74.8226 13.8945C75.0842 13.7437 75.3766 13.6299 75.6998 13.5529C76.0229 13.476 76.3522 13.4175 76.6877 13.3775C77.1124 13.3282 77.4571 13.2882 77.7218 13.2575C77.9864 13.2236 78.1788 13.1697 78.2988 13.0959C78.4189 13.022 78.4789 12.902 78.4789 12.7358V12.7035C78.4789 12.3003 78.365 11.9879 78.1373 11.7663C77.9126 11.5447 77.5771 11.4339 77.1309 11.4339C76.6661 11.4339 76.2999 11.537 76.0321 11.7433C75.7675 11.9464 75.5843 12.1726 75.4828 12.4219L74.1855 12.1264C74.3394 11.6955 74.5641 11.3478 74.8596 11.0831C75.1581 10.8153 75.5012 10.6214 75.889 10.5014C76.2768 10.3783 76.6846 10.3168 77.1124 10.3168C77.3955 10.3168 77.6956 10.3506 78.0126 10.4183C78.3327 10.483 78.6312 10.603 78.9082 10.7784C79.1883 10.9538 79.4176 11.2047 79.5961 11.5309C79.7746 11.854 79.8638 12.2741 79.8638 12.7912V17.5H78.5158V16.5305H78.4604C78.3712 16.709 78.2373 16.8845 78.0588 17.0568C77.8803 17.2292 77.651 17.3723 77.3709 17.4862C77.0908 17.6 76.7554 17.657 76.3645 17.657ZM76.6646 16.549C77.0462 16.549 77.3725 16.4736 77.6433 16.3228C77.9172 16.172 78.1249 15.975 78.2665 15.7319C78.4112 15.4857 78.4835 15.2225 78.4835 14.9425V14.0284C78.4342 14.0777 78.3388 14.1238 78.1973 14.1669C78.0588 14.2069 77.9003 14.2423 77.7218 14.2731C77.5433 14.3008 77.3694 14.3269 77.2001 14.3516C77.0308 14.3731 76.8893 14.3916 76.7754 14.407C76.5076 14.4408 76.263 14.4978 76.0414 14.5778C75.8229 14.6578 75.6474 14.7732 75.5151 14.924C75.3858 15.0717 75.3212 15.2687 75.3212 15.5149C75.3212 15.8565 75.4474 16.1151 75.6998 16.2905C75.9521 16.4628 76.2737 16.549 76.6646 16.549Z" fill="#283B2B"/>
<defs>
<clipPath id="clip0_199_190">
<rect x="3" y="2.5" width="20" height="20" rx="10" fill="white"/>
</clipPath>
<clipPath id="clip1_199_190">
<rect width="8" height="14" fill="white" transform="translate(9 5.5)"/>
</clipPath>
</defs>
</svg>
