<svg width="99" height="25" viewBox="0 0 99 25" fill="none" xmlns="http://www.w3.org/2000/svg">
<rect y="0.5" width="99" height="24" rx="12" fill="white"/>
<rect x="3" y="2.5" width="20" height="20" rx="10" fill="#1D5525"/>
<path d="M7.15954 9.35961L12.8395 12.4463C12.8888 12.4725 12.9437 12.4863 12.9995 12.4863C13.0554 12.4863 13.1103 12.4725 13.1595 12.4463L18.8395 9.35961C18.8914 9.33402 18.9345 9.29369 18.9635 9.24368C18.9924 9.19367 19.006 9.13622 19.0024 9.07853C18.9989 9.02084 18.9784 8.96549 18.9434 8.91943C18.9085 8.87336 18.8608 8.83864 18.8062 8.81961L13.1262 6.49961C13.0451 6.46627 12.954 6.46627 12.8729 6.49961L7.19288 8.81961C7.1383 8.83864 7.09056 8.87336 7.05565 8.91943C7.02074 8.96549 7.00021 9.02084 6.99665 9.07853C6.99309 9.13622 7.00665 9.19367 7.03563 9.24368C7.06461 9.29369 7.10772 9.33402 7.15954 9.35961Z" fill="white"/>
<path d="M18.8061 11.6059L17.5861 11.0859L13.1594 13.4926C13.1102 13.5189 13.0552 13.5326 12.9994 13.5326C12.9436 13.5326 12.8887 13.5189 12.8394 13.4926L8.41275 11.0859L7.19275 11.6059C7.14108 11.6331 7.09781 11.6738 7.06763 11.7237C7.03744 11.7737 7.02148 11.8309 7.02148 11.8893C7.02148 11.9476 7.03744 12.0049 7.06763 12.0548C7.09781 12.1047 7.14108 12.1455 7.19275 12.1726L12.8727 15.4393C12.9209 15.4687 12.9763 15.4843 13.0327 15.4843C13.0892 15.4843 13.1446 15.4687 13.1927 15.4393L18.8727 12.1726C18.9219 12.1399 18.9611 12.0942 18.9859 12.0405C19.0107 11.9869 19.0202 11.9275 19.0133 11.8688C19.0064 11.8101 18.9834 11.7545 18.9468 11.7081C18.9102 11.6617 18.8615 11.6264 18.8061 11.6059Z" fill="white"/>
<path d="M18.8053 14.5666L17.7653 14.1133L13.1586 16.6199C13.1093 16.6462 13.0544 16.6599 12.9986 16.6599C12.9428 16.6599 12.8878 16.6462 12.8386 16.6199L8.23192 14.1133L7.19192 14.5666C7.13879 14.5942 7.09425 14.6358 7.06316 14.6869C7.03207 14.7381 7.01562 14.7968 7.01562 14.8566C7.01562 14.9165 7.03207 14.9752 7.06316 15.0263C7.09425 15.0774 7.13879 15.1191 7.19192 15.1466L12.8719 18.4799C12.9212 18.5062 12.9761 18.5199 13.0319 18.5199C13.0877 18.5199 13.1427 18.5062 13.1919 18.4799L18.8719 15.1466C18.9226 15.1134 18.963 15.0668 18.9887 15.012C19.0144 14.9571 19.0244 14.8962 19.0174 14.8361C19.0105 14.7759 18.987 14.7188 18.9496 14.6712C18.9121 14.6237 18.8621 14.5874 18.8053 14.5666Z" fill="white"/>
<path d="M29.0387 17.5V8.04545H32.4087C33.1412 8.04545 33.7491 8.17164 34.2322 8.42401C34.7185 8.67637 35.0817 9.02569 35.3217 9.47195C35.5618 9.91513 35.6818 10.4276 35.6818 11.0092C35.6818 11.5878 35.5603 12.0972 35.3171 12.5373C35.0771 12.9743 34.7139 13.3144 34.2276 13.5575C33.7444 13.8007 33.1366 13.9222 32.4041 13.9222H29.8512V12.6942H32.2749C32.7365 12.6942 33.112 12.6281 33.4013 12.4957C33.6937 12.3634 33.9076 12.171 34.043 11.9187C34.1784 11.6663 34.2461 11.3632 34.2461 11.0092C34.2461 10.6522 34.1768 10.3429 34.0384 10.0813C33.9029 9.81972 33.689 9.61967 33.3967 9.48118C33.1074 9.33961 32.7273 9.26882 32.2564 9.26882H30.4652V17.5H29.0387ZM33.706 13.2344L36.0419 17.5H34.4169L32.1271 13.2344H33.706ZM40.2048 17.6431C39.54 17.6431 38.9599 17.4908 38.4644 17.1861C37.9689 16.8814 37.5842 16.4551 37.3103 15.9073C37.0364 15.3595 36.8994 14.7193 36.8994 13.9869C36.8994 13.2513 37.0364 12.6081 37.3103 12.0572C37.5842 11.5063 37.9689 11.0785 38.4644 10.7738C38.9599 10.4691 39.54 10.3168 40.2048 10.3168C40.8696 10.3168 41.4497 10.4691 41.9452 10.7738C42.4407 11.0785 42.8254 11.5063 43.0993 12.0572C43.3733 12.6081 43.5102 13.2513 43.5102 13.9869C43.5102 14.7193 43.3733 15.3595 43.0993 15.9073C42.8254 16.4551 42.4407 16.8814 41.9452 17.1861C41.4497 17.4908 40.8696 17.6431 40.2048 17.6431ZM40.2094 16.4844C40.6403 16.4844 40.9973 16.3705 41.2805 16.1428C41.5636 15.915 41.7729 15.6119 41.9083 15.2333C42.0468 14.8548 42.116 14.4377 42.116 13.9822C42.116 13.5298 42.0468 13.1143 41.9083 12.7358C41.7729 12.3542 41.5636 12.0479 41.2805 11.8171C40.9973 11.5863 40.6403 11.4709 40.2094 11.4709C39.7755 11.4709 39.4154 11.5863 39.1292 11.8171C38.846 12.0479 38.6352 12.3542 38.4967 12.7358C38.3613 13.1143 38.2936 13.5298 38.2936 13.9822C38.2936 14.4377 38.3613 14.8548 38.4967 15.2333C38.6352 15.6119 38.846 15.915 39.1292 16.1428C39.4154 16.3705 39.7755 16.4844 40.2094 16.4844ZM48.0378 17.6431C47.3515 17.6431 46.7606 17.4877 46.2651 17.1768C45.7727 16.8629 45.3941 16.4305 45.1294 15.8796C44.8648 15.3287 44.7324 14.6978 44.7324 13.9869C44.7324 13.2667 44.8678 12.6312 45.1387 12.0803C45.4095 11.5263 45.7911 11.0939 46.2836 10.783C46.776 10.4722 47.3561 10.3168 48.024 10.3168C48.5626 10.3168 49.0427 10.4168 49.4643 10.6168C49.8859 10.8138 50.226 11.0908 50.4846 11.4478C50.7462 11.8048 50.9016 12.2218 50.9508 12.6989H49.6074C49.5336 12.3665 49.3643 12.0803 49.0996 11.8402C48.838 11.6001 48.4872 11.4801 48.0471 11.4801C47.6623 11.4801 47.3253 11.5817 47.036 11.7848C46.7498 11.9848 46.5267 12.2711 46.3667 12.6435C46.2066 13.0128 46.1266 13.4498 46.1266 13.9545C46.1266 14.4716 46.2051 14.9179 46.362 15.2933C46.519 15.6688 46.7406 15.9596 47.0268 16.1658C47.3161 16.372 47.6562 16.4751 48.0471 16.4751C48.3087 16.4751 48.5456 16.4274 48.758 16.332C48.9734 16.2335 49.1535 16.0935 49.2981 15.9119C49.4458 15.7304 49.5489 15.5118 49.6074 15.2564H50.9508C50.9016 15.715 50.7523 16.1243 50.503 16.4844C50.2537 16.8445 49.9198 17.1276 49.5012 17.3338C49.0858 17.54 48.598 17.6431 48.0378 17.6431ZM53.6965 15.0948L53.6872 13.4098H53.9273L56.7526 10.4091H58.4053L55.183 13.8253H54.966L53.6965 15.0948ZM52.4269 17.5V8.04545H53.8073V17.5H52.4269ZM56.9049 17.5L54.3659 14.13L55.3169 13.1651L58.5992 17.5H56.9049ZM61.2006 17.5L59.1139 10.4091H60.5404L61.93 15.6165H61.9992L63.3934 10.4091H64.8199L66.2048 15.5934H66.2741L67.6544 10.4091H69.0809L66.9988 17.5H65.5908L64.1505 12.3803H64.0443L62.604 17.5H61.2006ZM73.1618 17.6431C72.4971 17.6431 71.9169 17.4908 71.4214 17.1861C70.9259 16.8814 70.5412 16.4551 70.2673 15.9073C69.9934 15.3595 69.8564 14.7193 69.8564 13.9869C69.8564 13.2513 69.9934 12.6081 70.2673 12.0572C70.5412 11.5063 70.9259 11.0785 71.4214 10.7738C71.9169 10.4691 72.4971 10.3168 73.1618 10.3168C73.8266 10.3168 74.4068 10.4691 74.9023 10.7738C75.3978 11.0785 75.7825 11.5063 76.0564 12.0572C76.3303 12.6081 76.4672 13.2513 76.4672 13.9869C76.4672 14.7193 76.3303 15.3595 76.0564 15.9073C75.7825 16.4551 75.3978 16.8814 74.9023 17.1861C74.4068 17.4908 73.8266 17.6431 73.1618 17.6431ZM73.1665 16.4844C73.5973 16.4844 73.9543 16.3705 74.2375 16.1428C74.5206 15.915 74.7299 15.6119 74.8653 15.2333C75.0038 14.8548 75.0731 14.4377 75.0731 13.9822C75.0731 13.5298 75.0038 13.1143 74.8653 12.7358C74.7299 12.3542 74.5206 12.0479 74.2375 11.8171C73.9543 11.5863 73.5973 11.4709 73.1665 11.4709C72.7325 11.4709 72.3724 11.5863 72.0862 11.8171C71.8031 12.0479 71.5922 12.3542 71.4537 12.7358C71.3183 13.1143 71.2506 13.5298 71.2506 13.9822C71.2506 14.4377 71.3183 14.8548 71.4537 15.2333C71.5922 15.6119 71.8031 15.915 72.0862 16.1428C72.3724 16.3705 72.7325 16.4844 73.1665 16.4844ZM80.9949 17.6431C80.3301 17.6431 79.7499 17.4908 79.2544 17.1861C78.7589 16.8814 78.3742 16.4551 78.1003 15.9073C77.8264 15.3595 77.6895 14.7193 77.6895 13.9869C77.6895 13.2513 77.8264 12.6081 78.1003 12.0572C78.3742 11.5063 78.7589 11.0785 79.2544 10.7738C79.7499 10.4691 80.3301 10.3168 80.9949 10.3168C81.6596 10.3168 82.2398 10.4691 82.7353 10.7738C83.2308 11.0785 83.6155 11.5063 83.8894 12.0572C84.1633 12.6081 84.3002 13.2513 84.3002 13.9869C84.3002 14.7193 84.1633 15.3595 83.8894 15.9073C83.6155 16.4551 83.2308 16.8814 82.7353 17.1861C82.2398 17.4908 81.6596 17.6431 80.9949 17.6431ZM80.9995 16.4844C81.4303 16.4844 81.7873 16.3705 82.0705 16.1428C82.3536 15.915 82.5629 15.6119 82.6983 15.2333C82.8368 14.8548 82.9061 14.4377 82.9061 13.9822C82.9061 13.5298 82.8368 13.1143 82.6983 12.7358C82.5629 12.3542 82.3536 12.0479 82.0705 11.8171C81.7873 11.5863 81.4303 11.4709 80.9995 11.4709C80.5655 11.4709 80.2054 11.5863 79.9192 11.8171C79.6361 12.0479 79.4252 12.3542 79.2868 12.7358C79.1513 13.1143 79.0836 13.5298 79.0836 13.9822C79.0836 14.4377 79.1513 14.8548 79.2868 15.2333C79.4252 15.6119 79.6361 15.915 79.9192 16.1428C80.2054 16.3705 80.5655 16.4844 80.9995 16.4844ZM87.2213 8.04545V17.5H85.841V8.04545H87.2213Z" fill="#283B2B"/>
</svg>
