<svg width="106" height="25" viewBox="0 0 106 25" fill="none" xmlns="http://www.w3.org/2000/svg">
<rect y="0.5" width="106" height="24" rx="12" fill="white"/>
<rect x="3" y="2.5" width="20" height="20" rx="10" fill="#1D5525"/>
<path d="M20.1661 14.6668H19.3976C19.3454 14.6668 19.2961 14.6423 19.2646 14.6006L15.7496 9.94343L12.2346 14.6006C12.2031 14.6423 12.1538 14.6668 12.1016 14.6668H5.83278C5.76962 14.6668 5.71162 14.6309 5.68345 14.5743C5.65528 14.5176 5.66162 14.4499 5.69978 14.3994L10.1166 8.56609C10.1481 8.52443 10.1973 8.50009 10.2494 8.50009H15.7494C15.8053 8.49893 15.8476 8.53009 15.8823 8.56609L20.2989 14.3994C20.3831 14.5033 20.2993 14.6709 20.1661 14.6668ZM19.8309 14.3334L15.7494 8.94293L11.6679 14.3334H12.0183L15.6163 9.56626C15.6793 9.48276 15.8194 9.48276 15.8824 9.56626L19.4804 14.3334H19.8309ZM16.7161 13.1668C16.6684 14.7118 14.8308 14.7119 14.7828 13.1668C14.7828 12.5234 15.2164 12.0001 15.7494 12.0001C16.2824 12.0001 16.7161 12.5234 16.7161 13.1668ZM15.9161 12.3664V13.0001H16.3699C16.3223 12.6923 16.1443 12.4489 15.9161 12.3664ZM15.1289 13.0001H15.5828V12.3664C15.3546 12.4489 15.1766 12.6923 15.1289 13.0001ZM15.5828 13.9671V13.3334H15.1289C15.1766 13.6413 15.3546 13.8846 15.5828 13.9671ZM16.3699 13.3334H15.9161V13.9671C16.1443 13.8846 16.3223 13.6413 16.3699 13.3334Z" fill="white"/>
<path d="M35.4371 11.0323C35.3479 10.7522 35.2279 10.5014 35.0771 10.2798C34.9293 10.0552 34.7524 9.86435 34.5462 9.70739C34.34 9.54735 34.1045 9.42578 33.8398 9.34268C33.5782 9.25959 33.2905 9.21804 32.9766 9.21804C32.4441 9.21804 31.964 9.355 31.5362 9.62891C31.1084 9.90282 30.7699 10.3045 30.5206 10.8338C30.2744 11.3601 30.1513 12.0049 30.1513 12.7681C30.1513 13.5344 30.2759 14.1823 30.5252 14.7116C30.7745 15.241 31.1161 15.6426 31.5501 15.9165C31.984 16.1905 32.478 16.3274 33.032 16.3274C33.5459 16.3274 33.9937 16.2228 34.3754 16.0135C34.7601 15.8042 35.0571 15.5088 35.2663 15.1271C35.4787 14.7424 35.5849 14.29 35.5849 13.7699L35.9542 13.8391H33.2489V12.6619H36.9652V13.7376C36.9652 14.5316 36.7959 15.221 36.4574 15.8058C36.1219 16.3874 35.6572 16.8368 35.0632 17.1538C34.4723 17.4708 33.7952 17.6293 33.032 17.6293C32.1764 17.6293 31.4254 17.4323 30.7791 17.0384C30.1359 16.6444 29.6342 16.0858 29.2741 15.3626C28.9141 14.6362 28.734 13.7745 28.734 12.7773C28.734 12.0233 28.8387 11.3462 29.0479 10.7461C29.2572 10.146 29.5511 9.6366 29.9297 9.21804C30.3113 8.7964 30.7591 8.47479 31.2731 8.2532C31.7901 8.02853 32.3549 7.91619 32.9673 7.91619C33.4782 7.91619 33.9537 7.9916 34.3938 8.1424C34.837 8.29321 35.2309 8.5071 35.5756 8.78409C35.9234 9.06108 36.2112 9.39039 36.4389 9.77202C36.6667 10.1506 36.8205 10.5707 36.9006 11.0323H35.4371ZM38.6652 17.5V10.4091H39.9994V11.5355H40.0732C40.2025 11.1539 40.4302 10.8538 40.7565 10.6353C41.0858 10.4137 41.4582 10.3029 41.8737 10.3029C41.9598 10.3029 42.0614 10.306 42.1784 10.3121C42.2984 10.3183 42.3923 10.326 42.46 10.3352V11.6555C42.4046 11.6402 42.3061 11.6232 42.1645 11.6048C42.0229 11.5832 41.8814 11.5724 41.7398 11.5724C41.4136 11.5724 41.1227 11.6417 40.8673 11.7802C40.6149 11.9156 40.4149 12.1049 40.2671 12.348C40.1194 12.5881 40.0455 12.862 40.0455 13.1697V17.5H38.6652ZM45.6546 17.657C45.2052 17.657 44.799 17.5739 44.4358 17.4077C44.0727 17.2384 43.7849 16.9937 43.5725 16.6737C43.3633 16.3536 43.2586 15.9612 43.2586 15.4964C43.2586 15.0964 43.3356 14.767 43.4894 14.5085C43.6433 14.25 43.8511 14.0453 44.1127 13.8945C44.3743 13.7437 44.6666 13.6299 44.9898 13.5529C45.3129 13.476 45.6423 13.4175 45.9777 13.3775C46.4024 13.3282 46.7471 13.2882 47.0118 13.2575C47.2765 13.2236 47.4688 13.1697 47.5889 13.0959C47.7089 13.022 47.7689 12.902 47.7689 12.7358V12.7035C47.7689 12.3003 47.655 11.9879 47.4273 11.7663C47.2026 11.5447 46.8672 11.4339 46.4209 11.4339C45.9562 11.4339 45.5899 11.537 45.3222 11.7433C45.0575 11.9464 44.8744 12.1726 44.7728 12.4219L43.4756 12.1264C43.6295 11.6955 43.8541 11.3478 44.1496 11.0831C44.4481 10.8153 44.7913 10.6214 45.1791 10.5014C45.5669 10.3783 45.9746 10.3168 46.4024 10.3168C46.6856 10.3168 46.9856 10.3506 47.3026 10.4183C47.6227 10.483 47.9213 10.603 48.1982 10.7784C48.4783 10.9538 48.7076 11.2047 48.8861 11.5309C49.0646 11.854 49.1539 12.2741 49.1539 12.7912V17.5H47.8058V16.5305H47.7504C47.6612 16.709 47.5273 16.8845 47.3488 17.0568C47.1703 17.2292 46.941 17.3723 46.661 17.4862C46.3809 17.6 46.0454 17.657 45.6546 17.657ZM45.9546 16.549C46.3363 16.549 46.6625 16.4736 46.9333 16.3228C47.2072 16.172 47.415 15.975 47.5566 15.7319C47.7012 15.4857 47.7735 15.2225 47.7735 14.9425V14.0284C47.7243 14.0777 47.6289 14.1238 47.4873 14.1669C47.3488 14.2069 47.1903 14.2423 47.0118 14.2731C46.8333 14.3008 46.6594 14.3269 46.4901 14.3516C46.3209 14.3731 46.1793 14.3916 46.0654 14.407C45.7977 14.4408 45.553 14.4978 45.3314 14.5778C45.1129 14.6578 44.9375 14.7732 44.8051 14.924C44.6759 15.0717 44.6112 15.2687 44.6112 15.5149C44.6112 15.8565 44.7374 16.1151 44.9898 16.2905C45.2422 16.4628 45.5638 16.549 45.9546 16.549ZM52.3727 13.2898V17.5H50.9924V10.4091H52.3173V11.5632H52.405C52.5681 11.1877 52.8236 10.8861 53.1713 10.6584C53.5222 10.4306 53.9638 10.3168 54.4963 10.3168C54.9795 10.3168 55.4026 10.4183 55.7658 10.6214C56.129 10.8215 56.4106 11.12 56.6106 11.517C56.8107 11.9141 56.9107 12.4049 56.9107 12.9897V17.5H55.5304V13.1559C55.5304 12.6419 55.3965 12.2403 55.1287 11.951C54.861 11.6586 54.4932 11.5124 54.0254 11.5124C53.7053 11.5124 53.4206 11.5817 53.1713 11.7202C52.9251 11.8587 52.7297 12.0618 52.585 12.3295C52.4435 12.5942 52.3727 12.9143 52.3727 13.2898ZM61.4164 17.6385C60.8439 17.6385 60.333 17.4923 59.8837 17.1999C59.4374 16.9045 59.0866 16.4844 58.8311 15.9396C58.5788 15.3918 58.4526 14.7347 58.4526 13.9684C58.4526 13.2021 58.5803 12.5465 58.8358 12.0018C59.0943 11.457 59.4482 11.04 59.8975 10.7507C60.3469 10.4614 60.8562 10.3168 61.4256 10.3168C61.8657 10.3168 62.2196 10.3906 62.4874 10.5384C62.7582 10.683 62.9675 10.8523 63.1152 11.0462C63.266 11.2401 63.383 11.4109 63.4661 11.5586H63.5492V8.04545H64.9295V17.5H63.5815V16.3967H63.4661C63.383 16.5475 63.263 16.7198 63.106 16.9137C62.9521 17.1076 62.7398 17.2769 62.4689 17.4215C62.1981 17.5662 61.8472 17.6385 61.4164 17.6385ZM61.7211 16.4613C62.1181 16.4613 62.4535 16.3567 62.7275 16.1474C63.0044 15.935 63.2137 15.6411 63.3553 15.2656C63.4999 14.8902 63.5723 14.4531 63.5723 13.9545C63.5723 13.4621 63.5015 13.0312 63.3599 12.6619C63.2183 12.2926 63.0106 12.0049 62.7367 11.7987C62.4628 11.5924 62.1242 11.4893 61.7211 11.4893C61.3056 11.4893 60.9593 11.5971 60.6824 11.8125C60.4054 12.0279 60.1961 12.3219 60.0545 12.6942C59.916 13.0666 59.8468 13.4867 59.8468 13.9545C59.8468 14.4285 59.9176 14.8548 60.0591 15.2333C60.2007 15.6119 60.41 15.9119 60.687 16.1335C60.967 16.352 61.3117 16.4613 61.7211 16.4613ZM70.4508 17.5V8.04545H71.8773V16.272H76.1614V17.5H70.4508ZM77.6779 17.5V10.4091H79.0582V17.5H77.6779ZM78.375 9.31499C78.1349 9.31499 77.9287 9.23497 77.7564 9.07493C77.5871 8.91181 77.5025 8.71792 77.5025 8.49325C77.5025 8.26551 77.5871 8.07161 77.7564 7.91158C77.9287 7.74846 78.1349 7.6669 78.375 7.6669C78.6151 7.6669 78.8197 7.74846 78.989 7.91158C79.1613 8.07161 79.2475 8.26551 79.2475 8.49325C79.2475 8.71792 79.1613 8.91181 78.989 9.07493C78.8197 9.23497 78.6151 9.31499 78.375 9.31499ZM82.2955 13.2898V17.5H80.9152V10.4091H82.2401V11.5632H82.3279C82.491 11.1877 82.7464 10.8861 83.0942 10.6584C83.445 10.4306 83.8867 10.3168 84.4191 10.3168C84.9023 10.3168 85.3255 10.4183 85.6887 10.6214C86.0518 10.8215 86.3334 11.12 86.5335 11.517C86.7335 11.9141 86.8335 12.4049 86.8335 12.9897V17.5H85.4532V13.1559C85.4532 12.6419 85.3193 12.2403 85.0516 11.951C84.7838 11.6586 84.416 11.5124 83.9482 11.5124C83.6282 11.5124 83.3435 11.5817 83.0942 11.7202C82.848 11.8587 82.6526 12.0618 82.5079 12.3295C82.3663 12.5942 82.2955 12.9143 82.2955 13.2898ZM91.7409 17.6431C91.0422 17.6431 90.4405 17.4938 89.9358 17.1953C89.4342 16.8937 89.0464 16.4705 88.7725 15.9258C88.5016 15.378 88.3662 14.7363 88.3662 14.0007C88.3662 13.2744 88.5016 12.6342 88.7725 12.0803C89.0464 11.5263 89.428 11.0939 89.9173 10.783C90.4098 10.4722 90.9853 10.3168 91.6439 10.3168C92.044 10.3168 92.4318 10.3829 92.8073 10.5153C93.1827 10.6476 93.5197 10.8554 93.8183 11.1385C94.1168 11.4216 94.3522 11.7894 94.5246 12.2418C94.6969 12.6912 94.7831 13.2375 94.7831 13.8807V14.37H89.1464V13.3359H93.4305C93.4305 12.9728 93.3566 12.6512 93.2089 12.3711C93.0612 12.0879 92.8534 11.8648 92.5857 11.7017C92.321 11.5386 92.0102 11.457 91.6531 11.457C91.2654 11.457 90.9268 11.5524 90.6375 11.7433C90.3513 11.931 90.1297 12.1772 89.9727 12.4819C89.8189 12.7835 89.7419 13.1113 89.7419 13.4652V14.2731C89.7419 14.747 89.825 15.1502 89.9912 15.4826C90.1605 15.815 90.3959 16.0689 90.6975 16.2443C90.9991 16.4167 91.3515 16.5028 91.7547 16.5028C92.0163 16.5028 92.2548 16.4659 92.4703 16.392C92.6857 16.3151 92.8719 16.2012 93.0289 16.0504C93.1858 15.8996 93.3058 15.7134 93.3889 15.4918L94.6954 15.7273C94.5908 16.112 94.403 16.449 94.1322 16.7383C93.8644 17.0245 93.5274 17.2476 93.1212 17.4077C92.718 17.5646 92.2579 17.6431 91.7409 17.6431Z" fill="#283B2B"/>
</svg>
