<svg width="128" height="20" viewBox="0 0 128 20" fill="none" xmlns="http://www.w3.org/2000/svg">
<rect x="0.833984" y="0.5" width="126" height="19" rx="9.5" stroke="#445547"/>
<path d="M12.5293 13.2454V8.16535C12.5293 7.96535 12.5893 7.77035 12.6993 7.60535L14.0643 5.57535C14.2793 5.25035 14.8143 5.02035 15.2693 5.19035C15.7593 5.35535 16.0843 5.90535 15.9793 6.39535L15.7193 8.03035C15.6993 8.18035 15.7393 8.31535 15.8243 8.42035C15.9093 8.51535 16.0343 8.57535 16.1693 8.57535H18.2243C18.6193 8.57535 18.9593 8.73535 19.1593 9.01535C19.3493 9.28535 19.3843 9.63535 19.2593 9.99035L18.0293 13.7354C17.8743 14.3554 17.1993 14.8604 16.5293 14.8604H14.5793C14.2443 14.8604 13.7743 14.7454 13.5593 14.5304L12.9193 14.0354C12.6743 13.8504 12.5293 13.5554 12.5293 13.2454Z" fill="#445547"/>
<path d="M10.939 7.19043H10.424C9.64898 7.19043 9.33398 7.49043 9.33398 8.23043V13.2604C9.33398 14.0004 9.64898 14.3004 10.424 14.3004H10.939C11.714 14.3004 12.029 14.0004 12.029 13.2604V8.23043C12.029 7.49043 11.714 7.19043 10.939 7.19043Z" fill="#445547"/>
<path d="M24.9796 13.5V6.95455H27.4853C27.9583 6.95455 28.3514 7.02912 28.6646 7.17827C28.9799 7.32528 29.2154 7.52663 29.3709 7.78232C29.5286 8.038 29.6074 8.32777 29.6074 8.65163C29.6074 8.91797 29.5563 9.14595 29.454 9.33558C29.3517 9.52308 29.2143 9.67543 29.0417 9.79261C28.8691 9.9098 28.6763 9.99396 28.4632 10.0451V10.109C28.6955 10.1218 28.9181 10.1932 29.1312 10.3232C29.3464 10.451 29.5222 10.6321 29.6586 10.8665C29.7949 11.1009 29.8631 11.3842 29.8631 11.7166C29.8631 12.0554 29.7811 12.3601 29.617 12.6307C29.4529 12.8991 29.2058 13.1112 28.8755 13.2667C28.5453 13.4222 28.1298 13.5 27.6291 13.5H24.9796ZM26.1653 12.5092H27.4405C27.8709 12.5092 28.1809 12.4272 28.3706 12.2631C28.5623 12.0969 28.6582 11.8839 28.6582 11.6239C28.6582 11.43 28.6103 11.2553 28.5144 11.0998C28.4185 10.9421 28.2821 10.8185 28.1053 10.729C27.9284 10.6374 27.7175 10.5916 27.4725 10.5916H26.1653V12.5092ZM26.1653 9.73828H27.3382C27.5428 9.73828 27.7271 9.70099 27.8912 9.62642C28.0552 9.54972 28.1841 9.44212 28.2779 9.30362C28.3738 9.163 28.4217 8.9968 28.4217 8.80504C28.4217 8.55149 28.3322 8.34268 28.1532 8.17862C27.9764 8.01456 27.7132 7.93253 27.3638 7.93253H26.1653V9.73828ZM32.5968 9.4826H34.2588C34.7595 9.4826 35.1888 9.56463 35.5468 9.72869C35.9068 9.89062 36.1828 10.1197 36.3745 10.4158C36.5663 10.712 36.6622 11.0604 36.6622 11.4609C36.6622 11.8636 36.5663 12.2184 36.3745 12.5252C36.1828 12.8299 35.9068 13.0685 35.5468 13.2411C35.1888 13.4137 34.7595 13.5 34.2588 13.5H31.8074V6.95455H32.9963V12.5284H34.2588C34.523 12.5284 34.7467 12.4783 34.9299 12.3782C35.1132 12.2781 35.2517 12.146 35.3454 11.9819C35.4413 11.8178 35.4892 11.6399 35.4892 11.4482C35.4892 11.1712 35.3827 10.9357 35.1696 10.7418C34.9587 10.5458 34.6551 10.4478 34.2588 10.4478H32.5968V9.4826ZM38.4168 6.95455V13.5H37.2279V6.95455H38.4168ZM40.6048 13.5V6.95455H44.8139V7.94851H41.7905V9.4826H43.0529C43.5536 9.4826 43.983 9.56463 44.3409 9.72869C44.701 9.89062 44.9769 10.1197 45.1687 10.4158C45.3605 10.712 45.4563 11.0604 45.4563 11.4609C45.4563 11.8636 45.3605 12.2184 45.1687 12.5252C44.9769 12.8299 44.701 13.0685 44.3409 13.2411C43.983 13.4137 43.5536 13.5 43.0529 13.5H40.6048ZM41.7905 12.5284H43.0529C43.3171 12.5284 43.5409 12.4783 43.7241 12.3782C43.9073 12.2781 44.0458 12.146 44.1396 11.9819C44.2355 11.8178 44.2834 11.6399 44.2834 11.4482C44.2834 11.1712 44.1769 10.9357 43.9638 10.7418C43.7529 10.5458 43.4492 10.4478 43.0529 10.4478H41.7905V12.5284ZM47.3934 6.95455H48.5696V11.4162H48.6303L51.7081 6.95455H52.7724V13.5H51.5866V9.04155H51.5323L48.4449 13.5H47.3934V6.95455ZM54.9643 13.5V6.95455H57.4189C57.9217 6.95455 58.3436 7.0483 58.6845 7.2358C59.0276 7.4233 59.2864 7.68111 59.4612 8.00923C59.638 8.33523 59.7264 8.70597 59.7264 9.12145C59.7264 9.54119 59.638 9.91406 59.4612 10.2401C59.2843 10.5661 59.0233 10.8228 58.6781 11.0103C58.333 11.1957 57.9079 11.2884 57.4029 11.2884H55.7761V10.3136H57.2431C57.5371 10.3136 57.7779 10.2624 57.9654 10.1602C58.1529 10.0579 58.2914 9.91726 58.3809 9.73828C58.4725 9.5593 58.5183 9.35369 58.5183 9.12145C58.5183 8.8892 58.4725 8.68466 58.3809 8.50781C58.2914 8.33097 58.1518 8.19354 57.9622 8.09553C57.7747 7.99538 57.5329 7.94531 57.2367 7.94531H56.1501V13.5H54.9643ZM61.7674 13.5H60.5018L62.8061 6.95455H64.2699L66.5774 13.5H65.3118L63.5636 8.29688H63.5124L61.7674 13.5ZM61.8089 10.9336H65.2607V11.886H61.8089V10.9336ZM69.5253 6.95455V13.5H68.3395V6.95455H69.5253ZM70.9411 9.84695V10.7994H68.8797V9.84695H70.9411ZM76.5853 10.2273C76.5853 10.9325 76.4532 11.5366 76.189 12.0394C75.9269 12.5401 75.5689 12.9237 75.1151 13.19C74.6634 13.4563 74.151 13.5895 73.5778 13.5895C73.0047 13.5895 72.4912 13.4563 72.0373 13.19C71.5856 12.9215 71.2277 12.5369 70.9635 12.0362C70.7014 11.5334 70.5704 10.9304 70.5704 10.2273C70.5704 9.52202 70.7014 8.91903 70.9635 8.41832C71.2277 7.91548 71.5856 7.53089 72.0373 7.26456C72.4912 6.99822 73.0047 6.86506 73.5778 6.86506C74.151 6.86506 74.6634 6.99822 75.1151 7.26456C75.5689 7.53089 75.9269 7.91548 76.189 8.41832C76.4532 8.91903 76.5853 9.52202 76.5853 10.2273ZM75.3932 10.2273C75.3932 9.73082 75.3154 9.31214 75.1599 8.97124C75.0064 8.6282 74.7934 8.36932 74.5207 8.1946C74.2479 8.01776 73.9336 7.92933 73.5778 7.92933C73.222 7.92933 72.9077 8.01776 72.635 8.1946C72.3623 8.36932 72.1481 8.6282 71.9926 8.97124C71.8392 9.31214 71.7625 9.73082 71.7625 10.2273C71.7625 10.7237 71.8392 11.1435 71.9926 11.4865C72.1481 11.8274 72.3623 12.0863 72.635 12.2631C72.9077 12.4379 73.222 12.5252 73.5778 12.5252C73.9336 12.5252 74.2479 12.4379 74.5207 12.2631C74.7934 12.0863 75.0064 11.8274 75.1599 11.4865C75.3154 11.1435 75.3932 10.7237 75.3932 10.2273ZM78.3298 7.94851V6.95455H83.5521V7.94851H81.529V13.5H80.3529V7.94851H78.3298ZM88.7863 6.95455H89.9464V9.08949C89.9464 9.36648 89.9944 9.58594 90.0902 9.74787C90.1882 9.9098 90.3331 10.0259 90.5249 10.0962C90.7167 10.1665 90.9553 10.2017 91.2408 10.2017C91.3686 10.2017 91.5061 10.1974 91.6531 10.1889C91.8022 10.1783 91.9524 10.1644 92.1037 10.1474C92.255 10.1282 92.3999 10.1058 92.5384 10.0803C92.6769 10.0526 92.8005 10.0227 92.9091 9.99077V10.956C92.8005 10.9901 92.679 11.021 92.5448 11.0487C92.4105 11.0763 92.2689 11.0998 92.1197 11.119C91.9706 11.1381 91.8214 11.1531 91.6723 11.1637C91.5231 11.1744 91.3793 11.1797 91.2408 11.1797C90.7401 11.1797 90.3054 11.1083 89.9368 10.9656C89.5703 10.8207 89.287 10.5948 89.0867 10.288C88.8864 9.98118 88.7863 9.58168 88.7863 9.08949V6.95455ZM92.7142 6.95455H93.8807V13.5H92.7142V6.95455ZM97.0643 13.5H95.7987L98.103 6.95455H99.5668L101.874 13.5H100.609L98.8604 8.29688H98.8093L97.0643 13.5ZM97.1058 10.9336H100.558V11.886H97.1058V10.9336ZM112.007 12.5508L111.917 15.0405H110.821V13.5H110.255V12.5508H112.007ZM103.809 6.95455H104.976V12.5156H106.995V6.95455H108.156V12.5156H110.16V6.95455H111.32V13.5H103.809V6.95455ZM113.87 13.5V6.95455H118.128V7.94851H115.056V9.7255H117.907V10.7195H115.056V12.506H118.153V13.5H113.87Z" fill="#445547"/>
</svg>
